<svg width="335" height="70" viewBox="0 0 335 70" fill="none" xmlns="http://www.w3.org/2000/svg">
<path d="M19.7002 3.23805C17.5861 1.42852 15.2797 0.380905 12.685 0.380905H0V30.4761H6.63081V20.8571H12.685C15.3758 20.8571 17.6822 19.9047 19.7002 18C21.8144 16 22.8715 13.619 22.8715 10.6666C22.8715 7.52376 21.9105 5.14281 19.7002 3.23805ZM14.9914 13.8095C14.2226 14.4761 13.2616 14.7619 12.3006 14.7619H6.63081V6.47614H12.3006C13.2616 6.47614 14.1265 6.8571 14.9914 7.42852C15.7602 8.09519 16.2407 9.04757 16.2407 10.5714C16.2407 12.0952 15.8563 13.238 14.9914 13.8095Z" fill="white"/>
<path d="M44.6859 18.9525C47.9533 17.6191 50.0675 14.2858 50.0675 10.381C50.0675 7.52389 49.1065 5.23818 47.0884 3.33342C45.0703 1.33342 42.6679 0.476273 39.7849 0.476273H27.0999V30.4763H33.7307V20.4763H38.1512H38.2473L44.4937 30.4763H51.9894L44.6859 18.9525ZM39.0161 14.5715H33.7307V6.47627H39.5927C41.7069 6.47627 43.3405 8.09532 43.3405 10.4763C43.3405 13.0477 41.6108 14.5715 39.0161 14.5715Z" fill="white"/>
<path d="M81.0112 4.57143C77.9361 1.52381 74.0921 0 69.6716 0C65.251 0 61.4071 1.52381 58.2358 4.57143C55.0646 7.61905 53.527 11.2381 53.527 15.619C53.527 20 55.0646 23.619 58.2358 26.6667C61.4071 29.619 65.251 31.1429 69.6716 31.1429C74.1882 31.1429 78.0322 29.619 81.1073 26.6667C84.2786 23.619 85.8162 20 85.8162 15.619C85.8162 11.1429 84.2786 7.52381 81.0112 4.57143ZM76.3024 22.2857C74.4765 24.0952 72.2663 25.0476 69.6716 25.0476C66.9808 25.0476 64.7706 24.0952 62.9447 22.381C61.1188 20.5714 60.2539 18.2857 60.2539 15.5238C60.2539 12.8571 61.2149 10.6667 62.9447 8.85714C64.7706 7.04762 66.9808 6 69.6716 6C72.3623 6 74.5726 6.95238 76.3985 8.85714C78.2244 10.6667 79.0893 12.9524 79.0893 15.5238C79.0893 18.1905 78.2244 20.4762 76.3024 22.2857Z" fill="white"/>
<path d="M108.207 21.0476C109.841 23.7143 112.339 25.0476 115.799 25.0476C118.874 25.0476 120.316 23.7143 120.316 22.0952C120.316 20.9524 119.643 20.1905 118.682 19.619C118.105 19.2381 116.856 18.6667 116.087 18.4762C115.318 18.1905 113.589 17.619 112.724 17.2381C108.015 15.5238 105.42 13.0476 105.42 8.47619C105.42 5.90476 106.381 3.80952 108.303 2.38095C110.321 0.857143 112.628 0 115.511 0C119.931 0 123.198 1.61905 125.601 4.95238L121.084 8.28572C119.835 6.76191 118.105 5.90476 115.607 5.90476C113.396 5.90476 111.955 6.95238 111.955 8.38095C111.955 9.33333 112.243 10 113.108 10.5714C113.589 10.8571 114.069 11.0476 114.453 11.2381L116.568 12C117.529 12.381 118.394 12.6667 119.162 12.9524C124.64 15.0476 126.85 17.5238 126.85 21.8095C126.85 27.3333 123.006 30.9524 115.607 30.9524C109.456 30.9524 105.228 28.2857 103.21 24.2857L108.207 21.0476Z" fill="white"/>
<path d="M131.079 30.4763V0.476273H137.709V24.4763H184.702V30.4763H131.079Z" fill="#00A9CF"/>
<path d="M190.852 0.476273H197.579V30.4763H190.852V0.476273Z" fill="white"/>
<path d="M226.985 4.66675C224.198 1.80961 220.258 0.476273 215.165 0.476273H203.729V30.4763H215.261C220.45 30.4763 224.294 29.1429 227.081 26.381C229.868 23.7144 231.213 20.0001 231.213 15.5239C231.117 11.0477 229.676 7.42865 226.985 4.66675ZM214.684 24.4763H210.264V6.47627H214.588C218.144 6.47627 220.739 7.23818 222.084 8.85723C223.526 10.4763 224.294 12.6667 224.294 15.5239C224.39 21.0477 221.796 24.4763 214.684 24.4763Z" fill="white"/>
<path d="M235.634 30.4763V0.476273H256.295V6.47627H242.361V12.1906H255.334V18.0953H242.361V24.4763H256.583V30.4763H235.634Z" fill="white"/>
<path d="M264.079 21.0476C265.713 23.7143 268.211 25.0476 271.671 25.0476C274.746 25.0476 276.188 23.7143 276.188 22.0952C276.188 20.9524 275.515 20.1905 274.554 19.619C273.977 19.2381 272.728 18.6667 271.959 18.4762C271.191 18.1905 269.461 17.619 268.596 17.2381C263.887 15.5238 261.292 13.0476 261.292 8.47619C261.292 5.90476 262.253 3.80952 264.175 2.38095C266.193 0.857143 268.5 0 271.383 0C275.803 0 279.071 1.61905 281.473 4.95238L277.053 8.28572C275.803 6.76191 274.073 5.90476 271.575 5.90476C269.365 5.90476 267.923 6.95238 267.923 8.38095C267.923 9.33333 268.211 10 269.076 10.5714C269.557 10.8571 270.037 11.0476 270.422 11.2381L272.536 12C273.497 12.381 274.362 12.6667 275.131 12.9524C280.608 15.0476 282.818 17.5238 282.818 21.8095C282.818 27.3333 278.975 30.9524 271.575 30.9524C265.425 30.9524 261.196 28.2857 259.178 24.2857L264.079 21.0476Z" fill="white"/>
<path d="M245.532 52.5716C244.955 52.0954 244.379 51.9049 243.898 51.8097C243.418 51.7144 242.745 51.7144 242.072 51.8097C241.688 51.9049 241.4 51.9049 241.015 52.0954C240.727 52.1906 240.343 52.2858 240.054 52.3811C239.19 52.762 238.421 53.143 237.556 53.5239C236.787 54.0001 235.922 54.2858 235.153 54.762C234.673 55.0477 234.192 55.2382 233.712 55.5239C233.231 55.8097 232.751 56.0001 232.27 56.2858C231.982 56.3811 231.79 56.5716 231.694 56.5716C231.309 56.6668 231.117 56.2858 231.309 55.4287C231.598 54.0001 232.174 52.5716 232.943 51.143C233.712 49.7144 234.673 48.2858 235.73 46.8573C236.787 45.4287 237.94 44.1906 239.19 42.9525C240.439 41.8097 241.592 40.762 242.745 40.0001C242.937 39.8097 243.13 39.7144 243.322 39.5239C243.514 39.4287 243.706 39.3335 243.898 39.2382C244.187 39.2382 244.283 39.2382 244.475 39.3335C244.667 39.3335 244.763 39.2382 244.859 39.143C244.955 38.9525 244.955 38.762 244.859 38.5716C244.379 38.0954 243.706 37.8097 243.226 38.0001C242.937 38.0954 242.649 38.1906 242.265 38.3811C241.88 38.5716 241.496 38.8573 241.111 39.0478C240.727 39.3335 240.343 39.6192 240.054 39.8097C239.766 40.0954 239.478 40.2859 239.286 40.4763C237.268 42.2858 235.442 44.1906 233.904 46.2858C232.367 48.3811 231.021 50.6668 230.06 53.2382C229.772 54.0001 229.58 54.762 229.484 55.5239C229.387 56.2858 229.58 56.8573 229.868 57.3335C230.252 57.8097 230.829 57.9049 231.502 57.9049C231.79 57.8097 232.078 57.8097 232.463 57.8097C232.751 57.7144 233.039 57.6192 233.424 57.5239C233.808 57.2382 234.288 57.0477 234.769 56.762C235.153 56.4763 235.73 56.2858 236.21 56.0001C237.171 55.5239 238.132 55.0477 239.093 54.5716C240.054 54.0954 241.111 53.6192 242.072 53.2382C242.361 53.143 242.553 53.0477 242.745 52.9525C242.937 52.8573 243.13 52.8573 243.322 52.8573C243.61 52.762 243.898 52.762 244.091 52.8573C244.283 52.9525 244.379 53.143 244.475 53.4287C244.475 53.5239 244.475 53.6192 244.475 53.7144C244.475 53.8097 244.475 53.9049 244.475 54.0001C244.475 55.0478 244.187 56.3811 243.706 57.7144C243.13 59.143 242.457 60.5716 241.688 62.0001C240.919 63.4287 240.054 64.6668 238.997 65.9049C238.036 67.0477 237.075 68.0001 236.114 68.5716C235.826 68.762 235.634 68.8573 235.442 68.8573C235.153 68.9525 234.961 68.6668 234.865 68.0954C234.769 67.5239 234.865 66.762 235.057 66.1906C235.249 65.5239 235.442 64.8573 235.826 64.2858C236.21 63.7144 236.595 63.143 236.979 62.5716C237.364 62.0001 237.844 61.5239 238.229 61.143C238.517 60.8573 238.901 60.6668 239.286 60.5716C239.574 60.5716 239.766 60.4763 239.862 60.5716C240.054 60.5716 240.151 60.5716 240.247 60.5716C240.343 60.5716 240.535 60.5716 240.631 60.5716C240.727 60.5716 240.823 60.4763 240.823 60.4763C240.823 60.3811 240.823 60.2858 240.727 60.1906C240.439 59.9049 239.958 59.7144 239.574 59.6192C239.19 59.5239 238.613 59.5239 238.229 59.6192C237.556 59.7144 236.979 60.0954 236.307 60.5716C235.73 61.143 235.153 61.7144 234.673 62.4763C234.288 63.143 233.808 63.9049 233.52 64.762C233.231 65.6192 233.039 66.2858 232.943 66.9525C232.847 68.2858 233.327 69.143 234.385 69.6192C234.961 69.9049 235.538 69.9049 236.114 69.8096C237.268 69.5239 238.229 68.9525 239.286 67.9049C240.343 66.8573 241.304 65.7144 242.169 64.3811C243.033 63.0477 243.802 61.7144 244.379 60.2858C245.052 58.8573 245.532 57.7144 245.82 56.762C245.916 56.2858 246.109 55.8097 246.109 55.4287C246.205 54.9525 246.205 54.4763 246.205 54.0954C246.205 53.4287 246.013 52.8573 245.532 52.5716Z" fill="#00A9CF"/>
<path d="M334.904 38.5715C334.808 38.4763 334.519 38.4763 333.943 38.4763C333.366 38.5715 333.078 38.8572 332.886 39.3334C332.79 39.5239 332.79 39.6191 332.694 39.8096C332.597 40.0001 332.597 40.0953 332.501 40.2858C332.117 41.4287 331.733 42.4763 331.252 43.6191C330.868 44.762 330.483 45.8096 330.003 46.9525C329.618 47.8096 329.234 48.762 328.85 49.6191C328.465 50.4763 328.081 51.3334 327.6 52.1906C327.504 52.4763 327.312 52.6668 327.216 52.9525C327.024 53.2382 326.832 53.4287 326.639 53.6191C326.447 53.3334 326.255 53.1429 326.255 52.8572C326.159 52.5715 326.063 52.2858 325.967 52.0953C325.486 50.2858 325.198 48.381 325.102 46.381C325.006 43.4287 324.813 40.4763 324.813 37.5239C324.717 34.5715 324.813 31.6191 325.006 28.6668C325.102 26.8572 325.198 25.0477 325.294 23.2382C325.39 21.4287 325.582 19.5239 325.774 17.7144C325.871 17.4287 325.871 17.2382 325.871 17.0477C325.871 16.762 325.967 16.5715 325.967 16.381C325.967 16.0953 325.871 15.9049 325.582 15.8096C325.39 15.7144 325.198 15.7144 325.102 15.6191C325.006 15.6191 324.813 15.5239 324.621 15.6191C324.333 15.7144 324.237 15.9049 324.237 16.0953C323.852 19.3334 323.564 22.381 323.372 25.5239C323.18 28.6668 323.084 31.8096 322.988 34.9525C322.988 36.9525 322.988 38.9525 322.988 40.9525C322.891 40.9525 322.795 41.0477 322.699 41.143C322.507 41.2382 322.315 41.4287 322.123 41.6191C321.93 41.8096 321.642 42.0953 321.258 42.4763C320.873 42.9525 320.489 43.2382 320.009 43.6191C319.624 44.0001 319.144 44.381 318.759 44.6668C318.375 44.9525 317.99 45.143 317.798 45.2382C317.606 45.3334 317.51 45.143 317.51 44.762C317.702 43.9049 317.894 43.0477 317.894 42.1906C317.99 41.3334 317.99 40.4763 317.894 39.6191C317.798 38.5715 317.51 37.7144 317.126 36.9525C316.741 36.1906 316.068 35.5239 315.396 34.9525C314.723 34.381 313.954 34.0001 312.993 33.8096C312.032 33.6191 311.167 33.6191 310.11 33.8096C308.957 34.0001 307.996 34.4763 307.035 35.143C306.17 35.8096 305.401 36.762 304.921 37.8096C304.633 38.381 304.344 39.0477 304.152 39.8096C303.96 40.5715 303.864 41.2382 303.864 42.0001C303.864 42.762 303.96 43.4287 304.152 44.0001C304.248 44.2858 304.441 44.5715 304.537 44.8572C304.344 45.0477 304.056 45.3334 303.672 45.7144C303.287 46.1906 302.903 46.4763 302.422 46.8572C301.942 47.2382 301.558 47.6191 301.173 47.9049C300.789 48.1906 300.404 48.381 300.212 48.4763C300.02 48.5715 299.924 48.381 299.924 48.0001C300.116 47.143 300.308 46.2858 300.308 45.4287C300.308 44.5715 300.404 43.7144 300.308 42.8572C300.212 41.8096 299.924 40.9525 299.539 40.1906C299.155 39.4287 298.482 38.762 297.81 38.1906C297.137 37.6191 296.368 37.2382 295.407 37.0477C294.446 36.8572 293.581 36.8572 292.524 37.0477C291.371 37.3334 290.41 37.8096 289.449 38.4763C288.584 39.143 287.815 40.0953 287.335 41.143C287.047 41.7144 286.758 42.381 286.566 43.143C286.374 43.9049 286.278 44.5715 286.278 45.3334C286.278 46.0953 286.374 46.762 286.566 47.3334C286.758 47.8096 286.951 48.1906 287.143 48.4763C286.951 48.762 286.758 49.0477 286.662 49.4287C286.566 49.7144 286.374 50.0001 286.278 50.381C285.893 51.3334 285.317 52.2858 284.932 53.2382C284.452 54.1906 283.971 55.0477 283.491 56.0001C283.395 56.2858 283.203 56.5715 282.914 56.9525C282.626 57.4287 282.338 57.8096 281.953 58.2858C281.569 58.762 281.281 59.2382 280.896 59.6191C280.512 60.0001 280.224 60.1906 280.031 60.1906C279.935 60.1906 279.743 60.0953 279.647 59.9049C279.263 59.3334 278.974 58.762 278.782 58.0953C278.59 57.5239 278.398 56.762 278.302 56.1906C278.206 55.3334 278.013 54.4763 278.013 53.6191C277.917 52.762 277.917 51.9049 277.725 50.9525C277.725 50.5715 277.629 50.1906 277.629 49.8096C277.629 49.4287 277.533 49.0477 277.437 48.762C277.341 48.1906 277.052 47.8096 276.668 47.6191C276.284 47.4287 275.707 47.3334 275.227 47.5239C274.746 47.6191 274.266 47.8096 273.977 48.0953C273.208 48.8572 272.536 49.7144 271.959 50.6668C271.383 51.6191 270.902 52.6668 270.518 53.6191C270.422 53.8096 270.325 54.0001 270.229 54.1906C270.133 54.381 270.037 54.5715 269.845 54.762C269.749 54.6668 269.749 54.6668 269.749 54.6668L269.653 54.5715C269.557 53.8096 269.557 53.2382 269.557 52.6668C269.557 52.0953 269.557 51.6191 269.653 51.2382C269.749 50.762 269.941 50.2858 270.133 49.9049C270.325 49.5239 270.71 48.9525 271.094 48.381C271.479 47.6191 272.055 46.6668 272.536 45.6191C273.112 44.5715 273.689 43.4287 274.266 42.2858C274.842 41.0477 275.419 39.8096 275.995 38.5715C276.572 37.3334 277.052 36.0001 277.437 34.762C277.917 33.4287 278.206 32.2858 278.494 31.143C278.782 30.0001 278.878 28.9525 278.782 28.0953C278.686 26.6668 278.109 25.8096 276.956 25.4287C276.476 25.2382 275.995 25.2382 275.515 25.3334C274.938 25.4287 274.362 25.8096 273.785 26.4763C273.208 27.143 272.824 27.8096 272.344 28.5715C271.959 29.3334 271.575 30.1906 271.19 30.9525C270.902 31.7144 270.614 32.381 270.422 32.9525C269.461 35.8096 268.788 38.5715 268.307 41.3334C267.731 44.1906 267.443 46.9525 267.346 49.8096C267.25 50.2858 267.25 50.762 267.154 51.2382V51.3334C266.866 51.4287 266.674 51.5239 266.482 51.8096C265.905 52.4763 265.328 53.1429 264.848 53.9049C264.271 54.6668 263.695 55.3334 263.214 56.0953C262.83 56.6668 262.157 57.5239 261.292 58.5715C260.427 59.6191 259.466 60.762 258.505 61.8096C257.544 62.9525 256.487 63.8096 255.622 64.6668C254.661 65.5239 253.796 66.0001 253.22 66.0953C252.836 66.1906 252.643 66.0953 252.451 65.8096C252.259 65.5239 252.163 65.2382 252.067 64.9525C251.875 64.5715 251.778 64.1906 251.682 63.7144C251.586 63.2382 251.49 62.8572 251.49 62.381C251.394 61.0477 251.394 59.6191 251.586 58.0953C251.778 56.5715 252.067 55.0477 252.547 53.6191C252.932 52.1906 253.508 50.762 254.277 49.4287C255.046 48.0953 255.911 46.9525 256.968 46.0001C257.256 45.7144 257.544 45.5239 257.833 45.3334C258.121 45.143 258.409 45.0477 258.794 44.9525C258.89 44.9525 259.082 44.9525 259.178 45.0477C259.274 45.143 259.37 45.143 259.274 45.3334C259.178 45.7144 259.274 45.9049 259.37 46.0953C259.562 46.1906 259.755 46.381 259.947 46.4763C260.043 46.4763 260.235 46.5715 260.235 46.5715C260.235 46.5715 260.427 46.5715 260.523 46.5715C260.716 46.4763 260.812 46.4763 260.908 46.381C261.004 46.1906 261.1 46.0953 261.1 45.9049C261.1 45.7144 261.004 45.5239 261.004 45.4287C260.908 45.143 260.716 44.8572 260.427 44.6668C260.139 44.4763 259.851 44.2858 259.466 44.1906C259.082 44.0953 258.794 44.0001 258.409 43.9049C258.121 43.8096 257.737 43.8096 257.448 43.9049C256.872 44.0001 256.199 44.381 255.622 44.762C255.046 45.143 254.565 45.7144 254.085 46.381C253.604 47.0477 253.124 47.7144 252.836 48.381C252.451 49.0477 252.163 49.6191 251.875 50.1906C250.914 52.2858 250.241 54.381 249.953 56.381C249.664 58.381 249.568 60.5715 249.664 62.8572C249.76 63.6191 249.953 64.4763 250.241 65.2382C250.529 66.0953 251.106 66.6668 251.682 67.0477C252.451 67.3334 253.124 67.4287 253.989 67.3334C254.661 67.1429 255.43 66.8572 256.199 66.2858C256.968 65.8096 257.737 65.1429 258.505 64.4763C259.274 63.8096 259.947 63.0477 260.62 62.2858C261.196 61.5239 261.773 60.8572 262.253 60.2858C263.214 59.0477 264.175 57.9049 265.136 56.6668C265.905 55.7144 266.578 54.8572 267.346 53.9049C267.443 54.0953 267.443 54.2858 267.443 54.4763C267.443 54.5715 267.443 54.6668 267.443 54.762C267.443 54.8572 267.443 54.9525 267.443 55.0477C267.539 55.6191 267.539 56.2858 267.635 56.8572C267.731 57.4287 267.731 58.0953 267.827 58.6668C267.923 59.4287 268.211 59.8096 268.884 59.8096C268.98 59.8096 269.172 59.8096 269.364 59.7144C269.845 59.6191 270.229 59.2382 270.518 58.6668C270.614 58.2858 270.806 58.0001 270.902 57.7144C270.998 57.4287 271.19 57.1429 271.286 56.762C271.671 55.6191 272.247 54.2858 272.728 53.0477C273.305 51.8096 273.977 50.6668 274.842 49.7144C274.938 49.6191 275.034 49.5239 275.13 49.5239C275.323 49.5239 275.419 49.6191 275.419 49.8096C275.515 50.1906 275.515 50.5715 275.611 50.9525C275.707 51.3334 275.707 51.7144 275.803 52.1906C275.899 52.762 275.899 53.4287 275.995 54.0001C275.995 54.5715 276.091 55.2382 276.187 55.8096C276.284 57.0477 276.572 58.1906 276.956 59.3334C277.245 60.0953 277.533 60.6668 278.109 61.1429C278.59 61.6191 279.359 61.8096 280.224 61.6191C280.704 61.5239 281.185 61.3334 281.569 61.0477C281.953 60.762 282.434 60.4763 282.818 60.0001C283.203 59.5239 283.587 59.1429 283.875 58.6668C284.164 58.1906 284.452 57.7144 284.74 57.3334C285.605 56.0001 286.374 54.5715 287.047 53.1429C287.335 52.5715 287.527 52.0953 287.815 51.6191C287.815 52.0953 287.815 52.5715 287.912 53.1429C288.008 54.0953 288.296 54.9525 288.68 55.6191C289.065 56.381 289.641 56.9525 290.314 57.4287C291.275 58.0953 292.332 58.2858 293.293 58.0953C294.062 58.0001 294.735 57.6191 295.311 57.1429C295.888 56.6668 296.464 56.0953 296.945 55.4287C297.425 54.762 297.81 54.0001 298.194 53.2382C298.578 52.4763 298.867 51.8096 299.155 51.0477C299.251 50.6668 299.539 50.4763 299.828 50.381C301.173 49.8096 302.326 49.0477 303.48 48.1906C304.152 47.7144 304.825 47.143 305.401 46.5715C305.401 46.762 305.401 46.9525 305.401 47.2382C305.305 48.0001 305.305 48.8572 305.401 49.7144C305.498 50.6668 305.786 51.5239 306.17 52.1906C306.555 52.8572 307.131 53.5239 307.804 54.0001C308.765 54.6668 309.822 54.8572 310.783 54.6668C311.552 54.5715 312.225 54.1906 312.801 53.7144C313.378 53.2382 313.954 52.6668 314.435 52.0001C314.915 51.3334 315.3 50.5715 315.684 49.8096C316.068 49.0477 316.357 48.381 316.645 47.6191C316.741 47.2382 317.029 47.0477 317.318 46.9525C318.663 46.381 319.816 45.6191 320.969 44.762C321.642 44.2858 322.315 43.7144 322.891 43.143C322.891 44.8572 322.988 46.4763 323.18 48.0953C323.276 49.5239 323.468 51.0477 323.852 52.4763C323.949 53.2382 324.237 53.9049 324.621 54.4763C324.717 54.8572 325.006 55.0477 325.294 55.143C325.582 55.2382 325.967 55.2382 326.255 55.143C326.832 55.0477 327.408 54.6668 327.889 54.2858C328.273 53.8096 328.657 53.3334 329.042 52.8572C329.618 51.9049 330.099 50.9525 330.483 50.0001C330.868 48.9525 331.348 48.0001 331.733 46.9525C332.117 45.7144 332.694 44.5715 333.078 43.3334C333.462 42.0953 334.039 40.9525 334.519 39.7144C335 38.9525 335 38.6668 334.904 38.5715ZM270.229 43.4287C270.325 42.2858 270.614 41.0477 270.806 39.7144C270.998 38.381 271.383 37.0477 271.767 35.6191C272.151 34.1906 272.536 32.9525 273.016 31.7144C273.497 30.4763 273.977 29.3334 274.554 28.4763C275.13 27.5239 275.707 26.8572 276.284 26.2858C276.38 26.1906 276.38 26.1906 276.572 26.1906C276.668 26.0953 276.86 26.1906 276.956 26.381C277.052 26.6668 277.148 26.8572 277.148 27.143C277.245 27.4287 277.245 27.7144 277.245 28.1906C277.148 29.3334 276.86 30.762 276.38 32.381C275.899 34.0001 275.227 35.6191 274.554 37.3334C273.881 38.9525 273.112 40.6668 272.344 42.1906C271.575 43.7144 270.902 45.0477 270.229 46.0953C270.133 46.1906 270.133 46.2858 269.941 46.1906C269.845 46.0953 269.845 46.0953 269.845 46.0001C270.037 45.3334 270.133 44.381 270.229 43.4287ZM296.657 52.8572C296.368 53.4287 296.08 54.0001 295.696 54.6668C295.311 55.2382 294.927 55.8096 294.446 56.2858C294.062 56.762 293.581 57.0477 293.197 57.0477C293.005 57.143 292.813 57.0477 292.62 56.9525C292.428 56.8572 292.236 56.6668 292.044 56.4763C291.852 56.2858 291.659 56.0001 291.467 55.9049C291.371 55.7144 291.179 55.5239 291.083 55.4287C290.314 54.0953 289.93 52.762 290.122 51.2382C290.122 51.0477 290.218 50.9525 290.314 50.9525C290.41 50.9525 290.506 50.8572 290.602 50.8572C290.698 50.9525 290.795 50.9525 290.891 50.9525C292.716 51.6191 294.735 51.8096 296.849 51.4287C296.945 51.4287 297.041 51.4287 297.137 51.4287C297.233 51.4287 297.233 51.4287 297.425 51.4287C297.137 51.8096 296.945 52.2858 296.657 52.8572ZM298.771 45.143C298.675 45.8096 298.675 46.4763 298.482 47.143C298.386 47.8096 298.194 48.4763 298.098 48.9525C297.906 49.5239 297.714 49.8096 297.329 49.9049C296.849 50.1906 296.272 50.381 295.599 50.4763C294.735 50.6668 293.87 50.762 293.005 50.5715C292.14 50.4763 291.371 50.1906 290.602 49.8096C290.314 49.6191 290.314 49.3334 290.314 49.0477C290.602 47.9049 290.987 46.762 291.563 45.7144C291.659 45.6191 291.659 45.5239 291.755 45.4287C291.852 45.3334 291.852 45.143 291.948 45.0477C292.044 44.9525 292.044 44.8572 292.14 44.762C292.236 44.6668 292.236 44.6668 292.332 44.4763C292.428 44.381 292.428 44.2858 292.428 44.1906C292.428 44.0953 292.332 44.0001 292.236 43.9049C291.852 43.6191 291.467 43.5239 291.179 43.6191C290.987 43.7144 290.794 43.7144 290.602 44.0001C290.41 44.2858 290.218 44.4763 290.026 44.762C289.834 45.0477 289.641 45.3334 289.545 45.5239C289.449 45.8096 289.257 46.0001 289.257 46.1906C289.161 46.4763 289.065 46.6668 288.969 46.6668C288.873 46.762 288.68 46.8572 288.584 46.8572C288.488 46.8572 288.488 46.762 288.488 46.6668C288.2 45.7144 288.2 44.8572 288.392 43.8096C288.776 42.381 289.353 41.143 290.41 40.0001C291.371 38.8572 292.524 38.1906 294.062 37.9049C295.311 37.6191 296.464 38.0953 297.425 39.2382C297.906 39.8096 298.29 40.5715 298.482 41.3334C298.675 42.0953 298.771 42.8572 298.771 43.7144C298.867 44.0001 298.867 44.4763 298.771 45.143ZM314.146 49.5239C313.858 50.0953 313.57 50.6668 313.185 51.3334C312.801 51.9049 312.417 52.4763 311.936 52.9525C311.552 53.4287 311.071 53.7144 310.687 53.7144C310.495 53.8096 310.303 53.7144 310.11 53.6191C309.918 53.5239 309.726 53.3334 309.534 53.1429C309.342 52.9525 309.149 52.6668 308.957 52.5715C308.861 52.381 308.669 52.1906 308.573 52.0953C307.804 50.762 307.42 49.4287 307.612 47.9049C307.612 47.7144 307.708 47.6191 307.804 47.6191C307.9 47.6191 307.996 47.5239 308.092 47.5239C308.188 47.6191 308.284 47.6191 308.381 47.6191C310.206 48.2858 312.225 48.4763 314.339 48.0953C314.435 48.0953 314.531 48.0953 314.627 48.0953C314.723 48.0953 314.723 48.0953 314.915 48.0953C314.627 48.381 314.435 48.8572 314.146 49.5239ZM316.261 41.7144C316.165 42.381 316.165 43.0477 315.972 43.7144C315.876 44.381 315.684 45.0477 315.588 45.5239C315.492 46.0001 315.204 46.381 314.819 46.4763C314.339 46.762 313.762 46.9525 313.089 47.0477C312.225 47.2382 311.36 47.3334 310.495 47.143C309.63 46.9525 308.861 46.762 308.092 46.381C307.804 46.1906 307.804 45.9049 307.804 45.6191C308.092 44.4763 308.477 43.3334 309.053 42.2858C309.149 42.1906 309.149 42.0953 309.245 42.0001C309.342 41.9049 309.342 41.7144 309.438 41.6191C309.534 41.5239 309.534 41.4287 309.63 41.3334C309.726 41.2382 309.726 41.2382 309.822 41.0477C309.918 40.9525 309.918 40.8572 309.918 40.762C309.918 40.6668 309.822 40.5715 309.726 40.4763C309.342 40.1906 308.957 40.0953 308.669 40.1906C308.477 40.2858 308.284 40.381 308.092 40.5715C307.9 40.8572 307.708 41.0477 307.516 41.3334C307.323 41.6191 307.131 41.9049 307.035 42.0953C306.939 42.381 306.747 42.5715 306.747 42.762C306.651 43.0477 306.555 43.2382 306.459 43.2382C306.362 43.3334 306.17 43.4287 306.074 43.4287C305.978 43.4287 305.978 43.3334 305.978 43.2382C305.69 42.2858 305.69 41.4287 305.882 40.381C306.266 38.9525 306.843 37.7144 307.9 36.5715C308.861 35.4287 310.014 34.762 311.552 34.4763C312.801 34.1906 313.954 34.6668 314.915 35.8096C315.396 36.381 315.78 37.143 315.972 37.9049C316.165 38.6668 316.261 39.4287 316.261 40.2858C316.357 40.6668 316.357 41.143 316.261 41.7144Z" fill="#00A9CF"/>
</svg>
