<svg width="404" height="438" viewBox="0 0 404 438" fill="none" xmlns="http://www.w3.org/2000/svg">
<path d="M361 88C366.523 88 371 92.4771 371 98V265C371 270.523 366.523 275 361 275H226.914C224.555 275.589 221.718 276.782 219.5 279C215 283.5 215 286.5 215 289.5V322C215 323.5 210 330 204.5 325.5C199 321 158 281 156 279C154.547 277.547 152.303 275.831 146.201 275H100C94.4771 275 90 270.523 90 265V98C90 92.4772 94.4771 88 100 88H361Z" fill="white"/>
<path d="M372 78C377.523 78 382 82.4771 382 88V255C382 260.523 377.523 265 372 265H237.914C235.555 265.589 232.718 266.782 230.5 269C226 273.5 226 276.5 226 279.5V312C226 313.5 221 320 215.5 315.5C210 311 169 271 167 269C165.547 267.547 163.303 265.831 157.201 265H111C105.477 265 101 260.523 101 255V88C101 82.4772 105.477 78 111 78H372Z" stroke="#F07281" stroke-width="3"/>
<circle cx="191.5" cy="49.5" r="13.5" stroke="#F07281" stroke-width="5"/>
<circle cx="265.5" cy="32.5" r="13.5" stroke="#F07281" stroke-width="5"/>
<path fill-rule="evenodd" clip-rule="evenodd" d="M205.5 362.281C201.513 362.281 198.281 365.513 198.281 369.5C198.281 373.487 201.513 376.719 205.5 376.719C209.487 376.719 212.719 373.487 212.719 369.5C212.719 365.513 209.487 362.281 205.5 362.281ZM195 369.5C195 363.701 199.701 359 205.5 359C211.299 359 216 363.701 216 369.5C216 375.299 211.299 380 205.5 380C199.701 380 195 375.299 195 369.5Z" fill="#F07281"/>
<path fill-rule="evenodd" clip-rule="evenodd" d="M66 287.375C60.6843 287.375 56.375 291.684 56.375 297C56.375 302.316 60.6843 306.625 66 306.625C71.3157 306.625 75.625 302.316 75.625 297C75.625 291.684 71.3157 287.375 66 287.375ZM52 297C52 289.268 58.268 283 66 283C73.732 283 80 289.268 80 297C80 304.732 73.732 311 66 311C58.268 311 52 304.732 52 297Z" fill="#F5F5F5"/>
<path fill-rule="evenodd" clip-rule="evenodd" d="M96 362.75C91.4437 362.75 87.75 366.444 87.75 371C87.75 375.556 91.4437 379.25 96 379.25C100.556 379.25 104.25 375.556 104.25 371C104.25 366.444 100.556 362.75 96 362.75ZM84 371C84 364.373 89.3726 359 96 359C102.627 359 108 364.373 108 371C108 377.627 102.627 383 96 383C89.3726 383 84 377.627 84 371Z" fill="#F5F5F5"/>
<path fill-rule="evenodd" clip-rule="evenodd" d="M270 424.5C266.962 424.5 264.5 426.962 264.5 430C264.5 433.038 266.962 435.5 270 435.5C273.038 435.5 275.5 433.038 275.5 430C275.5 426.962 273.038 424.5 270 424.5ZM262 430C262 425.582 265.582 422 270 422C274.418 422 278 425.582 278 430C278 434.418 274.418 438 270 438C265.582 438 262 434.418 262 430Z" fill="#F5F5F5"/>
<path fill-rule="evenodd" clip-rule="evenodd" d="M393.5 5.28125C389.513 5.28125 386.281 8.51319 386.281 12.5C386.281 16.4868 389.513 19.7188 393.5 19.7188C397.487 19.7188 400.719 16.4868 400.719 12.5C400.719 8.51319 397.487 5.28125 393.5 5.28125ZM383 12.5C383 6.70101 387.701 2 393.5 2C399.299 2 404 6.70101 404 12.5C404 18.299 399.299 23 393.5 23C387.701 23 383 18.299 383 12.5Z" fill="#F5F5F5"/>
<path fill-rule="evenodd" clip-rule="evenodd" d="M75.2276 21.045C76.0505 20.9493 76.7951 21.5388 76.8908 22.3617L77.8149 30.3081L84.768 29.4995C85.5909 29.4039 86.3355 29.9934 86.4312 30.8162C86.5269 31.6391 85.9374 32.3838 85.1145 32.4795L78.1614 33.288L79.0855 41.2345C79.1812 42.0574 78.5917 42.802 77.7688 42.8977C76.9459 42.9934 76.2012 42.4039 76.1056 41.581L75.1815 33.6346L67.7317 34.5009C66.9088 34.5966 66.1641 34.0071 66.0685 33.1842C65.9728 32.3613 66.5623 31.6167 67.3852 31.521L74.8349 30.6546L73.9109 22.7082C73.8152 21.8853 74.4047 21.1407 75.2276 21.045Z" fill="white"/>
<path fill-rule="evenodd" clip-rule="evenodd" d="M44.5 68.2812C40.5132 68.2812 37.2812 71.5132 37.2812 75.5C37.2812 79.4868 40.5132 82.7188 44.5 82.7188C48.4868 82.7188 51.7188 79.4868 51.7188 75.5C51.7188 71.5132 48.4868 68.2812 44.5 68.2812ZM34 75.5C34 69.701 38.701 65 44.5 65C50.299 65 55 69.701 55 75.5C55 81.299 50.299 86 44.5 86C38.701 86 34 81.299 34 75.5Z" fill="#F5F5F5"/>
<path fill-rule="evenodd" clip-rule="evenodd" d="M28.5 187.344C25.6523 187.344 23.3438 189.652 23.3438 192.5C23.3438 195.348 25.6523 197.656 28.5 197.656C31.3477 197.656 33.6562 195.348 33.6562 192.5C33.6562 189.652 31.3477 187.344 28.5 187.344ZM21 192.5C21 188.358 24.3579 185 28.5 185C32.6421 185 36 188.358 36 192.5C36 196.642 32.6421 200 28.5 200C24.3579 200 21 196.642 21 192.5Z" fill="#F5F5F5"/>
<path fill-rule="evenodd" clip-rule="evenodd" d="M313.025 21.0251C313.469 20.5814 314.188 20.5814 314.632 21.0251L319.05 25.4436L323.469 21.0251C323.913 20.5814 324.632 20.5814 325.076 21.0251C325.519 21.4688 325.519 22.1881 325.076 22.6318L320.657 27.0503L325.076 31.4688C325.519 31.9124 325.519 32.6318 325.076 33.0755C324.632 33.5192 323.913 33.5192 323.469 33.0755L319.05 28.657L314.632 33.0755C314.188 33.5192 313.469 33.5192 313.025 33.0755C312.582 32.6318 312.582 31.9124 313.025 31.4688L317.444 27.0503L313.025 22.6318C312.582 22.1881 312.582 21.4688 313.025 21.0251Z" fill="black"/>
<path fill-rule="evenodd" clip-rule="evenodd" d="M156.148 0.633204C156.876 0.679832 157.428 1.30751 157.381 2.03515L156.917 9.28153L164.163 9.74588C164.891 9.79251 165.443 10.4202 165.396 11.1478C165.35 11.8755 164.722 12.4276 163.994 12.3809L156.748 11.9166L156.284 19.163C156.237 19.8906 155.609 20.4427 154.882 20.396C154.154 20.3494 153.602 19.7217 153.649 18.9941L154.113 11.7477L146.866 11.2834C146.139 11.2367 145.587 10.6091 145.633 9.88142C145.68 9.15378 146.308 8.6017 147.035 8.64833L154.282 9.11268L154.746 1.8663C154.793 1.13865 155.42 0.586576 156.148 0.633204Z" fill="black"/>
<path fill-rule="evenodd" clip-rule="evenodd" d="M43.8968 133.346C44.552 133.026 45.3425 133.298 45.6626 133.953L48.8498 140.477L55.3742 137.29C56.0293 136.97 56.8199 137.242 57.1399 137.897C57.46 138.552 57.1883 139.342 56.5332 139.662L50.0088 142.85L53.196 149.374C53.5161 150.029 53.2444 150.82 52.5893 151.14C51.9342 151.46 51.1436 151.188 50.8236 150.533L47.6363 144.009L41.112 147.196C40.4568 147.516 39.6663 147.244 39.3462 146.589C39.0262 145.934 39.2978 145.144 39.953 144.823L46.4773 141.636L43.2901 135.112C42.97 134.457 43.2417 133.666 43.8968 133.346Z" fill="black"/>
<path fill-rule="evenodd" clip-rule="evenodd" d="M13.2955 261.168C14.2745 260.787 15.3767 261.272 15.7573 262.251L19.5472 272.001L29.2972 268.212C30.2763 267.831 31.3785 268.316 31.7591 269.295C32.1396 270.274 31.6545 271.376 30.6754 271.757L20.9254 275.547L24.7154 285.297C25.0959 286.276 24.6108 287.378 23.6317 287.759C22.6527 288.139 21.5505 287.654 21.1699 286.675L17.3799 276.925L7.62994 280.715C6.65089 281.096 5.5487 280.61 5.16813 279.631C4.78756 278.652 5.27272 277.55 6.25177 277.17L16.0018 273.38L12.2118 263.63C11.8312 262.651 12.3164 261.548 13.2955 261.168Z" fill="black"/>
<path fill-rule="evenodd" clip-rule="evenodd" d="M105.295 319.168C106.275 318.787 107.377 319.272 107.757 320.251L111.547 330.001L121.297 326.212C122.276 325.831 123.378 326.316 123.759 327.295C124.14 328.274 123.654 329.376 122.675 329.757L112.925 333.547L116.715 343.297C117.096 344.276 116.611 345.378 115.632 345.759C114.653 346.139 113.55 345.654 113.17 344.675L109.38 334.925L99.6299 338.715C98.6509 339.096 97.5487 338.61 97.1681 337.631C96.7876 336.652 97.2727 335.55 98.2518 335.17L108.002 331.38L104.212 321.63C103.831 320.651 104.316 319.548 105.295 319.168Z" fill="black"/>
<path fill-rule="evenodd" clip-rule="evenodd" d="M251.272 375.356C251.791 374.811 252.653 374.79 253.198 375.309L258.624 380.472L263.787 375.046C264.306 374.502 265.168 374.48 265.713 374.999C266.258 375.517 266.279 376.379 265.76 376.924L260.597 382.35L266.023 387.514C266.567 388.032 266.589 388.894 266.07 389.439C265.552 389.984 264.69 390.005 264.145 389.487L258.719 384.323L253.555 389.749C253.037 390.294 252.175 390.315 251.63 389.797C251.085 389.278 251.064 388.416 251.582 387.871L256.746 382.445L251.32 377.282C250.775 376.763 250.754 375.901 251.272 375.356Z" fill="black"/>
<path fill-rule="evenodd" clip-rule="evenodd" d="M302.62 371.783C302.886 371.43 303.388 371.361 303.74 371.628L307.247 374.282L309.902 370.775C310.168 370.422 310.67 370.353 311.022 370.62C311.374 370.886 311.444 371.388 311.177 371.74L308.523 375.247L312.03 377.902C312.382 378.168 312.452 378.67 312.185 379.022C311.919 379.374 311.417 379.444 311.065 379.177L307.558 376.523L304.903 380.03C304.637 380.382 304.135 380.452 303.783 380.185C303.431 379.919 303.361 379.417 303.628 379.065L306.282 375.557L302.775 372.903C302.423 372.636 302.353 372.135 302.62 371.783Z" fill="black"/>
<path d="M126.534 133H122.254L124.454 119H137.154L134.934 133H130.654L132.294 122.7H128.174L126.534 133Z" fill="black"/>
<path d="M141.418 131.86L140.598 137H136.378L138.598 122.68H142.838L142.658 123.84C142.831 123.493 143.191 123.173 143.738 122.88C144.285 122.573 144.891 122.42 145.558 122.42C146.718 122.42 147.671 122.873 148.418 123.78C149.165 124.687 149.538 125.813 149.538 127.16C149.538 128.147 149.345 129.1 148.958 130.02C148.571 130.94 147.971 131.707 147.158 132.32C146.331 132.947 145.371 133.26 144.278 133.26C143.611 133.26 143.005 133.113 142.458 132.82C141.925 132.527 141.578 132.207 141.418 131.86ZM142.078 126.76L141.758 128.9C142.105 129.473 142.651 129.76 143.398 129.76C143.931 129.76 144.371 129.553 144.718 129.14C145.065 128.713 145.238 128.187 145.238 127.56C145.238 127.04 145.098 126.64 144.818 126.36C144.551 126.067 144.198 125.92 143.758 125.92C143.118 125.92 142.558 126.2 142.078 126.76Z" fill="black"/>
<path d="M161.101 126.8C161.101 127.28 161.015 127.927 160.841 128.74H154.401C154.468 129.127 154.728 129.427 155.181 129.64C155.648 129.853 156.208 129.96 156.861 129.96C158.035 129.96 159.161 129.693 160.241 129.16L159.761 132.26C158.855 132.927 157.508 133.26 155.721 133.26C154.215 133.26 152.948 132.807 151.921 131.9C150.908 131.007 150.401 129.807 150.401 128.3C150.401 126.58 150.961 125.173 152.081 124.08C153.228 122.973 154.628 122.42 156.281 122.42C157.681 122.42 158.835 122.813 159.741 123.6C160.648 124.387 161.101 125.453 161.101 126.8ZM154.501 126.74H157.301V126.62C157.301 126.193 157.195 125.86 156.981 125.62C156.781 125.367 156.501 125.24 156.141 125.24C155.755 125.24 155.415 125.373 155.121 125.64C154.828 125.893 154.621 126.26 154.501 126.74Z" fill="black"/>
<path d="M165.723 133H161.763L163.383 122.68H167.323L166.643 127.06L170.363 122.68H174.323L172.703 133H168.763L169.443 128.64L165.723 133Z" fill="black"/>
<path d="M178.414 133H174.654L176.274 122.68H180.234L181.894 125.9L184.554 122.68H188.534L186.914 133H183.134L183.894 128.1L182.034 130.36H180.374L179.194 128.08L178.414 133Z" fill="black"/>
<path d="M190.493 137.12C189.413 137.12 188.613 136.96 188.093 136.64L188.673 133.02C189.113 133.38 189.666 133.56 190.333 133.56C190.773 133.56 191.119 133.493 191.373 133.36C191.626 133.24 191.846 133.007 192.033 132.66L189.393 122.68H193.773L194.653 128.52L197.233 122.68H201.613L195.453 134C194.333 136.08 192.679 137.12 190.493 137.12Z" fill="black"/>
<path d="M217.621 135.22H213.841L214.181 133H201.001L202.641 122.68H206.681L205.561 129.7H207.201L208.321 122.68H212.361L211.241 129.7H212.961L214.081 122.68H218.121L217.001 129.7H218.481L217.621 135.22Z" fill="black"/>
<path d="M230.105 126.8C230.105 127.28 230.018 127.927 229.845 128.74H223.405C223.472 129.127 223.732 129.427 224.185 129.64C224.652 129.853 225.212 129.96 225.865 129.96C227.038 129.96 228.165 129.693 229.245 129.16L228.765 132.26C227.858 132.927 226.512 133.26 224.725 133.26C223.218 133.26 221.952 132.807 220.925 131.9C219.912 131.007 219.405 129.807 219.405 128.3C219.405 126.58 219.965 125.173 221.085 124.08C222.232 122.973 223.632 122.42 225.285 122.42C226.685 122.42 227.838 122.813 228.745 123.6C229.652 124.387 230.105 125.453 230.105 126.8ZM223.505 126.74H226.305V126.62C226.305 126.193 226.198 125.86 225.985 125.62C225.785 125.367 225.505 125.24 225.145 125.24C224.758 125.24 224.418 125.373 224.125 125.64C223.832 125.893 223.625 126.26 223.505 126.74Z" fill="black"/>
<path d="M236.607 133.26C235.047 133.26 233.72 132.813 232.627 131.92C231.534 131.027 230.987 129.773 230.987 128.16C230.987 126.533 231.587 125.173 232.787 124.08C234.014 122.973 235.527 122.42 237.327 122.42C238.554 122.42 239.66 122.673 240.647 123.18L240.087 126.56C238.807 125.96 237.66 125.813 236.647 126.12C235.647 126.427 235.147 127.04 235.147 127.96C235.147 128.427 235.3 128.8 235.607 129.08C236.087 129.493 236.76 129.7 237.627 129.7C238.374 129.7 239.094 129.567 239.787 129.3L239.227 132.78C238.4 133.1 237.527 133.26 236.607 133.26Z" fill="black"/>
<path d="M247.303 133H243.083L244.183 125.98H241.423L241.943 122.68H251.723L251.203 125.98H248.403L247.303 133Z" fill="black"/>
<path d="M260.929 127.7C261.956 128.087 262.469 128.793 262.469 129.82C262.469 130.86 262.063 131.653 261.249 132.2C260.449 132.733 259.336 133 257.909 133H251.509L253.129 122.68H259.429C260.403 122.68 261.156 122.92 261.689 123.4C262.236 123.88 262.509 124.48 262.509 125.2C262.509 125.787 262.349 126.307 262.029 126.76C261.723 127.213 261.356 127.527 260.929 127.7ZM257.729 125.22H256.769L256.529 126.78H257.489C257.809 126.78 258.069 126.693 258.269 126.52C258.469 126.347 258.569 126.12 258.569 125.84C258.569 125.427 258.289 125.22 257.729 125.22ZM256.229 128.68L255.949 130.38H257.189C257.976 130.38 258.369 130.033 258.369 129.34C258.369 128.9 258.063 128.68 257.449 128.68H256.229Z" fill="black"/>
<path d="M274.28 129.92C274.44 129.92 274.62 129.887 274.82 129.82L274.34 132.68C273.793 133.067 273.08 133.26 272.2 133.26C270.906 133.26 270.073 132.853 269.7 132.04C269.433 132.387 269.04 132.68 268.52 132.92C268 133.147 267.433 133.26 266.82 133.26C265.726 133.26 264.866 132.967 264.24 132.38C263.613 131.793 263.3 131.033 263.3 130.1C263.3 128.98 263.686 128.12 264.46 127.52C265.233 126.907 266.226 126.6 267.44 126.6C268.413 126.6 269.266 126.787 270 127.16C270.026 126.973 270.04 126.847 270.04 126.78C270.04 125.98 269.313 125.58 267.86 125.58C266.833 125.58 265.92 125.76 265.12 126.12L265.64 122.98C266.72 122.607 267.886 122.42 269.14 122.42C270.58 122.42 271.786 122.733 272.76 123.36C273.733 123.973 274.22 124.967 274.22 126.34C274.22 126.673 274.16 127.147 274.04 127.76L273.86 128.76C273.806 129.067 273.78 129.313 273.78 129.5C273.78 129.78 273.946 129.92 274.28 129.92ZM269.74 130.08L269.88 129.06C269.613 128.793 269.206 128.66 268.66 128.66C268.26 128.66 267.933 128.753 267.68 128.94C267.44 129.127 267.32 129.393 267.32 129.74C267.32 130.007 267.42 130.233 267.62 130.42C267.82 130.593 268.086 130.68 268.42 130.68C268.98 130.68 269.42 130.48 269.74 130.08Z" fill="black"/>
<path d="M284.727 133H280.767L282.387 122.68H286.327L285.647 127.06L289.367 122.68H293.327L291.707 133H287.767L288.447 128.64L284.727 133Z" fill="black"/>
<path d="M297.418 133H293.658L295.278 122.68H299.238L300.898 125.9L303.558 122.68H307.538L305.918 133H302.138L302.898 128.1L301.038 130.36H299.378L298.198 128.08L297.418 133Z" fill="black"/>
<path d="M318.796 126.8C318.796 127.28 318.71 127.927 318.536 128.74H312.096C312.163 129.127 312.423 129.427 312.876 129.64C313.343 129.853 313.903 129.96 314.556 129.96C315.73 129.96 316.856 129.693 317.936 129.16L317.456 132.26C316.55 132.927 315.203 133.26 313.416 133.26C311.91 133.26 310.643 132.807 309.616 131.9C308.603 131.007 308.096 129.807 308.096 128.3C308.096 126.58 308.656 125.173 309.776 124.08C310.923 122.973 312.323 122.42 313.976 122.42C315.376 122.42 316.53 122.813 317.436 123.6C318.343 124.387 318.796 125.453 318.796 126.8ZM312.196 126.74H314.996V126.62C314.996 126.193 314.89 125.86 314.676 125.62C314.476 125.367 314.196 125.24 313.836 125.24C313.45 125.24 313.11 125.373 312.816 125.64C312.523 125.893 312.316 126.26 312.196 126.74Z" fill="black"/>
<path d="M330.379 126.8C330.379 127.28 330.292 127.927 330.119 128.74H323.679C323.745 129.127 324.005 129.427 324.459 129.64C324.925 129.853 325.485 129.96 326.139 129.96C327.312 129.96 328.439 129.693 329.519 129.16L329.039 132.26C328.132 132.927 326.785 133.26 324.999 133.26C323.492 133.26 322.225 132.807 321.199 131.9C320.185 131.007 319.679 129.807 319.679 128.3C319.679 126.58 320.239 125.173 321.359 124.08C322.505 122.973 323.905 122.42 325.559 122.42C326.959 122.42 328.112 122.813 329.019 123.6C329.925 124.387 330.379 125.453 330.379 126.8ZM323.779 126.74H326.579V126.62C326.579 126.193 326.472 125.86 326.259 125.62C326.059 125.367 325.779 125.24 325.419 125.24C325.032 125.24 324.692 125.373 324.399 125.64C324.105 125.893 323.899 126.26 323.779 126.74Z" fill="black"/>
<path d="M337.205 133H332.985L334.085 125.98H331.325L331.845 122.68H341.625L341.105 125.98H338.305L337.205 133Z" fill="black"/>
<path d="M124.901 159H120.681L121.781 151.98H119.021L119.541 148.68H129.321L128.801 151.98H126.001L124.901 159Z" fill="black"/>
<path d="M139.612 155.92C139.772 155.92 139.952 155.887 140.152 155.82L139.672 158.68C139.125 159.067 138.412 159.26 137.532 159.26C136.238 159.26 135.405 158.853 135.032 158.04C134.765 158.387 134.372 158.68 133.852 158.92C133.332 159.147 132.765 159.26 132.152 159.26C131.058 159.26 130.198 158.967 129.572 158.38C128.945 157.793 128.632 157.033 128.632 156.1C128.632 154.98 129.018 154.12 129.792 153.52C130.565 152.907 131.558 152.6 132.772 152.6C133.745 152.6 134.598 152.787 135.332 153.16C135.358 152.973 135.372 152.847 135.372 152.78C135.372 151.98 134.645 151.58 133.192 151.58C132.165 151.58 131.252 151.76 130.452 152.12L130.972 148.98C132.052 148.607 133.218 148.42 134.472 148.42C135.912 148.42 137.118 148.733 138.092 149.36C139.065 149.973 139.552 150.967 139.552 152.34C139.552 152.673 139.492 153.147 139.372 153.76L139.192 154.76C139.138 155.067 139.112 155.313 139.112 155.5C139.112 155.78 139.278 155.92 139.612 155.92ZM135.072 156.08L135.212 155.06C134.945 154.793 134.538 154.66 133.992 154.66C133.592 154.66 133.265 154.753 133.012 154.94C132.772 155.127 132.652 155.393 132.652 155.74C132.652 156.007 132.752 156.233 132.952 156.42C133.152 156.593 133.418 156.68 133.752 156.68C134.312 156.68 134.752 156.48 135.072 156.08Z" fill="black"/>
<path d="M150.299 159H146.099L147.699 148.68H151.919L151.379 152.24L154.299 148.68H159.459L154.959 153.64L158.519 159H153.599L150.939 154.82L150.299 159Z" fill="black"/>
<path d="M169.787 155.92C169.947 155.92 170.127 155.887 170.327 155.82L169.847 158.68C169.301 159.067 168.587 159.26 167.707 159.26C166.414 159.26 165.581 158.853 165.207 158.04C164.941 158.387 164.547 158.68 164.027 158.92C163.507 159.147 162.941 159.26 162.327 159.26C161.234 159.26 160.374 158.967 159.747 158.38C159.121 157.793 158.807 157.033 158.807 156.1C158.807 154.98 159.194 154.12 159.967 153.52C160.741 152.907 161.734 152.6 162.947 152.6C163.921 152.6 164.774 152.787 165.507 153.16C165.534 152.973 165.547 152.847 165.547 152.78C165.547 151.98 164.821 151.58 163.367 151.58C162.341 151.58 161.427 151.76 160.627 152.12L161.147 148.98C162.227 148.607 163.394 148.42 164.647 148.42C166.087 148.42 167.294 148.733 168.267 149.36C169.241 149.973 169.727 150.967 169.727 152.34C169.727 152.673 169.667 153.147 169.547 153.76L169.367 154.76C169.314 155.067 169.287 155.313 169.287 155.5C169.287 155.78 169.454 155.92 169.787 155.92ZM165.247 156.08L165.387 155.06C165.121 154.793 164.714 154.66 164.167 154.66C163.767 154.66 163.441 154.753 163.187 154.94C162.947 155.127 162.827 155.393 162.827 155.74C162.827 156.007 162.927 156.233 163.127 156.42C163.327 156.593 163.594 156.68 163.927 156.68C164.487 156.68 164.927 156.48 165.247 156.08Z" fill="black"/>
<path d="M175.074 159H171.314L172.934 148.68H176.894L178.554 151.9L181.214 148.68H185.194L183.574 159H179.794L180.554 154.1L178.694 156.36H177.034L175.854 154.08L175.074 159Z" fill="black"/>
<path d="M189.733 159H185.533L187.153 148.68H197.773L196.153 159H191.933L193.033 151.98H190.833L189.733 159Z" fill="black"/>
<path d="M208.811 155.92C208.971 155.92 209.151 155.887 209.351 155.82L208.871 158.68C208.324 159.067 207.611 159.26 206.731 159.26C205.438 159.26 204.604 158.853 204.231 158.04C203.964 158.387 203.571 158.68 203.051 158.92C202.531 159.147 201.964 159.26 201.351 159.26C200.258 159.26 199.398 158.967 198.771 158.38C198.144 157.793 197.831 157.033 197.831 156.1C197.831 154.98 198.218 154.12 198.991 153.52C199.764 152.907 200.758 152.6 201.971 152.6C202.944 152.6 203.798 152.787 204.531 153.16C204.558 152.973 204.571 152.847 204.571 152.78C204.571 151.98 203.844 151.58 202.391 151.58C201.364 151.58 200.451 151.76 199.651 152.12L200.171 148.98C201.251 148.607 202.418 148.42 203.671 148.42C205.111 148.42 206.318 148.733 207.291 149.36C208.264 149.973 208.751 150.967 208.751 152.34C208.751 152.673 208.691 153.147 208.571 153.76L208.391 154.76C208.338 155.067 208.311 155.313 208.311 155.5C208.311 155.78 208.478 155.92 208.811 155.92ZM204.271 156.08L204.411 155.06C204.144 154.793 203.738 154.66 203.191 154.66C202.791 154.66 202.464 154.753 202.211 154.94C201.971 155.127 201.851 155.393 201.851 155.74C201.851 156.007 201.951 156.233 202.151 156.42C202.351 156.593 202.618 156.68 202.951 156.68C203.511 156.68 203.951 156.48 204.271 156.08Z" fill="black"/>
<path d="M214.537 159H210.337L211.957 148.68H216.157L215.617 152.08H217.897L218.437 148.68H222.657L221.037 159H216.817L217.377 155.36H215.097L214.537 159Z" fill="black"/>
<path d="M226.954 159H222.994L224.614 148.68H228.554L227.874 153.06L231.594 148.68H235.554L233.934 159H229.994L230.674 154.64L226.954 159Z" fill="black"/>
<path d="M241.784 148.68H247.544L245.904 159H241.704L242.184 155.96H241.804L239.524 159H234.904L237.984 155.2C237.171 154.627 236.764 153.793 236.764 152.7C236.764 151.42 237.238 150.427 238.184 149.72C239.131 149.027 240.331 148.68 241.784 148.68ZM241.684 153.34H242.604L242.844 151.78H241.984C241.211 151.78 240.824 152.06 240.824 152.62C240.824 152.82 240.904 152.993 241.064 153.14C241.224 153.273 241.431 153.34 241.684 153.34Z" fill="black"/>
<path d="M246.096 162.04L249.016 155.02H253.376L249.476 162.04H246.096Z" fill="black"/>
<path d="M263.561 159H259.361L260.961 148.68H265.181L264.641 152.24L267.561 148.68H272.721L268.221 153.64L271.781 159H266.861L264.201 154.82L263.561 159Z" fill="black"/>
<path d="M277.669 148.42C279.296 148.42 280.656 148.907 281.749 149.88C282.856 150.84 283.409 152.093 283.409 153.64C283.409 155.147 282.836 156.46 281.689 157.58C280.556 158.7 279.143 159.26 277.449 159.26C275.823 159.26 274.463 158.78 273.369 157.82C272.276 156.847 271.729 155.573 271.729 154C271.729 152.493 272.296 151.193 273.429 150.1C274.563 148.98 275.976 148.42 277.669 148.42ZM277.429 155.7C277.963 155.7 278.409 155.5 278.769 155.1C279.143 154.687 279.329 154.173 279.329 153.56C279.329 153.067 279.176 152.68 278.869 152.4C278.563 152.12 278.169 151.98 277.689 151.98C277.156 151.98 276.709 152.18 276.349 152.58C275.989 152.98 275.809 153.487 275.809 154.1C275.809 154.593 275.963 154.987 276.269 155.28C276.576 155.56 276.963 155.7 277.429 155.7Z" fill="black"/>
<path d="M290.057 159H285.837L286.937 151.98H284.177L284.697 148.68H294.477L293.957 151.98H291.157L290.057 159Z" fill="black"/>
<path d="M300.423 148.42C302.05 148.42 303.41 148.907 304.503 149.88C305.61 150.84 306.163 152.093 306.163 153.64C306.163 155.147 305.59 156.46 304.443 157.58C303.31 158.7 301.897 159.26 300.203 159.26C298.577 159.26 297.217 158.78 296.123 157.82C295.03 156.847 294.483 155.573 294.483 154C294.483 152.493 295.05 151.193 296.183 150.1C297.317 148.98 298.73 148.42 300.423 148.42ZM300.183 155.7C300.717 155.7 301.163 155.5 301.523 155.1C301.897 154.687 302.083 154.173 302.083 153.56C302.083 153.067 301.93 152.68 301.623 152.4C301.317 152.12 300.923 151.98 300.443 151.98C299.91 151.98 299.463 152.18 299.103 152.58C298.743 152.98 298.563 153.487 298.563 154.1C298.563 154.593 298.717 154.987 299.023 155.28C299.33 155.56 299.717 155.7 300.183 155.7Z" fill="black"/>
<path d="M311.242 157.86L310.422 163H306.202L308.422 148.68H312.662L312.482 149.84C312.656 149.493 313.016 149.173 313.562 148.88C314.109 148.573 314.716 148.42 315.382 148.42C316.542 148.42 317.496 148.873 318.242 149.78C318.989 150.687 319.362 151.813 319.362 153.16C319.362 154.147 319.169 155.1 318.782 156.02C318.396 156.94 317.796 157.707 316.982 158.32C316.156 158.947 315.196 159.26 314.102 159.26C313.436 159.26 312.829 159.113 312.282 158.82C311.749 158.527 311.402 158.207 311.242 157.86ZM311.902 152.76L311.582 154.9C311.929 155.473 312.476 155.76 313.222 155.76C313.756 155.76 314.196 155.553 314.542 155.14C314.889 154.713 315.062 154.187 315.062 153.56C315.062 153.04 314.922 152.64 314.642 152.36C314.376 152.067 314.022 151.92 313.582 151.92C312.942 151.92 312.382 152.2 311.902 152.76Z" fill="black"/>
<path d="M330.901 155.92C331.061 155.92 331.241 155.887 331.441 155.82L330.961 158.68C330.414 159.067 329.701 159.26 328.821 159.26C327.527 159.26 326.694 158.853 326.321 158.04C326.054 158.387 325.661 158.68 325.141 158.92C324.621 159.147 324.054 159.26 323.441 159.26C322.347 159.26 321.487 158.967 320.861 158.38C320.234 157.793 319.921 157.033 319.921 156.1C319.921 154.98 320.307 154.12 321.081 153.52C321.854 152.907 322.847 152.6 324.061 152.6C325.034 152.6 325.887 152.787 326.621 153.16C326.647 152.973 326.661 152.847 326.661 152.78C326.661 151.98 325.934 151.58 324.481 151.58C323.454 151.58 322.541 151.76 321.741 152.12L322.261 148.98C323.341 148.607 324.507 148.42 325.761 148.42C327.201 148.42 328.407 148.733 329.381 149.36C330.354 149.973 330.841 150.967 330.841 152.34C330.841 152.673 330.781 153.147 330.661 153.76L330.481 154.76C330.427 155.067 330.401 155.313 330.401 155.5C330.401 155.78 330.567 155.92 330.901 155.92ZM326.361 156.08L326.501 155.06C326.234 154.793 325.827 154.66 325.281 154.66C324.881 154.66 324.554 154.753 324.301 154.94C324.061 155.127 323.941 155.393 323.941 155.74C323.941 156.007 324.041 156.233 324.241 156.42C324.441 156.593 324.707 156.68 325.041 156.68C325.601 156.68 326.041 156.48 326.361 156.08Z" fill="black"/>
<path d="M338.327 148.68H344.087L342.447 159H338.247L338.727 155.96H338.347L336.067 159H331.447L334.527 155.2C333.714 154.627 333.307 153.793 333.307 152.7C333.307 151.42 333.781 150.427 334.727 149.72C335.674 149.027 336.874 148.68 338.327 148.68ZM338.227 153.34H339.147L339.387 151.78H338.527C337.754 151.78 337.367 152.06 337.367 152.62C337.367 152.82 337.447 152.993 337.607 153.14C337.767 153.273 337.974 153.34 338.227 153.34Z" fill="black"/>
<path d="M135.368 185H131.168L132.788 174.68H143.408L141.788 185H137.568L138.668 177.98H136.468L135.368 185Z" fill="black"/>
<path d="M149.906 174.42C151.532 174.42 152.892 174.907 153.986 175.88C155.092 176.84 155.646 178.093 155.646 179.64C155.646 181.147 155.072 182.46 153.926 183.58C152.792 184.7 151.379 185.26 149.686 185.26C148.059 185.26 146.699 184.78 145.606 183.82C144.512 182.847 143.966 181.573 143.966 180C143.966 178.493 144.532 177.193 145.666 176.1C146.799 174.98 148.212 174.42 149.906 174.42ZM149.666 181.7C150.199 181.7 150.646 181.5 151.006 181.1C151.379 180.687 151.566 180.173 151.566 179.56C151.566 179.067 151.412 178.68 151.106 178.4C150.799 178.12 150.406 177.98 149.926 177.98C149.392 177.98 148.946 178.18 148.586 178.58C148.226 178.98 148.046 179.487 148.046 180.1C148.046 180.593 148.199 180.987 148.506 181.28C148.812 181.56 149.199 181.7 149.666 181.7Z" fill="black"/>
<path d="M160.485 185H156.285L157.905 174.68H162.105L161.565 178.08H163.845L164.385 174.68H168.605L166.985 185H162.765L163.325 181.36H161.045L160.485 185Z" fill="black"/>
<path d="M172.901 185H168.941L170.561 174.68H174.501L173.821 179.06L177.541 174.68H181.501L179.881 185H175.941L176.621 180.64L172.901 185Z" fill="black"/>
<path d="M185.592 185H181.832L183.452 174.68H187.412L189.072 177.9L191.732 174.68H195.712L194.092 185H190.312L191.072 180.1L189.212 182.36H187.552L186.372 180.08L185.592 185Z" fill="black"/>
<path d="M206.75 181.92C206.91 181.92 207.09 181.887 207.29 181.82L206.81 184.68C206.264 185.067 205.55 185.26 204.67 185.26C203.377 185.26 202.544 184.853 202.17 184.04C201.904 184.387 201.51 184.68 200.99 184.92C200.47 185.147 199.904 185.26 199.29 185.26C198.197 185.26 197.337 184.967 196.71 184.38C196.084 183.793 195.77 183.033 195.77 182.1C195.77 180.98 196.157 180.12 196.93 179.52C197.704 178.907 198.697 178.6 199.91 178.6C200.884 178.6 201.737 178.787 202.47 179.16C202.497 178.973 202.51 178.847 202.51 178.78C202.51 177.98 201.784 177.58 200.33 177.58C199.304 177.58 198.39 177.76 197.59 178.12L198.11 174.98C199.19 174.607 200.357 174.42 201.61 174.42C203.05 174.42 204.257 174.733 205.23 175.36C206.204 175.973 206.69 176.967 206.69 178.34C206.69 178.673 206.63 179.147 206.51 179.76L206.33 180.76C206.277 181.067 206.25 181.313 206.25 181.5C206.25 181.78 206.417 181.92 206.75 181.92ZM202.21 182.08L202.35 181.06C202.084 180.793 201.677 180.66 201.13 180.66C200.73 180.66 200.404 180.753 200.15 180.94C199.91 181.127 199.79 181.393 199.79 181.74C199.79 182.007 199.89 182.233 200.09 182.42C200.29 182.593 200.557 182.68 200.89 182.68C201.45 182.68 201.89 182.48 202.21 182.08Z" fill="black"/>
<path d="M219.002 178.8C219.002 179.28 218.915 179.927 218.742 180.74H212.302C212.368 181.127 212.628 181.427 213.082 181.64C213.548 181.853 214.108 181.96 214.762 181.96C215.935 181.96 217.062 181.693 218.142 181.16L217.662 184.26C216.755 184.927 215.408 185.26 213.622 185.26C212.115 185.26 210.848 184.807 209.822 183.9C208.808 183.007 208.302 181.807 208.302 180.3C208.302 178.58 208.862 177.173 209.982 176.08C211.128 174.973 212.528 174.42 214.182 174.42C215.582 174.42 216.735 174.813 217.642 175.6C218.548 176.387 219.002 177.453 219.002 178.8ZM212.402 178.74H215.202V178.62C215.202 178.193 215.095 177.86 214.882 177.62C214.682 177.367 214.402 177.24 214.042 177.24C213.655 177.24 213.315 177.373 213.022 177.64C212.728 177.893 212.522 178.26 212.402 178.74Z" fill="black"/>
<path d="M225.828 185H221.608L222.708 177.98H219.948L220.468 174.68H230.248L229.728 177.98H226.928L225.828 185Z" fill="black"/>
<path d="M238.59 185H234.39L236.01 174.68H240.21L239.67 178.08H241.95L242.49 174.68H246.71L245.09 185H240.87L241.43 181.36H239.15L238.59 185Z" fill="black"/>
<path d="M257.746 181.92C257.906 181.92 258.086 181.887 258.286 181.82L257.806 184.68C257.26 185.067 256.546 185.26 255.666 185.26C254.373 185.26 253.54 184.853 253.166 184.04C252.9 184.387 252.506 184.68 251.986 184.92C251.466 185.147 250.9 185.26 250.286 185.26C249.193 185.26 248.333 184.967 247.706 184.38C247.08 183.793 246.766 183.033 246.766 182.1C246.766 180.98 247.153 180.12 247.926 179.52C248.7 178.907 249.693 178.6 250.906 178.6C251.88 178.6 252.733 178.787 253.466 179.16C253.493 178.973 253.506 178.847 253.506 178.78C253.506 177.98 252.78 177.58 251.326 177.58C250.3 177.58 249.386 177.76 248.586 178.12L249.106 174.98C250.186 174.607 251.353 174.42 252.606 174.42C254.046 174.42 255.253 174.733 256.226 175.36C257.2 175.973 257.686 176.967 257.686 178.34C257.686 178.673 257.626 179.147 257.506 179.76L257.326 180.76C257.273 181.067 257.246 181.313 257.246 181.5C257.246 181.78 257.413 181.92 257.746 181.92ZM253.206 182.08L253.346 181.06C253.08 180.793 252.673 180.66 252.126 180.66C251.726 180.66 251.4 180.753 251.146 180.94C250.906 181.127 250.786 181.393 250.786 181.74C250.786 182.007 250.886 182.233 251.086 182.42C251.286 182.593 251.553 182.68 251.886 182.68C252.446 182.68 252.886 182.48 253.206 182.08Z" fill="black"/>
<path d="M268.434 185H264.234L265.834 174.68H270.054L269.514 178.24L272.434 174.68H277.594L273.094 179.64L276.654 185H271.734L269.074 180.82L268.434 185Z" fill="black"/>
<path d="M287.922 181.92C288.082 181.92 288.262 181.887 288.462 181.82L287.982 184.68C287.436 185.067 286.722 185.26 285.842 185.26C284.549 185.26 283.716 184.853 283.342 184.04C283.076 184.387 282.682 184.68 282.162 184.92C281.642 185.147 281.076 185.26 280.462 185.26C279.369 185.26 278.509 184.967 277.882 184.38C277.256 183.793 276.942 183.033 276.942 182.1C276.942 180.98 277.329 180.12 278.102 179.52C278.876 178.907 279.869 178.6 281.082 178.6C282.056 178.6 282.909 178.787 283.642 179.16C283.669 178.973 283.682 178.847 283.682 178.78C283.682 177.98 282.956 177.58 281.502 177.58C280.476 177.58 279.562 177.76 278.762 178.12L279.282 174.98C280.362 174.607 281.529 174.42 282.782 174.42C284.222 174.42 285.429 174.733 286.402 175.36C287.376 175.973 287.862 176.967 287.862 178.34C287.862 178.673 287.802 179.147 287.682 179.76L287.502 180.76C287.449 181.067 287.422 181.313 287.422 181.5C287.422 181.78 287.589 181.92 287.922 181.92ZM283.382 182.08L283.522 181.06C283.256 180.793 282.849 180.66 282.302 180.66C281.902 180.66 281.576 180.753 281.322 180.94C281.082 181.127 280.962 181.393 280.962 181.74C280.962 182.007 281.062 182.233 281.262 182.42C281.462 182.593 281.729 182.68 282.062 182.68C282.622 182.68 283.062 182.48 283.382 182.08Z" fill="black"/>
<path d="M293.649 185H289.449L291.049 174.68H295.269L294.729 178.24L297.649 174.68H302.809L298.309 179.64L301.869 185H296.949L294.289 180.82L293.649 185Z" fill="black"/>
<path d="M303.862 189.12C302.782 189.12 301.982 188.96 301.462 188.64L302.042 185.02C302.482 185.38 303.035 185.56 303.702 185.56C304.142 185.56 304.488 185.493 304.742 185.36C304.995 185.24 305.215 185.007 305.402 184.66L302.762 174.68H307.142L308.022 180.52L310.602 174.68H314.982L308.822 186C307.702 188.08 306.048 189.12 303.862 189.12Z" fill="black"/>
<path d="M325.891 174.42C327.451 174.42 328.717 174.9 329.691 175.86C330.664 176.793 331.151 178.027 331.151 179.56C331.151 181.133 330.584 182.48 329.451 183.6C328.317 184.707 326.971 185.26 325.411 185.26C324.064 185.26 322.931 184.9 322.011 184.18C321.091 183.46 320.511 182.487 320.271 181.26H318.971L318.371 185H314.371L316.011 174.68H320.011L319.471 178.04H320.571C320.997 176.96 321.691 176.087 322.651 175.42C323.637 174.753 324.717 174.42 325.891 174.42ZM325.471 181.7C325.897 181.7 326.264 181.493 326.571 181.08C326.891 180.653 327.051 180.133 327.051 179.52C327.051 179.053 326.931 178.68 326.691 178.4C326.464 178.12 326.164 177.98 325.791 177.98C325.364 177.98 324.991 178.193 324.671 178.62C324.364 179.033 324.211 179.547 324.211 180.16C324.211 180.627 324.324 181 324.551 181.28C324.791 181.56 325.097 181.7 325.471 181.7Z" fill="black"/>
<path d="M128.606 209.86L127.786 215H123.566L125.786 200.68H130.026L129.846 201.84C130.019 201.493 130.379 201.173 130.926 200.88C131.472 200.573 132.079 200.42 132.746 200.42C133.906 200.42 134.859 200.873 135.606 201.78C136.352 202.687 136.726 203.813 136.726 205.16C136.726 206.147 136.532 207.1 136.146 208.02C135.759 208.94 135.159 209.707 134.346 210.32C133.519 210.947 132.559 211.26 131.466 211.26C130.799 211.26 130.192 211.113 129.646 210.82C129.112 210.527 128.766 210.207 128.606 209.86ZM129.266 204.76L128.946 206.9C129.292 207.473 129.839 207.76 130.586 207.76C131.119 207.76 131.559 207.553 131.906 207.14C132.252 206.713 132.426 206.187 132.426 205.56C132.426 205.04 132.286 204.64 132.006 204.36C131.739 204.067 131.386 203.92 130.946 203.92C130.306 203.92 129.746 204.2 129.266 204.76Z" fill="black"/>
<path d="M148.264 207.92C148.424 207.92 148.604 207.887 148.804 207.82L148.324 210.68C147.777 211.067 147.064 211.26 146.184 211.26C144.891 211.26 144.057 210.853 143.684 210.04C143.417 210.387 143.024 210.68 142.504 210.92C141.984 211.147 141.417 211.26 140.804 211.26C139.711 211.26 138.851 210.967 138.224 210.38C137.597 209.793 137.284 209.033 137.284 208.1C137.284 206.98 137.671 206.12 138.444 205.52C139.217 204.907 140.211 204.6 141.424 204.6C142.397 204.6 143.251 204.787 143.984 205.16C144.011 204.973 144.024 204.847 144.024 204.78C144.024 203.98 143.297 203.58 141.844 203.58C140.817 203.58 139.904 203.76 139.104 204.12L139.624 200.98C140.704 200.607 141.871 200.42 143.124 200.42C144.564 200.42 145.771 200.733 146.744 201.36C147.717 201.973 148.204 202.967 148.204 204.34C148.204 204.673 148.144 205.147 148.024 205.76L147.844 206.76C147.791 207.067 147.764 207.313 147.764 207.5C147.764 207.78 147.931 207.92 148.264 207.92ZM143.724 208.08L143.864 207.06C143.597 206.793 143.191 206.66 142.644 206.66C142.244 206.66 141.917 206.753 141.664 206.94C141.424 207.127 141.304 207.393 141.304 207.74C141.304 208.007 141.404 208.233 141.604 208.42C141.804 208.593 142.071 208.68 142.404 208.68C142.964 208.68 143.404 208.48 143.724 208.08Z" fill="black"/>
<path d="M161.14 196.6L160.56 200.2L158.12 200.42C155.48 200.727 154.033 201.46 153.78 202.62C154.727 201.967 155.793 201.64 156.98 201.64C158.14 201.64 159.087 202.027 159.82 202.8C160.567 203.587 160.94 204.567 160.94 205.74C160.94 207.353 160.387 208.68 159.28 209.72C158.173 210.747 156.767 211.26 155.06 211.26C153.353 211.26 152.04 210.74 151.12 209.7C150.2 208.66 149.74 207.273 149.74 205.54C149.74 203.14 150.387 201.273 151.68 199.94C152.973 198.593 154.94 197.673 157.58 197.18C158.1 197.087 159.287 196.893 161.14 196.6ZM155.28 208C155.787 208 156.193 207.84 156.5 207.52C156.807 207.187 156.96 206.76 156.96 206.24C156.96 205.787 156.827 205.427 156.56 205.16C156.293 204.88 155.92 204.74 155.44 204.74C154.667 204.74 154.033 204.967 153.54 205.42C153.513 205.58 153.5 205.74 153.5 205.9C153.5 206.5 153.653 207 153.96 207.4C154.267 207.8 154.707 208 155.28 208Z" fill="black"/>
<path d="M167.845 200.42C169.472 200.42 170.832 200.907 171.925 201.88C173.032 202.84 173.585 204.093 173.585 205.64C173.585 207.147 173.012 208.46 171.865 209.58C170.732 210.7 169.318 211.26 167.625 211.26C165.998 211.26 164.638 210.78 163.545 209.82C162.452 208.847 161.905 207.573 161.905 206C161.905 204.493 162.472 203.193 163.605 202.1C164.738 200.98 166.152 200.42 167.845 200.42ZM167.605 207.7C168.138 207.7 168.585 207.5 168.945 207.1C169.318 206.687 169.505 206.173 169.505 205.56C169.505 205.067 169.352 204.68 169.045 204.4C168.738 204.12 168.345 203.98 167.865 203.98C167.332 203.98 166.885 204.18 166.525 204.58C166.165 204.98 165.985 205.487 165.985 206.1C165.985 206.593 166.138 206.987 166.445 207.28C166.752 207.56 167.138 207.7 167.605 207.7Z" fill="black"/>
<path d="M180.233 211H176.013L177.113 203.98H174.353L174.873 200.68H184.653L184.133 203.98H181.333L180.233 211Z" fill="black"/>
<path d="M186.059 215.12C184.979 215.12 184.179 214.96 183.659 214.64L184.239 211.02C184.679 211.38 185.232 211.56 185.899 211.56C186.339 211.56 186.686 211.493 186.939 211.36C187.192 211.24 187.412 211.007 187.599 210.66L184.959 200.68H189.339L190.219 206.52L192.799 200.68H197.179L191.019 212C189.899 214.08 188.246 215.12 186.059 215.12Z" fill="black"/>
<path d="M205.729 211H201.529L203.149 200.68H207.349L206.809 204.08H209.089L209.629 200.68H213.849L212.229 211H208.009L208.569 207.36H206.289L205.729 211Z" fill="black"/>
<path d="M224.885 207.92C225.045 207.92 225.225 207.887 225.425 207.82L224.945 210.68C224.398 211.067 223.685 211.26 222.805 211.26C221.512 211.26 220.678 210.853 220.305 210.04C220.038 210.387 219.645 210.68 219.125 210.92C218.605 211.147 218.038 211.26 217.425 211.26C216.332 211.26 215.472 210.967 214.845 210.38C214.218 209.793 213.905 209.033 213.905 208.1C213.905 206.98 214.292 206.12 215.065 205.52C215.838 204.907 216.832 204.6 218.045 204.6C219.018 204.6 219.872 204.787 220.605 205.16C220.632 204.973 220.645 204.847 220.645 204.78C220.645 203.98 219.918 203.58 218.465 203.58C217.438 203.58 216.525 203.76 215.725 204.12L216.245 200.98C217.325 200.607 218.492 200.42 219.745 200.42C221.185 200.42 222.392 200.733 223.365 201.36C224.338 201.973 224.825 202.967 224.825 204.34C224.825 204.673 224.765 205.147 224.645 205.76L224.465 206.76C224.412 207.067 224.385 207.313 224.385 207.5C224.385 207.78 224.552 207.92 224.885 207.92ZM220.345 208.08L220.485 207.06C220.218 206.793 219.812 206.66 219.265 206.66C218.865 206.66 218.538 206.753 218.285 206.94C218.045 207.127 217.925 207.393 217.925 207.74C217.925 208.007 218.025 208.233 218.225 208.42C218.425 208.593 218.692 208.68 219.025 208.68C219.585 208.68 220.025 208.48 220.345 208.08Z" fill="black"/>
<path d="M230.612 211H226.412L228.032 200.68H232.232L231.692 204.08H233.972L234.512 200.68H238.732L237.112 211H232.892L233.452 207.36H231.172L230.612 211Z" fill="black"/>
<path d="M243.028 211H239.068L240.688 200.68H244.628L243.948 205.06L247.668 200.68H251.628L250.008 211H246.068L246.748 206.64L243.028 211Z" fill="black"/>
<path d="M255.719 211H251.959L253.579 200.68H257.539L259.199 203.9L261.859 200.68H265.839L264.219 211H260.439L261.199 206.1L259.339 208.36H257.679L256.499 206.08L255.719 211Z" fill="black"/>
<path d="M276.877 207.92C277.037 207.92 277.217 207.887 277.417 207.82L276.937 210.68C276.391 211.067 275.677 211.26 274.797 211.26C273.504 211.26 272.671 210.853 272.297 210.04C272.031 210.387 271.637 210.68 271.117 210.92C270.597 211.147 270.031 211.26 269.417 211.26C268.324 211.26 267.464 210.967 266.837 210.38C266.211 209.793 265.897 209.033 265.897 208.1C265.897 206.98 266.284 206.12 267.057 205.52C267.831 204.907 268.824 204.6 270.037 204.6C271.011 204.6 271.864 204.787 272.597 205.16C272.624 204.973 272.637 204.847 272.637 204.78C272.637 203.98 271.911 203.58 270.457 203.58C269.431 203.58 268.517 203.76 267.717 204.12L268.237 200.98C269.317 200.607 270.484 200.42 271.737 200.42C273.177 200.42 274.384 200.733 275.357 201.36C276.331 201.973 276.817 202.967 276.817 204.34C276.817 204.673 276.757 205.147 276.637 205.76L276.457 206.76C276.404 207.067 276.377 207.313 276.377 207.5C276.377 207.78 276.544 207.92 276.877 207.92ZM272.337 208.08L272.477 207.06C272.211 206.793 271.804 206.66 271.257 206.66C270.857 206.66 270.531 206.753 270.277 206.94C270.037 207.127 269.917 207.393 269.917 207.74C269.917 208.007 270.017 208.233 270.217 208.42C270.417 208.593 270.684 208.68 271.017 208.68C271.577 208.68 272.017 208.48 272.337 208.08Z" fill="black"/>
<path d="M289.129 204.8C289.129 205.28 289.042 205.927 288.869 206.74H282.429C282.495 207.127 282.755 207.427 283.209 207.64C283.675 207.853 284.235 207.96 284.889 207.96C286.062 207.96 287.189 207.693 288.269 207.16L287.789 210.26C286.882 210.927 285.535 211.26 283.749 211.26C282.242 211.26 280.975 210.807 279.949 209.9C278.935 209.007 278.429 207.807 278.429 206.3C278.429 204.58 278.989 203.173 280.109 202.08C281.255 200.973 282.655 200.42 284.309 200.42C285.709 200.42 286.862 200.813 287.769 201.6C288.675 202.387 289.129 203.453 289.129 204.8ZM282.529 204.74H285.329V204.62C285.329 204.193 285.222 203.86 285.009 203.62C284.809 203.367 284.529 203.24 284.169 203.24C283.782 203.24 283.442 203.373 283.149 203.64C282.855 203.893 282.649 204.26 282.529 204.74Z" fill="black"/>
<path d="M295.955 211H291.735L292.835 203.98H290.075L290.595 200.68H300.375L299.855 203.98H297.055L295.955 211Z" fill="black"/>
<path d="M313.937 205.7C314.964 206.087 315.477 206.793 315.477 207.82C315.477 208.86 315.07 209.653 314.257 210.2C313.457 210.733 312.344 211 310.917 211H304.517L306.137 200.68H312.437C313.41 200.68 314.164 200.92 314.697 201.4C315.244 201.88 315.517 202.48 315.517 203.2C315.517 203.787 315.357 204.307 315.037 204.76C314.73 205.213 314.364 205.527 313.937 205.7ZM310.737 203.22H309.777L309.537 204.78H310.497C310.817 204.78 311.077 204.693 311.277 204.52C311.477 204.347 311.577 204.12 311.577 203.84C311.577 203.427 311.297 203.22 310.737 203.22ZM309.237 206.68L308.957 208.38H310.197C310.984 208.38 311.377 208.033 311.377 207.34C311.377 206.9 311.07 206.68 310.457 206.68H309.237Z" fill="black"/>
<path d="M327.287 207.92C327.447 207.92 327.627 207.887 327.827 207.82L327.347 210.68C326.801 211.067 326.087 211.26 325.207 211.26C323.914 211.26 323.081 210.853 322.707 210.04C322.441 210.387 322.047 210.68 321.527 210.92C321.007 211.147 320.441 211.26 319.827 211.26C318.734 211.26 317.874 210.967 317.247 210.38C316.621 209.793 316.307 209.033 316.307 208.1C316.307 206.98 316.694 206.12 317.467 205.52C318.241 204.907 319.234 204.6 320.447 204.6C321.421 204.6 322.274 204.787 323.007 205.16C323.034 204.973 323.047 204.847 323.047 204.78C323.047 203.98 322.321 203.58 320.867 203.58C319.841 203.58 318.927 203.76 318.127 204.12L318.647 200.98C319.727 200.607 320.894 200.42 322.147 200.42C323.587 200.42 324.794 200.733 325.767 201.36C326.741 201.973 327.227 202.967 327.227 204.34C327.227 204.673 327.167 205.147 327.047 205.76L326.867 206.76C326.814 207.067 326.787 207.313 326.787 207.5C326.787 207.78 326.954 207.92 327.287 207.92ZM322.747 208.08L322.887 207.06C322.621 206.793 322.214 206.66 321.667 206.66C321.267 206.66 320.941 206.753 320.687 206.94C320.447 207.127 320.327 207.393 320.327 207.74C320.327 208.007 320.427 208.233 320.627 208.42C320.827 208.593 321.094 208.68 321.427 208.68C321.987 208.68 322.427 208.48 322.747 208.08Z" fill="black"/>
<path d="M334.459 211.26C332.899 211.26 331.572 210.813 330.479 209.92C329.385 209.027 328.839 207.773 328.839 206.16C328.839 204.533 329.439 203.173 330.639 202.08C331.865 200.973 333.379 200.42 335.179 200.42C336.405 200.42 337.512 200.673 338.499 201.18L337.939 204.56C336.659 203.96 335.512 203.813 334.499 204.12C333.499 204.427 332.999 205.04 332.999 205.96C332.999 206.427 333.152 206.8 333.459 207.08C333.939 207.493 334.612 207.7 335.479 207.7C336.225 207.7 336.945 207.567 337.639 207.3L337.079 210.78C336.252 211.1 335.379 211.26 334.459 211.26Z" fill="black"/>
<path d="M198.746 237H194.546L196.146 226.68H200.366L199.826 230.24L202.746 226.68H207.906L203.406 231.64L206.966 237H202.046L199.386 232.82L198.746 237Z" fill="black"/>
<path d="M215.635 229.98H213.835L213.595 231.28C213.301 232.84 212.848 234.153 212.235 235.22C211.475 236.54 210.315 237.2 208.755 237.2C207.915 237.2 207.308 237.087 206.935 236.86L207.435 233.58C207.621 233.687 207.821 233.74 208.035 233.74C208.595 233.74 209.015 233.393 209.295 232.7C209.588 231.967 209.861 230.787 210.115 229.16L210.515 226.68H220.375L218.755 237H214.535L215.635 229.98Z" fill="black"/>
<path d="M224.678 237H220.718L222.338 226.68H226.278L225.598 231.06L229.318 226.68H233.278L231.658 237H227.718L228.398 232.64L224.678 237Z" fill="black"/>
<path d="M244.529 230.8C244.529 231.28 244.442 231.927 244.269 232.74H237.829C237.896 233.127 238.156 233.427 238.609 233.64C239.076 233.853 239.636 233.96 240.289 233.96C241.462 233.96 242.589 233.693 243.669 233.16L243.189 236.26C242.282 236.927 240.936 237.26 239.149 237.26C237.642 237.26 236.376 236.807 235.349 235.9C234.336 235.007 233.829 233.807 233.829 232.3C233.829 230.58 234.389 229.173 235.509 228.08C236.656 226.973 238.056 226.42 239.709 226.42C241.109 226.42 242.262 226.813 243.169 227.6C244.076 228.387 244.529 229.453 244.529 230.8ZM237.929 230.74H240.729V230.62C240.729 230.193 240.622 229.86 240.409 229.62C240.209 229.367 239.929 229.24 239.569 229.24C239.182 229.24 238.842 229.373 238.549 229.64C238.256 229.893 238.049 230.26 237.929 230.74Z" fill="black"/>
<path d="M249.391 237H245.191L246.811 226.68H251.011L250.471 230.08H252.751L253.291 226.68H257.511L255.891 237H251.671L252.231 233.36H249.951L249.391 237Z" fill="black"/>
<path d="M264.207 237H259.987L261.087 229.98H258.327L258.847 226.68H268.627L268.107 229.98H265.307L264.207 237Z" fill="black"/>
</svg>
