<svg width="280" height="245" viewBox="0 0 280 245" fill="none" xmlns="http://www.w3.org/2000/svg">
<path d="M53.5089 243.151H53V238.169H53.5089L55.2728 240.582L57.0366 238.169H57.5386V243.151H57.0297V238.966L55.4331 241.144H55.1194L53.5089 238.966V243.151Z" fill="white"/>
<path d="M60.4225 243.237C59.8973 243.237 59.4558 243.068 59.0979 242.731C58.7447 242.399 58.568 241.967 58.568 241.436C58.568 240.923 58.7261 240.494 59.0421 240.148C59.3628 239.801 59.7741 239.628 60.2761 239.628C60.5457 239.628 60.7851 239.685 60.9942 239.799C61.2034 239.908 61.3684 240.053 61.4892 240.233C61.61 240.413 61.7007 240.605 61.7611 240.81C61.8215 241.009 61.8517 241.21 61.8517 241.414V241.557H59.0839C59.1118 241.927 59.2559 242.224 59.5162 242.447C59.7811 242.665 60.1158 242.774 60.5201 242.774C60.9105 242.774 61.2708 242.667 61.6007 242.454V242.909C61.3265 243.127 60.9338 243.237 60.4225 243.237ZM59.0909 241.137H61.3428C61.3288 240.871 61.2312 240.632 61.05 240.418C60.878 240.2 60.6131 240.091 60.2552 240.091C59.9206 240.091 59.6463 240.195 59.4325 240.404C59.2234 240.617 59.1095 240.862 59.0909 241.137Z" fill="white"/>
<path d="M64.3427 243.237C63.8268 243.237 63.3992 243.066 63.0599 242.724C62.7206 242.378 62.5509 241.946 62.5509 241.429C62.5509 240.916 62.7229 240.489 63.0668 240.148C63.4061 239.801 63.8337 239.628 64.3496 239.628C64.7401 239.628 65.0793 239.711 65.3675 239.877V240.354C65.0654 240.178 64.7493 240.091 64.4194 240.091C64.0289 240.091 63.7059 240.219 63.4503 240.475C63.1946 240.722 63.0668 241.042 63.0668 241.436C63.0668 241.82 63.1946 242.14 63.4503 242.397C63.7106 242.648 64.0336 242.774 64.4194 242.774C64.7912 242.774 65.1281 242.674 65.4303 242.475V242.945C65.1142 243.139 64.7517 243.237 64.3427 243.237Z" fill="white"/>
<path d="M66.7578 243.151H66.1861L67.19 241.777C66.9158 241.73 66.7043 241.619 66.5556 241.443C66.4115 241.263 66.3395 241.035 66.3395 240.76C66.3395 240.442 66.444 240.188 66.6532 239.998C66.867 239.808 67.1645 239.713 67.5456 239.713H69.2816V243.151H68.7796V241.87H67.699L66.7578 243.151ZM67.6223 241.422H68.7796V240.162H67.6223C67.3759 240.162 67.1854 240.216 67.0506 240.326C66.9205 240.435 66.8554 240.591 66.8554 240.795C66.8554 240.999 66.9205 241.156 67.0506 241.265C67.1854 241.369 67.3759 241.422 67.6223 241.422Z" fill="white"/>
<path d="M74.0933 244.169H73.6122V243.151H70.4679V239.713H70.9699V242.703H72.9708V239.713H73.4728V242.703H74.0933V244.169Z" fill="white"/>
<path d="M78 243.151H77.4911V238.738L76.3965 239.379V238.874L77.5468 238.169H78V243.151Z" fill="white"/>
<path d="M2.64954 209.113H2.12599V204.808L1 205.433V204.94L2.18336 204.252H2.64954V209.113Z" fill="white"/>
<path d="M3.95516 210.169H3.53919L4.11294 208.398H4.71538L3.95516 210.169Z" fill="white"/>
<path d="M5.60705 206.683C5.60705 205.97 5.79591 205.375 6.17363 204.898C6.55613 204.412 7.05339 204.169 7.66539 204.169C8.27261 204.169 8.76747 204.41 9.14997 204.891C9.52769 205.368 9.71655 205.965 9.71655 206.683C9.71655 207.4 9.52769 207.998 9.14997 208.475C8.76747 208.956 8.27261 209.197 7.66539 209.197C7.05339 209.197 6.55613 208.956 6.17363 208.475C5.79591 207.998 5.60705 207.4 5.60705 206.683ZM9.193 206.683C9.193 206.104 9.04957 205.62 8.76269 205.231C8.47581 204.843 8.11005 204.648 7.66539 204.648C7.22073 204.648 6.85496 204.843 6.56809 205.231C6.28121 205.62 6.13777 206.104 6.13777 206.683C6.13777 207.262 6.27882 207.748 6.56091 208.141C6.84779 208.525 7.21595 208.718 7.66539 208.718C8.11483 208.718 8.48059 208.525 8.76269 208.141C9.04957 207.752 9.193 207.266 9.193 206.683Z" fill="white"/>
<path d="M13.207 209.113H12.7049V205.759H13.207L14.5912 207.315L15.9825 205.759H16.4845V209.113H15.9825V206.447L14.6916 207.898H14.4907L13.207 206.447V209.113Z" fill="white"/>
<path d="M17.2467 209.113V208.655C17.2706 208.66 17.316 208.662 17.3829 208.662C17.6841 208.662 17.8897 208.477 17.9997 208.106C18.0906 207.81 18.1479 207.384 18.1718 206.829L18.2005 205.759H20.7896V209.113H20.2732V206.197H18.6954L18.6739 206.843C18.6643 207.093 18.6547 207.273 18.6452 207.384C18.6021 207.838 18.5328 208.171 18.4372 208.384C18.3511 208.606 18.2196 208.789 18.0427 208.933C17.8658 209.072 17.6507 209.134 17.3973 209.12C17.3208 209.12 17.2706 209.118 17.2467 209.113Z" fill="white"/>
<path d="M22.5224 209.113H22.006V205.759H22.5224V207.169H24.6524V205.759H25.1688V209.113H24.6524V207.62H22.5224V209.113Z" fill="white"/>
<path d="M26.6271 209.155C26.5219 209.155 26.4334 209.12 26.3617 209.051C26.29 208.981 26.2541 208.896 26.2541 208.794C26.2541 208.692 26.29 208.606 26.3617 208.537C26.4334 208.468 26.5219 208.433 26.6271 208.433C26.7322 208.433 26.8207 208.468 26.8924 208.537C26.9641 208.606 27 208.692 27 208.794C27 208.896 26.9641 208.981 26.8924 209.051C26.8207 209.12 26.7322 209.155 26.6271 209.155Z" fill="white"/>
<path d="M12 225.669C12 224.96 12.1838 224.368 12.5515 223.894C12.9238 223.411 13.4078 223.169 14.0035 223.169C14.5945 223.169 15.0762 223.408 15.4485 223.887C15.8162 224.361 16 224.955 16 225.669C16 226.383 15.8162 226.976 15.4485 227.451C15.0762 227.93 14.5945 228.169 14.0035 228.169C13.4078 228.169 12.9238 227.93 12.5515 227.451C12.1838 226.976 12 226.383 12 225.669ZM15.4904 225.669C15.4904 225.093 15.3508 224.612 15.0716 224.226C14.7923 223.839 14.4363 223.645 14.0035 223.645C13.5707 223.645 13.2147 223.839 12.9354 224.226C12.6562 224.612 12.5166 225.093 12.5166 225.669C12.5166 226.244 12.6539 226.728 12.9284 227.119C13.2077 227.501 13.566 227.692 14.0035 227.692C14.441 227.692 14.797 227.501 15.0716 227.119C15.3508 226.732 15.4904 226.249 15.4904 225.669Z" fill="white"/>
<path d="M2.44802 135.197C1.86598 135.197 1.3833 135.079 1 134.843V134.308C1.40223 134.581 1.87544 134.718 2.41963 134.718C2.79347 134.718 3.11998 134.616 3.39918 134.412C3.67837 134.204 3.81797 133.924 3.81797 133.572C3.81797 133.238 3.69493 132.972 3.44886 132.773C3.20753 132.569 2.88101 132.468 2.46932 132.468C2.27057 132.468 2.08602 132.491 1.91566 132.537V132.183L3.44886 130.718H1.20585V130.252H4.15868V130.634L2.67517 132.058C3.11052 132.067 3.49619 132.211 3.83216 132.488C4.17288 132.766 4.34323 133.127 4.34323 133.572C4.34323 134.053 4.16105 134.444 3.79667 134.745C3.4323 135.046 2.98275 135.197 2.44802 135.197Z" fill="white"/>
<path d="M5.19213 136.169H4.78043L5.34829 134.398H5.94453L5.19213 136.169Z" fill="white"/>
<path d="M6.82703 132.683C6.82703 131.97 7.01395 131.375 7.38779 130.898C7.76635 130.412 8.25849 130.169 8.8642 130.169C9.46518 130.169 9.95495 130.41 10.3335 130.891C10.7074 131.368 10.8943 131.965 10.8943 132.683C10.8943 133.4 10.7074 133.998 10.3335 134.475C9.95495 134.956 9.46518 135.197 8.8642 135.197C8.25849 135.197 7.76635 134.956 7.38779 134.475C7.01395 133.998 6.82703 133.4 6.82703 132.683ZM10.3761 132.683C10.3761 132.104 10.2341 131.62 9.95022 131.231C9.6663 130.843 9.30429 130.648 8.8642 130.648C8.42412 130.648 8.06211 130.843 7.77818 131.231C7.49426 131.62 7.3523 132.104 7.3523 132.683C7.3523 133.262 7.49189 133.748 7.77109 134.141C8.05501 134.525 8.41939 134.718 8.8642 134.718C9.30902 134.718 9.67103 134.525 9.95022 134.141C10.2341 133.752 10.3761 133.266 10.3761 132.683Z" fill="white"/>
<path d="M14.3488 135.113H13.8519V131.759H14.3488L15.7187 133.315L17.0958 131.759H17.5927V135.113H17.0958V132.447L15.8181 133.898H15.6194L14.3488 132.447V135.113Z" fill="white"/>
<path d="M18.347 135.113V134.655C18.3706 134.66 18.4156 134.662 18.4818 134.662C18.7799 134.662 18.9834 134.477 19.0923 134.106C19.1822 133.81 19.239 133.384 19.2626 132.829L19.291 131.759H21.8534V135.113H21.3424V132.197H19.7808L19.7595 132.843C19.75 133.093 19.7406 133.273 19.7311 133.384C19.6885 133.838 19.6199 134.171 19.5252 134.384C19.4401 134.606 19.3099 134.789 19.1348 134.933C18.9598 135.072 18.7468 135.134 18.496 135.12C18.4203 135.12 18.3706 135.118 18.347 135.113Z" fill="white"/>
<path d="M23.5684 135.113H23.0574V131.759H23.5684V133.169H25.6766V131.759H26.1876V135.113H25.6766V133.62H23.5684V135.113Z" fill="white"/>
<path d="M27.6309 135.155C27.5268 135.155 27.4392 135.12 27.3683 135.051C27.2973 134.981 27.2618 134.896 27.2618 134.794C27.2618 134.692 27.2973 134.606 27.3683 134.537C27.4392 134.468 27.5268 134.433 27.6309 134.433C27.735 134.433 27.8225 134.468 27.8935 134.537C27.9645 134.606 28 134.692 28 134.794C28 134.896 27.9645 134.981 27.8935 135.051C27.8225 135.12 27.735 135.155 27.6309 135.155Z" fill="white"/>
<path d="M1.41905 60.1967C0.86025 60.1967 0.387235 60.0902 0 59.8773V59.3634C0.40194 59.5995 0.870053 59.7176 1.40434 59.7176C1.84059 59.7176 2.20087 59.6111 2.48517 59.3981C2.76947 59.1851 2.91162 58.912 2.91162 58.5787C2.91162 58.25 2.77682 57.9838 2.50722 57.7801C2.24253 57.5717 1.88961 57.4676 1.44845 57.4676C1.02691 57.4676 0.615164 57.5347 0.213224 57.6689L0.551442 55.2523H3.09543V55.7176H0.963186L0.757314 57.1203C0.992596 57.0601 1.26464 57.0301 1.57345 57.0301C2.11264 57.0301 2.56114 57.1759 2.91897 57.4676C3.27679 57.75 3.4557 58.1203 3.4557 58.5787C3.4557 59.0601 3.26209 59.449 2.87485 59.7453C2.48272 60.0463 1.99745 60.1967 1.41905 60.1967Z" fill="white"/>
<path d="M4.37466 61.1689H3.94821L4.53642 59.3981H5.15403L4.37466 61.1689Z" fill="white"/>
<path d="M6.06816 57.6828C6.06816 56.9699 6.26178 56.375 6.64901 55.8981C7.04115 55.412 7.55093 55.1689 8.17835 55.1689C8.80087 55.1689 9.30819 55.4097 9.70033 55.8912C10.0876 56.368 10.2812 56.9652 10.2812 57.6828C10.2812 58.4004 10.0876 58.9976 9.70033 59.4745C9.30819 59.956 8.80087 60.1967 8.17835 60.1967C7.55093 60.1967 7.04115 59.956 6.64901 59.4745C6.26178 58.9976 6.06816 58.4004 6.06816 57.6828ZM9.74444 57.6828C9.74444 57.1041 9.59739 56.6203 9.30329 56.2314C9.00919 55.8426 8.63421 55.6481 8.17835 55.6481C7.72249 55.6481 7.34751 55.8426 7.05341 56.2314C6.7593 56.6203 6.61225 57.1041 6.61225 57.6828C6.61225 58.2615 6.75685 58.7476 7.04605 59.1412C7.34016 59.5254 7.71759 59.7176 8.17835 59.7176C8.63911 59.7176 9.01409 59.5254 9.30329 59.1412C9.59739 58.7523 9.74444 58.2662 9.74444 57.6828Z" fill="white"/>
<path d="M13.8595 60.1134H13.3448V56.7592H13.8595L15.2786 58.3148L16.705 56.7592H17.2196V60.1134H16.705V57.4467L15.3815 58.8981H15.1756L13.8595 57.4467V60.1134Z" fill="white"/>
<path d="M18.001 60.1134V59.6551C18.0255 59.6597 18.072 59.662 18.1407 59.662C18.4495 59.662 18.6603 59.4768 18.773 59.1064C18.8661 58.8101 18.9249 58.3842 18.9495 57.8287L18.9789 56.7592H21.6331V60.1134H21.1038V57.1967H19.4862L19.4641 57.8426C19.4543 58.0926 19.4445 58.2731 19.4347 58.3842C19.3906 58.8379 19.3195 59.1713 19.2215 59.3842C19.1333 59.6064 18.9985 59.7893 18.8171 59.9328C18.6357 60.0717 18.4152 60.1342 18.1554 60.1203C18.0769 60.1203 18.0255 60.118 18.001 60.1134Z" fill="white"/>
<path d="M23.4096 60.1134H22.8802V56.7592H23.4096V58.1689H25.5933V56.7592H26.1227V60.1134H25.5933V58.6203H23.4096V60.1134Z" fill="white"/>
<path d="M27.6177 60.1551C27.5098 60.1551 27.4191 60.1203 27.3456 60.0509C27.2721 59.9814 27.2353 59.8958 27.2353 59.7939C27.2353 59.6921 27.2721 59.6064 27.3456 59.537C27.4191 59.4676 27.5098 59.4328 27.6177 59.4328C27.7255 59.4328 27.8162 59.4676 27.8897 59.537C27.9632 59.6064 28 59.6921 28 59.7939C28 59.8958 27.9632 59.9814 27.8897 60.0509C27.8162 60.1203 27.7255 60.1551 27.6177 60.1551Z" fill="white"/>
<path d="M3.49871 172.113H0V171.731L1.73102 170.169C2.11243 169.826 2.37893 169.551 2.53051 169.343C2.68699 169.125 2.76523 168.882 2.76523 168.613C2.76523 168.326 2.65765 168.095 2.4425 167.919C2.22734 167.738 1.94617 167.648 1.59899 167.648C1.05621 167.648 0.562336 167.866 0.117357 168.301V167.725C0.552557 167.354 1.06355 167.169 1.65034 167.169C2.12465 167.169 2.51829 167.296 2.83124 167.551C3.14908 167.81 3.30801 168.143 3.30801 168.551C3.30801 168.875 3.22243 169.171 3.05129 169.44C2.88014 169.704 2.58675 170.021 2.17111 170.391L0.792161 171.648H3.49871V172.113Z" fill="white"/>
<path d="M4.43167 173.169H4.00625L4.59303 171.398H5.20916L4.43167 173.169Z" fill="white"/>
<path d="M6.12108 169.683C6.12108 168.97 6.31423 168.375 6.70053 167.898C7.09172 167.412 7.60027 167.169 8.22618 167.169C8.84719 167.169 9.35329 167.41 9.74448 167.891C10.1308 168.368 10.3239 168.965 10.3239 169.683C10.3239 170.4 10.1308 170.998 9.74448 171.475C9.35329 171.956 8.84719 172.197 8.22618 172.197C7.60027 172.197 7.09172 171.956 6.70053 171.475C6.31423 170.998 6.12108 170.4 6.12108 169.683ZM9.78849 169.683C9.78849 169.104 9.6418 168.62 9.3484 168.231C9.05501 167.843 8.68093 167.648 8.22618 167.648C7.77142 167.648 7.39734 167.843 7.10395 168.231C6.81055 168.62 6.66386 169.104 6.66386 169.683C6.66386 170.262 6.80811 170.748 7.09661 171.141C7.39001 171.525 7.76653 171.718 8.22618 171.718C8.68583 171.718 9.0599 171.525 9.3484 171.141C9.6418 170.752 9.78849 170.266 9.78849 169.683Z" fill="white"/>
<path d="M13.8936 172.113H13.3802V168.759H13.8936L15.3093 170.315L16.7322 168.759H17.2457V172.113H16.7322V169.447L15.412 170.898H15.2066L13.8936 169.447V172.113Z" fill="white"/>
<path d="M18.0251 172.113V171.655C18.0495 171.66 18.096 171.662 18.1645 171.662C18.4725 171.662 18.6828 171.477 18.7953 171.106C18.8882 170.81 18.9468 170.384 18.9713 169.829L19.0006 168.759H21.6485V172.113H21.1204V169.197H19.5067L19.4847 169.843C19.4749 170.093 19.4652 170.273 19.4554 170.384C19.4114 170.838 19.3405 171.171 19.2427 171.384C19.1547 171.606 19.0202 171.789 18.8393 171.933C18.6583 172.072 18.4383 172.134 18.1791 172.12C18.1009 172.12 18.0495 172.118 18.0251 172.113Z" fill="white"/>
<path d="M23.4207 172.113H22.8926V168.759H23.4207V170.169H25.5991V168.759H26.1272V172.113H25.5991V170.62H23.4207V172.113Z" fill="white"/>
<path d="M27.6186 172.155C27.511 172.155 27.4205 172.12 27.3472 172.051C27.2739 171.981 27.2372 171.896 27.2372 171.794C27.2372 171.692 27.2739 171.606 27.3472 171.537C27.4205 171.468 27.511 171.433 27.6186 171.433C27.7262 171.433 27.8166 171.468 27.89 171.537C27.9633 171.606 28 171.692 28 171.794C28 171.896 27.9633 171.981 27.89 172.051C27.8166 172.12 27.7262 172.155 27.6186 172.155Z" fill="white"/>
<path d="M3.24107 97.9375H2.72018V96.3738H0V95.8958L2.72742 92.2662H3.24107V95.831H4.08027V96.3738H3.24107V97.9375ZM2.72018 93.0601L0.622169 95.831H2.72018V93.0601Z" fill="white"/>
<path d="M4.75393 99.1689H4.33433L4.91309 97.103H5.52079L4.75393 99.1689Z" fill="white"/>
<path d="M6.42025 95.1018C6.42025 94.27 6.61076 93.576 6.99178 93.0196C7.37762 92.4525 7.87921 92.1689 8.49656 92.1689C9.10908 92.1689 9.60826 92.4498 9.99411 93.0115C10.3751 93.5679 10.5656 94.2646 10.5656 95.1018C10.5656 95.939 10.3751 96.6358 9.99411 97.1921C9.60826 97.7538 9.10908 98.0347 8.49656 98.0347C7.87921 98.0347 7.37762 97.7538 6.99178 97.1921C6.61076 96.6358 6.42025 95.939 6.42025 95.1018ZM10.0375 95.1018C10.0375 94.4267 9.89282 93.8622 9.60344 93.4085C9.31406 92.9548 8.9451 92.728 8.49656 92.728C8.04802 92.728 7.67906 92.9548 7.38968 93.4085C7.10029 93.8622 6.9556 94.4267 6.9556 95.1018C6.9556 95.777 7.09788 96.3441 7.38244 96.8032C7.67182 97.2515 8.04319 97.4757 8.49656 97.4757C8.94992 97.4757 9.31888 97.2515 9.60344 96.8032C9.89282 96.3495 10.0375 95.7824 10.0375 95.1018Z" fill="white"/>
<path d="M14.0865 97.9375H13.5801V94.0243H14.0865L15.4828 95.8391L16.8863 94.0243H17.3927V97.9375H16.8863V94.8264L15.5841 96.5196H15.3815L14.0865 94.8264V97.9375Z" fill="white"/>
<path d="M18.1615 97.9375V97.4027C18.1856 97.4081 18.2314 97.4108 18.2989 97.4108C18.6028 97.4108 18.8102 97.1948 18.9211 96.7627C19.0128 96.417 19.0706 95.9201 19.0947 95.272L19.1237 94.0243H21.7353V97.9375H21.2145V94.5347H19.6229L19.6012 95.2882C19.5915 95.5798 19.5819 95.7905 19.5722 95.9201C19.5288 96.4494 19.4589 96.8383 19.3624 97.0868C19.2756 97.346 19.143 97.5594 18.9645 97.7268C18.7861 97.8889 18.569 97.9618 18.3134 97.9456C18.2362 97.9456 18.1856 97.9429 18.1615 97.9375Z" fill="white"/>
<path d="M23.4833 97.9375H22.9624V94.0243H23.4833V95.6689H25.6319V94.0243H26.1528V97.9375H25.6319V96.1956H23.4833V97.9375Z" fill="white"/>
<path d="M27.6238 97.9861C27.5177 97.9861 27.4285 97.9456 27.3561 97.8645C27.2838 97.7835 27.2476 97.6836 27.2476 97.5648C27.2476 97.446 27.2838 97.346 27.3561 97.265C27.4285 97.184 27.5177 97.1435 27.6238 97.1435C27.7299 97.1435 27.8191 97.184 27.8915 97.265C27.9638 97.346 28 97.446 28 97.5648C28 97.6836 27.9638 97.7835 27.8915 97.8645C27.8191 97.9456 27.7299 97.9861 27.6238 97.9861Z" fill="white"/>
<path d="M1.93683 23.1967C1.33774 23.1967 0.865291 22.9977 0.519477 22.5995C0.173663 22.1921 0.000755785 21.6319 0.000755785 20.919C-0.0138561 20.1412 0.183404 19.4884 0.592536 18.9607C1.00167 18.4283 1.54474 18.1644 2.22176 18.169C2.6455 18.169 3.00593 18.2685 3.30304 18.4676V18.9607C2.98158 18.7523 2.63576 18.6482 2.26559 18.6482C1.88082 18.6482 1.55448 18.7523 1.2866 18.9607C1.01872 19.169 0.826326 19.4236 0.709431 19.7245C0.597407 20.0255 0.536524 20.3588 0.526783 20.7245C0.66316 20.5023 0.860421 20.3264 1.11856 20.1968C1.38158 20.0671 1.68356 20.0023 2.0245 20.0023C2.49208 20.0023 2.88173 20.1482 3.19345 20.4398C3.51491 20.7222 3.67564 21.0926 3.67564 21.5509C3.67564 22.0278 3.5076 22.4213 3.17153 22.7315C2.8452 23.0416 2.43363 23.1967 1.93683 23.1967ZM1.9076 22.7176C2.25342 22.7176 2.54566 22.6088 2.78432 22.3912C3.02298 22.169 3.14231 21.8889 3.14231 21.5509C3.14231 21.2176 3.02298 20.9514 2.78432 20.7523C2.54566 20.5532 2.24855 20.4537 1.89299 20.4537C1.59101 20.4537 1.31339 20.544 1.06012 20.7245C0.811714 20.9005 0.638807 21.125 0.541395 21.3981C0.58523 21.8194 0.724043 22.1458 0.957833 22.3773C1.19649 22.6041 1.51308 22.7176 1.9076 22.7176Z" fill="white"/>
<path d="M4.5245 24.1689H4.10075L4.68523 22.3981H5.29893L4.5245 24.1689Z" fill="white"/>
<path d="M6.20726 20.6829C6.20726 19.9699 6.39965 19.375 6.78443 18.8982C7.17408 18.4121 7.68062 18.169 8.30406 18.169C8.92263 18.169 9.42674 18.4097 9.81639 18.8912C10.2012 19.3681 10.3936 19.9653 10.3936 20.6829C10.3936 21.4005 10.2012 21.9977 9.81639 22.4745C9.42674 22.956 8.92263 23.1967 8.30406 23.1967C7.68062 23.1967 7.17408 22.956 6.78443 22.4745C6.39965 21.9977 6.20726 21.4005 6.20726 20.6829ZM9.86023 20.6829C9.86023 20.1042 9.71411 19.6204 9.42187 19.2315C9.12963 18.8426 8.75703 18.6482 8.30406 18.6482C7.85109 18.6482 7.47849 18.8426 7.18625 19.2315C6.89402 19.6204 6.7479 20.1042 6.7479 20.6829C6.7479 21.2616 6.89158 21.7477 7.17895 22.1412C7.47119 22.5254 7.84622 22.7176 8.30406 22.7176C8.7619 22.7176 9.1345 22.5254 9.42187 22.1412C9.71411 21.7523 9.86023 21.2662 9.86023 20.6829Z" fill="white"/>
<path d="M13.9492 23.1134H13.4378V19.7593H13.9492L15.3593 21.3148L16.7766 19.7593H17.288V23.1134H16.7766V20.4468L15.4615 21.8981H15.257L13.9492 20.4468V23.1134Z" fill="white"/>
<path d="M18.0644 23.1134V22.6551C18.0887 22.6597 18.135 22.662 18.2032 22.662C18.51 22.662 18.7195 22.4768 18.8315 22.1065C18.9241 21.8102 18.9825 21.3843 19.0069 20.8287L19.0361 19.7593H21.6735V23.1134H21.1475V20.1968H19.5402L19.5183 20.8426C19.5085 21.0926 19.4988 21.2731 19.489 21.3843C19.4452 21.838 19.3746 22.1713 19.2772 22.3842C19.1895 22.6065 19.0556 22.7893 18.8753 22.9328C18.6951 23.0717 18.476 23.1342 18.2178 23.1203C18.1399 23.1203 18.0887 23.118 18.0644 23.1134Z" fill="white"/>
<path d="M23.4387 23.1134H22.9127V19.7593H23.4387V21.169H25.6086V19.7593H26.1346V23.1134H25.6086V21.6204H23.4387V23.1134Z" fill="white"/>
<path d="M27.6201 23.1551C27.5129 23.1551 27.4228 23.1203 27.3498 23.0509C27.2767 22.9815 27.2402 22.8958 27.2402 22.794C27.2402 22.6921 27.2767 22.6065 27.3498 22.537C27.4228 22.4676 27.5129 22.4329 27.6201 22.4329C27.7272 22.4329 27.8174 22.4676 27.8904 22.537C27.9635 22.6065 28 22.6921 28 22.794C28 22.8958 27.9635 22.9815 27.8904 23.0509C27.8174 23.1203 27.7272 23.1551 27.6201 23.1551Z" fill="white"/>
<path d="M2.7018 191.099H2.16166V186.732L1 187.366V186.866L2.22086 186.169H2.7018V191.099Z" fill="white"/>
<path d="M4.04879 192.169H3.61964L4.21157 190.373H4.83309L4.04879 192.169Z" fill="white"/>
<path d="M7.14405 191.183C6.58171 191.183 6.1057 191.075 5.71602 190.859V190.338C6.1205 190.577 6.59158 190.697 7.12925 190.697C7.56826 190.697 7.93082 190.589 8.21692 190.373C8.50302 190.157 8.64607 189.88 8.64607 189.542C8.64607 189.209 8.51042 188.939 8.23912 188.732C7.97275 188.521 7.61759 188.415 7.17364 188.415C6.74943 188.415 6.33508 188.483 5.93059 188.62L6.27095 186.169H8.83105V186.641H6.6853L6.47813 188.063C6.7149 188.002 6.98867 187.972 7.29943 187.972C7.84203 187.972 8.29338 188.12 8.65347 188.415C9.01356 188.702 9.1936 189.077 9.1936 189.542C9.1936 190.03 8.99876 190.425 8.60907 190.725C8.21445 191.03 7.72611 191.183 7.14405 191.183Z" fill="white"/>
<path d="M12.77 191.099H12.252V187.697H12.77L14.198 189.275L15.6334 187.697H16.1514V191.099H15.6334V188.394L14.3016 189.866H14.0944L12.77 188.394V191.099Z" fill="white"/>
<path d="M16.9377 191.099V190.634C16.9623 190.638 17.0092 190.641 17.0782 190.641C17.389 190.641 17.6011 190.453 17.7146 190.077C17.8083 189.777 17.8675 189.345 17.8921 188.782L17.9217 187.697H20.5928V191.099H20.0601V188.141H18.4323L18.4101 188.796C18.4002 189.049 18.3904 189.232 18.3805 189.345C18.3361 189.805 18.2646 190.143 18.1659 190.359C18.0771 190.584 17.9415 190.77 17.759 190.915C17.5764 191.056 17.3545 191.12 17.093 191.106C17.0141 191.106 16.9623 191.103 16.9377 191.099Z" fill="white"/>
<path d="M22.3805 191.099H21.8478V187.697H22.3805V189.127H24.5781V187.697H25.1108V191.099H24.5781V189.584H22.3805V191.099Z" fill="white"/>
<path d="M26.6152 191.141C26.5067 191.141 26.4155 191.106 26.3415 191.035C26.2675 190.965 26.2305 190.878 26.2305 190.775C26.2305 190.671 26.2675 190.584 26.3415 190.514C26.4155 190.444 26.5067 190.408 26.6152 190.408C26.7238 190.408 26.815 190.444 26.889 190.514C26.963 190.584 27 190.671 27 190.775C27 190.878 26.963 190.965 26.889 191.035C26.815 191.106 26.7238 191.141 26.6152 191.141Z" fill="white"/>
<path d="M2.43643 116.183C1.85904 116.183 1.38023 116.063 1 115.824V115.282C1.39901 115.559 1.86843 115.697 2.40827 115.697C2.77911 115.697 3.10302 115.594 3.37997 115.387C3.65693 115.176 3.79541 114.892 3.79541 114.535C3.79541 114.197 3.67336 113.927 3.42926 113.725C3.18986 113.519 2.86596 113.415 2.45756 113.415C2.2604 113.415 2.07733 113.439 1.90833 113.486V113.127L3.42926 111.641H1.2042V111.169H4.1334V111.556L2.66176 113C3.09363 113.009 3.47621 113.155 3.8095 113.437C4.14748 113.718 4.31647 114.084 4.31647 114.535C4.31647 115.023 4.13575 115.42 3.77429 115.725C3.41283 116.03 2.96688 116.183 2.43643 116.183Z" fill="white"/>
<path d="M5.15857 117.169H4.75018L5.31348 115.373H5.90496L5.15857 117.169Z" fill="white"/>
<path d="M8.10417 116.183C7.56902 116.183 7.11603 116.075 6.74519 115.859V115.338C7.13011 115.577 7.57841 115.697 8.09008 115.697C8.50787 115.697 8.8529 115.589 9.12516 115.373C9.39743 115.157 9.53356 114.88 9.53356 114.542C9.53356 114.209 9.40447 113.939 9.14629 113.732C8.8928 113.521 8.55481 113.415 8.13233 113.415C7.72863 113.415 7.33431 113.483 6.94939 113.62L7.27329 111.169H9.70959V111.641H7.6676L7.47045 113.063C7.69577 113.002 7.9563 112.972 8.25204 112.972C8.7684 112.972 9.19792 113.12 9.5406 113.415C9.88328 113.702 10.0546 114.077 10.0546 114.542C10.0546 115.03 9.8692 115.425 9.49835 115.725C9.12281 116.03 8.65809 116.183 8.10417 116.183Z" fill="white"/>
<path d="M13.4581 116.099H12.9652V112.697H13.4581L14.817 114.275L16.1831 112.697H16.676V116.099H16.1831V113.394L14.9156 114.866H14.7185L13.4581 113.394V116.099Z" fill="white"/>
<path d="M17.4242 116.099V115.634C17.4477 115.638 17.4923 115.641 17.558 115.641C17.8537 115.641 18.0556 115.453 18.1636 115.077C18.2527 114.777 18.3091 114.345 18.3325 113.782L18.3607 112.697H20.9026V116.099H20.3957V113.141H18.8466L18.8254 113.796C18.816 114.049 18.8067 114.232 18.7973 114.345C18.755 114.805 18.687 115.143 18.5931 115.359C18.5086 115.584 18.3795 115.77 18.2058 115.915C18.0321 116.056 17.8209 116.12 17.5721 116.106C17.497 116.106 17.4477 116.103 17.4242 116.099Z" fill="white"/>
<path d="M22.6039 116.099H22.0969V112.697H22.6039V114.127H24.6952V112.697H25.2021V116.099H24.6952V114.584H22.6039V116.099Z" fill="white"/>
<path d="M26.6339 116.141C26.5306 116.141 26.4437 116.106 26.3733 116.035C26.3029 115.965 26.2677 115.878 26.2677 115.775C26.2677 115.671 26.3029 115.584 26.3733 115.514C26.4437 115.444 26.5306 115.408 26.6339 115.408C26.7371 115.408 26.824 115.444 26.8944 115.514C26.9648 115.584 27 115.671 27 115.775C27 115.878 26.9648 115.965 26.8944 116.035C26.824 116.106 26.7371 116.141 26.6339 116.141Z" fill="white"/>
<path d="M2.35737 42.183C1.82286 42.183 1.3704 42.075 1 41.8591V41.338C1.38447 41.5774 1.83224 41.6971 2.3433 41.6971C2.76059 41.6971 3.10521 41.5891 3.37715 41.3732C3.64909 41.1572 3.78506 40.8802 3.78506 40.5422C3.78506 40.2089 3.65612 39.9389 3.39825 39.7323C3.14506 39.5211 2.80748 39.4154 2.3855 39.4154C1.98227 39.4154 1.58843 39.4835 1.20396 39.6196L1.52747 37.1689H3.96089V37.6408H1.92132L1.7244 39.0633C1.94945 39.0023 2.20967 38.9718 2.50506 38.9718C3.02081 38.9718 3.44982 39.1196 3.79209 39.4154C4.13437 39.7018 4.3055 40.0774 4.3055 40.5422C4.3055 41.0304 4.1203 41.4248 3.7499 41.7253C3.3748 42.0304 2.91063 42.183 2.35737 42.183Z" fill="white"/>
<path d="M5.18451 43.1689H4.7766L5.33924 41.3732H5.93001L5.18451 43.1689Z" fill="white"/>
<path d="M8.12661 42.183C7.5921 42.183 7.13965 42.075 6.76924 41.8591V41.338C7.15371 41.5774 7.60148 41.6971 8.11254 41.6971C8.52983 41.6971 8.87445 41.5891 9.14639 41.3732C9.41833 41.1572 9.5543 40.8802 9.5543 40.5422C9.5543 40.2089 9.42537 39.9389 9.16749 39.7323C8.9143 39.5211 8.57672 39.4154 8.15474 39.4154C7.75152 39.4154 7.35767 39.4835 6.9732 39.6196L7.29672 37.1689H9.73013V37.6408H7.69056L7.49364 39.0633C7.7187 39.0023 7.97892 38.9718 8.2743 38.9718C8.79005 38.9718 9.21906 39.1196 9.56134 39.4154C9.90361 39.7018 10.0747 40.0774 10.0747 40.5422C10.0747 41.0304 9.88954 41.4248 9.51914 41.7253C9.14405 42.0304 8.67987 42.183 8.12661 42.183Z" fill="white"/>
<path d="M13.4741 42.0985H12.9818V38.6971H13.4741L14.8315 40.2746L16.1959 38.6971H16.6882V42.0985H16.1959V39.3943L14.93 40.8661H14.7331L13.4741 39.3943V42.0985Z" fill="white"/>
<path d="M17.4356 42.0985V41.6337C17.459 41.6384 17.5036 41.6408 17.5692 41.6408C17.8646 41.6408 18.0662 41.453 18.174 41.0774C18.2631 40.7769 18.3194 40.345 18.3428 39.7816L18.371 38.6971H20.9099V42.0985H20.4035V39.1408H18.8562L18.8351 39.7957C18.8258 40.0492 18.8164 40.2323 18.807 40.345C18.7648 40.8051 18.6968 41.1431 18.6031 41.3591C18.5187 41.5844 18.3897 41.7699 18.2162 41.9154C18.0428 42.0563 17.8318 42.1196 17.5833 42.1056C17.5083 42.1056 17.459 42.1032 17.4356 42.0985Z" fill="white"/>
<path d="M22.6091 42.0985H22.1027V38.6971H22.6091V40.1267H24.6979V38.6971H25.2043V42.0985H24.6979V40.5844H22.6091V42.0985Z" fill="white"/>
<path d="M26.6343 42.1408C26.5311 42.1408 26.4444 42.1056 26.3741 42.0351C26.3037 41.9647 26.2686 41.8779 26.2686 41.7746C26.2686 41.6713 26.3037 41.5844 26.3741 41.514C26.4444 41.4436 26.5311 41.4084 26.6343 41.4084C26.7374 41.4084 26.8242 41.4436 26.8945 41.514C26.9648 41.5844 27 41.6713 27 41.7746C27 41.8779 26.9648 41.9647 26.8945 42.0351C26.8242 42.1056 26.7374 42.1408 26.6343 42.1408Z" fill="white"/>
<path d="M4.34639 153.113H1V152.731L2.65566 151.169C3.02046 150.826 3.27536 150.551 3.42035 150.343C3.57001 150.125 3.64484 149.882 3.64484 149.613C3.64484 149.326 3.54195 149.095 3.33616 148.919C3.13037 148.738 2.86145 148.648 2.52938 148.648C2.01023 148.648 1.53786 148.866 1.11225 149.301V148.725C1.5285 148.354 2.01725 148.169 2.57849 148.169C3.03216 148.169 3.40866 148.296 3.70798 148.551C4.01199 148.81 4.16399 149.143 4.16399 149.551C4.16399 149.875 4.08214 150.171 3.91845 150.44C3.75475 150.704 3.47413 151.021 3.07659 151.391L1.75767 152.648H4.34639V153.113Z" fill="white"/>
<path d="M5.23873 154.169H4.83183L5.39307 152.398H5.98238L5.23873 154.169Z" fill="white"/>
<path d="M8.17352 153.197C7.64034 153.197 7.18901 153.09 6.81952 152.877V152.363C7.20304 152.6 7.64969 152.718 8.15948 152.718C8.57574 152.718 8.9195 152.611 9.19076 152.398C9.46203 152.185 9.59766 151.912 9.59766 151.579C9.59766 151.25 9.46905 150.984 9.21181 150.78C8.95925 150.572 8.62251 150.468 8.20158 150.468C7.79936 150.468 7.40649 150.535 7.02297 150.669L7.34569 148.252H9.77305V148.718H7.73855L7.54212 150.12C7.76662 150.06 8.02619 150.03 8.32084 150.03C8.83531 150.03 9.26326 150.176 9.60468 150.468C9.9461 150.75 10.1168 151.12 10.1168 151.579C10.1168 152.06 9.93207 152.449 9.56258 152.745C9.18843 153.046 8.7254 153.197 8.17352 153.197Z" fill="white"/>
<path d="M13.5078 153.113H13.0167V149.759H13.5078L14.8618 151.315L16.2228 149.759H16.7138V153.113H16.2228V150.447L14.96 151.898H14.7635L13.5078 150.447V153.113Z" fill="white"/>
<path d="M17.4594 153.113V152.655C17.4827 152.66 17.5272 152.662 17.5926 152.662C17.8873 152.662 18.0884 152.477 18.196 152.106C18.2848 151.81 18.341 151.384 18.3644 150.829L18.3924 149.759H20.925V153.113H20.4199V150.197H18.8765L18.8554 150.843C18.8461 151.093 18.8367 151.273 18.8274 151.384C18.7853 151.838 18.7175 152.171 18.6239 152.384C18.5397 152.606 18.4111 152.789 18.2381 152.933C18.065 153.072 17.8546 153.134 17.6067 153.12C17.5318 153.12 17.4827 153.118 17.4594 153.113Z" fill="white"/>
<path d="M22.62 153.113H22.1149V149.759H22.62V151.169H24.7036V149.759H25.2087V153.113H24.7036V151.62H22.62V153.113Z" fill="white"/>
<path d="M26.6352 153.155C26.5323 153.155 26.4458 153.12 26.3756 153.051C26.3055 152.981 26.2704 152.896 26.2704 152.794C26.2704 152.692 26.3055 152.606 26.3756 152.537C26.4458 152.468 26.5323 152.433 26.6352 152.433C26.7381 152.433 26.8246 152.468 26.8948 152.537C26.9649 152.606 27 152.692 27 152.794C27 152.896 26.9649 152.981 26.8948 153.051C26.8246 153.12 26.7381 153.155 26.6352 153.155Z" fill="white"/>
<path d="M4.21788 79.0985H3.70072V77.7394H1V77.3239L3.7079 74.1689H4.21788V77.2675H5.05108V77.7394H4.21788V79.0985ZM3.70072 74.8591L1.61772 77.2675H3.70072V74.8591Z" fill="white"/>
<path d="M5.71992 80.1689H5.30332L5.87794 78.3732H6.48129L5.71992 80.1689Z" fill="white"/>
<path d="M8.72467 79.183C8.17878 79.183 7.71669 79.075 7.33839 78.8591V78.338C7.73105 78.5774 8.18835 78.6971 8.7103 78.6971C9.13648 78.6971 9.48843 78.5891 9.76617 78.3732C10.0439 78.1572 10.1828 77.8802 10.1828 77.5422C10.1828 77.2089 10.0511 76.9389 9.78772 76.7323C9.52914 76.5211 9.18436 76.4154 8.7534 76.4154C8.34159 76.4154 7.93935 76.4835 7.54669 76.6196L7.8771 74.1689H10.3623V74.6408H8.27934L8.07822 76.0633C8.30807 76.0023 8.57383 75.9718 8.8755 75.9718C9.40224 75.9718 9.84039 76.1196 10.1899 76.4154C10.5395 76.7018 10.7143 77.0774 10.7143 77.5422C10.7143 78.0304 10.5251 78.4248 10.1469 78.7253C9.76377 79.0304 9.28971 79.183 8.72467 79.183Z" fill="white"/>
<path d="M14.1861 79.0985H13.6833V75.6971H14.1861L15.5724 77.2746L16.9658 75.6971H17.4686V79.0985H16.9658V76.3943L15.6729 77.8661H15.4718L14.1861 76.3943V79.0985Z" fill="white"/>
<path d="M18.2319 79.0985V78.6337C18.2558 78.6384 18.3013 78.6408 18.3684 78.6408C18.67 78.6408 18.8759 78.453 18.9861 78.0774C19.0771 77.7769 19.1345 77.345 19.1585 76.7816L19.1872 75.6971H21.7802V79.0985H21.263V76.1408H19.6828L19.6613 76.7957C19.6517 77.0492 19.6421 77.2323 19.6325 77.345C19.5894 77.8051 19.52 78.1431 19.4242 78.3591C19.338 78.5844 19.2064 78.7699 19.0292 78.9154C18.852 79.0563 18.6365 79.1196 18.3827 79.1056C18.3061 79.1056 18.2558 79.1032 18.2319 79.0985Z" fill="white"/>
<path d="M23.5156 79.0985H22.9984V75.6971H23.5156V77.1267H25.6489V75.6971H26.166V79.0985H25.6489V77.5844H23.5156V79.0985Z" fill="white"/>
<path d="M27.6265 79.1408C27.5211 79.1408 27.4326 79.1056 27.3607 79.0351C27.2889 78.9647 27.253 78.8779 27.253 78.7746C27.253 78.6713 27.2889 78.5844 27.3607 78.514C27.4326 78.4436 27.5211 78.4084 27.6265 78.4084C27.7318 78.4084 27.8204 78.4436 27.8923 78.514C27.9641 78.5844 28 78.6713 28 78.7746C28 78.8779 27.9641 78.9647 27.8923 79.0351C27.8204 79.1056 27.7318 79.1408 27.6265 79.1408Z" fill="white"/>
<path d="M2.92353 5.19673C2.32856 5.19673 1.85935 4.99766 1.51591 4.59952C1.17247 4.19211 1.00075 3.63193 1.00075 2.91898C0.986239 2.14121 1.18215 1.48844 1.58847 0.960664C1.99479 0.428262 2.53414 0.164375 3.20651 0.169005C3.62734 0.169005 3.98529 0.268541 4.28036 0.467613V0.960664C3.96111 0.752333 3.61767 0.648167 3.25004 0.648167C2.8679 0.648167 2.54381 0.752333 2.27777 0.960664C2.01172 1.169 1.82065 1.42362 1.70456 1.72455C1.59331 2.02547 1.53284 2.3588 1.52317 2.72454C1.65861 2.50232 1.85451 2.32639 2.11088 2.19676C2.37209 2.06713 2.672 2.00232 3.0106 2.00232C3.47497 2.00232 3.86194 2.14815 4.17152 2.43982C4.49078 2.72222 4.65041 3.09259 4.65041 3.55092C4.65041 4.02776 4.48352 4.42128 4.14976 4.73146C3.82567 5.04164 3.41692 5.19673 2.92353 5.19673ZM2.89451 4.71757C3.23795 4.71757 3.52818 4.60878 3.7652 4.39119C4.00222 4.16897 4.12073 3.88888 4.12073 3.55092C4.12073 3.21759 4.00222 2.95138 3.7652 2.75231C3.52818 2.55324 3.23311 2.4537 2.88 2.4537C2.58009 2.4537 2.30437 2.54398 2.05284 2.72454C1.80614 2.90046 1.63442 3.12499 1.53768 3.39814C1.58121 3.81943 1.71907 4.14582 1.95126 4.3773C2.18828 4.60415 2.5027 4.71757 2.89451 4.71757Z" fill="white"/>
<path d="M5.49344 6.16895H5.0726L5.65306 4.39813H6.26255L5.49344 6.16895Z" fill="white"/>
<path d="M8.52873 5.19673C7.97729 5.19673 7.5105 5.09025 7.12837 4.87729V4.36341C7.52501 4.59952 7.98697 4.71757 8.51422 4.71757C8.94473 4.71757 9.30026 4.61109 9.58082 4.39813C9.86137 4.18517 10.0017 3.91202 10.0017 3.57869C10.0017 3.24999 9.86863 2.98379 9.60258 2.78009C9.34138 2.57176 8.9931 2.46759 8.55775 2.46759C8.14176 2.46759 7.73543 2.53472 7.33878 2.66898L7.67255 0.252337H10.183V0.717611H8.07887L7.87571 2.12037C8.1079 2.06019 8.37636 2.0301 8.6811 2.0301C9.21319 2.0301 9.65579 2.17593 10.0089 2.46759C10.362 2.75 10.5386 3.12036 10.5386 3.57869C10.5386 4.06017 10.3475 4.44906 9.96537 4.74535C9.5784 5.04627 9.09952 5.19673 8.52873 5.19673Z" fill="white"/>
<path d="M14.0457 5.1134H13.5378V1.75927H14.0457L15.446 3.31481L16.8537 1.75927H17.3616V5.1134H16.8537V2.44676L15.5476 3.89813H15.3445L14.0457 2.44676V5.1134Z" fill="white"/>
<path d="M18.1326 5.1134V4.65507C18.1568 4.6597 18.2027 4.66202 18.2705 4.66202C18.5752 4.66202 18.7832 4.47683 18.8945 4.10647C18.9864 3.81017 19.0444 3.38425 19.0686 2.8287L19.0976 1.75927H21.717V5.1134H21.1945V2.19676H19.5983L19.5765 2.84259C19.5668 3.09259 19.5571 3.27314 19.5475 3.38425C19.5039 3.83795 19.4338 4.17128 19.3371 4.38424C19.25 4.60646 19.117 4.78933 18.938 4.93285C18.759 5.07173 18.5413 5.13423 18.285 5.12034C18.2076 5.12034 18.1568 5.11803 18.1326 5.1134Z" fill="white"/>
<path d="M23.47 5.1134H22.9476V1.75927H23.47V3.16898H25.625V1.75927H26.1474V5.1134H25.625V3.62036H23.47V5.1134Z" fill="white"/>
<path d="M27.6227 5.15507C27.5163 5.15507 27.4268 5.12034 27.3542 5.0509C27.2817 4.98146 27.2454 4.89581 27.2454 4.79396C27.2454 4.69211 27.2817 4.60646 27.3542 4.53702C27.4268 4.46757 27.5163 4.43285 27.6227 4.43285C27.7291 4.43285 27.8186 4.46757 27.8912 4.53702C27.9637 4.60646 28 4.69211 28 4.79396C28 4.89581 27.9637 4.98146 27.8912 5.0509C27.8186 5.12034 27.7291 5.15507 27.6227 5.15507Z" fill="white"/>
<path d="M98.5129 243.165H98V238.253H98.5129L100.29 240.632L102.068 238.253H102.574V243.165H102.061V239.039L100.452 241.186H100.136L98.5129 239.039V243.165Z" fill="white"/>
<path d="M105.48 243.25C104.951 243.25 104.506 243.084 104.145 242.751C103.789 242.424 103.611 241.998 103.611 241.474C103.611 240.969 103.771 240.546 104.089 240.204C104.412 239.863 104.827 239.692 105.333 239.692C105.604 239.692 105.846 239.748 106.056 239.86C106.267 239.968 106.433 240.11 106.555 240.288C106.677 240.466 106.768 240.655 106.829 240.857C106.89 241.053 106.921 241.252 106.921 241.453V241.594H104.131C104.159 241.958 104.305 242.251 104.567 242.471C104.834 242.686 105.171 242.794 105.579 242.794C105.972 242.794 106.335 242.688 106.668 242.478V242.927C106.391 243.142 105.995 243.25 105.48 243.25ZM104.138 241.179H106.408C106.394 240.917 106.295 240.681 106.113 240.471C105.939 240.255 105.672 240.148 105.312 240.148C104.974 240.148 104.698 240.251 104.483 240.457C104.272 240.667 104.157 240.908 104.138 241.179Z" fill="white"/>
<path d="M109.431 243.25C108.911 243.25 108.48 243.081 108.138 242.744C107.796 242.403 107.625 241.977 107.625 241.467C107.625 240.962 107.798 240.541 108.145 240.204C108.487 239.863 108.918 239.692 109.438 239.692C109.831 239.692 110.173 239.774 110.464 239.937V240.408C110.159 240.234 109.841 240.148 109.508 240.148C109.115 240.148 108.789 240.274 108.532 240.527C108.274 240.77 108.145 241.086 108.145 241.474C108.145 241.853 108.274 242.169 108.532 242.422C108.794 242.67 109.119 242.794 109.508 242.794C109.883 242.794 110.222 242.695 110.527 242.499V242.962C110.208 243.154 109.843 243.25 109.431 243.25Z" fill="white"/>
<path d="M111.865 243.165H111.289L112.3 241.811C112.024 241.764 111.811 241.654 111.661 241.481C111.516 241.303 111.443 241.079 111.443 240.808C111.443 240.494 111.549 240.244 111.759 240.057C111.975 239.87 112.275 239.776 112.659 239.776H114.408V243.165H113.902V241.902H112.813L111.865 243.165ZM112.736 241.46H113.902V240.218H112.736C112.488 240.218 112.296 240.272 112.16 240.379C112.029 240.487 111.963 240.641 111.963 240.843C111.963 241.044 112.029 241.198 112.16 241.306C112.296 241.409 112.488 241.46 112.736 241.46Z" fill="white"/>
<path d="M119.257 244.169H118.772V243.165H115.604V239.776H116.11V242.723H118.126V239.776H118.632V242.723H119.257V244.169Z" fill="white"/>
<path d="M125 243.165H121.649V242.779L123.307 241.201C123.672 240.854 123.927 240.576 124.073 240.365C124.222 240.146 124.297 239.9 124.297 239.629C124.297 239.339 124.194 239.105 123.988 238.927C123.782 238.744 123.513 238.653 123.18 238.653C122.66 238.653 122.187 238.873 121.761 239.313V238.73C122.178 238.356 122.667 238.169 123.229 238.169C123.684 238.169 124.061 238.298 124.361 238.555C124.665 238.817 124.817 239.154 124.817 239.565C124.817 239.893 124.735 240.192 124.571 240.464C124.407 240.73 124.126 241.051 123.728 241.425L122.407 242.695H125V243.165Z" fill="white"/>
<path d="M144.533 243.151H144V238.169H144.533L146.381 240.582L148.229 238.169H148.754V243.151H148.221V238.966L146.549 241.144H146.22L144.533 238.966V243.151Z" fill="white"/>
<path d="M151.775 243.237C151.225 243.237 150.763 243.068 150.388 242.731C150.018 242.399 149.833 241.967 149.833 241.436C149.833 240.923 149.998 240.494 150.329 240.148C150.665 239.801 151.096 239.628 151.622 239.628C151.904 239.628 152.155 239.685 152.374 239.799C152.593 239.908 152.766 240.053 152.893 240.233C153.019 240.413 153.114 240.605 153.178 240.81C153.241 241.009 153.273 241.21 153.273 241.414V241.557H150.373C150.402 241.927 150.553 242.224 150.826 242.447C151.104 242.665 151.454 242.774 151.878 242.774C152.287 242.774 152.664 242.667 153.01 242.454V242.909C152.722 243.127 152.311 243.237 151.775 243.237ZM150.381 241.137H152.74C152.725 240.871 152.623 240.632 152.433 240.418C152.253 240.2 151.975 240.091 151.6 240.091C151.25 240.091 150.962 240.195 150.738 240.404C150.519 240.617 150.4 240.862 150.381 241.137Z" fill="white"/>
<path d="M155.882 243.237C155.342 243.237 154.894 243.066 154.538 242.724C154.183 242.378 154.005 241.946 154.005 241.429C154.005 240.916 154.185 240.489 154.546 240.148C154.901 239.801 155.349 239.628 155.889 239.628C156.298 239.628 156.654 239.711 156.956 239.877V240.354C156.639 240.178 156.308 240.091 155.962 240.091C155.553 240.091 155.215 240.219 154.947 240.475C154.679 240.722 154.546 241.042 154.546 241.436C154.546 241.82 154.679 242.14 154.947 242.397C155.22 242.648 155.558 242.774 155.962 242.774C156.352 242.774 156.705 242.674 157.021 242.475V242.945C156.69 243.139 156.31 243.237 155.882 243.237Z" fill="white"/>
<path d="M158.412 243.151H157.813L158.865 241.777C158.578 241.73 158.356 241.619 158.2 241.443C158.049 241.263 157.974 241.035 157.974 240.76C157.974 240.442 158.083 240.188 158.302 239.998C158.526 239.808 158.838 239.713 159.237 239.713H161.056V243.151H160.53V241.87H159.398L158.412 243.151ZM159.318 241.422H160.53V240.162H159.318C159.06 240.162 158.86 240.216 158.719 240.326C158.582 240.435 158.514 240.591 158.514 240.795C158.514 240.999 158.582 241.156 158.719 241.265C158.86 241.369 159.06 241.422 159.318 241.422Z" fill="white"/>
<path d="M166.096 244.169H165.592V243.151H162.299V239.713H162.824V242.703H164.92V239.713H165.446V242.703H166.096V244.169Z" fill="white"/>
<path d="M170.05 243.237C169.451 243.237 168.955 243.116 168.56 242.874V242.326C168.974 242.605 169.461 242.745 170.021 242.745C170.405 242.745 170.741 242.641 171.029 242.432C171.316 242.219 171.46 241.932 171.46 241.571C171.46 241.229 171.333 240.957 171.08 240.753C170.831 240.544 170.496 240.439 170.072 240.439C169.867 240.439 169.678 240.463 169.502 240.511V240.148L171.08 238.646H168.772V238.169H171.81V238.56L170.284 240.019C170.732 240.029 171.128 240.176 171.474 240.461C171.825 240.745 172 241.116 172 241.571C172 242.065 171.813 242.466 171.438 242.774C171.063 243.082 170.6 243.237 170.05 243.237Z" fill="white"/>
<path d="M191.521 243.151H191V238.169H191.521L193.327 240.582L195.134 238.169H195.648V243.151H195.127V238.966L193.492 241.144H193.17L191.521 238.966V243.151Z" fill="white"/>
<path d="M198.601 243.237C198.063 243.237 197.611 243.068 197.245 242.731C196.883 242.399 196.702 241.967 196.702 241.436C196.702 240.923 196.864 240.494 197.187 240.148C197.516 239.801 197.937 239.628 198.451 239.628C198.727 239.628 198.972 239.685 199.186 239.799C199.401 239.908 199.57 240.053 199.693 240.233C199.817 240.413 199.91 240.605 199.972 240.81C200.034 241.009 200.065 241.21 200.065 241.414V241.557H197.23C197.259 241.927 197.406 242.224 197.673 242.447C197.944 242.665 198.287 242.774 198.701 242.774C199.101 242.774 199.47 242.667 199.808 242.454V242.909C199.527 243.127 199.125 243.237 198.601 243.237ZM197.237 241.137H199.543C199.529 240.871 199.429 240.632 199.244 240.418C199.067 240.2 198.796 240.091 198.43 240.091C198.087 240.091 197.806 240.195 197.587 240.404C197.373 240.617 197.256 240.862 197.237 241.137Z" fill="white"/>
<path d="M202.615 243.237C202.087 243.237 201.649 243.066 201.302 242.724C200.954 242.378 200.781 241.946 200.781 241.429C200.781 240.916 200.957 240.489 201.309 240.148C201.656 239.801 202.094 239.628 202.623 239.628C203.022 239.628 203.37 239.711 203.665 239.877V240.354C203.356 240.178 203.032 240.091 202.694 240.091C202.294 240.091 201.963 240.219 201.702 240.475C201.44 240.722 201.309 241.042 201.309 241.436C201.309 241.82 201.44 242.14 201.702 242.397C201.968 242.648 202.299 242.774 202.694 242.774C203.075 242.774 203.42 242.674 203.729 242.475V242.945C203.406 243.139 203.034 243.237 202.615 243.237Z" fill="white"/>
<path d="M205.089 243.151H204.503L205.531 241.777C205.25 241.73 205.034 241.619 204.882 241.443C204.734 241.263 204.66 241.035 204.66 240.76C204.66 240.442 204.767 240.188 204.982 239.998C205.2 239.808 205.505 239.713 205.895 239.713H207.673V243.151H207.159V241.87H206.052L205.089 243.151ZM205.974 241.422H207.159V240.162H205.974C205.722 240.162 205.526 240.216 205.388 240.326C205.255 240.435 205.189 240.591 205.189 240.795C205.189 240.999 205.255 241.156 205.388 241.265C205.526 241.369 205.722 241.422 205.974 241.422Z" fill="white"/>
<path d="M212.6 244.169H212.108V243.151H208.888V239.713H209.402V242.703H211.451V239.713H211.965V242.703H212.6V244.169Z" fill="white"/>
<path d="M218.172 243.151H217.658V241.777H214.973V241.358L217.665 238.169H218.172V241.301H219V241.777H218.172V243.151ZM217.658 238.866L215.587 241.301H217.658V238.866Z" fill="white"/>
<path d="M239.53 243.151H239V238.169H239.53L241.369 240.582L243.207 238.169H243.73V243.151H243.199V238.966L241.536 241.144H241.209L239.53 238.966V243.151Z" fill="white"/>
<path d="M246.735 243.237C246.188 243.237 245.728 243.068 245.355 242.731C244.987 242.399 244.803 241.967 244.803 241.436C244.803 240.923 244.967 240.494 245.297 240.148C245.631 239.801 246.059 239.628 246.583 239.628C246.863 239.628 247.113 239.685 247.331 239.799C247.549 239.908 247.721 240.053 247.847 240.233C247.973 240.413 248.067 240.605 248.13 240.81C248.193 241.009 248.225 241.21 248.225 241.414V241.557H245.34C245.369 241.927 245.519 242.224 245.791 242.447C246.067 242.665 246.415 242.774 246.837 242.774C247.244 242.774 247.619 242.667 247.963 242.454V242.909C247.677 243.127 247.268 243.237 246.735 243.237ZM245.347 241.137H247.694C247.68 240.871 247.578 240.632 247.389 240.418C247.21 240.2 246.934 240.091 246.561 240.091C246.212 240.091 245.926 240.195 245.703 240.404C245.485 240.617 245.367 240.862 245.347 241.137Z" fill="white"/>
<path d="M250.82 243.237C250.283 243.237 249.837 243.066 249.484 242.724C249.13 242.378 248.953 241.946 248.953 241.429C248.953 240.916 249.132 240.489 249.491 240.148C249.844 239.801 250.29 239.628 250.828 239.628C251.234 239.628 251.588 239.711 251.888 239.877V240.354C251.574 240.178 251.244 240.091 250.9 240.091C250.493 240.091 250.157 240.219 249.89 240.475C249.624 240.722 249.491 241.042 249.491 241.436C249.491 241.82 249.624 242.14 249.89 242.397C250.162 242.648 250.498 242.774 250.9 242.774C251.288 242.774 251.639 242.674 251.954 242.475V242.945C251.624 243.139 251.247 243.237 250.82 243.237Z" fill="white"/>
<path d="M253.337 243.151H252.741L253.788 241.777C253.502 241.73 253.281 241.619 253.126 241.443C252.976 241.263 252.901 241.035 252.901 240.76C252.901 240.442 253.01 240.188 253.228 239.998C253.451 239.808 253.761 239.713 254.158 239.713H255.967V243.151H255.444V241.87H254.318L253.337 243.151ZM254.238 241.422H255.444V240.162H254.238C253.981 240.162 253.783 240.216 253.642 240.326C253.507 240.435 253.439 240.591 253.439 240.795C253.439 240.999 253.507 241.156 253.642 241.265C253.783 241.369 253.981 241.422 254.238 241.422Z" fill="white"/>
<path d="M260.982 244.169H260.48V243.151H257.204V239.713H257.727V242.703H259.812V239.713H260.335V242.703H260.982V244.169Z" fill="white"/>
<path d="M264.987 243.237C264.435 243.237 263.968 243.127 263.585 242.909V242.382C263.982 242.624 264.445 242.745 264.973 242.745C265.404 242.745 265.76 242.636 266.041 242.418C266.322 242.2 266.462 241.92 266.462 241.578C266.462 241.241 266.329 240.968 266.063 240.76C265.801 240.546 265.452 240.439 265.017 240.439C264.6 240.439 264.193 240.508 263.796 240.646L264.13 238.169H266.644V238.646H264.537L264.334 240.084C264.566 240.022 264.835 239.991 265.14 239.991C265.673 239.991 266.116 240.14 266.47 240.439C266.823 240.729 267 241.108 267 241.578C267 242.072 266.809 242.47 266.426 242.774C266.039 243.082 265.559 243.237 264.987 243.237Z" fill="white"/>
<path fill-rule="evenodd" clip-rule="evenodd" d="M40.5044 228.225L40.5044 -1.77534e-08L40.974 0L40.974 228.225L40.5044 228.225Z" fill="#5E5E5E"/>
<path fill-rule="evenodd" clip-rule="evenodd" d="M87.9338 230.104L87.9339 -1.80107e-08L88.4034 0L88.4034 230.104L87.9338 230.104Z" fill="#5E5E5E"/>
<path fill-rule="evenodd" clip-rule="evenodd" d="M135.364 230.104L135.364 -1.80107e-08L135.833 0L135.833 230.104L135.364 230.104Z" fill="#5E5E5E"/>
<path fill-rule="evenodd" clip-rule="evenodd" d="M182.793 230.104L182.793 -1.80107e-08L183.263 0L183.263 230.104L182.793 230.104Z" fill="#5E5E5E"/>
<path fill-rule="evenodd" clip-rule="evenodd" d="M230.222 230.104L230.222 -1.80107e-08L230.692 0L230.692 230.104L230.222 230.104Z" fill="#5E5E5E"/>
<path fill-rule="evenodd" clip-rule="evenodd" d="M277.652 230.104L277.652 1.40869L278.122 1.40869L278.122 230.104L277.652 230.104Z" fill="#5E5E5E"/>
<path fill-rule="evenodd" clip-rule="evenodd" d="M38.626 1.87855L280 1.87857L280 2.34814L38.626 2.34812L38.626 1.87855Z" fill="#5E5E5E"/>
<path fill-rule="evenodd" clip-rule="evenodd" d="M38.626 124.913L280 124.913L280 125.853L38.626 125.853L38.626 124.913Z" fill="#5E5E5E"/>
<path fill-rule="evenodd" clip-rule="evenodd" d="M38.626 22.5407L280 22.5407L280 23.0103L38.626 23.0102L38.626 22.5407Z" fill="#5E5E5E"/>
<path fill-rule="evenodd" clip-rule="evenodd" d="M38.626 145.576L280 145.576L280 146.045L38.626 146.045L38.626 145.576Z" fill="#5E5E5E"/>
<path fill-rule="evenodd" clip-rule="evenodd" d="M38.626 42.7337L280 42.7337L280 43.6729L38.626 43.6728L38.626 42.7337Z" fill="#5E5E5E"/>
<path fill-rule="evenodd" clip-rule="evenodd" d="M38.626 166.238L280 166.238L280 166.708L38.626 166.708L38.626 166.238Z" fill="#5E5E5E"/>
<path fill-rule="evenodd" clip-rule="evenodd" d="M38.626 63.3958L280 63.3958L280 64.335L38.626 64.335L38.626 63.3958Z" fill="#5E5E5E"/>
<path fill-rule="evenodd" clip-rule="evenodd" d="M38.626 186.431L280 186.431L280 187.37L38.626 187.37L38.626 186.431Z" fill="#5E5E5E"/>
<path fill-rule="evenodd" clip-rule="evenodd" d="M38.626 84.0582L280 84.0582L280 84.5278L38.626 84.5278L38.626 84.0582Z" fill="#5E5E5E"/>
<path fill-rule="evenodd" clip-rule="evenodd" d="M38.626 207.094L280 207.094L280 208.033L38.626 208.033L38.626 207.094Z" fill="#5E5E5E"/>
<path fill-rule="evenodd" clip-rule="evenodd" d="M38.626 104.251L280 104.251L280 105.19L38.626 105.19L38.626 104.251Z" fill="#5E5E5E"/>
<path fill-rule="evenodd" clip-rule="evenodd" d="M38.626 227.755L280 227.756L280 228.225L38.626 228.225L38.626 227.755Z" fill="#5E5E5E"/>
<path d="M73.1 210.169L41 221.962V228.169H278V220.721H245H225.2L201.8 218.859H181.1L136.4 220.721L123.5 217.307L98.9 210.169H73.1Z" fill="url(#paint0_linear)"/>
<path fill-rule="evenodd" clip-rule="evenodd" d="M42.2931 224.41C41.3474 224.769 40.1495 225.169 39.0144 225.169V219.231C38.9922 219.231 38.9949 219.231 39.028 219.223C39.1205 219.203 39.4505 219.129 40.1374 218.868C40.9705 218.551 42.0271 218.081 43.3706 217.466C43.7153 217.308 44.0754 217.142 44.4506 216.969C46.9479 215.819 50.1098 214.362 53.8158 212.909C62.3679 209.557 73.9387 206.169 87.9524 206.169C100.512 206.169 109.406 209.214 116.714 212.18C117.837 212.636 118.906 213.081 119.931 213.507C125.728 215.919 130.12 217.747 135.089 217.747C141.22 217.747 149.388 217.09 157.77 216.416C158.209 216.38 158.649 216.345 159.09 216.31C167.821 215.609 176.702 214.923 183.198 215.076C188.945 215.211 196.511 215.77 204.183 216.337C205.056 216.402 205.931 216.467 206.804 216.531C215.425 217.163 223.94 217.747 230.263 217.747C236.675 217.747 247.07 217.525 256.65 217.303C258.447 217.261 260.216 217.219 261.925 217.178C269.284 217.004 275.526 216.856 278 216.856V222.794C275.605 222.794 269.475 222.939 262.122 223.113C260.401 223.154 258.614 223.196 256.792 223.238C247.232 223.461 236.76 223.685 230.263 223.685C223.676 223.685 214.928 223.081 206.36 222.452C205.489 222.388 204.621 222.324 203.757 222.26C196.039 221.69 188.638 221.143 183.055 221.012C176.941 220.868 168.409 221.518 159.576 222.228C159.096 222.266 158.616 222.305 158.135 222.343C149.869 223.009 141.475 223.685 135.089 223.685C128.803 223.685 123.138 221.309 117.394 218.901C116.411 218.489 115.425 218.076 114.434 217.673C107.481 214.851 99.4117 212.106 87.9524 212.106C74.9335 212.106 64.1368 215.25 56.0289 218.429C52.4979 219.813 49.4996 221.194 46.9995 222.345C46.6199 222.52 46.2517 222.689 45.8949 222.853C44.5653 223.462 43.3382 224.012 42.2931 224.41Z" fill="url(#paint1_linear)"/>
<defs>
<linearGradient id="paint0_linear" x1="159.5" y1="218.547" x2="159.5" y2="228.169" gradientUnits="userSpaceOnUse">
<stop stop-color="#D701B6" stop-opacity="0.34"/>
<stop offset="1" stop-color="#DB01B3" stop-opacity="0"/>
</linearGradient>
<linearGradient id="paint1_linear" x1="274.328" y1="209.044" x2="271.113" y2="243.258" gradientUnits="userSpaceOnUse">
<stop stop-color="#FF0000"/>
<stop offset="0.515625" stop-color="#FF0099"/>
<stop offset="1" stop-color="#7000FF"/>
</linearGradient>
</defs>
</svg>
