<svg width="468" height="417" viewBox="0 0 468 417" fill="none" xmlns="http://www.w3.org/2000/svg">
<path d="M89.3003 408H88.4243V399.6H89.3003L92.3363 403.668L95.3723 399.6H96.2363V408H95.3603V400.944L92.6123 404.616H92.0723L89.3003 400.944V408ZM101.2 408.144C100.296 408.144 99.5362 407.86 98.9202 407.292C98.3122 406.732 98.0082 406.004 98.0082 405.108C98.0082 404.244 98.2802 403.52 98.8242 402.936C99.3762 402.352 100.084 402.06 100.948 402.06C101.412 402.06 101.824 402.156 102.184 402.348C102.544 402.532 102.828 402.776 103.036 403.08C103.244 403.384 103.4 403.708 103.504 404.052C103.608 404.388 103.66 404.728 103.66 405.072V405.312H98.8962C98.9442 405.936 99.1922 406.436 99.6402 406.812C100.096 407.18 100.672 407.364 101.368 407.364C102.04 407.364 102.66 407.184 103.228 406.824V407.592C102.756 407.96 102.08 408.144 101.2 408.144ZM98.9082 404.604H102.784C102.76 404.156 102.592 403.752 102.28 403.392C101.984 403.024 101.528 402.84 100.912 402.84C100.336 402.84 99.8642 403.016 99.4962 403.368C99.1362 403.728 98.9402 404.14 98.9082 404.604ZM107.948 408.144C107.06 408.144 106.324 407.856 105.74 407.28C105.156 406.696 104.864 405.968 104.864 405.096C104.864 404.232 105.16 403.512 105.752 402.936C106.336 402.352 107.072 402.06 107.96 402.06C108.632 402.06 109.216 402.2 109.712 402.48V403.284C109.192 402.988 108.648 402.84 108.08 402.84C107.408 402.84 106.852 403.056 106.412 403.488C105.972 403.904 105.752 404.444 105.752 405.108C105.752 405.756 105.972 406.296 106.412 406.728C106.86 407.152 107.416 407.364 108.08 407.364C108.72 407.364 109.3 407.196 109.82 406.86V407.652C109.276 407.98 108.652 408.144 107.948 408.144ZM112.105 408H111.121L112.849 405.684C112.377 405.604 112.013 405.416 111.757 405.12C111.509 404.816 111.385 404.432 111.385 403.968C111.385 403.432 111.565 403.004 111.925 402.684C112.293 402.364 112.805 402.204 113.461 402.204H116.449V408H115.585V405.84H113.725L112.105 408ZM113.593 405.084H115.585V402.96H113.593C113.169 402.96 112.841 403.052 112.609 403.236C112.385 403.42 112.273 403.684 112.273 404.028C112.273 404.372 112.385 404.636 112.609 404.82C112.841 404.996 113.169 405.084 113.593 405.084ZM124.731 409.716H123.903V408H118.491V402.204H119.355V407.244H122.799V402.204H123.663V407.244H124.731V409.716ZM131.455 408H130.579V400.56L128.695 401.64V400.788L130.675 399.6H131.455V408Z" fill="white"/>
<path d="M5.31448 352H4.43848V344.56L2.55448 345.64V344.788L4.53448 343.6H5.31448V352ZM7.49905 353.824H6.80305L7.76305 350.764H8.77105L7.49905 353.824ZM10.263 347.8C10.263 346.568 10.579 345.54 11.211 344.716C11.851 343.876 12.683 343.456 13.707 343.456C14.723 343.456 15.551 343.872 16.191 344.704C16.823 345.528 17.139 346.56 17.139 347.8C17.139 349.04 16.823 350.072 16.191 350.896C15.551 351.728 14.723 352.144 13.707 352.144C12.683 352.144 11.851 351.728 11.211 350.896C10.579 350.072 10.263 349.04 10.263 347.8ZM16.263 347.8C16.263 346.8 16.023 345.964 15.543 345.292C15.063 344.62 14.451 344.284 13.707 344.284C12.963 344.284 12.351 344.62 11.871 345.292C11.391 345.964 11.151 346.8 11.151 347.8C11.151 348.8 11.387 349.64 11.859 350.32C12.339 350.984 12.955 351.316 13.707 351.316C14.459 351.316 15.071 350.984 15.543 350.32C16.023 349.648 16.263 348.808 16.263 347.8ZM22.9791 352H22.1391V346.204H22.9791L25.2951 348.892L27.6231 346.204H28.4631V352H27.6231V347.392L25.4631 349.9H25.1271L22.9791 347.392V352ZM29.7383 352V351.208C29.7783 351.216 29.8543 351.22 29.9663 351.22C30.4703 351.22 30.8143 350.9 30.9983 350.26C31.1503 349.748 31.2463 349.012 31.2863 348.052L31.3343 346.204H35.6663V352H34.8023V346.96H32.1623L32.1263 348.076C32.1103 348.508 32.0943 348.82 32.0783 349.012C32.0063 349.796 31.8903 350.372 31.7303 350.74C31.5863 351.124 31.3663 351.44 31.0703 351.688C30.7743 351.928 30.4143 352.036 29.9903 352.012C29.8623 352.012 29.7783 352.008 29.7383 352ZM38.5656 352H37.7016V346.204H38.5656V348.64H42.1296V346.204H42.9936V352H42.1296V349.42H38.5656V352ZM45.4336 352.072C45.2576 352.072 45.1096 352.012 44.9896 351.892C44.8696 351.772 44.8096 351.624 44.8096 351.448C44.8096 351.272 44.8696 351.124 44.9896 351.004C45.1096 350.884 45.2576 350.824 45.4336 350.824C45.6096 350.824 45.7576 350.884 45.8776 351.004C45.9976 351.124 46.0576 351.272 46.0576 351.448C46.0576 351.624 45.9976 351.772 45.8776 351.892C45.7576 352.012 45.6096 352.072 45.4336 352.072Z" fill="white"/>
<path d="M21.056 378.8C21.056 377.568 21.372 376.54 22.004 375.716C22.644 374.876 23.476 374.456 24.5 374.456C25.516 374.456 26.344 374.872 26.984 375.704C27.616 376.528 27.932 377.56 27.932 378.8C27.932 380.04 27.616 381.072 26.984 381.896C26.344 382.728 25.516 383.144 24.5 383.144C23.476 383.144 22.644 382.728 22.004 381.896C21.372 381.072 21.056 380.04 21.056 378.8ZM27.056 378.8C27.056 377.8 26.816 376.964 26.336 376.292C25.856 375.62 25.244 375.284 24.5 375.284C23.756 375.284 23.144 375.62 22.664 376.292C22.184 376.964 21.944 377.8 21.944 378.8C21.944 379.8 22.18 380.64 22.652 381.32C23.132 381.984 23.748 382.316 24.5 382.316C25.252 382.316 25.864 381.984 26.336 381.32C26.816 380.648 27.056 379.808 27.056 378.8Z" fill="white"/>
<path d="M3.9732 228.144C2.9892 228.144 2.1732 227.94 1.5252 227.532V226.608C2.2052 227.08 3.0052 227.316 3.9252 227.316C4.5572 227.316 5.1092 227.14 5.5812 226.788C6.0532 226.428 6.2892 225.944 6.2892 225.336C6.2892 224.76 6.0812 224.3 5.6652 223.956C5.2572 223.604 4.7052 223.428 4.0092 223.428C3.6732 223.428 3.3612 223.468 3.0732 223.548V222.936L5.6652 220.404H1.8732V219.6H6.8652V220.26L4.3572 222.72C5.0932 222.736 5.7452 222.984 6.3132 223.464C6.8892 223.944 7.1772 224.568 7.1772 225.336C7.1772 226.168 6.8692 226.844 6.2532 227.364C5.6372 227.884 4.8772 228.144 3.9732 228.144ZM8.61233 229.824H7.91633L8.87633 226.764H9.88433L8.61233 229.824ZM11.3763 223.8C11.3763 222.568 11.6923 221.54 12.3243 220.716C12.9643 219.876 13.7963 219.456 14.8203 219.456C15.8363 219.456 16.6643 219.872 17.3043 220.704C17.9363 221.528 18.2523 222.56 18.2523 223.8C18.2523 225.04 17.9363 226.072 17.3043 226.896C16.6643 227.728 15.8363 228.144 14.8203 228.144C13.7963 228.144 12.9643 227.728 12.3243 226.896C11.6923 226.072 11.3763 225.04 11.3763 223.8ZM17.3763 223.8C17.3763 222.8 17.1363 221.964 16.6563 221.292C16.1763 220.62 15.5643 220.284 14.8203 220.284C14.0763 220.284 13.4643 220.62 12.9843 221.292C12.5043 221.964 12.2643 222.8 12.2643 223.8C12.2643 224.8 12.5003 225.64 12.9723 226.32C13.4523 226.984 14.0683 227.316 14.8203 227.316C15.5723 227.316 16.1843 226.984 16.6563 226.32C17.1363 225.648 17.3763 224.808 17.3763 223.8ZM24.0924 228H23.2524V222.204H24.0924L26.4084 224.892L28.7364 222.204H29.5764V228H28.7364V223.392L26.5764 225.9H26.2404L24.0924 223.392V228ZM30.8516 228V227.208C30.8916 227.216 30.9676 227.22 31.0796 227.22C31.5836 227.22 31.9276 226.9 32.1116 226.26C32.2636 225.748 32.3596 225.012 32.3996 224.052L32.4476 222.204H36.7796V228H35.9156V222.96H33.2756L33.2396 224.076C33.2236 224.508 33.2076 224.82 33.1916 225.012C33.1196 225.796 33.0036 226.372 32.8436 226.74C32.6996 227.124 32.4796 227.44 32.1836 227.688C31.8876 227.928 31.5276 228.036 31.1036 228.012C30.9756 228.012 30.8916 228.008 30.8516 228ZM39.6789 228H38.8149V222.204H39.6789V224.64H43.2429V222.204H44.1069V228H43.2429V225.42H39.6789V228ZM46.5469 228.072C46.3709 228.072 46.2229 228.012 46.1029 227.892C45.9829 227.772 45.9229 227.624 45.9229 227.448C45.9229 227.272 45.9829 227.124 46.1029 227.004C46.2229 226.884 46.3709 226.824 46.5469 226.824C46.7229 226.824 46.8709 226.884 46.9909 227.004C47.1109 227.124 47.1709 227.272 47.1709 227.448C47.1709 227.624 47.1109 227.772 46.9909 227.892C46.8709 228.012 46.7229 228.072 46.5469 228.072Z" fill="white"/>
<path d="M3.44086 104.144C2.52886 104.144 1.75686 103.96 1.12486 103.592V102.704C1.78086 103.112 2.54486 103.316 3.41686 103.316C4.12886 103.316 4.71686 103.132 5.18086 102.764C5.64486 102.396 5.87686 101.924 5.87686 101.348C5.87686 100.78 5.65686 100.32 5.21686 99.968C4.78486 99.608 4.20886 99.428 3.48886 99.428C2.80086 99.428 2.12886 99.544 1.47286 99.776L2.02486 95.6H6.17686V96.404H2.69686L2.36086 98.828C2.74486 98.724 3.18886 98.672 3.69286 98.672C4.57286 98.672 5.30486 98.924 5.88886 99.428C6.47286 99.916 6.76486 100.556 6.76486 101.348C6.76486 102.18 6.44886 102.852 5.81686 103.364C5.17686 103.884 4.38486 104.144 3.44086 104.144ZM8.26467 105.824H7.56867L8.52867 102.764H9.53667L8.26467 105.824ZM11.0286 99.8C11.0286 98.568 11.3446 97.54 11.9766 96.716C12.6166 95.876 13.4486 95.456 14.4726 95.456C15.4886 95.456 16.3166 95.872 16.9566 96.704C17.5886 97.528 17.9046 98.56 17.9046 99.8C17.9046 101.04 17.5886 102.072 16.9566 102.896C16.3166 103.728 15.4886 104.144 14.4726 104.144C13.4486 104.144 12.6166 103.728 11.9766 102.896C11.3446 102.072 11.0286 101.04 11.0286 99.8ZM17.0286 99.8C17.0286 98.8 16.7886 97.964 16.3086 97.292C15.8286 96.62 15.2166 96.284 14.4726 96.284C13.7286 96.284 13.1166 96.62 12.6366 97.292C12.1566 97.964 11.9166 98.8 11.9166 99.8C11.9166 100.8 12.1526 101.64 12.6246 102.32C13.1046 102.984 13.7206 103.316 14.4726 103.316C15.2246 103.316 15.8366 102.984 16.3086 102.32C16.7886 101.648 17.0286 100.808 17.0286 99.8ZM23.7448 104H22.9048V98.204H23.7448L26.0608 100.892L28.3888 98.204H29.2288V104H28.3888V99.392L26.2288 101.9H25.8928L23.7448 99.392V104ZM30.504 104V103.208C30.544 103.216 30.62 103.22 30.732 103.22C31.236 103.22 31.58 102.9 31.764 102.26C31.916 101.748 32.012 101.012 32.052 100.052L32.1 98.204H36.432V104H35.568V98.96H32.928L32.892 100.076C32.876 100.508 32.86 100.82 32.844 101.012C32.772 101.796 32.656 102.372 32.496 102.74C32.352 103.124 32.132 103.44 31.836 103.688C31.54 103.928 31.18 104.036 30.756 104.012C30.628 104.012 30.544 104.008 30.504 104ZM39.3313 104H38.4673V98.204H39.3313V100.64H42.8953V98.204H43.7593V104H42.8953V101.42H39.3313V104ZM46.1992 104.072C46.0232 104.072 45.8752 104.012 45.7552 103.892C45.6352 103.772 45.5752 103.624 45.5752 103.448C45.5752 103.272 45.6352 103.124 45.7552 103.004C45.8752 102.884 46.0232 102.824 46.1992 102.824C46.3752 102.824 46.5232 102.884 46.6432 103.004C46.7632 103.124 46.8232 103.272 46.8232 103.448C46.8232 103.624 46.7632 103.772 46.6432 103.892C46.5232 104.012 46.3752 104.072 46.1992 104.072Z" fill="white"/>
<path d="M6.68559 290H0.961594V289.34L3.79359 286.64C4.41759 286.048 4.85359 285.572 5.10159 285.212C5.35759 284.836 5.48559 284.416 5.48559 283.952C5.48559 283.456 5.30959 283.056 4.95759 282.752C4.60559 282.44 4.14559 282.284 3.57759 282.284C2.68959 282.284 1.88159 282.66 1.15359 283.412V282.416C1.86559 281.776 2.70159 281.456 3.66159 281.456C4.43759 281.456 5.08159 281.676 5.59359 282.116C6.11359 282.564 6.37359 283.14 6.37359 283.844C6.37359 284.404 6.23359 284.916 5.95359 285.38C5.67359 285.836 5.19359 286.384 4.51359 287.024L2.25759 289.196H6.68559V290ZM8.21194 291.824H7.51594L8.47594 288.764H9.48394L8.21194 291.824ZM10.9759 285.8C10.9759 284.568 11.2919 283.54 11.9239 282.716C12.5639 281.876 13.3959 281.456 14.4199 281.456C15.4359 281.456 16.2639 281.872 16.9039 282.704C17.5359 283.528 17.8519 284.56 17.8519 285.8C17.8519 287.04 17.5359 288.072 16.9039 288.896C16.2639 289.728 15.4359 290.144 14.4199 290.144C13.3959 290.144 12.5639 289.728 11.9239 288.896C11.2919 288.072 10.9759 287.04 10.9759 285.8ZM16.9759 285.8C16.9759 284.8 16.7359 283.964 16.2559 283.292C15.7759 282.62 15.1639 282.284 14.4199 282.284C13.6759 282.284 13.0639 282.62 12.5839 283.292C12.1039 283.964 11.8639 284.8 11.8639 285.8C11.8639 286.8 12.0999 287.64 12.5719 288.32C13.0519 288.984 13.6679 289.316 14.4199 289.316C15.1719 289.316 15.7839 288.984 16.2559 288.32C16.7359 287.648 16.9759 286.808 16.9759 285.8ZM23.692 290H22.852V284.204H23.692L26.008 286.892L28.336 284.204H29.176V290H28.336V285.392L26.176 287.9H25.84L23.692 285.392V290ZM30.4512 290V289.208C30.4912 289.216 30.5672 289.22 30.6792 289.22C31.1832 289.22 31.5272 288.9 31.7112 288.26C31.8632 287.748 31.9592 287.012 31.9992 286.052L32.0472 284.204H36.3792V290H35.5152V284.96H32.8752L32.8392 286.076C32.8232 286.508 32.8072 286.82 32.7912 287.012C32.7192 287.796 32.6032 288.372 32.4432 288.74C32.2992 289.124 32.0792 289.44 31.7832 289.688C31.4872 289.928 31.1272 290.036 30.7032 290.012C30.5752 290.012 30.4912 290.008 30.4512 290ZM39.2785 290H38.4145V284.204H39.2785V286.64H42.8425V284.204H43.7065V290H42.8425V287.42H39.2785V290ZM46.1465 290.072C45.9705 290.072 45.8225 290.012 45.7025 289.892C45.5825 289.772 45.5225 289.624 45.5225 289.448C45.5225 289.272 45.5825 289.124 45.7025 289.004C45.8225 288.884 45.9705 288.824 46.1465 288.824C46.3225 288.824 46.4705 288.884 46.5905 289.004C46.7105 289.124 46.7705 289.272 46.7705 289.448C46.7705 289.624 46.7105 289.772 46.5905 289.892C46.4705 290.012 46.3225 290.072 46.1465 290.072Z" fill="white"/>
<path d="M5.97206 166H5.10806V163.684H0.596063V162.976L5.12006 157.6H5.97206V162.88H7.36406V163.684H5.97206V166ZM5.10806 158.776L1.62806 162.88H5.10806V158.776ZM8.48147 167.824H7.78547L8.74547 164.764H9.75347L8.48147 167.824ZM11.2454 161.8C11.2454 160.568 11.5614 159.54 12.1934 158.716C12.8334 157.876 13.6654 157.456 14.6894 157.456C15.7054 157.456 16.5334 157.872 17.1734 158.704C17.8054 159.528 18.1214 160.56 18.1214 161.8C18.1214 163.04 17.8054 164.072 17.1734 164.896C16.5334 165.728 15.7054 166.144 14.6894 166.144C13.6654 166.144 12.8334 165.728 12.1934 164.896C11.5614 164.072 11.2454 163.04 11.2454 161.8ZM17.2454 161.8C17.2454 160.8 17.0054 159.964 16.5254 159.292C16.0454 158.62 15.4334 158.284 14.6894 158.284C13.9454 158.284 13.3334 158.62 12.8534 159.292C12.3734 159.964 12.1334 160.8 12.1334 161.8C12.1334 162.8 12.3694 163.64 12.8414 164.32C13.3214 164.984 13.9374 165.316 14.6894 165.316C15.4414 165.316 16.0534 164.984 16.5254 164.32C17.0054 163.648 17.2454 162.808 17.2454 161.8ZM23.9616 166H23.1216V160.204H23.9616L26.2776 162.892L28.6056 160.204H29.4456V166H28.6056V161.392L26.4456 163.9H26.1096L23.9616 161.392V166ZM30.7208 166V165.208C30.7608 165.216 30.8368 165.22 30.9488 165.22C31.4528 165.22 31.7968 164.9 31.9808 164.26C32.1328 163.748 32.2288 163.012 32.2688 162.052L32.3168 160.204H36.6488V166H35.7848V160.96H33.1448L33.1088 162.076C33.0928 162.508 33.0768 162.82 33.0608 163.012C32.9888 163.796 32.8728 164.372 32.7128 164.74C32.5688 165.124 32.3488 165.44 32.0527 165.688C31.7568 165.928 31.3968 166.036 30.9728 166.012C30.8448 166.012 30.7608 166.008 30.7208 166ZM39.5481 166H38.6841V160.204H39.5481V162.64H43.1121V160.204H43.9761V166H43.1121V163.42H39.5481V166ZM46.416 166.072C46.24 166.072 46.092 166.012 45.972 165.892C45.852 165.772 45.792 165.624 45.792 165.448C45.792 165.272 45.852 165.124 45.972 165.004C46.092 164.884 46.24 164.824 46.416 164.824C46.592 164.824 46.74 164.884 46.86 165.004C46.98 165.124 47.04 165.272 47.04 165.448C47.04 165.624 46.98 165.772 46.86 165.892C46.74 166.012 46.592 166.072 46.416 166.072Z" fill="white"/>
<path d="M4.21364 42.144C3.22964 42.144 2.45364 41.8 1.88564 41.112C1.31764 40.408 1.03364 39.44 1.03364 38.208C1.00964 36.864 1.33364 35.736 2.00564 34.824C2.67764 33.904 3.56964 33.448 4.68164 33.456C5.37764 33.456 5.96964 33.628 6.45764 33.972V34.824C5.92964 34.464 5.36164 34.284 4.75364 34.284C4.12164 34.284 3.58564 34.464 3.14564 34.824C2.70564 35.184 2.38964 35.624 2.19764 36.144C2.01364 36.664 1.91364 37.24 1.89764 37.872C2.12164 37.488 2.44564 37.184 2.86964 36.96C3.30164 36.736 3.79764 36.624 4.35764 36.624C5.12564 36.624 5.76564 36.876 6.27764 37.38C6.80564 37.868 7.06964 38.508 7.06964 39.3C7.06964 40.124 6.79364 40.804 6.24164 41.34C5.70564 41.876 5.02964 42.144 4.21364 42.144ZM4.16564 41.316C4.73364 41.316 5.21364 41.128 5.60564 40.752C5.99764 40.368 6.19364 39.884 6.19364 39.3C6.19364 38.724 5.99764 38.264 5.60564 37.92C5.21364 37.576 4.72564 37.404 4.14164 37.404C3.64564 37.404 3.18964 37.56 2.77364 37.872C2.36564 38.176 2.08164 38.564 1.92164 39.036C1.99364 39.764 2.22164 40.328 2.60564 40.728C2.99764 41.12 3.51764 41.316 4.16564 41.316ZM8.46389 43.824H7.76789L8.72789 40.764H9.73589L8.46389 43.824ZM11.2278 37.8C11.2278 36.568 11.5438 35.54 12.1758 34.716C12.8158 33.876 13.6478 33.456 14.6718 33.456C15.6878 33.456 16.5158 33.872 17.1558 34.704C17.7878 35.528 18.1038 36.56 18.1038 37.8C18.1038 39.04 17.7878 40.072 17.1558 40.896C16.5158 41.728 15.6878 42.144 14.6718 42.144C13.6478 42.144 12.8158 41.728 12.1758 40.896C11.5438 40.072 11.2278 39.04 11.2278 37.8ZM17.2278 37.8C17.2278 36.8 16.9878 35.964 16.5078 35.292C16.0278 34.62 15.4158 34.284 14.6718 34.284C13.9278 34.284 13.3158 34.62 12.8358 35.292C12.3558 35.964 12.1158 36.8 12.1158 37.8C12.1158 38.8 12.3518 39.64 12.8238 40.32C13.3038 40.984 13.9198 41.316 14.6718 41.316C15.4238 41.316 16.0358 40.984 16.5078 40.32C16.9878 39.648 17.2278 38.808 17.2278 37.8ZM23.944 42H23.104V36.204H23.944L26.26 38.892L28.588 36.204H29.428V42H28.588V37.392L26.428 39.9H26.092L23.944 37.392V42ZM30.7032 42V41.208C30.7432 41.216 30.8192 41.22 30.9312 41.22C31.4352 41.22 31.7792 40.9 31.9632 40.26C32.1152 39.748 32.2112 39.012 32.2512 38.052L32.2992 36.204H36.6312V42H35.7672V36.96H33.1272L33.0912 38.076C33.0752 38.508 33.0592 38.82 33.0432 39.012C32.9712 39.796 32.8552 40.372 32.6952 40.74C32.5512 41.124 32.3312 41.44 32.0352 41.688C31.7392 41.928 31.3792 42.036 30.9552 42.012C30.8272 42.012 30.7432 42.008 30.7032 42ZM39.5305 42H38.6665V36.204H39.5305V38.64H43.0945V36.204H43.9585V42H43.0945V39.42H39.5305V42ZM46.3984 42.072C46.2224 42.072 46.0744 42.012 45.9544 41.892C45.8344 41.772 45.7744 41.624 45.7744 41.448C45.7744 41.272 45.8344 41.124 45.9544 41.004C46.0744 40.884 46.2224 40.824 46.3984 40.824C46.5744 40.824 46.7224 40.884 46.8424 41.004C46.9624 41.124 47.0224 41.272 47.0224 41.448C47.0224 41.624 46.9624 41.772 46.8424 41.892C46.7224 42.012 46.5744 42.072 46.3984 42.072Z" fill="white"/>
<path d="M5.48245 321H4.60645V313.56L2.72245 314.64V313.788L4.70245 312.6H5.48245V321ZM7.66702 322.824H6.97102L7.93102 319.764H8.93902L7.66702 322.824ZM12.687 321.144C11.775 321.144 11.003 320.96 10.371 320.592V319.704C11.027 320.112 11.791 320.316 12.663 320.316C13.375 320.316 13.963 320.132 14.427 319.764C14.891 319.396 15.123 318.924 15.123 318.348C15.123 317.78 14.903 317.32 14.463 316.968C14.031 316.608 13.455 316.428 12.735 316.428C12.047 316.428 11.375 316.544 10.719 316.776L11.271 312.6H15.423V313.404H11.943L11.607 315.828C11.991 315.724 12.435 315.672 12.939 315.672C13.819 315.672 14.551 315.924 15.135 316.428C15.719 316.916 16.011 317.556 16.011 318.348C16.011 319.18 15.695 319.852 15.063 320.364C14.423 320.884 13.631 321.144 12.687 321.144ZM21.8112 321H20.9712V315.204H21.8112L24.1272 317.892L26.4552 315.204H27.2952V321H26.4552V316.392L24.2952 318.9H23.9592L21.8112 316.392V321ZM28.5704 321V320.208C28.6104 320.216 28.6864 320.22 28.7984 320.22C29.3024 320.22 29.6464 319.9 29.8304 319.26C29.9824 318.748 30.0784 318.012 30.1184 317.052L30.1664 315.204H34.4984V321H33.6344V315.96H30.9944L30.9584 317.076C30.9424 317.508 30.9264 317.82 30.9104 318.012C30.8384 318.796 30.7224 319.372 30.5624 319.74C30.4184 320.124 30.1984 320.44 29.9024 320.688C29.6064 320.928 29.2464 321.036 28.8224 321.012C28.6944 321.012 28.6104 321.008 28.5704 321ZM37.3977 321H36.5337V315.204H37.3977V317.64H40.9617V315.204H41.8257V321H40.9617V318.42H37.3977V321ZM44.2656 321.072C44.0896 321.072 43.9416 321.012 43.8216 320.892C43.7016 320.772 43.6416 320.624 43.6416 320.448C43.6416 320.272 43.7016 320.124 43.8216 320.004C43.9416 319.884 44.0896 319.824 44.2656 319.824C44.4416 319.824 44.5896 319.884 44.7096 320.004C44.8296 320.124 44.8896 320.272 44.8896 320.448C44.8896 320.624 44.8296 320.772 44.7096 320.892C44.5896 321.012 44.4416 321.072 44.2656 321.072Z" fill="white"/>
<path d="M4.14117 197.144C3.15717 197.144 2.34117 196.94 1.69317 196.532V195.608C2.37317 196.08 3.17317 196.316 4.09317 196.316C4.72517 196.316 5.27717 196.14 5.74917 195.788C6.22117 195.428 6.45717 194.944 6.45717 194.336C6.45717 193.76 6.24917 193.3 5.83317 192.956C5.42517 192.604 4.87317 192.428 4.17717 192.428C3.84117 192.428 3.52917 192.468 3.24117 192.548V191.936L5.83317 189.404H2.04117V188.6H7.03317V189.26L4.52517 191.72C5.26117 191.736 5.91317 191.984 6.48117 192.464C7.05717 192.944 7.34517 193.568 7.34517 194.336C7.34517 195.168 7.03717 195.844 6.42117 196.364C5.80517 196.884 5.04517 197.144 4.14117 197.144ZM8.7803 198.824H8.0843L9.0443 195.764H10.0523L8.7803 198.824ZM13.8002 197.144C12.8882 197.144 12.1162 196.96 11.4842 196.592V195.704C12.1402 196.112 12.9042 196.316 13.7762 196.316C14.4882 196.316 15.0762 196.132 15.5402 195.764C16.0042 195.396 16.2362 194.924 16.2362 194.348C16.2362 193.78 16.0162 193.32 15.5762 192.968C15.1442 192.608 14.5682 192.428 13.8482 192.428C13.1602 192.428 12.4882 192.544 11.8322 192.776L12.3842 188.6H16.5362V189.404H13.0562L12.7202 191.828C13.1042 191.724 13.5482 191.672 14.0522 191.672C14.9322 191.672 15.6642 191.924 16.2482 192.428C16.8322 192.916 17.1242 193.556 17.1242 194.348C17.1242 195.18 16.8082 195.852 16.1762 196.364C15.5362 196.884 14.7442 197.144 13.8002 197.144ZM22.9245 197H22.0845V191.204H22.9245L25.2405 193.892L27.5685 191.204H28.4085V197H27.5685V192.392L25.4085 194.9H25.0725L22.9245 192.392V197ZM29.6836 197V196.208C29.7236 196.216 29.7996 196.22 29.9116 196.22C30.4156 196.22 30.7596 195.9 30.9436 195.26C31.0956 194.748 31.1916 194.012 31.2316 193.052L31.2796 191.204H35.6116V197H34.7476V191.96H32.1076L32.0716 193.076C32.0556 193.508 32.0396 193.82 32.0236 194.012C31.9516 194.796 31.8356 195.372 31.6756 195.74C31.5316 196.124 31.3116 196.44 31.0156 196.688C30.7196 196.928 30.3596 197.036 29.9356 197.012C29.8076 197.012 29.7236 197.008 29.6836 197ZM38.511 197H37.647V191.204H38.511V193.64H42.075V191.204H42.939V197H42.075V194.42H38.511V197ZM45.3789 197.072C45.2029 197.072 45.0549 197.012 44.9349 196.892C44.8149 196.772 44.7549 196.624 44.7549 196.448C44.7549 196.272 44.8149 196.124 44.9349 196.004C45.0549 195.884 45.2029 195.824 45.3789 195.824C45.5549 195.824 45.7029 195.884 45.8229 196.004C45.9429 196.124 46.0029 196.272 46.0029 196.448C46.0029 196.624 45.9429 196.772 45.8229 196.892C45.7029 197.012 45.5549 197.072 45.3789 197.072Z" fill="white"/>
<path d="M4.10883 73.144C3.19683 73.144 2.42483 72.96 1.79283 72.592V71.704C2.44883 72.112 3.21283 72.316 4.08483 72.316C4.79683 72.316 5.38483 72.132 5.84883 71.764C6.31283 71.396 6.54483 70.924 6.54483 70.348C6.54483 69.78 6.32483 69.32 5.88483 68.968C5.45283 68.608 4.87683 68.428 4.15683 68.428C3.46883 68.428 2.79683 68.544 2.14083 68.776L2.69283 64.6H6.84483V65.404H3.36483L3.02883 67.828C3.41283 67.724 3.85683 67.672 4.36083 67.672C5.24083 67.672 5.97283 67.924 6.55683 68.428C7.14083 68.916 7.43283 69.556 7.43283 70.348C7.43283 71.18 7.11683 71.852 6.48483 72.364C5.84483 72.884 5.05283 73.144 4.10883 73.144ZM8.93264 74.824H8.23664L9.19664 71.764H10.2046L8.93264 74.824ZM13.9526 73.144C13.0406 73.144 12.2686 72.96 11.6366 72.592V71.704C12.2926 72.112 13.0566 72.316 13.9286 72.316C14.6406 72.316 15.2286 72.132 15.6926 71.764C16.1566 71.396 16.3886 70.924 16.3886 70.348C16.3886 69.78 16.1686 69.32 15.7286 68.968C15.2966 68.608 14.7206 68.428 14.0006 68.428C13.3126 68.428 12.6406 68.544 11.9846 68.776L12.5366 64.6H16.6886V65.404H13.2086L12.8726 67.828C13.2566 67.724 13.7006 67.672 14.2046 67.672C15.0846 67.672 15.8166 67.924 16.4006 68.428C16.9846 68.916 17.2766 69.556 17.2766 70.348C17.2766 71.18 16.9606 71.852 16.3286 72.364C15.6886 72.884 14.8966 73.144 13.9526 73.144ZM23.0768 73H22.2368V67.204H23.0768L25.3928 69.892L27.7208 67.204H28.5608V73H27.7208V68.392L25.5608 70.9H25.2248L23.0768 68.392V73ZM29.836 73V72.208C29.876 72.216 29.952 72.22 30.064 72.22C30.568 72.22 30.912 71.9 31.096 71.26C31.248 70.748 31.344 70.012 31.384 69.052L31.432 67.204H35.764V73H34.9V67.96H32.26L32.224 69.076C32.208 69.508 32.192 69.82 32.176 70.012C32.104 70.796 31.988 71.372 31.828 71.74C31.684 72.124 31.464 72.44 31.168 72.688C30.872 72.928 30.512 73.036 30.088 73.012C29.96 73.012 29.876 73.008 29.836 73ZM38.6633 73H37.7993V67.204H38.6633V69.64H42.2273V67.204H43.0913V73H42.2273V70.42H38.6633V73ZM45.5312 73.072C45.3552 73.072 45.2072 73.012 45.0872 72.892C44.9672 72.772 44.9072 72.624 44.9072 72.448C44.9072 72.272 44.9672 72.124 45.0872 72.004C45.2072 71.884 45.3552 71.824 45.5312 71.824C45.7072 71.824 45.8552 71.884 45.9752 72.004C46.0952 72.124 46.1552 72.272 46.1552 72.448C46.1552 72.624 46.0952 72.772 45.9752 72.892C45.8552 73.012 45.7072 73.072 45.5312 73.072Z" fill="white"/>
<path d="M7.35356 259H1.62956V258.34L4.46156 255.64C5.08556 255.048 5.52156 254.572 5.76956 254.212C6.02556 253.836 6.15356 253.416 6.15356 252.952C6.15356 252.456 5.97756 252.056 5.62556 251.752C5.27356 251.44 4.81356 251.284 4.24556 251.284C3.35756 251.284 2.54956 251.66 1.82156 252.412V251.416C2.53356 250.776 3.36956 250.456 4.32956 250.456C5.10556 250.456 5.74956 250.676 6.26156 251.116C6.78156 251.564 7.04156 252.14 7.04156 252.844C7.04156 253.404 6.90156 253.916 6.62156 254.38C6.34156 254.836 5.86156 255.384 5.18156 256.024L2.92556 258.196H7.35356V259ZM8.87991 260.824H8.18391L9.14391 257.764H10.1519L8.87991 260.824ZM13.8998 259.144C12.9878 259.144 12.2158 258.96 11.5838 258.592V257.704C12.2398 258.112 13.0038 258.316 13.8758 258.316C14.5878 258.316 15.1758 258.132 15.6398 257.764C16.1038 257.396 16.3358 256.924 16.3358 256.348C16.3358 255.78 16.1158 255.32 15.6758 254.968C15.2438 254.608 14.6678 254.428 13.9478 254.428C13.2598 254.428 12.5878 254.544 11.9318 254.776L12.4838 250.6H16.6358V251.404H13.1558L12.8198 253.828C13.2038 253.724 13.6478 253.672 14.1518 253.672C15.0318 253.672 15.7638 253.924 16.3478 254.428C16.9318 254.916 17.2238 255.556 17.2238 256.348C17.2238 257.18 16.9078 257.852 16.2758 258.364C15.6358 258.884 14.8438 259.144 13.8998 259.144ZM23.0241 259H22.1841V253.204H23.0241L25.3401 255.892L27.6681 253.204H28.5081V259H27.6681V254.392L25.5081 256.9H25.1721L23.0241 254.392V259ZM29.7833 259V258.208C29.8233 258.216 29.8993 258.22 30.0113 258.22C30.5153 258.22 30.8593 257.9 31.0433 257.26C31.1953 256.748 31.2913 256.012 31.3313 255.052L31.3793 253.204H35.7113V259H34.8473V253.96H32.2073L32.1713 255.076C32.1553 255.508 32.1393 255.82 32.1233 256.012C32.0513 256.796 31.9353 257.372 31.7753 257.74C31.6313 258.124 31.4113 258.44 31.1152 258.688C30.8193 258.928 30.4593 259.036 30.0353 259.012C29.9073 259.012 29.8233 259.008 29.7833 259ZM38.6106 259H37.7466V253.204H38.6106V255.64H42.1746V253.204H43.0386V259H42.1746V256.42H38.6106V259ZM45.4785 259.072C45.3025 259.072 45.1545 259.012 45.0345 258.892C44.9145 258.772 44.8545 258.624 44.8545 258.448C44.8545 258.272 44.9145 258.124 45.0345 258.004C45.1545 257.884 45.3025 257.824 45.4785 257.824C45.6545 257.824 45.8025 257.884 45.9225 258.004C46.0425 258.124 46.1025 258.272 46.1025 258.448C46.1025 258.624 46.0425 258.772 45.9225 258.892C45.8025 259.012 45.6545 259.072 45.4785 259.072Z" fill="white"/>
<path d="M7.14003 135H6.27603V132.684H1.76403V131.976L6.28803 126.6H7.14003V131.88H8.53203V132.684H7.14003V135ZM6.27603 127.776L2.79603 131.88H6.27603V127.776ZM9.64944 136.824H8.95344L9.91344 133.764H10.9214L9.64944 136.824ZM14.6694 135.144C13.7574 135.144 12.9854 134.96 12.3534 134.592V133.704C13.0094 134.112 13.7734 134.316 14.6454 134.316C15.3574 134.316 15.9454 134.132 16.4094 133.764C16.8734 133.396 17.1054 132.924 17.1054 132.348C17.1054 131.78 16.8854 131.32 16.4454 130.968C16.0134 130.608 15.4374 130.428 14.7174 130.428C14.0294 130.428 13.3574 130.544 12.7014 130.776L13.2534 126.6H17.4054V127.404H13.9254L13.5894 129.828C13.9734 129.724 14.4174 129.672 14.9214 129.672C15.8014 129.672 16.5334 129.924 17.1174 130.428C17.7014 130.916 17.9934 131.556 17.9934 132.348C17.9934 133.18 17.6774 133.852 17.0454 134.364C16.4054 134.884 15.6134 135.144 14.6694 135.144ZM23.7936 135H22.9536V129.204H23.7936L26.1096 131.892L28.4376 129.204H29.2776V135H28.4376V130.392L26.2776 132.9H25.9416L23.7936 130.392V135ZM30.5528 135V134.208C30.5928 134.216 30.6688 134.22 30.7808 134.22C31.2848 134.22 31.6288 133.9 31.8128 133.26C31.9648 132.748 32.0608 132.012 32.1008 131.052L32.1488 129.204H36.4808V135H35.6168V129.96H32.9768L32.9408 131.076C32.9248 131.508 32.9088 131.82 32.8928 132.012C32.8208 132.796 32.7048 133.372 32.5448 133.74C32.4008 134.124 32.1808 134.44 31.8848 134.688C31.5888 134.928 31.2288 135.036 30.8048 135.012C30.6768 135.012 30.5928 135.008 30.5528 135ZM39.3801 135H38.5161V129.204H39.3801V131.64H42.9441V129.204H43.8081V135H42.9441V132.42H39.3801V135ZM46.248 135.072C46.072 135.072 45.924 135.012 45.804 134.892C45.684 134.772 45.624 134.624 45.624 134.448C45.624 134.272 45.684 134.124 45.804 134.004C45.924 133.884 46.072 133.824 46.248 133.824C46.424 133.824 46.572 133.884 46.692 134.004C46.812 134.124 46.872 134.272 46.872 134.448C46.872 134.624 46.812 134.772 46.692 134.892C46.572 135.012 46.424 135.072 46.248 135.072Z" fill="white"/>
<path d="M5.38161 11.144C4.39761 11.144 3.62161 10.8 3.05361 10.112C2.48561 9.408 2.20161 8.44 2.20161 7.208C2.17761 5.864 2.50161 4.736 3.17361 3.824C3.84561 2.904 4.73761 2.448 5.84961 2.456C6.54561 2.456 7.13761 2.628 7.62561 2.972V3.824C7.09761 3.464 6.52961 3.284 5.92161 3.284C5.28961 3.284 4.75361 3.464 4.31361 3.824C3.87361 4.184 3.55761 4.624 3.36561 5.144C3.18161 5.664 3.08161 6.24 3.06561 6.872C3.28961 6.488 3.61361 6.184 4.03761 5.96C4.46961 5.736 4.96561 5.624 5.52561 5.624C6.29361 5.624 6.93361 5.876 7.44561 6.38C7.97361 6.868 8.23761 7.508 8.23761 8.3C8.23761 9.124 7.96161 9.804 7.40961 10.34C6.87361 10.876 6.19761 11.144 5.38161 11.144ZM5.33361 10.316C5.90161 10.316 6.38161 10.128 6.77361 9.752C7.16561 9.368 7.36161 8.884 7.36161 8.3C7.36161 7.724 7.16561 7.264 6.77361 6.92C6.38161 6.576 5.89361 6.404 5.30961 6.404C4.81361 6.404 4.35761 6.56 3.94161 6.872C3.53361 7.176 3.24961 7.564 3.08961 8.036C3.16161 8.764 3.38961 9.328 3.77361 9.728C4.16561 10.12 4.68561 10.316 5.33361 10.316ZM9.63186 12.824H8.93586L9.89586 9.764H10.9039L9.63186 12.824ZM14.6518 11.144C13.7398 11.144 12.9678 10.96 12.3358 10.592V9.704C12.9918 10.112 13.7558 10.316 14.6278 10.316C15.3398 10.316 15.9278 10.132 16.3918 9.764C16.8558 9.396 17.0878 8.924 17.0878 8.348C17.0878 7.78 16.8678 7.32 16.4278 6.968C15.9958 6.608 15.4198 6.428 14.6998 6.428C14.0118 6.428 13.3398 6.544 12.6838 6.776L13.2358 2.6H17.3878V3.404H13.9078L13.5718 5.828C13.9558 5.724 14.3998 5.672 14.9038 5.672C15.7838 5.672 16.5158 5.924 17.0998 6.428C17.6838 6.916 17.9758 7.556 17.9758 8.348C17.9758 9.18 17.6598 9.852 17.0278 10.364C16.3878 10.884 15.5958 11.144 14.6518 11.144ZM23.776 11H22.936V5.204H23.776L26.092 7.892L28.42 5.204H29.26V11H28.42V6.392L26.26 8.9H25.924L23.776 6.392V11ZM30.5352 11V10.208C30.5752 10.216 30.6512 10.22 30.7632 10.22C31.2672 10.22 31.6112 9.9 31.7952 9.26C31.9472 8.748 32.0432 8.012 32.0832 7.052L32.1312 5.204H36.4632V11H35.5992V5.96H32.9592L32.9232 7.076C32.9072 7.508 32.8912 7.82 32.8752 8.012C32.8032 8.796 32.6872 9.372 32.5272 9.74C32.3832 10.124 32.1632 10.44 31.8672 10.688C31.5712 10.928 31.2112 11.036 30.7872 11.012C30.6592 11.012 30.5752 11.008 30.5352 11ZM39.3625 11H38.4985V5.204H39.3625V7.64H42.9265V5.204H43.7905V11H42.9265V8.42H39.3625V11ZM46.2305 11.072C46.0545 11.072 45.9065 11.012 45.7865 10.892C45.6665 10.772 45.6065 10.624 45.6065 10.448C45.6065 10.272 45.6665 10.124 45.7865 10.004C45.9065 9.884 46.0545 9.824 46.2305 9.824C46.4065 9.824 46.5545 9.884 46.6745 10.004C46.7945 10.124 46.8545 10.272 46.8545 10.448C46.8545 10.624 46.7945 10.772 46.6745 10.892C46.5545 11.012 46.4065 11.072 46.2305 11.072Z" fill="white"/>
<path d="M164.087 408H163.211V399.6H164.087L167.123 403.668L170.159 399.6H171.023V408H170.147V400.944L167.399 404.616H166.859L164.087 400.944V408ZM175.987 408.144C175.083 408.144 174.323 407.86 173.707 407.292C173.099 406.732 172.795 406.004 172.795 405.108C172.795 404.244 173.067 403.52 173.611 402.936C174.163 402.352 174.871 402.06 175.735 402.06C176.199 402.06 176.611 402.156 176.971 402.348C177.331 402.532 177.615 402.776 177.823 403.08C178.031 403.384 178.187 403.708 178.291 404.052C178.395 404.388 178.447 404.728 178.447 405.072V405.312H173.683C173.731 405.936 173.979 406.436 174.427 406.812C174.883 407.18 175.459 407.364 176.155 407.364C176.827 407.364 177.447 407.184 178.015 406.824V407.592C177.543 407.96 176.867 408.144 175.987 408.144ZM173.695 404.604H177.571C177.547 404.156 177.379 403.752 177.067 403.392C176.771 403.024 176.315 402.84 175.699 402.84C175.123 402.84 174.651 403.016 174.283 403.368C173.923 403.728 173.727 404.14 173.695 404.604ZM182.735 408.144C181.847 408.144 181.111 407.856 180.527 407.28C179.943 406.696 179.651 405.968 179.651 405.096C179.651 404.232 179.947 403.512 180.539 402.936C181.123 402.352 181.859 402.06 182.747 402.06C183.419 402.06 184.003 402.2 184.499 402.48V403.284C183.979 402.988 183.435 402.84 182.867 402.84C182.195 402.84 181.639 403.056 181.199 403.488C180.759 403.904 180.539 404.444 180.539 405.108C180.539 405.756 180.759 406.296 181.199 406.728C181.647 407.152 182.203 407.364 182.867 407.364C183.507 407.364 184.087 407.196 184.607 406.86V407.652C184.063 407.98 183.439 408.144 182.735 408.144ZM186.892 408H185.908L187.636 405.684C187.164 405.604 186.8 405.416 186.544 405.12C186.296 404.816 186.172 404.432 186.172 403.968C186.172 403.432 186.352 403.004 186.712 402.684C187.08 402.364 187.592 402.204 188.248 402.204H191.236V408H190.372V405.84H188.512L186.892 408ZM188.38 405.084H190.372V402.96H188.38C187.956 402.96 187.628 403.052 187.396 403.236C187.172 403.42 187.06 403.684 187.06 404.028C187.06 404.372 187.172 404.636 187.396 404.82C187.628 404.996 187.956 405.084 188.38 405.084ZM199.518 409.716H198.69V408H193.278V402.204H194.142V407.244H197.586V402.204H198.45V407.244H199.518V409.716ZM209.326 408H203.602V407.34L206.434 404.64C207.058 404.048 207.494 403.572 207.742 403.212C207.998 402.836 208.126 402.416 208.126 401.952C208.126 401.456 207.95 401.056 207.598 400.752C207.246 400.44 206.786 400.284 206.218 400.284C205.33 400.284 204.522 400.66 203.794 401.412V400.416C204.506 399.776 205.342 399.456 206.302 399.456C207.078 399.456 207.722 399.676 208.234 400.116C208.754 400.564 209.014 401.14 209.014 401.844C209.014 402.404 208.874 402.916 208.594 403.38C208.314 403.836 207.834 404.384 207.154 405.024L204.898 407.196H209.326V408Z" fill="white"/>
<path d="M242.111 408H241.235V399.6H242.111L245.147 403.668L248.183 399.6H249.047V408H248.171V400.944L245.423 404.616H244.883L242.111 400.944V408ZM254.011 408.144C253.107 408.144 252.347 407.86 251.731 407.292C251.123 406.732 250.819 406.004 250.819 405.108C250.819 404.244 251.091 403.52 251.635 402.936C252.187 402.352 252.895 402.06 253.759 402.06C254.223 402.06 254.635 402.156 254.995 402.348C255.355 402.532 255.639 402.776 255.847 403.08C256.055 403.384 256.211 403.708 256.315 404.052C256.419 404.388 256.471 404.728 256.471 405.072V405.312H251.707C251.755 405.936 252.003 406.436 252.451 406.812C252.907 407.18 253.483 407.364 254.179 407.364C254.851 407.364 255.471 407.184 256.039 406.824V407.592C255.567 407.96 254.891 408.144 254.011 408.144ZM251.719 404.604H255.595C255.571 404.156 255.403 403.752 255.091 403.392C254.795 403.024 254.339 402.84 253.723 402.84C253.147 402.84 252.675 403.016 252.307 403.368C251.947 403.728 251.751 404.14 251.719 404.604ZM260.758 408.144C259.87 408.144 259.134 407.856 258.55 407.28C257.966 406.696 257.674 405.968 257.674 405.096C257.674 404.232 257.97 403.512 258.562 402.936C259.146 402.352 259.882 402.06 260.77 402.06C261.442 402.06 262.026 402.2 262.522 402.48V403.284C262.002 402.988 261.458 402.84 260.89 402.84C260.218 402.84 259.662 403.056 259.222 403.488C258.782 403.904 258.562 404.444 258.562 405.108C258.562 405.756 258.782 406.296 259.222 406.728C259.67 407.152 260.226 407.364 260.89 407.364C261.53 407.364 262.11 407.196 262.63 406.86V407.652C262.086 407.98 261.462 408.144 260.758 408.144ZM264.915 408H263.931L265.659 405.684C265.187 405.604 264.823 405.416 264.567 405.12C264.319 404.816 264.195 404.432 264.195 403.968C264.195 403.432 264.375 403.004 264.735 402.684C265.103 402.364 265.615 402.204 266.271 402.204H269.259V408H268.395V405.84H266.535L264.915 408ZM266.403 405.084H268.395V402.96H266.403C265.979 402.96 265.651 403.052 265.419 403.236C265.195 403.42 265.083 403.684 265.083 404.028C265.083 404.372 265.195 404.636 265.419 404.82C265.651 404.996 265.979 405.084 266.403 405.084ZM277.541 409.716H276.713V408H271.301V402.204H272.165V407.244H275.609V402.204H276.473V407.244H277.541V409.716ZM284.038 408.144C283.054 408.144 282.238 407.94 281.59 407.532V406.608C282.27 407.08 283.07 407.316 283.99 407.316C284.622 407.316 285.174 407.14 285.646 406.788C286.118 406.428 286.354 405.944 286.354 405.336C286.354 404.76 286.146 404.3 285.73 403.956C285.322 403.604 284.77 403.428 284.074 403.428C283.738 403.428 283.426 403.468 283.138 403.548V402.936L285.73 400.404H281.938V399.6H286.93V400.26L284.422 402.72C285.158 402.736 285.81 402.984 286.378 403.464C286.954 403.944 287.242 404.568 287.242 405.336C287.242 406.168 286.934 406.844 286.318 407.364C285.702 407.884 284.942 408.144 284.038 408.144Z" fill="white"/>
<path d="M319.742 408H318.866V399.6H319.742L322.778 403.668L325.814 399.6H326.678V408H325.802V400.944L323.054 404.616H322.514L319.742 400.944V408ZM331.642 408.144C330.738 408.144 329.978 407.86 329.362 407.292C328.754 406.732 328.45 406.004 328.45 405.108C328.45 404.244 328.722 403.52 329.266 402.936C329.818 402.352 330.526 402.06 331.39 402.06C331.854 402.06 332.266 402.156 332.626 402.348C332.986 402.532 333.27 402.776 333.478 403.08C333.686 403.384 333.842 403.708 333.946 404.052C334.05 404.388 334.102 404.728 334.102 405.072V405.312H329.338C329.386 405.936 329.634 406.436 330.082 406.812C330.538 407.18 331.114 407.364 331.81 407.364C332.482 407.364 333.102 407.184 333.67 406.824V407.592C333.198 407.96 332.522 408.144 331.642 408.144ZM329.35 404.604H333.226C333.202 404.156 333.034 403.752 332.722 403.392C332.426 403.024 331.97 402.84 331.354 402.84C330.778 402.84 330.306 403.016 329.938 403.368C329.578 403.728 329.382 404.14 329.35 404.604ZM338.389 408.144C337.501 408.144 336.765 407.856 336.181 407.28C335.597 406.696 335.305 405.968 335.305 405.096C335.305 404.232 335.601 403.512 336.193 402.936C336.777 402.352 337.513 402.06 338.401 402.06C339.073 402.06 339.657 402.2 340.153 402.48V403.284C339.633 402.988 339.089 402.84 338.521 402.84C337.849 402.84 337.293 403.056 336.853 403.488C336.413 403.904 336.193 404.444 336.193 405.108C336.193 405.756 336.413 406.296 336.853 406.728C337.301 407.152 337.857 407.364 338.521 407.364C339.161 407.364 339.741 407.196 340.261 406.86V407.652C339.717 407.98 339.093 408.144 338.389 408.144ZM342.546 408H341.562L343.29 405.684C342.818 405.604 342.454 405.416 342.198 405.12C341.95 404.816 341.826 404.432 341.826 403.968C341.826 403.432 342.006 403.004 342.366 402.684C342.734 402.364 343.246 402.204 343.902 402.204H346.89V408H346.026V405.84H344.166L342.546 408ZM344.034 405.084H346.026V402.96H344.034C343.61 402.96 343.282 403.052 343.05 403.236C342.826 403.42 342.714 403.684 342.714 404.028C342.714 404.372 342.826 404.636 343.05 404.82C343.282 404.996 343.61 405.084 344.034 405.084ZM355.172 409.716H354.344V408H348.932V402.204H349.796V407.244H353.24V402.204H354.104V407.244H355.172V409.716ZM364.537 408H363.673V405.684H359.161V404.976L363.685 399.6H364.537V404.88H365.929V405.684H364.537V408ZM363.673 400.776L360.193 404.88H363.673V400.776Z" fill="white"/>
<path d="M400.459 408H399.583V399.6H400.459L403.495 403.668L406.531 399.6H407.395V408H406.519V400.944L403.771 404.616H403.231L400.459 400.944V408ZM412.358 408.144C411.454 408.144 410.694 407.86 410.078 407.292C409.47 406.732 409.166 406.004 409.166 405.108C409.166 404.244 409.438 403.52 409.982 402.936C410.534 402.352 411.242 402.06 412.106 402.06C412.57 402.06 412.982 402.156 413.342 402.348C413.702 402.532 413.986 402.776 414.194 403.08C414.402 403.384 414.558 403.708 414.662 404.052C414.766 404.388 414.818 404.728 414.818 405.072V405.312H410.054C410.102 405.936 410.35 406.436 410.798 406.812C411.254 407.18 411.83 407.364 412.526 407.364C413.198 407.364 413.818 407.184 414.386 406.824V407.592C413.914 407.96 413.238 408.144 412.358 408.144ZM410.066 404.604H413.942C413.918 404.156 413.75 403.752 413.438 403.392C413.142 403.024 412.686 402.84 412.07 402.84C411.494 402.84 411.022 403.016 410.654 403.368C410.294 403.728 410.098 404.14 410.066 404.604ZM419.106 408.144C418.218 408.144 417.482 407.856 416.898 407.28C416.314 406.696 416.022 405.968 416.022 405.096C416.022 404.232 416.318 403.512 416.91 402.936C417.494 402.352 418.23 402.06 419.118 402.06C419.79 402.06 420.374 402.2 420.87 402.48V403.284C420.35 402.988 419.806 402.84 419.238 402.84C418.566 402.84 418.01 403.056 417.57 403.488C417.13 403.904 416.91 404.444 416.91 405.108C416.91 405.756 417.13 406.296 417.57 406.728C418.018 407.152 418.574 407.364 419.238 407.364C419.878 407.364 420.458 407.196 420.978 406.86V407.652C420.434 407.98 419.81 408.144 419.106 408.144ZM423.263 408H422.279L424.007 405.684C423.535 405.604 423.171 405.416 422.915 405.12C422.667 404.816 422.543 404.432 422.543 403.968C422.543 403.432 422.723 403.004 423.083 402.684C423.451 402.364 423.963 402.204 424.619 402.204H427.607V408H426.743V405.84H424.883L423.263 408ZM424.751 405.084H426.743V402.96H424.751C424.327 402.96 423.999 403.052 423.767 403.236C423.543 403.42 423.431 403.684 423.431 404.028C423.431 404.372 423.543 404.636 423.767 404.82C423.999 404.996 424.327 405.084 424.751 405.084ZM435.889 409.716H435.061V408H429.649V402.204H430.513V407.244H433.957V402.204H434.821V407.244H435.889V409.716ZM442.505 408.144C441.593 408.144 440.821 407.96 440.189 407.592V406.704C440.845 407.112 441.609 407.316 442.481 407.316C443.193 407.316 443.781 407.132 444.245 406.764C444.709 406.396 444.941 405.924 444.941 405.348C444.941 404.78 444.721 404.32 444.281 403.968C443.849 403.608 443.273 403.428 442.553 403.428C441.865 403.428 441.193 403.544 440.537 403.776L441.089 399.6H445.241V400.404H441.761L441.425 402.828C441.809 402.724 442.253 402.672 442.757 402.672C443.637 402.672 444.369 402.924 444.953 403.428C445.537 403.916 445.829 404.556 445.829 405.348C445.829 406.18 445.513 406.852 444.881 407.364C444.241 407.884 443.449 408.144 442.505 408.144Z" fill="white"/>
<path fill-rule="evenodd" clip-rule="evenodd" d="M68.132 383.539L68.132 3L68.915 3L68.915 383.539L68.132 383.539Z" fill="#5E5E5E"/>
<path fill-rule="evenodd" clip-rule="evenodd" d="M147.215 386.671L147.215 3L147.998 3L147.998 386.671L147.215 386.671Z" fill="#5E5E5E"/>
<path fill-rule="evenodd" clip-rule="evenodd" d="M226.298 386.671L226.298 3L227.081 3L227.081 386.671L226.298 386.671Z" fill="#5E5E5E"/>
<path fill-rule="evenodd" clip-rule="evenodd" d="M305.382 386.671L305.382 3L306.165 3L306.165 386.671L305.382 386.671Z" fill="#5E5E5E"/>
<path fill-rule="evenodd" clip-rule="evenodd" d="M384.465 386.671L384.465 3L385.248 3L385.248 386.671L384.465 386.671Z" fill="#5E5E5E"/>
<path fill-rule="evenodd" clip-rule="evenodd" d="M463.548 386.671L463.548 5.34912L464.331 5.34912L464.331 386.671L463.548 386.671Z" fill="#5E5E5E"/>
<path fill-rule="evenodd" clip-rule="evenodd" d="M65 6.13204L467.463 6.13208L467.463 6.91504L65 6.91499L65 6.13204Z" fill="#5E5E5E"/>
<path fill-rule="evenodd" clip-rule="evenodd" d="M65 211.279L467.463 211.279L467.463 212.845L65 212.845L65 211.279Z" fill="#5E5E5E"/>
<path fill-rule="evenodd" clip-rule="evenodd" d="M65 40.5842L467.463 40.5842L467.463 41.3672L65 41.3672L65 40.5842Z" fill="#5E5E5E"/>
<path fill-rule="evenodd" clip-rule="evenodd" d="M65 245.731L467.463 245.731L467.463 246.514L65 246.514L65 245.731Z" fill="#5E5E5E"/>
<path fill-rule="evenodd" clip-rule="evenodd" d="M65 74.2533L467.463 74.2533L467.463 75.8193L65 75.8193L65 74.2533Z" fill="#5E5E5E"/>
<path fill-rule="evenodd" clip-rule="evenodd" d="M65 280.183L467.463 280.183L467.463 280.966L65 280.966L65 280.183Z" fill="#5E5E5E"/>
<path fill-rule="evenodd" clip-rule="evenodd" d="M65 108.705L467.463 108.705L467.463 110.271L65 110.271L65 108.705Z" fill="#5E5E5E"/>
<path fill-rule="evenodd" clip-rule="evenodd" d="M65 313.852L467.463 313.852L467.463 315.418L65 315.418L65 313.852Z" fill="#5E5E5E"/>
<path fill-rule="evenodd" clip-rule="evenodd" d="M65 143.157L467.463 143.157L467.463 143.94L65 143.94L65 143.157Z" fill="#5E5E5E"/>
<path fill-rule="evenodd" clip-rule="evenodd" d="M65 348.304L467.463 348.304L467.463 349.87L65 349.87L65 348.304Z" fill="#5E5E5E"/>
<path fill-rule="evenodd" clip-rule="evenodd" d="M65 176.827L467.463 176.827L467.463 178.393L65 178.393L65 176.827Z" fill="#5E5E5E"/>
<path fill-rule="evenodd" clip-rule="evenodd" d="M65 382.756L467.463 382.756L467.463 383.539L65 383.539L65 382.756Z" fill="#5E5E5E"/>
<path d="M122 354L68.5 373V383H463.5V371H408.5H375.5L336.5 368H302L227.5 371L206 365.5L165 354H122Z" fill="url(#paint0_linear)"/>
<path d="M66 374C73 374 102.481 352 147.5 352C187.5 352 204 371.5 226 371.5C248 371.5 285 366.5 306 367C327 367.5 363 371.5 384.5 371.5C406 371.5 454 370 464 370" stroke="url(#paint1_linear)" stroke-width="10"/>
<defs>
<linearGradient id="paint0_linear" x1="266" y1="367.497" x2="266" y2="383" gradientUnits="userSpaceOnUse">
<stop stop-color="#D701B6" stop-opacity="0.34"/>
<stop offset="1" stop-color="#DB01B3" stop-opacity="0"/>
</linearGradient>
<linearGradient id="paint1_linear" x1="457.884" y1="351.843" x2="452.41" y2="409.454" gradientUnits="userSpaceOnUse">
<stop stop-color="#FF0000"/>
<stop offset="0.515625" stop-color="#FF0099"/>
<stop offset="1" stop-color="#7000FF"/>
</linearGradient>
</defs>
</svg>
