<svg width="404" height="438" viewBox="0 0 404 438" fill="none" xmlns="http://www.w3.org/2000/svg">
<path d="M361 88C366.523 88 371 92.4771 371 98V265C371 270.523 366.523 275 361 275H226.914C224.555 275.589 221.718 276.782 219.5 279C215 283.5 215 286.5 215 289.5V322C215 323.5 210 330 204.5 325.5C199 321 158 281 156 279C154.547 277.547 152.303 275.831 146.201 275H100C94.4771 275 90 270.523 90 265V98C90 92.4772 94.4771 88 100 88H361Z" fill="white"/>
<path d="M372 78C377.523 78 382 82.4771 382 88V255C382 260.523 377.523 265 372 265H237.914C235.555 265.589 232.718 266.782 230.5 269C226 273.5 226 276.5 226 279.5V312C226 313.5 221 320 215.5 315.5C210 311 169 271 167 269C165.547 267.547 163.303 265.831 157.201 265H111C105.477 265 101 260.523 101 255V88C101 82.4772 105.477 78 111 78H372Z" stroke="#F07281" stroke-width="3"/>
<circle cx="191.5" cy="49.5" r="13.5" stroke="#F07281" stroke-width="5"/>
<circle cx="265.5" cy="32.5" r="13.5" stroke="#F07281" stroke-width="5"/>
<path fill-rule="evenodd" clip-rule="evenodd" d="M205.5 362.281C201.513 362.281 198.281 365.513 198.281 369.5C198.281 373.487 201.513 376.719 205.5 376.719C209.487 376.719 212.719 373.487 212.719 369.5C212.719 365.513 209.487 362.281 205.5 362.281ZM195 369.5C195 363.701 199.701 359 205.5 359C211.299 359 216 363.701 216 369.5C216 375.299 211.299 380 205.5 380C199.701 380 195 375.299 195 369.5Z" fill="#F07281"/>
<path fill-rule="evenodd" clip-rule="evenodd" d="M66 287.375C60.6843 287.375 56.375 291.684 56.375 297C56.375 302.316 60.6843 306.625 66 306.625C71.3157 306.625 75.625 302.316 75.625 297C75.625 291.684 71.3157 287.375 66 287.375ZM52 297C52 289.268 58.268 283 66 283C73.732 283 80 289.268 80 297C80 304.732 73.732 311 66 311C58.268 311 52 304.732 52 297Z" fill="#F5F5F5"/>
<path fill-rule="evenodd" clip-rule="evenodd" d="M96 362.75C91.4437 362.75 87.75 366.444 87.75 371C87.75 375.556 91.4437 379.25 96 379.25C100.556 379.25 104.25 375.556 104.25 371C104.25 366.444 100.556 362.75 96 362.75ZM84 371C84 364.373 89.3726 359 96 359C102.627 359 108 364.373 108 371C108 377.627 102.627 383 96 383C89.3726 383 84 377.627 84 371Z" fill="#F5F5F5"/>
<path fill-rule="evenodd" clip-rule="evenodd" d="M270 424.5C266.962 424.5 264.5 426.962 264.5 430C264.5 433.038 266.962 435.5 270 435.5C273.038 435.5 275.5 433.038 275.5 430C275.5 426.962 273.038 424.5 270 424.5ZM262 430C262 425.582 265.582 422 270 422C274.418 422 278 425.582 278 430C278 434.418 274.418 438 270 438C265.582 438 262 434.418 262 430Z" fill="#F5F5F5"/>
<path fill-rule="evenodd" clip-rule="evenodd" d="M393.5 5.28125C389.513 5.28125 386.281 8.51319 386.281 12.5C386.281 16.4868 389.513 19.7188 393.5 19.7188C397.487 19.7188 400.719 16.4868 400.719 12.5C400.719 8.51319 397.487 5.28125 393.5 5.28125ZM383 12.5C383 6.70101 387.701 2 393.5 2C399.299 2 404 6.70101 404 12.5C404 18.299 399.299 23 393.5 23C387.701 23 383 18.299 383 12.5Z" fill="#F5F5F5"/>
<path fill-rule="evenodd" clip-rule="evenodd" d="M75.2276 21.0447C76.0505 20.949 76.7951 21.5385 76.8908 22.3614L77.8149 30.3079L84.768 29.4993C85.5909 29.4036 86.3355 29.9931 86.4312 30.816C86.5269 31.6389 85.9374 32.3835 85.1145 32.4792L78.1614 33.2878L79.0855 41.2342C79.1812 42.0571 78.5917 42.8018 77.7688 42.8975C76.9459 42.9932 76.2012 42.4036 76.1056 41.5808L75.1815 33.6343L67.7317 34.5006C66.9088 34.5963 66.1641 34.0068 66.0685 33.1839C65.9728 32.3611 66.5623 31.6164 67.3852 31.5207L74.8349 30.6544L73.9109 22.7079C73.8152 21.8851 74.4047 21.1404 75.2276 21.0447Z" fill="white"/>
<path fill-rule="evenodd" clip-rule="evenodd" d="M44.5 68.2812C40.5132 68.2812 37.2812 71.5132 37.2812 75.5C37.2812 79.4868 40.5132 82.7188 44.5 82.7188C48.4868 82.7188 51.7188 79.4868 51.7188 75.5C51.7188 71.5132 48.4868 68.2812 44.5 68.2812ZM34 75.5C34 69.701 38.701 65 44.5 65C50.299 65 55 69.701 55 75.5C55 81.299 50.299 86 44.5 86C38.701 86 34 81.299 34 75.5Z" fill="#F5F5F5"/>
<path fill-rule="evenodd" clip-rule="evenodd" d="M28.5 187.344C25.6523 187.344 23.3438 189.652 23.3438 192.5C23.3438 195.348 25.6523 197.656 28.5 197.656C31.3477 197.656 33.6562 195.348 33.6562 192.5C33.6562 189.652 31.3477 187.344 28.5 187.344ZM21 192.5C21 188.358 24.3579 185 28.5 185C32.6421 185 36 188.358 36 192.5C36 196.642 32.6421 200 28.5 200C24.3579 200 21 196.642 21 192.5Z" fill="#F5F5F5"/>
<path fill-rule="evenodd" clip-rule="evenodd" d="M313.025 21.0251C313.469 20.5814 314.188 20.5814 314.632 21.0251L319.05 25.4436L323.469 21.0251C323.913 20.5814 324.632 20.5814 325.076 21.0251C325.519 21.4688 325.519 22.1881 325.076 22.6318L320.657 27.0503L325.076 31.4688C325.519 31.9124 325.519 32.6318 325.076 33.0755C324.632 33.5192 323.913 33.5192 323.469 33.0755L319.05 28.657L314.632 33.0755C314.188 33.5192 313.469 33.5192 313.025 33.0755C312.582 32.6318 312.582 31.9124 313.025 31.4688L317.444 27.0503L313.025 22.6318C312.582 22.1881 312.582 21.4688 313.025 21.0251Z" fill="black"/>
<path fill-rule="evenodd" clip-rule="evenodd" d="M156.148 0.633204C156.876 0.679832 157.428 1.30751 157.381 2.03515L156.917 9.28153L164.163 9.74588C164.891 9.79251 165.443 10.4202 165.396 11.1478C165.35 11.8755 164.722 12.4276 163.994 12.3809L156.748 11.9166L156.284 19.163C156.237 19.8906 155.609 20.4427 154.882 20.396C154.154 20.3494 153.602 19.7217 153.649 18.9941L154.113 11.7477L146.866 11.2834C146.139 11.2367 145.587 10.6091 145.633 9.88142C145.68 9.15378 146.308 8.6017 147.035 8.64833L154.282 9.11268L154.746 1.8663C154.793 1.13865 155.42 0.586576 156.148 0.633204Z" fill="black"/>
<path fill-rule="evenodd" clip-rule="evenodd" d="M43.8968 133.346C44.552 133.026 45.3425 133.298 45.6626 133.953L48.8498 140.477L55.3742 137.29C56.0293 136.97 56.8199 137.242 57.1399 137.897C57.46 138.552 57.1883 139.342 56.5332 139.662L50.0088 142.85L53.196 149.374C53.5161 150.029 53.2444 150.82 52.5893 151.14C51.9342 151.46 51.1436 151.188 50.8236 150.533L47.6363 144.009L41.112 147.196C40.4568 147.516 39.6663 147.244 39.3462 146.589C39.0262 145.934 39.2978 145.144 39.953 144.823L46.4773 141.636L43.2901 135.112C42.97 134.457 43.2417 133.666 43.8968 133.346Z" fill="black"/>
<path fill-rule="evenodd" clip-rule="evenodd" d="M13.2955 261.168C14.2745 260.787 15.3767 261.273 15.7573 262.252L19.5472 272.002L29.2972 268.212C30.2763 267.831 31.3785 268.316 31.7591 269.295C32.1396 270.274 31.6545 271.377 30.6754 271.757L20.9254 275.547L24.7154 285.297C25.0959 286.276 24.6108 287.378 23.6317 287.759C22.6527 288.14 21.5505 287.654 21.1699 286.675L17.3799 276.925L7.62994 280.715C6.65089 281.096 5.5487 280.611 5.16813 279.632C4.78756 278.653 5.27272 277.55 6.25177 277.17L16.0018 273.38L12.2118 263.63C11.8312 262.651 12.3164 261.549 13.2955 261.168Z" fill="black"/>
<path fill-rule="evenodd" clip-rule="evenodd" d="M105.295 319.168C106.275 318.787 107.377 319.273 107.757 320.252L111.547 330.002L121.297 326.212C122.276 325.831 123.378 326.316 123.759 327.295C124.14 328.274 123.654 329.377 122.675 329.757L112.925 333.547L116.715 343.297C117.096 344.276 116.611 345.378 115.632 345.759C114.653 346.14 113.55 345.654 113.17 344.675L109.38 334.925L99.6299 338.715C98.6509 339.096 97.5487 338.611 97.1681 337.632C96.7876 336.653 97.2727 335.55 98.2518 335.17L108.002 331.38L104.212 321.63C103.831 320.651 104.316 319.549 105.295 319.168Z" fill="black"/>
<path fill-rule="evenodd" clip-rule="evenodd" d="M251.272 375.356C251.791 374.811 252.653 374.79 253.198 375.309L258.624 380.472L263.787 375.046C264.306 374.502 265.168 374.48 265.713 374.999C266.258 375.517 266.279 376.379 265.76 376.924L260.597 382.35L266.023 387.514C266.567 388.032 266.589 388.894 266.07 389.439C265.552 389.984 264.69 390.005 264.145 389.487L258.719 384.323L253.555 389.749C253.037 390.294 252.175 390.315 251.63 389.797C251.085 389.278 251.064 388.416 251.582 387.871L256.746 382.445L251.32 377.282C250.775 376.763 250.754 375.901 251.272 375.356Z" fill="black"/>
<path fill-rule="evenodd" clip-rule="evenodd" d="M302.62 371.783C302.886 371.431 303.388 371.361 303.74 371.628L307.247 374.282L309.902 370.775C310.168 370.423 310.67 370.353 311.022 370.62C311.374 370.886 311.444 371.388 311.177 371.74L308.523 375.247L312.03 377.902C312.382 378.169 312.452 378.67 312.185 379.022C311.919 379.374 311.417 379.444 311.065 379.177L307.558 376.523L304.903 380.03C304.637 380.383 304.135 380.452 303.783 380.185C303.431 379.919 303.361 379.417 303.628 379.065L306.282 375.558L302.775 372.903C302.423 372.637 302.353 372.135 302.62 371.783Z" fill="black"/>
<path d="M132.407 158H121.307L123.527 144H134.507L133.927 147.7H127.247L127.047 148.94H132.287L131.747 152.34H126.507L126.187 154.3H132.987L132.407 158Z" fill="black"/>
<path d="M139.664 158.26C138.104 158.26 136.777 157.813 135.684 156.92C134.59 156.027 134.044 154.773 134.044 153.16C134.044 151.533 134.644 150.173 135.844 149.08C137.07 147.973 138.584 147.42 140.384 147.42C141.61 147.42 142.717 147.673 143.704 148.18L143.144 151.56C141.864 150.96 140.717 150.813 139.704 151.12C138.704 151.427 138.204 152.04 138.204 152.96C138.204 153.427 138.357 153.8 138.664 154.08C139.144 154.493 139.817 154.7 140.684 154.7C141.43 154.7 142.15 154.567 142.844 154.3L142.284 157.78C141.457 158.1 140.584 158.26 139.664 158.26Z" fill="black"/>
<path d="M152.1 150.98H150.3L150.06 152.28C149.766 153.84 149.313 155.153 148.7 156.22C147.94 157.54 146.78 158.2 145.22 158.2C144.38 158.2 143.773 158.087 143.4 157.86L143.9 154.58C144.086 154.687 144.286 154.74 144.5 154.74C145.06 154.74 145.48 154.393 145.76 153.7C146.053 152.967 146.326 151.787 146.58 150.16L146.98 147.68H156.84L155.22 158H151L152.1 150.98Z" fill="black"/>
<path d="M161.143 158H157.183L158.803 147.68H162.743L162.063 152.06L165.783 147.68H169.743L168.123 158H164.183L164.863 153.64L161.143 158Z" fill="black"/>
<path d="M178.035 160.22H174.015L174.875 154.7H176.155C176.768 153.847 177.275 152.367 177.675 150.26L178.155 147.68H187.795L186.675 154.7H188.155L187.295 160.22H183.335L183.675 158H178.375L178.035 160.22ZM180.275 154.7H182.535L183.155 150.88H181.435C181.168 152.507 180.781 153.78 180.275 154.7Z" fill="black"/>
<path d="M197.158 150.98H195.358L195.118 152.28C194.825 153.84 194.371 155.153 193.758 156.22C192.998 157.54 191.838 158.2 190.278 158.2C189.438 158.2 188.831 158.087 188.458 157.86L188.958 154.58C189.145 154.687 189.345 154.74 189.558 154.74C190.118 154.74 190.538 154.393 190.818 153.7C191.111 152.967 191.385 151.787 191.638 150.16L192.038 147.68H201.898L200.278 158H196.058L197.158 150.98Z" fill="black"/>
<path d="M208.142 147.68H213.902L212.262 158H208.062L208.542 154.96H208.162L205.882 158H201.262L204.342 154.2C203.528 153.627 203.122 152.793 203.122 151.7C203.122 150.42 203.595 149.427 204.542 148.72C205.488 148.027 206.688 147.68 208.142 147.68ZM208.042 152.34H208.962L209.202 150.78H208.342C207.568 150.78 207.182 151.06 207.182 151.62C207.182 151.82 207.262 151.993 207.422 152.14C207.582 152.273 207.788 152.34 208.042 152.34Z" fill="black"/>
<path d="M228.615 152.7C229.642 153.087 230.155 153.793 230.155 154.82C230.155 155.86 229.748 156.653 228.935 157.2C228.135 157.733 227.022 158 225.595 158H219.195L220.815 147.68H227.115C228.088 147.68 228.842 147.92 229.375 148.4C229.922 148.88 230.195 149.48 230.195 150.2C230.195 150.787 230.035 151.307 229.715 151.76C229.408 152.213 229.042 152.527 228.615 152.7ZM225.415 150.22H224.455L224.215 151.78H225.175C225.495 151.78 225.755 151.693 225.955 151.52C226.155 151.347 226.255 151.12 226.255 150.84C226.255 150.427 225.975 150.22 225.415 150.22ZM223.915 153.68L223.635 155.38H224.875C225.662 155.38 226.055 155.033 226.055 154.34C226.055 153.9 225.748 153.68 225.135 153.68H223.915Z" fill="black"/>
<path d="M241.965 154.92C242.125 154.92 242.305 154.887 242.505 154.82L242.025 157.68C241.478 158.067 240.765 158.26 239.885 158.26C238.592 158.26 237.758 157.853 237.385 157.04C237.118 157.387 236.725 157.68 236.205 157.92C235.685 158.147 235.118 158.26 234.505 158.26C233.412 158.26 232.552 157.967 231.925 157.38C231.298 156.793 230.985 156.033 230.985 155.1C230.985 153.98 231.372 153.12 232.145 152.52C232.918 151.907 233.912 151.6 235.125 151.6C236.098 151.6 236.952 151.787 237.685 152.16C237.712 151.973 237.725 151.847 237.725 151.78C237.725 150.98 236.998 150.58 235.545 150.58C234.518 150.58 233.605 150.76 232.805 151.12L233.325 147.98C234.405 147.607 235.572 147.42 236.825 147.42C238.265 147.42 239.472 147.733 240.445 148.36C241.418 148.973 241.905 149.967 241.905 151.34C241.905 151.673 241.845 152.147 241.725 152.76L241.545 153.76C241.492 154.067 241.465 154.313 241.465 154.5C241.465 154.78 241.632 154.92 241.965 154.92ZM237.425 155.08L237.565 154.06C237.298 153.793 236.892 153.66 236.345 153.66C235.945 153.66 235.618 153.753 235.365 153.94C235.125 154.127 235.005 154.393 235.005 154.74C235.005 155.007 235.105 155.233 235.305 155.42C235.505 155.593 235.772 155.68 236.105 155.68C236.665 155.68 237.105 155.48 237.425 155.08Z" fill="black"/>
<path d="M249.136 158.26C247.576 158.26 246.25 157.813 245.156 156.92C244.063 156.027 243.516 154.773 243.516 153.16C243.516 151.533 244.116 150.173 245.316 149.08C246.543 147.973 248.056 147.42 249.856 147.42C251.083 147.42 252.19 147.673 253.176 148.18L252.616 151.56C251.336 150.96 250.19 150.813 249.176 151.12C248.176 151.427 247.676 152.04 247.676 152.96C247.676 153.427 247.83 153.8 248.136 154.08C248.616 154.493 249.29 154.7 250.156 154.7C250.903 154.7 251.623 154.567 252.316 154.3L251.756 157.78C250.93 158.1 250.056 158.26 249.136 158.26Z" fill="black"/>
<path d="M262.633 158H258.433L260.053 147.68H268.693L268.173 150.98H263.733L262.633 158Z" fill="black"/>
<path d="M275.596 150.98H273.796L273.556 152.28C273.262 153.84 272.809 155.153 272.196 156.22C271.436 157.54 270.276 158.2 268.716 158.2C267.876 158.2 267.269 158.087 266.896 157.86L267.396 154.58C267.582 154.687 267.782 154.74 267.996 154.74C268.556 154.74 268.976 154.393 269.256 153.7C269.549 152.967 269.822 151.787 270.076 150.16L270.476 147.68H280.336L278.716 158H274.496L275.596 150.98Z" fill="black"/>
<path d="M291.379 154.92C291.539 154.92 291.719 154.887 291.919 154.82L291.439 157.68C290.893 158.067 290.179 158.26 289.299 158.26C288.006 158.26 287.173 157.853 286.799 157.04C286.533 157.387 286.139 157.68 285.619 157.92C285.099 158.147 284.533 158.26 283.919 158.26C282.826 158.26 281.966 157.967 281.339 157.38C280.713 156.793 280.399 156.033 280.399 155.1C280.399 153.98 280.786 153.12 281.559 152.52C282.333 151.907 283.326 151.6 284.539 151.6C285.513 151.6 286.366 151.787 287.099 152.16C287.126 151.973 287.139 151.847 287.139 151.78C287.139 150.98 286.413 150.58 284.959 150.58C283.933 150.58 283.019 150.76 282.219 151.12L282.739 147.98C283.819 147.607 284.986 147.42 286.239 147.42C287.679 147.42 288.886 147.733 289.859 148.36C290.833 148.973 291.319 149.967 291.319 151.34C291.319 151.673 291.259 152.147 291.139 152.76L290.959 153.76C290.906 154.067 290.879 154.313 290.879 154.5C290.879 154.78 291.046 154.92 291.379 154.92ZM286.839 155.08L286.979 154.06C286.713 153.793 286.306 153.66 285.759 153.66C285.359 153.66 285.033 153.753 284.779 153.94C284.539 154.127 284.419 154.393 284.419 154.74C284.419 155.007 284.519 155.233 284.719 155.42C284.919 155.593 285.186 155.68 285.519 155.68C286.079 155.68 286.519 155.48 286.839 155.08Z" fill="black"/>
<path d="M302.326 152.7C303.352 153.087 303.866 153.793 303.866 154.82C303.866 155.86 303.459 156.653 302.646 157.2C301.846 157.733 300.732 158 299.306 158H292.906L294.526 147.68H300.826C301.799 147.68 302.552 147.92 303.086 148.4C303.632 148.88 303.906 149.48 303.906 150.2C303.906 150.787 303.746 151.307 303.426 151.76C303.119 152.213 302.752 152.527 302.326 152.7ZM299.126 150.22H298.166L297.926 151.78H298.886C299.206 151.78 299.466 151.693 299.666 151.52C299.866 151.347 299.966 151.12 299.966 150.84C299.966 150.427 299.686 150.22 299.126 150.22ZM297.626 153.68L297.346 155.38H298.586C299.372 155.38 299.766 155.033 299.766 154.34C299.766 153.9 299.459 153.68 298.846 153.68H297.626Z" fill="black"/>
<path d="M309.176 158H304.976L306.596 147.68H310.796L310.256 151.08H312.536L313.076 147.68H317.296L315.676 158H311.456L312.016 154.36H309.736L309.176 158Z" fill="black"/>
<path d="M323.792 147.42C325.419 147.42 326.779 147.907 327.872 148.88C328.979 149.84 329.532 151.093 329.532 152.64C329.532 154.147 328.959 155.46 327.812 156.58C326.679 157.7 325.266 158.26 323.572 158.26C321.946 158.26 320.586 157.78 319.492 156.82C318.399 155.847 317.852 154.573 317.852 153C317.852 151.493 318.419 150.193 319.552 149.1C320.686 147.98 322.099 147.42 323.792 147.42ZM323.552 154.7C324.086 154.7 324.532 154.5 324.892 154.1C325.266 153.687 325.452 153.173 325.452 152.56C325.452 152.067 325.299 151.68 324.992 151.4C324.686 151.12 324.292 150.98 323.812 150.98C323.279 150.98 322.832 151.18 322.472 151.58C322.112 151.98 321.932 152.487 321.932 153.1C321.932 153.593 322.086 153.987 322.392 154.28C322.699 154.56 323.086 154.7 323.552 154.7Z" fill="black"/>
<path d="M341.091 151.8C341.091 152.28 341.005 152.927 340.831 153.74H334.391C334.458 154.127 334.718 154.427 335.171 154.64C335.638 154.853 336.198 154.96 336.851 154.96C338.025 154.96 339.151 154.693 340.231 154.16L339.751 157.26C338.845 157.927 337.498 158.26 335.711 158.26C334.205 158.26 332.938 157.807 331.911 156.9C330.898 156.007 330.391 154.807 330.391 153.3C330.391 151.58 330.951 150.173 332.071 149.08C333.218 147.973 334.618 147.42 336.271 147.42C337.671 147.42 338.825 147.813 339.731 148.6C340.638 149.387 341.091 150.453 341.091 151.8ZM334.491 151.74H337.291V151.62C337.291 151.193 337.185 150.86 336.971 150.62C336.771 150.367 336.491 150.24 336.131 150.24C335.745 150.24 335.405 150.373 335.111 150.64C334.818 150.893 334.611 151.26 334.491 151.74Z" fill="black"/>
<path d="M149.713 176.82H146.313L147.373 170H150.773L149.713 176.82ZM145.153 176.82H141.753L142.813 170H146.213L145.153 176.82Z" fill="black"/>
<path d="M153.347 186.22H149.327L150.187 180.7H151.467C152.081 179.847 152.587 178.367 152.987 176.26L153.467 173.68H163.107L161.987 180.7H163.467L162.607 186.22H158.647L158.987 184H153.687L153.347 186.22ZM155.587 180.7H157.847L158.467 176.88H156.747C156.481 178.507 156.094 179.78 155.587 180.7Z" fill="black"/>
<path d="M175.095 177.8C175.095 178.28 175.009 178.927 174.835 179.74H168.395C168.462 180.127 168.722 180.427 169.175 180.64C169.642 180.853 170.202 180.96 170.855 180.96C172.029 180.96 173.155 180.693 174.235 180.16L173.755 183.26C172.849 183.927 171.502 184.26 169.715 184.26C168.209 184.26 166.942 183.807 165.915 182.9C164.902 182.007 164.395 180.807 164.395 179.3C164.395 177.58 164.955 176.173 166.075 175.08C167.222 173.973 168.622 173.42 170.275 173.42C171.675 173.42 172.829 173.813 173.735 174.6C174.642 175.387 175.095 176.453 175.095 177.8ZM168.495 177.74H171.295V177.62C171.295 177.193 171.189 176.86 170.975 176.62C170.775 176.367 170.495 176.24 170.135 176.24C169.749 176.24 169.409 176.373 169.115 176.64C168.822 176.893 168.615 177.26 168.495 177.74Z" fill="black"/>
<path d="M191.237 184H175.757L177.377 173.68H181.417L180.317 180.7H181.957L183.057 173.68H187.097L185.997 180.7H187.717L188.817 173.68H192.857L191.237 184Z" fill="black"/>
<path d="M204.119 177.8C204.119 178.28 204.032 178.927 203.859 179.74H197.419C197.485 180.127 197.745 180.427 198.199 180.64C198.665 180.853 199.225 180.96 199.879 180.96C201.052 180.96 202.179 180.693 203.259 180.16L202.779 183.26C201.872 183.927 200.525 184.26 198.739 184.26C197.232 184.26 195.965 183.807 194.939 182.9C193.925 182.007 193.419 180.807 193.419 179.3C193.419 177.58 193.979 176.173 195.099 175.08C196.245 173.973 197.645 173.42 199.299 173.42C200.699 173.42 201.852 173.813 202.759 174.6C203.665 175.387 204.119 176.453 204.119 177.8ZM197.519 177.74H200.319V177.62C200.319 177.193 200.212 176.86 199.999 176.62C199.799 176.367 199.519 176.24 199.159 176.24C198.772 176.24 198.432 176.373 198.139 176.64C197.845 176.893 197.639 177.26 197.519 177.74Z" fill="black"/>
<path d="M214.201 178.7C215.227 179.087 215.741 179.793 215.741 180.82C215.741 181.86 215.334 182.653 214.521 183.2C213.721 183.733 212.607 184 211.181 184H204.781L206.401 173.68H212.701C213.674 173.68 214.427 173.92 214.961 174.4C215.507 174.88 215.781 175.48 215.781 176.2C215.781 176.787 215.621 177.307 215.301 177.76C214.994 178.213 214.627 178.527 214.201 178.7ZM211.001 176.22H210.041L209.801 177.78H210.761C211.081 177.78 211.341 177.693 211.541 177.52C211.741 177.347 211.841 177.12 211.841 176.84C211.841 176.427 211.561 176.22 211.001 176.22ZM209.501 179.68L209.221 181.38H210.461C211.247 181.38 211.641 181.033 211.641 180.34C211.641 179.9 211.334 179.68 210.721 179.68H209.501Z" fill="black"/>
<path d="M224.951 176.98H223.151L222.911 178.28C222.618 179.84 222.164 181.153 221.551 182.22C220.791 183.54 219.631 184.2 218.071 184.2C217.231 184.2 216.624 184.087 216.251 183.86L216.751 180.58C216.938 180.687 217.138 180.74 217.351 180.74C217.911 180.74 218.331 180.393 218.611 179.7C218.904 178.967 219.178 177.787 219.431 176.16L219.831 173.68H229.691L228.071 184H223.851L224.951 176.98Z" fill="black"/>
<path d="M240.955 177.8C240.955 178.28 240.868 178.927 240.695 179.74H234.255C234.321 180.127 234.581 180.427 235.035 180.64C235.501 180.853 236.061 180.96 236.715 180.96C237.888 180.96 239.015 180.693 240.095 180.16L239.615 183.26C238.708 183.927 237.361 184.26 235.575 184.26C234.068 184.26 232.801 183.807 231.775 182.9C230.761 182.007 230.255 180.807 230.255 179.3C230.255 177.58 230.815 176.173 231.935 175.08C233.081 173.973 234.481 173.42 236.135 173.42C237.535 173.42 238.688 173.813 239.595 174.6C240.501 175.387 240.955 176.453 240.955 177.8ZM234.355 177.74H237.155V177.62C237.155 177.193 237.048 176.86 236.835 176.62C236.635 176.367 236.355 176.24 235.995 176.24C235.608 176.24 235.268 176.373 234.975 176.64C234.681 176.893 234.475 177.26 234.355 177.74Z" fill="black"/>
<path d="M250.397 176.82H246.997L248.057 170H251.457L250.397 176.82ZM245.837 176.82H242.437L243.497 170H246.897L245.837 176.82Z" fill="black"/>
<path d="M264.092 176.98H262.292L262.052 178.28C261.758 179.84 261.305 181.153 260.692 182.22C259.932 183.54 258.772 184.2 257.212 184.2C256.372 184.2 255.765 184.087 255.392 183.86L255.892 180.58C256.078 180.687 256.278 180.74 256.492 180.74C257.052 180.74 257.472 180.393 257.752 179.7C258.045 178.967 258.318 177.787 258.572 176.16L258.972 173.68H268.832L267.212 184H262.992L264.092 176.98Z" fill="black"/>
<path d="M270.795 188.12C269.715 188.12 268.915 187.96 268.395 187.64L268.975 184.02C269.415 184.38 269.969 184.56 270.635 184.56C271.075 184.56 271.422 184.493 271.675 184.36C271.929 184.24 272.149 184.007 272.335 183.66L269.695 173.68H274.075L274.955 179.52L277.535 173.68H281.915L275.755 185C274.635 187.08 272.982 188.12 270.795 188.12Z" fill="black"/>
<path d="M287.804 177.8L288.444 173.68H292.664L291.044 184H286.824L287.264 181.18C286.851 181.3 286.371 181.36 285.824 181.36C284.718 181.36 283.758 181.087 282.944 180.54C282.158 179.98 281.764 179.133 281.764 178C281.764 177.747 281.838 177.127 281.984 176.14L282.384 173.68H286.564L286.124 176.4L286.104 176.56C286.091 176.667 286.071 176.78 286.044 176.9C286.031 177.02 286.024 177.107 286.024 177.16C286.024 177.72 286.324 178 286.924 178C287.298 178 287.591 177.933 287.804 177.8Z" fill="black"/>
<path d="M308.483 184H293.003L294.623 173.68H298.663L297.563 180.7H299.203L300.303 173.68H304.343L303.243 180.7H304.963L306.063 173.68H310.103L308.483 184Z" fill="black"/>
<path d="M321.365 177.8C321.365 178.28 321.278 178.927 321.105 179.74H314.665C314.732 180.127 314.992 180.427 315.445 180.64C315.911 180.853 316.472 180.96 317.125 180.96C318.298 180.96 319.425 180.693 320.505 180.16L320.025 183.26C319.118 183.927 317.772 184.26 315.985 184.26C314.478 184.26 313.212 183.807 312.185 182.9C311.172 182.007 310.665 180.807 310.665 179.3C310.665 177.58 311.225 176.173 312.345 175.08C313.492 173.973 314.892 173.42 316.545 173.42C317.945 173.42 319.098 173.813 320.005 174.6C320.911 175.387 321.365 176.453 321.365 177.8ZM314.765 177.74H317.565V177.62C317.565 177.193 317.458 176.86 317.245 176.62C317.045 176.367 316.765 176.24 316.405 176.24C316.018 176.24 315.678 176.373 315.385 176.64C315.092 176.893 314.885 177.26 314.765 177.74Z" fill="black"/>
<path d="M147.969 210H144.009L145.629 199.68H149.569L148.889 204.06L152.609 199.68H156.569L154.949 210H151.009L151.689 205.64L147.969 210Z" fill="black"/>
<path d="M159.9 212.22H155.88L156.74 206.7H158.02C158.633 205.847 159.14 204.367 159.54 202.26L160.02 199.68H169.66L168.54 206.7H170.02L169.16 212.22H165.2L165.54 210H160.24L159.9 212.22ZM162.14 206.7H164.4L165.02 202.88H163.3C163.033 204.507 162.647 205.78 162.14 206.7Z" fill="black"/>
<path d="M176.678 210H172.458L173.558 202.98H170.798L171.318 199.68H181.098L180.578 202.98H177.778L176.678 210Z" fill="black"/>
<path d="M184.844 210H180.884L182.504 199.68H186.444L185.764 204.06L189.484 199.68H193.444L191.824 210H187.884L188.564 205.64L184.844 210Z" fill="black"/>
<path d="M202.936 210H198.736L200.356 199.68H204.556L204.016 203.08H206.296L206.836 199.68H211.056L209.436 210H205.216L205.776 206.36H203.496L202.936 210Z" fill="black"/>
<path d="M222.092 206.92C222.252 206.92 222.432 206.887 222.632 206.82L222.152 209.68C221.605 210.067 220.892 210.26 220.012 210.26C218.719 210.26 217.885 209.853 217.512 209.04C217.245 209.387 216.852 209.68 216.332 209.92C215.812 210.147 215.245 210.26 214.632 210.26C213.539 210.26 212.679 209.967 212.052 209.38C211.425 208.793 211.112 208.033 211.112 207.1C211.112 205.98 211.499 205.12 212.272 204.52C213.045 203.907 214.039 203.6 215.252 203.6C216.225 203.6 217.079 203.787 217.812 204.16C217.839 203.973 217.852 203.847 217.852 203.78C217.852 202.98 217.125 202.58 215.672 202.58C214.645 202.58 213.732 202.76 212.932 203.12L213.452 199.98C214.532 199.607 215.699 199.42 216.952 199.42C218.392 199.42 219.599 199.733 220.572 200.36C221.545 200.973 222.032 201.967 222.032 203.34C222.032 203.673 221.972 204.147 221.852 204.76L221.672 205.76C221.619 206.067 221.592 206.313 221.592 206.5C221.592 206.78 221.759 206.92 222.092 206.92ZM217.552 207.08L217.692 206.06C217.425 205.793 217.019 205.66 216.472 205.66C216.072 205.66 215.745 205.753 215.492 205.94C215.252 206.127 215.132 206.393 215.132 206.74C215.132 207.007 215.232 207.233 215.432 207.42C215.632 207.593 215.899 207.68 216.232 207.68C216.792 207.68 217.232 207.48 217.552 207.08Z" fill="black"/>
<path d="M232.84 214L233.48 210.04C231.986 209.8 230.833 209.253 230.02 208.4C229.206 207.533 228.8 206.493 228.8 205.28C228.8 203.613 229.386 202.28 230.56 201.28C231.733 200.293 233.246 199.747 235.1 199.64L235.68 196H239.9L239.3 199.64C240.793 199.88 241.946 200.427 242.76 201.28C243.573 202.133 243.98 203.173 243.98 204.4C243.98 206.053 243.386 207.393 242.2 208.42C241.013 209.42 239.506 209.96 237.68 210.04L237.04 214H232.84ZM233.94 206.94L234.6 202.76C234.053 202.84 233.593 203.113 233.22 203.58C232.846 204.047 232.66 204.613 232.66 205.28C232.66 205.747 232.766 206.127 232.98 206.42C233.206 206.713 233.526 206.887 233.94 206.94ZM238.82 202.76L238.16 206.94C238.706 206.86 239.166 206.587 239.54 206.12C239.913 205.653 240.1 205.087 240.1 204.42C240.1 203.953 239.986 203.573 239.76 203.28C239.546 202.987 239.233 202.813 238.82 202.76Z" fill="black"/>
<path d="M249.055 208.86L248.235 214H244.015L246.235 199.68H250.475L250.295 200.84C250.468 200.493 250.828 200.173 251.375 199.88C251.921 199.573 252.528 199.42 253.195 199.42C254.355 199.42 255.308 199.873 256.055 200.78C256.801 201.687 257.175 202.813 257.175 204.16C257.175 205.147 256.981 206.1 256.595 207.02C256.208 207.94 255.608 208.707 254.795 209.32C253.968 209.947 253.008 210.26 251.915 210.26C251.248 210.26 250.641 210.113 250.095 209.82C249.561 209.527 249.215 209.207 249.055 208.86ZM249.715 203.76L249.395 205.9C249.741 206.473 250.288 206.76 251.035 206.76C251.568 206.76 252.008 206.553 252.355 206.14C252.701 205.713 252.875 205.187 252.875 204.56C252.875 204.04 252.735 203.64 252.455 203.36C252.188 203.067 251.835 202.92 251.395 202.92C250.755 202.92 250.195 203.2 249.715 203.76Z" fill="black"/>
<path d="M261.778 210H257.818L259.438 199.68H263.378L262.698 204.06L266.418 199.68H270.378L268.758 210H264.818L265.498 205.64L261.778 210Z" fill="black"/>
<path d="M278.809 202.98H277.009L276.769 204.28C276.475 205.84 276.022 207.153 275.409 208.22C274.649 209.54 273.489 210.2 271.929 210.2C271.089 210.2 270.482 210.087 270.109 209.86L270.609 206.58C270.795 206.687 270.995 206.74 271.209 206.74C271.769 206.74 272.189 206.393 272.469 205.7C272.762 204.967 273.035 203.787 273.289 202.16L273.689 199.68H283.549L281.929 210H277.709L278.809 202.98Z" fill="black"/>
<path d="M294.592 206.92C294.752 206.92 294.932 206.887 295.132 206.82L294.652 209.68C294.105 210.067 293.392 210.26 292.512 210.26C291.219 210.26 290.385 209.853 290.012 209.04C289.745 209.387 289.352 209.68 288.832 209.92C288.312 210.147 287.745 210.26 287.132 210.26C286.039 210.26 285.179 209.967 284.552 209.38C283.925 208.793 283.612 208.033 283.612 207.1C283.612 205.98 283.999 205.12 284.772 204.52C285.545 203.907 286.539 203.6 287.752 203.6C288.725 203.6 289.579 203.787 290.312 204.16C290.339 203.973 290.352 203.847 290.352 203.78C290.352 202.98 289.625 202.58 288.172 202.58C287.145 202.58 286.232 202.76 285.432 203.12L285.952 199.98C287.032 199.607 288.199 199.42 289.452 199.42C290.892 199.42 292.099 199.733 293.072 200.36C294.045 200.973 294.532 201.967 294.532 203.34C294.532 203.673 294.472 204.147 294.352 204.76L294.172 205.76C294.119 206.067 294.092 206.313 294.092 206.5C294.092 206.78 294.259 206.92 294.592 206.92ZM290.052 207.08L290.192 206.06C289.925 205.793 289.519 205.66 288.972 205.66C288.572 205.66 288.245 205.753 287.992 205.94C287.752 206.127 287.632 206.393 287.632 206.74C287.632 207.007 287.732 207.233 287.932 207.42C288.132 207.593 288.399 207.68 288.732 207.68C289.292 207.68 289.732 207.48 290.052 207.08Z" fill="black"/>
<path d="M300.319 210H296.119L297.739 199.68H301.939L301.399 203.08H303.679L304.219 199.68H308.439L306.819 210H302.599L303.159 206.36H300.879L300.319 210Z" fill="black"/>
<path d="M314.615 210.26C313.055 210.26 311.728 209.813 310.635 208.92C309.542 208.027 308.995 206.773 308.995 205.16C308.995 203.533 309.595 202.173 310.795 201.08C312.022 199.973 313.535 199.42 315.335 199.42C316.562 199.42 317.668 199.673 318.655 200.18L318.095 203.56C316.815 202.96 315.668 202.813 314.655 203.12C313.655 203.427 313.155 204.04 313.155 204.96C313.155 205.427 313.308 205.8 313.615 206.08C314.095 206.493 314.768 206.7 315.635 206.7C316.382 206.7 317.102 206.567 317.795 206.3L317.235 209.78C316.408 210.1 315.535 210.26 314.615 210.26Z" fill="black"/>
</svg>
