<svg width="216" height="258" viewBox="0 0 216 258" fill="none" xmlns="http://www.w3.org/2000/svg">
<path d="M190.644 51.8358C193.897 51.8358 196.534 54.473 196.534 57.7262V156.096C196.534 159.349 193.897 161.986 190.644 161.986H111.661C110.272 162.334 108.601 163.036 107.294 164.343C104.644 166.993 104.644 168.76 104.644 170.528V189.671C104.644 190.555 101.699 194.384 98.4588 191.733C95.2191 189.082 71.0684 165.521 69.8903 164.343C69.0346 163.487 67.7126 162.476 64.1183 161.986H36.904C33.6508 161.986 31.0136 159.349 31.0136 156.096V57.7262C31.0136 54.473 33.6508 51.8358 36.904 51.8358H190.644Z" fill="white"/>
<path fill-rule="evenodd" clip-rule="evenodd" d="M197.123 46.8287C199.889 46.8287 202.13 49.0703 202.13 51.8356V150.205C202.13 152.971 199.889 155.212 197.123 155.212H118.032L117.927 155.239C116.442 155.61 114.606 156.371 113.149 157.827C111.753 159.223 111.002 160.441 110.617 161.596C110.24 162.727 110.24 163.732 110.24 164.601V183.736C110.235 183.753 110.221 183.791 110.192 183.855C110.134 183.977 110.038 184.139 109.902 184.323C109.63 184.692 109.236 185.092 108.767 185.394C108.3 185.696 107.792 185.879 107.272 185.879C106.766 185.879 106.168 185.706 105.498 185.159C103.915 183.863 97.106 177.349 90.4952 170.96C83.9039 164.589 77.5775 158.41 76.9948 157.827C76.517 157.349 75.8918 156.814 74.8899 156.338C73.9004 155.869 72.5785 155.474 70.7172 155.22L70.6579 155.212H43.3838C40.6185 155.212 38.3769 152.971 38.3769 150.205V51.8356C38.3769 49.0704 40.6185 46.8287 43.3838 46.8287H197.123ZM203.897 51.8356C203.897 48.0944 200.865 45.0616 197.123 45.0616H43.3838C39.6426 45.0616 36.6098 48.0944 36.6098 51.8356V150.205C36.6098 153.947 39.6426 156.979 43.3838 156.979H70.5376C72.2376 157.215 73.357 157.567 74.1321 157.935C74.9037 158.301 75.3674 158.699 75.7453 159.077C76.3407 159.672 82.6786 165.863 89.2672 172.23C95.8362 178.579 102.722 185.171 104.379 186.526C105.329 187.304 106.314 187.646 107.272 187.646C108.215 187.646 109.051 187.314 109.725 186.879C110.398 186.445 110.942 185.889 111.323 185.374C111.514 185.116 111.674 184.854 111.79 184.609C111.893 184.389 112.007 184.089 112.007 183.781V164.637C112.007 163.746 112.012 162.997 112.293 162.155C112.571 161.322 113.144 160.331 114.399 159.077C115.525 157.951 116.983 157.311 118.252 156.979H197.123C200.865 156.979 203.897 153.947 203.897 150.205V51.8356Z" fill="#F07281"/>
<path fill-rule="evenodd" clip-rule="evenodd" d="M90.8016 22.6784C87.2231 22.6784 84.3222 25.5793 84.3222 29.1578C84.3222 32.7363 87.2231 35.6373 90.8016 35.6373C94.3801 35.6373 97.2811 32.7363 97.2811 29.1578C97.2811 25.5793 94.3801 22.6784 90.8016 22.6784ZM81.377 29.1578C81.377 23.9527 85.5965 19.7332 90.8016 19.7332C96.0067 19.7332 100.226 23.9527 100.226 29.1578C100.226 34.3629 96.0067 38.5825 90.8016 38.5825C85.5965 38.5825 81.377 34.3629 81.377 29.1578Z" fill="#F07281"/>
<path fill-rule="evenodd" clip-rule="evenodd" d="M134.39 12.6644C130.812 12.6644 127.911 15.5654 127.911 19.1439C127.911 22.7224 130.812 25.6233 134.39 25.6233C137.969 25.6233 140.87 22.7224 140.87 19.1439C140.87 15.5654 137.969 12.6644 134.39 12.6644ZM124.966 19.1439C124.966 13.9388 129.185 9.71924 134.39 9.71924C139.596 9.71924 143.815 13.9388 143.815 19.1439C143.815 24.349 139.596 28.5686 134.39 28.5686C129.185 28.5686 124.966 24.349 124.966 19.1439Z" fill="#F07281"/>
<path fill-rule="evenodd" clip-rule="evenodd" d="M99.0477 213.398C96.6993 213.398 94.7956 215.302 94.7956 217.65C94.7956 219.999 96.6993 221.903 99.0477 221.903C101.396 221.903 103.3 219.999 103.3 217.65C103.3 215.302 101.396 213.398 99.0477 213.398ZM92.8628 217.65C92.8628 214.235 95.6319 211.466 99.0477 211.466C102.464 211.466 105.233 214.235 105.233 217.65C105.233 221.066 102.464 223.835 99.0477 223.835C95.6319 223.835 92.8628 221.066 92.8628 217.65Z" fill="#F07281"/>
<path fill-rule="evenodd" clip-rule="evenodd" d="M16.8767 169.276C13.7455 169.276 11.2072 171.814 11.2072 174.945C11.2072 178.076 13.7455 180.615 16.8767 180.615C20.0079 180.615 22.5462 178.076 22.5462 174.945C22.5462 171.814 20.0079 169.276 16.8767 169.276ZM8.63013 174.945C8.63013 170.391 12.3222 166.699 16.8767 166.699C21.4312 166.699 25.1233 170.391 25.1233 174.945C25.1233 179.5 21.4312 183.192 16.8767 183.192C12.3222 183.192 8.63013 179.5 8.63013 174.945Z" fill="#F5F5F5"/>
<path fill-rule="evenodd" clip-rule="evenodd" d="M34.548 213.674C31.8641 213.674 29.6884 215.85 29.6884 218.534C29.6884 221.218 31.8641 223.394 34.548 223.394C37.2319 223.394 39.4076 221.218 39.4076 218.534C39.4076 215.85 37.2319 213.674 34.548 213.674ZM27.4795 218.534C27.4795 214.63 30.6442 211.466 34.548 211.466C38.4518 211.466 41.6165 214.63 41.6165 218.534C41.6165 222.438 38.4518 225.603 34.548 225.603C30.6442 225.603 27.4795 222.438 27.4795 218.534Z" fill="#F5F5F5"/>
<path fill-rule="evenodd" clip-rule="evenodd" d="M137.041 250.048C135.252 250.048 133.801 251.499 133.801 253.288C133.801 255.077 135.252 256.528 137.041 256.528C138.83 256.528 140.281 255.077 140.281 253.288C140.281 251.499 138.83 250.048 137.041 250.048ZM132.329 253.288C132.329 250.685 134.439 248.576 137.041 248.576C139.644 248.576 141.754 250.685 141.754 253.288C141.754 255.89 139.644 258 137.041 258C134.439 258 132.329 255.89 132.329 253.288Z" fill="#F5F5F5"/>
<path fill-rule="evenodd" clip-rule="evenodd" d="M209.787 3.11095C207.439 3.11095 205.535 5.0147 205.535 7.36309C205.535 9.71148 207.439 11.6152 209.787 11.6152C212.136 11.6152 214.04 9.71148 214.04 7.36309C214.04 5.0147 212.136 3.11095 209.787 3.11095ZM203.603 7.36309C203.603 3.94725 206.372 1.17816 209.787 1.17816C213.203 1.17816 215.972 3.94725 215.972 7.36309C215.972 10.7789 213.203 13.548 209.787 13.548C206.372 13.548 203.603 10.7789 203.603 7.36309Z" fill="#F5F5F5"/>
<path fill-rule="evenodd" clip-rule="evenodd" d="M22.312 12.3967C22.7967 12.3403 23.2353 12.6875 23.2917 13.1723L23.836 17.853L27.9317 17.3768C28.4164 17.3204 28.855 17.6676 28.9114 18.1523C28.9678 18.6371 28.6205 19.0757 28.1358 19.1321L24.0401 19.6083L24.5845 24.2891C24.6408 24.7738 24.2936 25.2125 23.8089 25.2688C23.3242 25.3252 22.8855 24.978 22.8292 24.4932L22.2848 19.8125L17.8966 20.3228C17.4119 20.3791 16.9733 20.0319 16.9169 19.5472C16.8605 19.0625 17.2078 18.6238 17.6925 18.5675L22.0807 18.0572L21.5364 13.3764C21.48 12.8917 21.8273 12.453 22.312 12.3967Z" fill="white"/>
<path fill-rule="evenodd" clip-rule="evenodd" d="M4.21252 40.2201C1.86413 40.2201 -0.0396211 42.1239 -0.0396211 44.4723C-0.0396211 46.8207 1.86413 48.7244 4.21252 48.7244C6.56091 48.7244 8.46466 46.8207 8.46466 44.4723C8.46466 42.1239 6.56091 40.2201 4.21252 40.2201ZM-1.97241 44.4723C-1.97241 41.0564 0.796676 38.2874 4.21252 38.2874C7.62836 38.2874 10.3975 41.0564 10.3975 44.4723C10.3975 47.8881 7.62836 50.6572 4.21252 50.6572C0.796676 50.6572 -1.97241 47.8881 -1.97241 44.4723Z" fill="#F5F5F5"/>
<path fill-rule="evenodd" clip-rule="evenodd" d="M162.385 12.385C162.646 12.1237 163.07 12.1237 163.331 12.385L165.934 14.9877L168.537 12.385C168.798 12.1237 169.222 12.1237 169.483 12.385C169.744 12.6463 169.744 13.0701 169.483 13.3314L166.88 15.9341L169.483 18.5367C169.744 18.7981 169.744 19.2218 169.483 19.4832C169.222 19.7445 168.798 19.7445 168.537 19.4832L165.934 16.8805L163.331 19.4832C163.07 19.7445 162.646 19.7445 162.385 19.4832C162.123 19.2218 162.123 18.7981 162.385 18.5367L164.987 15.9341L162.385 13.3314C162.123 13.0701 162.123 12.6463 162.385 12.385Z" fill="black"/>
<path fill-rule="evenodd" clip-rule="evenodd" d="M69.9775 0.372983C70.4062 0.400449 70.7314 0.770175 70.7039 1.19879L70.4304 5.4672L74.6988 5.74072C75.1274 5.76819 75.4526 6.13792 75.4251 6.56653C75.3977 6.99515 75.0279 7.32034 74.5993 7.29287L70.3309 7.01935L70.0574 11.2878C70.0299 11.7164 69.6602 12.0416 69.2316 12.0141C68.803 11.9866 68.4778 11.6169 68.5052 11.1883L68.7788 6.91989L64.5103 6.64637C64.0817 6.6189 63.7565 6.24918 63.784 5.82056C63.8115 5.39195 64.1812 5.06675 64.6098 5.09422L68.8782 5.36774L69.1517 1.09933C69.1792 0.670713 69.5489 0.345518 69.9775 0.372983Z" fill="black"/>
<path fill-rule="evenodd" clip-rule="evenodd" d="M3.8573 78.5466C4.24321 78.3581 4.70888 78.5181 4.8974 78.904L6.77481 82.7471L10.6179 80.8697C11.0038 80.6812 11.4695 80.8412 11.658 81.2271C11.8465 81.613 11.6865 82.0786 11.3006 82.2672L7.45751 84.1446L9.33492 87.9877C9.52344 88.3736 9.36343 88.8393 8.97752 89.0278C8.59161 89.2163 8.12595 89.0563 7.93743 88.6704L6.06001 84.8273L2.2169 86.7047C1.831 86.8932 1.36533 86.7332 1.17681 86.3473C0.988288 85.9614 1.1483 85.4957 1.53421 85.3072L5.37732 83.4298L3.4999 79.5867C3.31138 79.2008 3.4714 78.7351 3.8573 78.5466Z" fill="black"/>
<path fill-rule="evenodd" clip-rule="evenodd" d="M40.0232 188.003C40.5999 187.779 41.2492 188.064 41.4733 188.641L43.7058 194.384L49.4489 192.152C50.0256 191.928 50.6749 192.213 50.899 192.79C51.1232 193.367 50.8374 194.016 50.2607 194.24L44.5176 196.473L46.75 202.216C46.9742 202.792 46.6884 203.442 46.1117 203.666C45.535 203.89 44.8858 203.604 44.6616 203.028L42.4292 197.284L36.686 199.517C36.1093 199.741 35.4601 199.455 35.2359 198.879C35.0117 198.302 35.2975 197.653 35.8742 197.428L41.6174 195.196L39.3849 189.453C39.1607 188.876 39.4465 188.227 40.0232 188.003Z" fill="black"/>
<path fill-rule="evenodd" clip-rule="evenodd" d="M126.009 221.101C126.315 220.78 126.822 220.767 127.143 221.073L130.34 224.114L133.381 220.918C133.687 220.597 134.194 220.585 134.515 220.89C134.836 221.196 134.849 221.703 134.543 222.024L131.502 225.221L134.698 228.262C135.019 228.568 135.031 229.075 134.726 229.396C134.421 229.717 133.913 229.73 133.592 229.424L130.396 226.383L127.354 229.579C127.049 229.9 126.541 229.912 126.22 229.607C125.899 229.302 125.886 228.794 126.192 228.473L129.233 225.277L126.037 222.235C125.716 221.93 125.704 221.422 126.009 221.101Z" fill="black"/>
<path fill-rule="evenodd" clip-rule="evenodd" d="M156.255 218.995C156.412 218.788 156.708 218.747 156.915 218.904L158.981 220.467L160.545 218.401C160.702 218.194 160.997 218.153 161.205 218.31C161.412 218.467 161.453 218.762 161.296 218.97L159.732 221.036L161.798 222.599C162.006 222.756 162.047 223.052 161.89 223.259C161.733 223.467 161.437 223.508 161.23 223.351L159.164 221.787L157.6 223.853C157.443 224.061 157.148 224.101 156.94 223.944C156.733 223.787 156.692 223.492 156.849 223.284L158.413 221.218L156.347 219.655C156.139 219.498 156.098 219.202 156.255 218.995Z" fill="black"/>
<path d="M55.9927 93.0684H49.4543L50.762 84.8218H57.2297L56.888 87.0013H52.9532L52.8354 87.7317H55.922L55.6039 89.7344H52.5174L52.3289 90.889H56.3343L55.9927 93.0684Z" fill="black"/>
<path d="M60.2675 93.2216C59.3486 93.2216 58.5671 92.9585 57.9231 92.4322C57.2791 91.906 56.9571 91.1678 56.9571 90.2175C56.9571 89.2593 57.3105 88.4582 58.0173 87.8142C58.7399 87.1623 59.6313 86.8364 60.6916 86.8364C61.4142 86.8364 62.066 86.9856 62.6472 87.284L62.3173 89.275C61.5634 88.9216 60.8879 88.8352 60.291 89.0158C59.702 89.1965 59.4075 89.5577 59.4075 90.0996C59.4075 90.3745 59.4978 90.5944 59.6784 90.7594C59.9612 91.0028 60.3578 91.1246 60.8683 91.1246C61.3081 91.1246 61.7322 91.046 62.1406 90.889L61.8108 92.9388C61.3238 93.1273 60.8094 93.2216 60.2675 93.2216Z" fill="black"/>
<path d="M67.5927 88.9333H66.5324L66.391 89.6991C66.2182 90.618 65.9512 91.3916 65.5899 92.0199C65.1423 92.7975 64.459 93.1862 63.5401 93.1862C63.0453 93.1862 62.6879 93.1195 62.468 92.9859L62.7625 91.0539C62.8725 91.1167 62.9903 91.1481 63.116 91.1481C63.4458 91.1481 63.6932 90.9439 63.8581 90.5355C64.0309 90.1036 64.1919 89.4085 64.3412 88.4503L64.5768 86.9895H70.3847L69.4305 93.0684H66.9447L67.5927 88.9333Z" fill="black"/>
<path d="M72.9197 93.0684H70.5871L71.5414 86.9895H73.8622L73.4616 89.5695L75.6529 86.9895H77.9855L77.0312 93.0684H74.7104L75.111 90.5002L72.9197 93.0684Z" fill="black"/>
<path d="M82.8695 94.3761H80.5016L81.0082 91.1246H81.7621C82.1234 90.6219 82.4219 89.7501 82.6575 88.5092L82.9402 86.9895H88.6186L87.9589 91.1246H88.8306L88.3241 94.3761H85.9915L86.1917 93.0684H83.0698L82.8695 94.3761ZM84.189 91.1246H85.5202L85.8854 88.8744H84.8723C84.7152 89.8326 84.4874 90.5827 84.189 91.1246Z" fill="black"/>
<path d="M94.134 88.9333H93.0738L92.9324 89.6991C92.7596 90.618 92.4926 91.3916 92.1313 92.0199C91.6836 92.7975 91.0003 93.1862 90.0814 93.1862C89.5866 93.1862 89.2293 93.1195 89.0094 92.9859L89.3039 91.0539C89.4138 91.1167 89.5317 91.1481 89.6573 91.1481C89.9872 91.1481 90.2346 90.9439 90.3995 90.5355C90.5723 90.1036 90.7333 89.4085 90.8825 88.4503L91.1181 86.9895H96.9261L95.9718 93.0684H93.4861L94.134 88.9333Z" fill="black"/>
<path d="M100.604 86.9895H103.997L103.031 93.0684H100.557L100.839 91.2777H100.616L99.2726 93.0684H96.5512L98.3655 90.8301C97.8864 90.4923 97.6468 90.0015 97.6468 89.3575C97.6468 88.6035 97.9256 88.0184 98.4833 87.6021C99.0409 87.1937 99.7477 86.9895 100.604 86.9895ZM100.545 89.7344H101.087L101.228 88.8155H100.722C100.266 88.8155 100.038 88.9805 100.038 89.3103C100.038 89.4281 100.085 89.5302 100.18 89.6166C100.274 89.6952 100.396 89.7344 100.545 89.7344Z" fill="black"/>
<path d="M112.663 89.9465C113.268 90.1743 113.57 90.5905 113.57 91.1953C113.57 91.8079 113.331 92.2752 112.852 92.5972C112.381 92.9113 111.725 93.0684 110.884 93.0684H107.115L108.069 86.9895H111.78C112.353 86.9895 112.797 87.1309 113.111 87.4136C113.433 87.6964 113.594 88.0498 113.594 88.4739C113.594 88.8195 113.5 89.1258 113.311 89.3928C113.131 89.6598 112.915 89.8444 112.663 89.9465ZM110.778 88.4857H110.213L110.072 89.4046H110.637C110.826 89.4046 110.979 89.3535 111.096 89.2514C111.214 89.1493 111.273 89.0158 111.273 88.8509C111.273 88.6074 111.108 88.4857 110.778 88.4857ZM109.895 90.5238L109.73 91.5251H110.46C110.924 91.5251 111.155 91.3209 111.155 90.9125C111.155 90.6533 110.975 90.5238 110.613 90.5238H109.895Z" fill="black"/>
<path d="M120.527 91.2542C120.621 91.2542 120.727 91.2345 120.845 91.1953L120.563 92.8799C120.241 93.1077 119.82 93.2216 119.302 93.2216C118.54 93.2216 118.049 92.982 117.829 92.5029C117.672 92.7071 117.441 92.8799 117.134 93.0213C116.828 93.1548 116.494 93.2216 116.133 93.2216C115.489 93.2216 114.982 93.0488 114.613 92.7032C114.244 92.3576 114.06 91.91 114.06 91.3602C114.06 90.7005 114.287 90.1939 114.743 89.8405C115.198 89.4792 115.783 89.2986 116.498 89.2986C117.072 89.2986 117.574 89.4085 118.006 89.6284C118.022 89.5185 118.03 89.4438 118.03 89.4046C118.03 88.9333 117.602 88.6977 116.746 88.6977C116.141 88.6977 115.603 88.8038 115.132 89.0158L115.438 87.1662C116.074 86.9463 116.761 86.8364 117.5 86.8364C118.348 86.8364 119.059 87.0209 119.632 87.3901C120.205 87.7513 120.492 88.3365 120.492 89.1454C120.492 89.3417 120.457 89.6206 120.386 89.9818L120.28 90.5709C120.248 90.7515 120.233 90.8968 120.233 91.0068C120.233 91.1717 120.331 91.2542 120.527 91.2542ZM117.853 91.3484L117.935 90.7476C117.778 90.5905 117.539 90.512 117.217 90.512C116.981 90.512 116.789 90.567 116.64 90.6769C116.498 90.7869 116.427 90.9439 116.427 91.1481C116.427 91.3052 116.486 91.4387 116.604 91.5487C116.722 91.6508 116.879 91.7018 117.075 91.7018C117.405 91.7018 117.664 91.584 117.853 91.3484Z" fill="black"/>
<path d="M124.751 93.2216C123.832 93.2216 123.051 92.9585 122.407 92.4322C121.763 91.906 121.441 91.1678 121.441 90.2175C121.441 89.2593 121.794 88.4582 122.501 87.8142C123.224 87.1623 124.115 86.8364 125.175 86.8364C125.898 86.8364 126.55 86.9856 127.131 87.284L126.801 89.275C126.047 88.9216 125.372 88.8352 124.775 89.0158C124.186 89.1965 123.891 89.5577 123.891 90.0996C123.891 90.3745 123.982 90.5944 124.162 90.7594C124.445 91.0028 124.842 91.1246 125.352 91.1246C125.792 91.1246 126.216 91.046 126.625 90.889L126.295 92.9388C125.808 93.1273 125.293 93.2216 124.751 93.2216Z" fill="black"/>
<path d="M132.701 93.0684H130.228L131.182 86.9895H136.271L135.965 88.9333H133.349L132.701 93.0684Z" fill="black"/>
<path d="M140.337 88.9333H139.277L139.135 89.6991C138.963 90.618 138.695 91.3916 138.334 92.0199C137.887 92.7975 137.203 93.1862 136.284 93.1862C135.79 93.1862 135.432 93.1195 135.212 92.9859L135.507 91.0539C135.617 91.1167 135.735 91.1481 135.86 91.1481C136.19 91.1481 136.437 90.9439 136.602 90.5355C136.775 90.1036 136.936 89.4085 137.085 88.4503L137.321 86.9895H143.129L142.175 93.0684H139.689L140.337 88.9333Z" fill="black"/>
<path d="M149.634 91.2542C149.728 91.2542 149.834 91.2345 149.952 91.1953L149.669 92.8799C149.347 93.1077 148.927 93.2216 148.409 93.2216C147.647 93.2216 147.156 92.982 146.936 92.5029C146.779 92.7071 146.548 92.8799 146.241 93.0213C145.935 93.1548 145.601 93.2216 145.24 93.2216C144.596 93.2216 144.089 93.0488 143.72 92.7032C143.351 92.3576 143.166 91.91 143.166 91.3602C143.166 90.7005 143.394 90.1939 143.85 89.8405C144.305 89.4792 144.89 89.2986 145.605 89.2986C146.178 89.2986 146.681 89.4085 147.113 89.6284C147.129 89.5185 147.137 89.4438 147.137 89.4046C147.137 88.9333 146.709 88.6977 145.852 88.6977C145.248 88.6977 144.71 88.8038 144.239 89.0158L144.545 87.1662C145.181 86.9463 145.868 86.8364 146.606 86.8364C147.455 86.8364 148.165 87.0209 148.739 87.3901C149.312 87.7513 149.599 88.3365 149.599 89.1454C149.599 89.3417 149.563 89.6206 149.493 89.9818L149.387 90.5709C149.355 90.7515 149.34 90.8968 149.34 91.0068C149.34 91.1717 149.438 91.2542 149.634 91.2542ZM146.96 91.3484L147.042 90.7476C146.885 90.5905 146.646 90.512 146.324 90.512C146.088 90.512 145.896 90.567 145.746 90.6769C145.605 90.7869 145.534 90.9439 145.534 91.1481C145.534 91.3052 145.593 91.4387 145.711 91.5487C145.829 91.6508 145.986 91.7018 146.182 91.7018C146.512 91.7018 146.771 91.584 146.96 91.3484Z" fill="black"/>
<path d="M156.082 89.9465C156.687 90.1743 156.989 90.5905 156.989 91.1953C156.989 91.8079 156.75 92.2752 156.271 92.5972C155.799 92.9113 155.144 93.0684 154.303 93.0684H150.533L151.488 86.9895H155.199C155.772 86.9895 156.216 87.1309 156.53 87.4136C156.852 87.6964 157.013 88.0498 157.013 88.4739C157.013 88.8195 156.919 89.1258 156.73 89.3928C156.549 89.6598 156.333 89.8444 156.082 89.9465ZM154.197 88.4857H153.632L153.49 89.4046H154.056C154.244 89.4046 154.397 89.3535 154.515 89.2514C154.633 89.1493 154.692 89.0158 154.692 88.8509C154.692 88.6074 154.527 88.4857 154.197 88.4857ZM153.314 90.5238L153.149 91.5251H153.879C154.342 91.5251 154.574 91.3209 154.574 90.9125C154.574 90.6533 154.394 90.5238 154.032 90.5238H153.314Z" fill="black"/>
<path d="M160.117 93.0684H157.643L158.597 86.9895H161.071L160.753 88.9922H162.096L162.414 86.9895H164.9L163.946 93.0684H161.46L161.79 90.9243H160.447L160.117 93.0684Z" fill="black"/>
<path d="M168.727 86.8364C169.685 86.8364 170.486 87.123 171.13 87.6964C171.782 88.2618 172.108 89.0001 172.108 89.9112C172.108 90.7986 171.77 91.5722 171.095 92.232C170.427 92.8917 169.595 93.2216 168.597 93.2216C167.639 93.2216 166.838 92.9388 166.194 92.3733C165.55 91.8 165.228 91.05 165.228 90.1232C165.228 89.2357 165.562 88.47 166.229 87.8259C166.897 87.1662 167.729 86.8364 168.727 86.8364ZM168.585 91.1246C168.9 91.1246 169.163 91.0068 169.375 90.7712C169.595 90.5277 169.705 90.2253 169.705 89.864C169.705 89.5734 169.614 89.3457 169.434 89.1807C169.253 89.0158 169.021 88.9333 168.739 88.9333C168.424 88.9333 168.161 89.0512 167.949 89.2868C167.737 89.5224 167.631 89.8208 167.631 90.1821C167.631 90.4727 167.721 90.7044 167.902 90.8772C168.083 91.0421 168.311 91.1246 168.585 91.1246Z" fill="black"/>
<path d="M178.917 89.4164C178.917 89.6991 178.866 90.08 178.763 90.5591H174.97C175.009 90.7869 175.162 90.9636 175.43 91.0892C175.704 91.2149 176.034 91.2777 176.419 91.2777C177.11 91.2777 177.774 91.1207 178.41 90.8065L178.127 92.6325C177.593 93.0252 176.8 93.2216 175.748 93.2216C174.86 93.2216 174.114 92.9545 173.509 92.4205C172.912 91.8943 172.614 91.1874 172.614 90.2999C172.614 89.2868 172.944 88.4582 173.603 87.8142C174.279 87.1623 175.104 86.8364 176.077 86.8364C176.902 86.8364 177.581 87.068 178.116 87.5314C178.65 87.9948 178.917 88.6231 178.917 89.4164ZM175.029 89.381H176.678V89.3103C176.678 89.059 176.615 88.8627 176.49 88.7213C176.372 88.5721 176.207 88.4975 175.995 88.4975C175.767 88.4975 175.567 88.576 175.394 88.7331C175.221 88.8823 175.1 89.0983 175.029 89.381Z" fill="black"/>
<path d="M66.187 104.154H64.1842L64.8086 100.137H66.8114L66.187 104.154ZM63.501 104.154H61.4982L62.1226 100.137H64.1253L63.501 104.154Z" fill="black"/>
<path d="M68.3276 109.691H65.9596L66.4662 106.44H67.2202C67.5815 105.937 67.8799 105.065 68.1155 103.824L68.3983 102.305H74.0766L73.4169 106.44H74.2887L73.7821 109.691H71.4495L71.6498 108.383H68.5279L68.3276 109.691ZM69.647 106.44H70.9783L71.3435 104.19H70.3303C70.1733 105.148 69.9455 105.898 69.647 106.44Z" fill="black"/>
<path d="M81.1381 104.731C81.1381 105.014 81.0871 105.395 80.985 105.874H77.1916C77.2308 106.102 77.384 106.279 77.651 106.404C77.9259 106.53 78.2558 106.593 78.6406 106.593C79.3317 106.593 79.9954 106.436 80.6316 106.122L80.3488 107.948C79.8148 108.34 79.0215 108.537 77.9691 108.537C77.0816 108.537 76.3355 108.27 75.7307 107.736C75.1338 107.209 74.8354 106.502 74.8354 105.615C74.8354 104.602 75.1653 103.773 75.825 103.129C76.5004 102.477 77.3251 102.151 78.299 102.151C79.1236 102.151 79.803 102.383 80.337 102.846C80.8711 103.31 81.1381 103.938 81.1381 104.731ZM77.2505 104.696H78.8998V104.625C78.8998 104.374 78.8369 104.178 78.7113 104.036C78.5935 103.887 78.4285 103.813 78.2165 103.813C77.9887 103.813 77.7884 103.891 77.6157 104.048C77.4429 104.197 77.3211 104.413 77.2505 104.696Z" fill="black"/>
<path d="M90.6464 108.383H81.5281L82.4823 102.305H84.8621L84.2141 106.44H85.1801L85.8281 102.305H88.2078L87.5599 106.44H88.573L89.221 102.305H91.6007L90.6464 108.383Z" fill="black"/>
<path d="M98.2341 104.731C98.2341 105.014 98.1831 105.395 98.081 105.874H94.2875C94.3268 106.102 94.48 106.279 94.747 106.404C95.0219 106.53 95.3517 106.593 95.7366 106.593C96.4277 106.593 97.0914 106.436 97.7275 106.122L97.4448 107.948C96.9107 108.34 96.1175 108.537 95.0651 108.537C94.1776 108.537 93.4315 108.27 92.8267 107.736C92.2298 107.209 91.9314 106.502 91.9314 105.615C91.9314 104.602 92.2612 103.773 92.921 103.129C93.5964 102.477 94.4211 102.151 95.3949 102.151C96.2196 102.151 96.899 102.383 97.433 102.846C97.9671 103.31 98.2341 103.938 98.2341 104.731ZM94.3465 104.696H95.9958V104.625C95.9958 104.374 95.9329 104.178 95.8073 104.036C95.6895 103.887 95.5245 103.813 95.3125 103.813C95.0847 103.813 94.8844 103.891 94.7117 104.048C94.5389 104.197 94.4171 104.413 94.3465 104.696Z" fill="black"/>
<path d="M104.173 105.262C104.778 105.489 105.08 105.906 105.08 106.51C105.08 107.123 104.84 107.59 104.361 107.912C103.89 108.226 103.234 108.383 102.394 108.383H98.6241L99.5783 102.305H103.289C103.863 102.305 104.306 102.446 104.621 102.729C104.943 103.011 105.104 103.365 105.104 103.789C105.104 104.135 105.009 104.441 104.821 104.708C104.64 104.975 104.424 105.159 104.173 105.262ZM102.288 103.801H101.722L101.581 104.72H102.147C102.335 104.72 102.488 104.669 102.606 104.566C102.724 104.464 102.783 104.331 102.783 104.166C102.783 103.922 102.618 103.801 102.288 103.801ZM101.404 105.839L101.239 106.84H101.97C102.433 106.84 102.665 106.636 102.665 106.228C102.665 105.968 102.484 105.839 102.123 105.839H101.404Z" fill="black"/>
<path d="M110.505 104.248H109.445L109.304 105.014C109.131 105.933 108.864 106.707 108.502 107.335C108.055 108.113 107.372 108.501 106.453 108.501C105.958 108.501 105.6 108.435 105.381 108.301L105.675 106.369C105.785 106.432 105.903 106.463 106.029 106.463C106.358 106.463 106.606 106.259 106.771 105.851C106.943 105.419 107.104 104.724 107.254 103.765L107.489 102.305H113.297L112.343 108.383H109.857L110.505 104.248Z" fill="black"/>
<path d="M119.932 104.731C119.932 105.014 119.881 105.395 119.779 105.874H115.985C116.025 106.102 116.178 106.279 116.445 106.404C116.72 106.53 117.05 106.593 117.434 106.593C118.126 106.593 118.789 106.436 119.425 106.122L119.143 107.948C118.609 108.34 117.815 108.537 116.763 108.537C115.875 108.537 115.129 108.27 114.525 107.736C113.928 107.209 113.629 106.502 113.629 105.615C113.629 104.602 113.959 103.773 114.619 103.129C115.294 102.477 116.119 102.151 117.093 102.151C117.917 102.151 118.597 102.383 119.131 102.846C119.665 103.31 119.932 103.938 119.932 104.731ZM116.044 104.696H117.694V104.625C117.694 104.374 117.631 104.178 117.505 104.036C117.387 103.887 117.222 103.813 117.01 103.813C116.783 103.813 116.582 103.891 116.41 104.048C116.237 104.197 116.115 104.413 116.044 104.696Z" fill="black"/>
<path d="M125.494 104.154H123.491L124.115 100.137H126.118L125.494 104.154ZM122.808 104.154H120.805L121.429 100.137H123.432L122.808 104.154Z" fill="black"/>
<path d="M133.561 104.248H132.5L132.359 105.014C132.186 105.933 131.919 106.707 131.558 107.335C131.11 108.113 130.427 108.501 129.508 108.501C129.013 108.501 128.656 108.435 128.436 108.301L128.731 106.369C128.84 106.432 128.958 106.463 129.084 106.463C129.414 106.463 129.661 106.259 129.826 105.851C129.999 105.419 130.16 104.724 130.309 103.765L130.545 102.305H136.353L135.398 108.383H132.913L133.561 104.248Z" fill="black"/>
<path d="M137.509 110.81C136.873 110.81 136.402 110.716 136.096 110.528L136.437 108.395C136.696 108.607 137.022 108.713 137.415 108.713C137.674 108.713 137.878 108.674 138.028 108.596C138.177 108.525 138.307 108.387 138.416 108.183L136.861 102.305H139.441L139.96 105.745L141.479 102.305H144.059L140.431 108.973C139.771 110.198 138.797 110.81 137.509 110.81Z" fill="black"/>
<path d="M147.528 104.731L147.905 102.305H150.391L149.437 108.383H146.951L147.21 106.722C146.967 106.793 146.684 106.828 146.362 106.828C145.71 106.828 145.145 106.667 144.666 106.345C144.202 106.016 143.97 105.517 143.97 104.849C143.97 104.7 144.014 104.335 144.1 103.754L144.336 102.305H146.798L146.539 103.907L146.527 104.001C146.519 104.064 146.507 104.131 146.492 104.201C146.484 104.272 146.48 104.323 146.48 104.354C146.48 104.684 146.657 104.849 147.01 104.849C147.23 104.849 147.403 104.81 147.528 104.731Z" fill="black"/>
<path d="M159.709 108.383H150.591L151.545 102.305H153.925L153.277 106.44H154.243L154.891 102.305H157.271L156.623 106.44H157.636L158.284 102.305H160.663L159.709 108.383Z" fill="black"/>
<path d="M167.297 104.731C167.297 105.014 167.246 105.395 167.144 105.874H163.35C163.39 106.102 163.543 106.279 163.81 106.404C164.085 106.53 164.415 106.593 164.799 106.593C165.49 106.593 166.154 106.436 166.79 106.122L166.508 107.948C165.974 108.34 165.18 108.537 164.128 108.537C163.24 108.537 162.494 108.27 161.889 107.736C161.293 107.209 160.994 106.502 160.994 105.615C160.994 104.602 161.324 103.773 161.984 103.129C162.659 102.477 163.484 102.151 164.458 102.151C165.282 102.151 165.962 102.383 166.496 102.846C167.03 103.31 167.297 103.938 167.297 104.731ZM163.409 104.696H165.059V104.625C165.059 104.374 164.996 104.178 164.87 104.036C164.752 103.887 164.587 103.813 164.375 103.813C164.147 103.813 163.947 103.891 163.774 104.048C163.602 104.197 163.48 104.413 163.409 104.696Z" fill="black"/>
<path d="M65.1598 123.699H62.8272L63.7814 117.62H66.1023L65.7017 120.2L67.8929 117.62H70.2255L69.2713 123.699H66.9505L67.351 121.13L65.1598 123.699Z" fill="black"/>
<path d="M72.1874 125.006H69.8195L70.326 121.755H71.08C71.4413 121.252 71.7397 120.38 71.9754 119.139L72.2581 117.62H77.9365L77.2767 121.755H78.1485L77.6419 125.006H75.3093L75.5096 123.699H72.3877L72.1874 125.006ZM73.5069 121.755H74.8381L75.2033 119.505H74.1902C74.0331 120.463 73.8053 121.213 73.5069 121.755Z" fill="black"/>
<path d="M82.0703 123.699H79.5846L80.2325 119.563H78.6068L78.9131 117.62H84.6739L84.3676 119.563H82.7183L82.0703 123.699Z" fill="black"/>
<path d="M86.8807 123.699H84.5481L85.5023 117.62H87.8231L87.4226 120.2L89.6138 117.62H91.9464L90.9922 123.699H88.6714L89.0719 121.13L86.8807 123.699Z" fill="black"/>
<path d="M97.5374 123.699H95.0634L96.0176 117.62H98.4916L98.1735 119.622H99.5165L99.8346 117.62H102.32L101.366 123.699H98.8804L99.2102 121.554H97.8672L97.5374 123.699Z" fill="black"/>
<path d="M108.821 121.884C108.915 121.884 109.021 121.865 109.139 121.825L108.857 123.51C108.535 123.738 108.114 123.852 107.596 123.852C106.834 123.852 106.343 123.612 106.123 123.133C105.966 123.337 105.735 123.51 105.428 123.651C105.122 123.785 104.788 123.852 104.427 123.852C103.783 123.852 103.276 123.679 102.907 123.333C102.538 122.988 102.353 122.54 102.353 121.99C102.353 121.331 102.581 120.824 103.037 120.471C103.492 120.109 104.077 119.929 104.792 119.929C105.365 119.929 105.868 120.039 106.3 120.259C106.316 120.149 106.324 120.074 106.324 120.035C106.324 119.563 105.896 119.328 105.04 119.328C104.435 119.328 103.897 119.434 103.426 119.646L103.732 117.796C104.368 117.576 105.055 117.466 105.793 117.466C106.642 117.466 107.352 117.651 107.926 118.02C108.499 118.381 108.786 118.967 108.786 119.776C108.786 119.972 108.75 120.251 108.68 120.612L108.574 121.201C108.542 121.382 108.527 121.527 108.527 121.637C108.527 121.802 108.625 121.884 108.821 121.884ZM106.147 121.979L106.229 121.378C106.072 121.221 105.833 121.142 105.511 121.142C105.275 121.142 105.083 121.197 104.933 121.307C104.792 121.417 104.721 121.574 104.721 121.778C104.721 121.935 104.78 122.069 104.898 122.179C105.016 122.281 105.173 122.332 105.369 122.332C105.699 122.332 105.958 122.214 106.147 121.979Z" fill="black"/>
<path d="M115.152 126.055L115.529 123.722C114.649 123.581 113.97 123.259 113.491 122.756C113.012 122.246 112.772 121.633 112.772 120.918C112.772 119.937 113.118 119.151 113.809 118.562C114.5 117.981 115.391 117.659 116.483 117.596L116.825 115.452H119.311L118.957 117.596C119.837 117.737 120.516 118.059 120.995 118.562C121.474 119.065 121.714 119.677 121.714 120.4C121.714 121.374 121.364 122.163 120.665 122.768C119.966 123.357 119.079 123.675 118.003 123.722L117.626 126.055H115.152ZM115.8 121.896L116.189 119.434C115.867 119.481 115.596 119.642 115.376 119.917C115.156 120.192 115.046 120.526 115.046 120.918C115.046 121.193 115.109 121.417 115.234 121.59C115.368 121.763 115.556 121.865 115.8 121.896ZM118.674 119.434L118.286 121.896C118.608 121.849 118.879 121.688 119.098 121.413C119.318 121.138 119.428 120.804 119.428 120.412C119.428 120.137 119.362 119.913 119.228 119.74C119.102 119.567 118.918 119.465 118.674 119.434Z" fill="black"/>
<path d="M124.703 123.027L124.22 126.055H121.735L123.042 117.62H125.54L125.434 118.303C125.536 118.099 125.748 117.91 126.07 117.737C126.392 117.557 126.749 117.466 127.142 117.466C127.825 117.466 128.387 117.734 128.827 118.268C129.266 118.802 129.486 119.465 129.486 120.259C129.486 120.84 129.372 121.401 129.145 121.943C128.917 122.485 128.563 122.937 128.084 123.298C127.597 123.667 127.032 123.852 126.388 123.852C125.995 123.852 125.638 123.765 125.316 123.593C125.002 123.42 124.798 123.231 124.703 123.027ZM125.092 120.023L124.904 121.283C125.108 121.621 125.43 121.79 125.87 121.79C126.184 121.79 126.443 121.668 126.647 121.425C126.851 121.174 126.953 120.863 126.953 120.494C126.953 120.188 126.871 119.952 126.706 119.787C126.549 119.615 126.341 119.528 126.082 119.528C125.705 119.528 125.375 119.693 125.092 120.023Z" fill="black"/>
<path d="M132.198 123.699H129.865L130.819 117.62H133.14L132.74 120.2L134.931 117.62H137.263L136.309 123.699H133.988L134.389 121.13L132.198 123.699Z" fill="black"/>
<path d="M142.229 119.563H141.169L141.028 120.329C140.855 121.248 140.588 122.022 140.227 122.65C139.779 123.428 139.096 123.816 138.177 123.816C137.682 123.816 137.325 123.75 137.105 123.616L137.399 121.684C137.509 121.747 137.627 121.778 137.753 121.778C138.083 121.778 138.33 121.574 138.495 121.166C138.668 120.734 138.829 120.039 138.978 119.08L139.214 117.62H145.022L144.067 123.699H141.582L142.229 119.563Z" fill="black"/>
<path d="M151.527 121.884C151.621 121.884 151.727 121.865 151.845 121.825L151.562 123.51C151.24 123.738 150.82 123.852 150.301 123.852C149.54 123.852 149.049 123.612 148.829 123.133C148.672 123.337 148.44 123.51 148.134 123.651C147.827 123.785 147.494 123.852 147.132 123.852C146.488 123.852 145.982 123.679 145.613 123.333C145.244 122.988 145.059 122.54 145.059 121.99C145.059 121.331 145.287 120.824 145.742 120.471C146.198 120.109 146.783 119.929 147.498 119.929C148.071 119.929 148.574 120.039 149.006 120.259C149.021 120.149 149.029 120.074 149.029 120.035C149.029 119.563 148.601 119.328 147.745 119.328C147.14 119.328 146.602 119.434 146.131 119.646L146.437 117.796C147.073 117.576 147.761 117.466 148.499 117.466C149.347 117.466 150.058 117.651 150.631 118.02C151.205 118.381 151.491 118.967 151.491 119.776C151.491 119.972 151.456 120.251 151.385 120.612L151.279 121.201C151.248 121.382 151.232 121.527 151.232 121.637C151.232 121.802 151.33 121.884 151.527 121.884ZM148.852 121.979L148.935 121.378C148.778 121.221 148.538 121.142 148.216 121.142C147.981 121.142 147.788 121.197 147.639 121.307C147.498 121.417 147.427 121.574 147.427 121.778C147.427 121.935 147.486 122.069 147.604 122.179C147.721 122.281 147.879 122.332 148.075 122.332C148.405 122.332 148.664 122.214 148.852 121.979Z" fill="black"/>
<path d="M154.9 123.699H152.426L153.38 117.62H155.854L155.536 119.622H156.879L157.197 117.62H159.683L158.729 123.699H156.243L156.573 121.554H155.23L154.9 123.699Z" fill="black"/>
<path d="M163.321 123.852C162.402 123.852 161.621 123.589 160.977 123.062C160.333 122.536 160.01 121.798 160.01 120.848C160.01 119.889 160.364 119.088 161.071 118.444C161.793 117.792 162.685 117.466 163.745 117.466C164.468 117.466 165.119 117.616 165.701 117.914L165.371 119.905C164.617 119.552 163.941 119.465 163.344 119.646C162.755 119.827 162.461 120.188 162.461 120.73C162.461 121.005 162.551 121.225 162.732 121.39C163.015 121.633 163.411 121.755 163.922 121.755C164.362 121.755 164.786 121.676 165.194 121.519L164.864 123.569C164.377 123.757 163.863 123.852 163.321 123.852Z" fill="black"/>
</svg>
