<svg width="384" height="438" viewBox="0 0 384 438" fill="none" xmlns="http://www.w3.org/2000/svg">
<path d="M361 88C366.523 88 371 92.4771 371 98V265C371 270.523 366.523 275 361 275H226.914C224.555 275.589 221.718 276.782 219.5 279C215 283.5 215 286.5 215 289.5V322C215 323.5 210 330 204.5 325.5C199 321 158 281 156 279C154.547 277.547 152.303 275.831 146.201 275H100C94.4771 275 90 270.523 90 265V98C90 92.4772 94.4771 88 100 88H361Z" fill="white"/>
<path d="M372 78C377.523 78 382 82.4771 382 88V255C382 260.523 377.523 265 372 265H237.914C235.555 265.589 232.718 266.782 230.5 269C226 273.5 226 276.5 226 279.5V312C226 313.5 221 320 215.5 315.5C210 311 169 271 167 269C165.547 267.547 163.303 265.831 157.201 265H111C105.477 265 101 260.523 101 255V88C101 82.4772 105.477 78 111 78H372Z" stroke="#F07281" stroke-width="3"/>
<circle cx="191.5" cy="49.5" r="13.5" stroke="#F07281" stroke-width="5"/>
<circle cx="265.5" cy="32.5" r="13.5" stroke="#F07281" stroke-width="5"/>
<path fill-rule="evenodd" clip-rule="evenodd" d="M205.5 362.281C201.513 362.281 198.281 365.513 198.281 369.5C198.281 373.487 201.513 376.719 205.5 376.719C209.487 376.719 212.719 373.487 212.719 369.5C212.719 365.513 209.487 362.281 205.5 362.281ZM195 369.5C195 363.701 199.701 359 205.5 359C211.299 359 216 363.701 216 369.5C216 375.299 211.299 380 205.5 380C199.701 380 195 375.299 195 369.5Z" fill="#F07281"/>
<path fill-rule="evenodd" clip-rule="evenodd" d="M66 287.375C60.6843 287.375 56.375 291.684 56.375 297C56.375 302.316 60.6843 306.625 66 306.625C71.3157 306.625 75.625 302.316 75.625 297C75.625 291.684 71.3157 287.375 66 287.375ZM52 297C52 289.268 58.268 283 66 283C73.732 283 80 289.268 80 297C80 304.732 73.732 311 66 311C58.268 311 52 304.732 52 297Z" fill="#F5F5F5"/>
<path fill-rule="evenodd" clip-rule="evenodd" d="M96 362.75C91.4437 362.75 87.75 366.444 87.75 371C87.75 375.556 91.4437 379.25 96 379.25C100.556 379.25 104.25 375.556 104.25 371C104.25 366.444 100.556 362.75 96 362.75ZM84 371C84 364.373 89.3726 359 96 359C102.627 359 108 364.373 108 371C108 377.627 102.627 383 96 383C89.3726 383 84 377.627 84 371Z" fill="#F5F5F5"/>
<path fill-rule="evenodd" clip-rule="evenodd" d="M270 424.5C266.962 424.5 264.5 426.962 264.5 430C264.5 433.038 266.962 435.5 270 435.5C273.038 435.5 275.5 433.038 275.5 430C275.5 426.962 273.038 424.5 270 424.5ZM262 430C262 425.582 265.582 422 270 422C274.418 422 278 425.582 278 430C278 434.418 274.418 438 270 438C265.582 438 262 434.418 262 430Z" fill="#F5F5F5"/>
<path fill-rule="evenodd" clip-rule="evenodd" d="M369.5 31.2812C365.513 31.2812 362.281 34.5132 362.281 38.5C362.281 42.4868 365.513 45.7188 369.5 45.7188C373.487 45.7188 376.719 42.4868 376.719 38.5C376.719 34.5132 373.487 31.2812 369.5 31.2812ZM359 38.5C359 32.701 363.701 28 369.5 28C375.299 28 380 32.701 380 38.5C380 44.299 375.299 49 369.5 49C363.701 49 359 44.299 359 38.5Z" fill="#F5F5F5"/>
<path fill-rule="evenodd" clip-rule="evenodd" d="M75.2276 21.0447C76.0505 20.949 76.7951 21.5385 76.8908 22.3614L77.8149 30.3079L84.768 29.4993C85.5909 29.4036 86.3355 29.9931 86.4312 30.816C86.5269 31.6389 85.9374 32.3835 85.1145 32.4792L78.1614 33.2878L79.0855 41.2342C79.1812 42.0571 78.5917 42.8018 77.7688 42.8975C76.9459 42.9932 76.2012 42.4036 76.1056 41.5808L75.1815 33.6343L67.7317 34.5006C66.9088 34.5963 66.1641 34.0068 66.0685 33.1839C65.9728 32.3611 66.5623 31.6164 67.3852 31.5207L74.8349 30.6544L73.9109 22.7079C73.8152 21.8851 74.4047 21.1404 75.2276 21.0447Z" fill="white"/>
<path fill-rule="evenodd" clip-rule="evenodd" d="M44.5 68.2812C40.5132 68.2812 37.2812 71.5132 37.2812 75.5C37.2812 79.4868 40.5132 82.7188 44.5 82.7188C48.4868 82.7188 51.7188 79.4868 51.7188 75.5C51.7188 71.5132 48.4868 68.2812 44.5 68.2812ZM34 75.5C34 69.701 38.701 65 44.5 65C50.299 65 55 69.701 55 75.5C55 81.299 50.299 86 44.5 86C38.701 86 34 81.299 34 75.5Z" fill="#F5F5F5"/>
<path fill-rule="evenodd" clip-rule="evenodd" d="M28.5 187.344C25.6523 187.344 23.3438 189.652 23.3438 192.5C23.3438 195.348 25.6523 197.656 28.5 197.656C31.3477 197.656 33.6562 195.348 33.6562 192.5C33.6562 189.652 31.3477 187.344 28.5 187.344ZM21 192.5C21 188.358 24.3579 185 28.5 185C32.6421 185 36 188.358 36 192.5C36 196.642 32.6421 200 28.5 200C24.3579 200 21 196.642 21 192.5Z" fill="#F5F5F5"/>
<path fill-rule="evenodd" clip-rule="evenodd" d="M313.025 21.0251C313.469 20.5814 314.188 20.5814 314.632 21.0251L319.05 25.4436L323.469 21.0251C323.913 20.5814 324.632 20.5814 325.076 21.0251C325.519 21.4688 325.519 22.1881 325.076 22.6318L320.657 27.0503L325.076 31.4688C325.519 31.9124 325.519 32.6318 325.076 33.0755C324.632 33.5192 323.913 33.5192 323.469 33.0755L319.05 28.657L314.632 33.0755C314.188 33.5192 313.469 33.5192 313.025 33.0755C312.582 32.6318 312.582 31.9124 313.025 31.4688L317.444 27.0503L313.025 22.6318C312.582 22.1881 312.582 21.4688 313.025 21.0251Z" fill="black"/>
<path fill-rule="evenodd" clip-rule="evenodd" d="M156.148 0.633204C156.876 0.679832 157.428 1.30751 157.381 2.03515L156.917 9.28153L164.163 9.74588C164.891 9.79251 165.443 10.4202 165.396 11.1478C165.35 11.8755 164.722 12.4276 163.994 12.3809L156.748 11.9166L156.284 19.163C156.237 19.8906 155.609 20.4427 154.882 20.396C154.154 20.3494 153.602 19.7217 153.649 18.9941L154.113 11.7477L146.866 11.2834C146.139 11.2367 145.587 10.6091 145.633 9.88142C145.68 9.15378 146.308 8.6017 147.035 8.64833L154.282 9.11268L154.746 1.8663C154.793 1.13865 155.42 0.586576 156.148 0.633204Z" fill="black"/>
<path fill-rule="evenodd" clip-rule="evenodd" d="M43.8968 133.346C44.552 133.026 45.3425 133.298 45.6626 133.953L48.8498 140.477L55.3742 137.29C56.0293 136.97 56.8199 137.242 57.1399 137.897C57.46 138.552 57.1883 139.342 56.5332 139.662L50.0088 142.85L53.196 149.374C53.5161 150.029 53.2444 150.82 52.5893 151.14C51.9342 151.46 51.1436 151.188 50.8236 150.533L47.6363 144.009L41.112 147.196C40.4568 147.516 39.6663 147.244 39.3462 146.589C39.0262 145.934 39.2978 145.144 39.953 144.823L46.4773 141.636L43.2901 135.112C42.97 134.457 43.2417 133.666 43.8968 133.346Z" fill="black"/>
<path fill-rule="evenodd" clip-rule="evenodd" d="M13.2955 261.168C14.2745 260.787 15.3767 261.273 15.7573 262.252L19.5472 272.002L29.2972 268.212C30.2763 267.831 31.3785 268.316 31.7591 269.295C32.1396 270.274 31.6545 271.377 30.6754 271.757L20.9254 275.547L24.7154 285.297C25.0959 286.276 24.6108 287.378 23.6317 287.759C22.6527 288.14 21.5505 287.654 21.1699 286.675L17.3799 276.925L7.62994 280.715C6.65089 281.096 5.5487 280.611 5.16813 279.632C4.78756 278.653 5.27272 277.55 6.25177 277.17L16.0018 273.38L12.2118 263.63C11.8312 262.651 12.3164 261.549 13.2955 261.168Z" fill="black"/>
<path fill-rule="evenodd" clip-rule="evenodd" d="M105.295 319.168C106.275 318.787 107.377 319.273 107.757 320.252L111.547 330.002L121.297 326.212C122.276 325.831 123.378 326.316 123.759 327.295C124.14 328.274 123.654 329.377 122.675 329.757L112.925 333.547L116.715 343.297C117.096 344.276 116.611 345.378 115.632 345.759C114.653 346.14 113.55 345.654 113.17 344.675L109.38 334.925L99.6299 338.715C98.6509 339.096 97.5487 338.611 97.1681 337.632C96.7876 336.653 97.2727 335.55 98.2518 335.17L108.002 331.38L104.212 321.63C103.831 320.651 104.316 319.549 105.295 319.168Z" fill="black"/>
<path fill-rule="evenodd" clip-rule="evenodd" d="M251.272 375.356C251.791 374.811 252.653 374.79 253.198 375.309L258.624 380.472L263.787 375.046C264.306 374.502 265.168 374.48 265.713 374.999C266.258 375.517 266.279 376.379 265.76 376.924L260.597 382.35L266.023 387.514C266.567 388.032 266.589 388.894 266.07 389.439C265.552 389.984 264.69 390.005 264.145 389.487L258.719 384.323L253.555 389.749C253.037 390.294 252.175 390.315 251.63 389.797C251.085 389.278 251.064 388.416 251.582 387.871L256.746 382.445L251.32 377.282C250.775 376.763 250.754 375.901 251.272 375.356Z" fill="black"/>
<path fill-rule="evenodd" clip-rule="evenodd" d="M302.62 371.783C302.886 371.431 303.388 371.361 303.74 371.628L307.247 374.282L309.902 370.775C310.168 370.423 310.67 370.353 311.022 370.62C311.374 370.886 311.444 371.388 311.177 371.74L308.523 375.247L312.03 377.902C312.382 378.169 312.452 378.67 312.185 379.022C311.919 379.374 311.417 379.444 311.065 379.177L307.558 376.523L304.903 380.03C304.637 380.383 304.135 380.452 303.783 380.185C303.431 379.919 303.361 379.417 303.628 379.065L306.282 375.558L302.775 372.903C302.423 372.637 302.353 372.135 302.62 371.783Z" fill="black"/>
<path d="M171.599 163.22C172.119 163.38 172.613 163.74 173.079 164.3C173.546 164.847 173.779 165.553 173.779 166.42C173.779 167.807 173.253 168.92 172.199 169.76C171.146 170.587 169.833 171 168.259 171H160.439L162.639 157H169.259C170.526 157 171.539 157.273 172.299 157.82C173.059 158.353 173.439 159.127 173.439 160.14C173.439 160.78 173.279 161.373 172.959 161.92C172.639 162.467 172.186 162.9 171.599 163.22ZM165.259 167.54H167.519C167.959 167.54 168.319 167.427 168.599 167.2C168.879 166.973 169.019 166.667 169.019 166.28C169.019 165.96 168.899 165.707 168.659 165.52C168.419 165.32 168.099 165.22 167.699 165.22H165.639L165.259 167.54ZM168.439 160.34H166.399L166.119 162.22H168.299C168.673 162.22 168.959 162.127 169.159 161.94C169.373 161.753 169.479 161.493 169.479 161.16C169.479 160.907 169.379 160.707 169.179 160.56C168.993 160.413 168.746 160.34 168.439 160.34Z" fill="black"/>
<path d="M185.473 167.92C185.633 167.92 185.813 167.887 186.013 167.82L185.533 170.68C184.986 171.067 184.273 171.26 183.393 171.26C182.1 171.26 181.266 170.853 180.893 170.04C180.626 170.387 180.233 170.68 179.713 170.92C179.193 171.147 178.626 171.26 178.013 171.26C176.92 171.26 176.06 170.967 175.433 170.38C174.806 169.793 174.493 169.033 174.493 168.1C174.493 166.98 174.88 166.12 175.653 165.52C176.426 164.907 177.42 164.6 178.633 164.6C179.606 164.6 180.46 164.787 181.193 165.16C181.22 164.973 181.233 164.847 181.233 164.78C181.233 163.98 180.506 163.58 179.053 163.58C178.026 163.58 177.113 163.76 176.313 164.12L176.833 160.98C177.913 160.607 179.08 160.42 180.333 160.42C181.773 160.42 182.98 160.733 183.953 161.36C184.926 161.973 185.413 162.967 185.413 164.34C185.413 164.673 185.353 165.147 185.233 165.76L185.053 166.76C185 167.067 184.973 167.313 184.973 167.5C184.973 167.78 185.14 167.92 185.473 167.92ZM180.933 168.08L181.073 167.06C180.806 166.793 180.4 166.66 179.853 166.66C179.453 166.66 179.126 166.753 178.873 166.94C178.633 167.127 178.513 167.393 178.513 167.74C178.513 168.007 178.613 168.233 178.813 168.42C179.013 168.593 179.28 168.68 179.613 168.68C180.173 168.68 180.613 168.48 180.933 168.08Z" fill="black"/>
<path d="M202.48 171H187L188.62 160.68H192.66L191.56 167.7H193.2L194.3 160.68H198.34L197.24 167.7H198.96L200.06 160.68H204.1L202.48 171Z" fill="black"/>
<path d="M213.162 171H209.402L211.022 160.68H214.982L216.642 163.9L219.302 160.68H223.282L221.662 171H217.882L218.642 166.1L216.782 168.36H215.122L213.942 166.08L213.162 171Z" fill="black"/>
<path d="M234.321 167.92C234.481 167.92 234.661 167.887 234.861 167.82L234.381 170.68C233.834 171.067 233.121 171.26 232.241 171.26C230.947 171.26 230.114 170.853 229.741 170.04C229.474 170.387 229.081 170.68 228.561 170.92C228.041 171.147 227.474 171.26 226.861 171.26C225.767 171.26 224.907 170.967 224.281 170.38C223.654 169.793 223.341 169.033 223.341 168.1C223.341 166.98 223.727 166.12 224.501 165.52C225.274 164.907 226.267 164.6 227.481 164.6C228.454 164.6 229.307 164.787 230.041 165.16C230.067 164.973 230.081 164.847 230.081 164.78C230.081 163.98 229.354 163.58 227.901 163.58C226.874 163.58 225.961 163.76 225.161 164.12L225.681 160.98C226.761 160.607 227.927 160.42 229.181 160.42C230.621 160.42 231.827 160.733 232.801 161.36C233.774 161.973 234.261 162.967 234.261 164.34C234.261 164.673 234.201 165.147 234.081 165.76L233.901 166.76C233.847 167.067 233.821 167.313 233.821 167.5C233.821 167.78 233.987 167.92 234.321 167.92ZM229.781 168.08L229.921 167.06C229.654 166.793 229.247 166.66 228.701 166.66C228.301 166.66 227.974 166.753 227.721 166.94C227.481 167.127 227.361 167.393 227.361 167.74C227.361 168.007 227.461 168.233 227.661 168.42C227.861 168.593 228.127 168.68 228.461 168.68C229.021 168.68 229.461 168.48 229.781 168.08Z" fill="black"/>
<path d="M240.287 169.86L239.467 175H235.247L237.467 160.68H241.707L241.527 161.84C241.701 161.493 242.061 161.173 242.607 160.88C243.154 160.573 243.761 160.42 244.427 160.42C245.587 160.42 246.541 160.873 247.287 161.78C248.034 162.687 248.407 163.813 248.407 165.16C248.407 166.147 248.214 167.1 247.827 168.02C247.441 168.94 246.841 169.707 246.027 170.32C245.201 170.947 244.241 171.26 243.147 171.26C242.481 171.26 241.874 171.113 241.327 170.82C240.794 170.527 240.447 170.207 240.287 169.86ZM240.947 164.76L240.627 166.9C240.974 167.473 241.521 167.76 242.267 167.76C242.801 167.76 243.241 167.553 243.587 167.14C243.934 166.713 244.107 166.187 244.107 165.56C244.107 165.04 243.967 164.64 243.687 164.36C243.421 164.067 243.067 163.92 242.627 163.92C241.987 163.92 241.427 164.2 240.947 164.76Z" fill="black"/>
<path d="M253.25 171H249.05L250.65 160.68H254.87L254.33 164.24L257.25 160.68H262.41L257.91 165.64L261.47 171H256.55L253.89 166.82L253.25 171Z" fill="black"/>
<path d="M272.119 164.8C272.119 165.28 272.032 165.927 271.859 166.74H265.419C265.485 167.127 265.745 167.427 266.199 167.64C266.665 167.853 267.225 167.96 267.879 167.96C269.052 167.96 270.179 167.693 271.259 167.16L270.779 170.26C269.872 170.927 268.525 171.26 266.739 171.26C265.232 171.26 263.965 170.807 262.939 169.9C261.925 169.007 261.419 167.807 261.419 166.3C261.419 164.58 261.979 163.173 263.099 162.08C264.245 160.973 265.645 160.42 267.299 160.42C268.699 160.42 269.852 160.813 270.759 161.6C271.665 162.387 272.119 163.453 272.119 164.8ZM265.519 164.74H268.319V164.62C268.319 164.193 268.212 163.86 267.999 163.62C267.799 163.367 267.519 163.24 267.159 163.24C266.772 163.24 266.432 163.373 266.139 163.64C265.845 163.893 265.639 164.26 265.519 164.74Z" fill="black"/>
<path d="M278.945 171H274.725L275.825 163.98H273.065L273.585 160.68H283.365L282.845 163.98H280.045L278.945 171Z" fill="black"/>
<path d="M287.112 171H283.152L284.772 160.68H288.712L288.032 165.06L291.752 160.68H295.712L294.092 171H290.152L290.832 166.64L287.112 171Z" fill="black"/>
<path d="M300.242 171H296.042L297.663 160.68H301.863L301.322 164.08H303.602L304.143 160.68H308.363L306.743 171H302.523L303.083 167.36H300.803L300.242 171Z" fill="black"/>
<path d="M312.899 171H308.699L310.319 160.68H318.959L318.439 163.98H313.999L312.899 171Z" fill="black"/>
<path d="M173.197 191.7C174.224 192.087 174.737 192.793 174.737 193.82C174.737 194.86 174.33 195.653 173.517 196.2C172.717 196.733 171.604 197 170.177 197H163.777L165.397 186.68H171.697C172.67 186.68 173.424 186.92 173.957 187.4C174.504 187.88 174.777 188.48 174.777 189.2C174.777 189.787 174.617 190.307 174.297 190.76C173.99 191.213 173.624 191.527 173.197 191.7ZM169.997 189.22H169.037L168.797 190.78H169.757C170.077 190.78 170.337 190.693 170.537 190.52C170.737 190.347 170.837 190.12 170.837 189.84C170.837 189.427 170.557 189.22 169.997 189.22ZM168.497 192.68L168.217 194.38H169.457C170.244 194.38 170.637 194.033 170.637 193.34C170.637 192.9 170.33 192.68 169.717 192.68H168.497Z" fill="black"/>
<path d="M185.008 197H180.808L182.428 186.68H186.628L186.088 190.08H188.368L188.908 186.68H193.128L191.508 197H187.288L187.848 193.36H185.568L185.008 197Z" fill="black"/>
<path d="M204.164 193.92C204.324 193.92 204.504 193.887 204.704 193.82L204.224 196.68C203.678 197.067 202.964 197.26 202.084 197.26C200.791 197.26 199.958 196.853 199.584 196.04C199.318 196.387 198.924 196.68 198.404 196.92C197.884 197.147 197.318 197.26 196.704 197.26C195.611 197.26 194.751 196.967 194.124 196.38C193.498 195.793 193.184 195.033 193.184 194.1C193.184 192.98 193.571 192.12 194.344 191.52C195.118 190.907 196.111 190.6 197.324 190.6C198.298 190.6 199.151 190.787 199.884 191.16C199.911 190.973 199.924 190.847 199.924 190.78C199.924 189.98 199.198 189.58 197.744 189.58C196.718 189.58 195.804 189.76 195.004 190.12L195.524 186.98C196.604 186.607 197.771 186.42 199.024 186.42C200.464 186.42 201.671 186.733 202.644 187.36C203.618 187.973 204.104 188.967 204.104 190.34C204.104 190.673 204.044 191.147 203.924 191.76L203.744 192.76C203.691 193.067 203.664 193.313 203.664 193.5C203.664 193.78 203.831 193.92 204.164 193.92ZM199.624 194.08L199.764 193.06C199.498 192.793 199.091 192.66 198.544 192.66C198.144 192.66 197.818 192.753 197.564 192.94C197.324 193.127 197.204 193.393 197.204 193.74C197.204 194.007 197.304 194.233 197.504 194.42C197.704 194.593 197.971 194.68 198.304 194.68C198.864 194.68 199.304 194.48 199.624 194.08Z" fill="black"/>
<path d="M221.171 197H205.691L207.311 186.68H211.351L210.251 193.7H211.891L212.991 186.68H217.031L215.931 193.7H217.651L218.751 186.68H222.791L221.171 197Z" fill="black"/>
<path d="M227.092 197H223.132L224.752 186.68H228.692L228.012 191.06L231.732 186.68H235.692L234.072 197H230.132L230.812 192.64L227.092 197Z" fill="black"/>
<path d="M236.863 186.68H241.223L242.183 189.1L243.883 186.68H248.563L244.383 191.7L247.103 197H242.683L241.623 194.42L239.723 197H235.043L239.463 191.72L236.863 186.68Z" fill="black"/>
<path d="M257.572 195.86L256.752 201H252.532L254.752 186.68H258.992L258.812 187.84C258.986 187.493 259.346 187.173 259.892 186.88C260.439 186.573 261.046 186.42 261.712 186.42C262.872 186.42 263.826 186.873 264.572 187.78C265.319 188.687 265.692 189.813 265.692 191.16C265.692 192.147 265.499 193.1 265.112 194.02C264.726 194.94 264.126 195.707 263.312 196.32C262.486 196.947 261.526 197.26 260.432 197.26C259.766 197.26 259.159 197.113 258.612 196.82C258.079 196.527 257.732 196.207 257.572 195.86ZM258.232 190.76L257.912 192.9C258.259 193.473 258.806 193.76 259.552 193.76C260.086 193.76 260.526 193.553 260.872 193.14C261.219 192.713 261.392 192.187 261.392 191.56C261.392 191.04 261.252 190.64 260.972 190.36C260.706 190.067 260.352 189.92 259.912 189.92C259.272 189.92 258.712 190.2 258.232 190.76Z" fill="black"/>
<path d="M267.311 201.12C266.231 201.12 265.431 200.96 264.911 200.64L265.491 197.02C265.931 197.38 266.484 197.56 267.151 197.56C267.591 197.56 267.938 197.493 268.191 197.36C268.444 197.24 268.664 197.007 268.851 196.66L266.211 186.68H270.591L271.471 192.52L274.051 186.68H278.431L272.271 198C271.151 200.08 269.498 201.12 267.311 201.12Z" fill="black"/>
<path d="M282.02 197H277.82L279.42 186.68H283.64L283.1 190.24L286.02 186.68H291.18L286.68 191.64L290.24 197H285.32L282.66 192.82L282.02 197Z" fill="black"/>
<path d="M301.508 193.92C301.668 193.92 301.848 193.887 302.048 193.82L301.568 196.68C301.021 197.067 300.308 197.26 299.428 197.26C298.135 197.26 297.301 196.853 296.928 196.04C296.661 196.387 296.268 196.68 295.748 196.92C295.228 197.147 294.661 197.26 294.048 197.26C292.955 197.26 292.095 196.967 291.468 196.38C290.841 195.793 290.528 195.033 290.528 194.1C290.528 192.98 290.915 192.12 291.688 191.52C292.461 190.907 293.455 190.6 294.668 190.6C295.641 190.6 296.495 190.787 297.228 191.16C297.255 190.973 297.268 190.847 297.268 190.78C297.268 189.98 296.541 189.58 295.088 189.58C294.061 189.58 293.148 189.76 292.348 190.12L292.868 186.98C293.948 186.607 295.115 186.42 296.368 186.42C297.808 186.42 299.015 186.733 299.988 187.36C300.961 187.973 301.448 188.967 301.448 190.34C301.448 190.673 301.388 191.147 301.268 191.76L301.088 192.76C301.035 193.067 301.008 193.313 301.008 193.5C301.008 193.78 301.175 193.92 301.508 193.92ZM296.968 194.08L297.108 193.06C296.841 192.793 296.435 192.66 295.888 192.66C295.488 192.66 295.161 192.753 294.908 192.94C294.668 193.127 294.548 193.393 294.548 193.74C294.548 194.007 294.648 194.233 294.848 194.42C295.048 194.593 295.315 194.68 295.648 194.68C296.208 194.68 296.648 194.48 296.968 194.08Z" fill="black"/>
<path d="M303.875 186.68H308.235L309.195 189.1L310.895 186.68H315.575L311.395 191.7L314.115 197H309.695L308.635 194.42L306.735 197H302.055L306.475 191.72L303.875 186.68Z" fill="black"/>
</svg>
