<svg width="210" height="265" viewBox="0 0 210 265" fill="none" xmlns="http://www.w3.org/2000/svg">
<path d="M183.95 53.2676C187.291 53.2676 190 55.9644 190 59.2911V159.884C190 163.211 187.291 165.908 183.95 165.908H102.83C101.403 166.263 99.6868 166.981 98.3452 168.317C95.6228 171.028 95.6228 172.835 95.6228 174.642V194.218C95.6228 195.122 92.5979 199.037 89.2705 196.326C85.9431 193.616 61.1388 169.522 59.9288 168.317C59.0499 167.442 57.6922 166.408 54.0006 165.908H26.0498C22.7086 165.908 20 163.211 20 159.884V59.2911C20 55.9644 22.7086 53.2676 26.0498 53.2676H183.95Z" fill="white"/>
<path fill-rule="evenodd" clip-rule="evenodd" d="M191.035 48.077C193.878 48.077 196.183 50.3724 196.183 53.2038V153.93C196.183 156.761 193.878 159.057 191.035 159.057H109.716L109.608 159.084C108.081 159.464 106.193 160.243 104.696 161.734C103.26 163.164 102.487 164.411 102.092 165.594C101.704 166.751 101.704 167.781 101.704 168.67V188.263C101.699 188.281 101.685 188.32 101.654 188.385C101.595 188.511 101.497 188.677 101.357 188.865C101.077 189.242 100.672 189.652 100.19 189.962C99.7095 190.27 99.1876 190.458 98.6524 190.458C98.132 190.458 97.5173 190.281 96.8288 189.72C95.2012 188.394 88.2003 181.723 81.4033 175.181C74.6264 168.658 68.1217 162.331 67.5226 161.734C67.0314 161.245 66.3886 160.697 65.3584 160.21C64.341 159.729 62.9819 159.324 61.0682 159.065L61.0072 159.057H32.9648C30.1217 159.057 27.8169 156.761 27.8169 153.93V53.2038C27.8169 50.3724 30.1217 48.077 32.9648 48.077H191.035ZM198 53.2038C198 49.373 194.882 46.2676 191.035 46.2676H32.9648C29.1182 46.2676 26 49.373 26 53.2038V153.93C26 157.761 29.1182 160.866 32.9648 160.866H60.8835C62.6314 161.108 63.7824 161.468 64.5793 161.844C65.3726 162.219 65.8494 162.627 66.2379 163.014C66.8501 163.623 73.3666 169.962 80.1407 176.482C86.8947 182.983 93.9749 189.733 95.6783 191.121C96.6553 191.917 97.6682 192.268 98.6524 192.268C99.6218 192.268 100.481 191.928 101.175 191.482C101.866 191.038 102.426 190.468 102.818 189.941C103.014 189.676 103.178 189.409 103.298 189.157C103.404 188.933 103.521 188.625 103.521 188.309V168.707C103.521 167.795 103.527 167.028 103.815 166.166C104.101 165.313 104.691 164.298 105.98 163.014C107.138 161.861 108.637 161.205 109.942 160.866H191.035C194.882 160.866 198 157.761 198 153.93V53.2038Z" fill="#F07281"/>
<path fill-rule="evenodd" clip-rule="evenodd" d="M81.5 23.2363C77.8929 23.2363 74.9688 26.1605 74.9688 29.7676C74.9688 33.3747 77.8929 36.2988 81.5 36.2988C85.1071 36.2988 88.0312 33.3747 88.0312 29.7676C88.0312 26.1605 85.1071 23.2363 81.5 23.2363ZM72 29.7676C72 24.5209 76.2533 20.2676 81.5 20.2676C86.7467 20.2676 91 24.5209 91 29.7676C91 35.0143 86.7467 39.2676 81.5 39.2676C76.2533 39.2676 72 35.0143 72 29.7676Z" fill="#F07281"/>
<path fill-rule="evenodd" clip-rule="evenodd" d="M126.5 13.2363C122.893 13.2363 119.969 16.1605 119.969 19.7676C119.969 23.3747 122.893 26.2988 126.5 26.2988C130.107 26.2988 133.031 23.3747 133.031 19.7676C133.031 16.1605 130.107 13.2363 126.5 13.2363ZM117 19.7676C117 14.5209 121.253 10.2676 126.5 10.2676C131.747 10.2676 136 14.5209 136 19.7676C136 25.0143 131.747 29.2676 126.5 29.2676C121.253 29.2676 117 25.0143 117 19.7676Z" fill="#F07281"/>
<path fill-rule="evenodd" clip-rule="evenodd" d="M90 219.143C87.7218 219.143 85.875 220.989 85.875 223.268C85.875 225.546 87.7218 227.393 90 227.393C92.2782 227.393 94.125 225.546 94.125 223.268C94.125 220.989 92.2782 219.143 90 219.143ZM84 223.268C84 219.954 86.6863 217.268 90 217.268C93.3137 217.268 96 219.954 96 223.268C96 226.581 93.3137 229.268 90 229.268C86.6863 229.268 84 226.581 84 223.268Z" fill="#F07281"/>
<path fill-rule="evenodd" clip-rule="evenodd" d="M5.5 173.924C2.27259 173.924 -0.34375 176.54 -0.34375 179.768C-0.34375 182.995 2.27259 185.611 5.5 185.611C8.72741 185.611 11.3438 182.995 11.3438 179.768C11.3438 176.54 8.72741 173.924 5.5 173.924ZM-3 179.768C-3 175.073 0.80558 171.268 5.5 171.268C10.1944 171.268 14 175.073 14 179.768C14 184.462 10.1944 188.268 5.5 188.268C0.80558 188.268 -3 184.462 -3 179.768Z" fill="#F5F5F5"/>
<path fill-rule="evenodd" clip-rule="evenodd" d="M24 219.455C21.3421 219.455 19.1875 221.61 19.1875 224.268C19.1875 226.925 21.3421 229.08 24 229.08C26.6579 229.08 28.8125 226.925 28.8125 224.268C28.8125 221.61 26.6579 219.455 24 219.455ZM17 224.268C17 220.402 20.134 217.268 24 217.268C27.866 217.268 31 220.402 31 224.268C31 228.134 27.866 231.268 24 231.268C20.134 231.268 17 228.134 17 224.268Z" fill="#F5F5F5"/>
<path fill-rule="evenodd" clip-rule="evenodd" d="M129 256.674C127.102 256.674 125.562 258.059 125.562 259.768C125.562 261.476 127.102 262.861 129 262.861C130.898 262.861 132.438 261.476 132.438 259.768C132.438 258.059 130.898 256.674 129 256.674ZM124 259.768C124 257.282 126.239 255.268 129 255.268C131.761 255.268 134 257.282 134 259.768C134 262.253 131.761 264.268 129 264.268C126.239 264.268 124 262.253 124 259.768Z" fill="#F5F5F5"/>
<path fill-rule="evenodd" clip-rule="evenodd" d="M203.5 3.29883C201.032 3.29883 199.031 5.29956 199.031 7.76758C199.031 10.2356 201.032 12.2363 203.5 12.2363C205.968 12.2363 207.969 10.2356 207.969 7.76758C207.969 5.29956 205.968 3.29883 203.5 3.29883ZM197 7.76758C197 4.17773 199.91 1.26758 203.5 1.26758C207.09 1.26758 210 4.17773 210 7.76758C210 11.3574 207.09 14.2676 203.5 14.2676C199.91 14.2676 197 11.3574 197 7.76758Z" fill="#F5F5F5"/>
<path fill-rule="evenodd" clip-rule="evenodd" d="M11.4344 12.7099C11.9314 12.6521 12.3811 13.0081 12.4389 13.5051L12.997 18.3044L17.1964 17.8161C17.6934 17.7583 18.1432 18.1143 18.201 18.6113C18.2588 19.1083 17.9027 19.5581 17.4057 19.6159L13.2063 20.1042L13.7644 24.9035C13.8222 25.4005 13.4662 25.8503 12.9692 25.9081C12.4722 25.9659 12.0225 25.6098 11.9647 25.1128L11.4066 20.3135L6.90717 20.8367C6.41018 20.8945 5.96044 20.5385 5.90265 20.0415C5.84485 19.5445 6.20089 19.0948 6.69788 19.037L11.1973 18.5137L10.6392 13.7144C10.5814 13.2174 10.9374 12.7677 11.4344 12.7099Z" fill="white"/>
<path fill-rule="evenodd" clip-rule="evenodd" d="M155.055 12.6989C155.323 12.431 155.757 12.431 156.025 12.6989L158.694 15.3675L161.363 12.6989C161.631 12.4309 162.065 12.431 162.333 12.6989C162.601 12.9669 162.601 13.4013 162.333 13.6693L159.664 16.3379L162.333 19.0065C162.601 19.2744 162.601 19.7089 162.333 19.9769C162.065 20.2448 161.631 20.2448 161.363 19.9769L158.694 17.3083L156.025 19.9769C155.757 20.2448 155.323 20.2448 155.055 19.9769C154.787 19.7089 154.787 19.2744 155.055 19.0065L157.724 16.3379L155.055 13.6693C154.787 13.4013 154.787 12.9669 155.055 12.6989Z" fill="black"/>
<path fill-rule="evenodd" clip-rule="evenodd" d="M60.3073 0.38243C60.7468 0.410592 61.0802 0.789682 61.0521 1.22915L60.7716 5.60568L65.1482 5.88613C65.5876 5.91429 65.9211 6.29338 65.8929 6.73285C65.8647 7.17232 65.4856 7.50575 65.0462 7.47759L60.6697 7.19714L60.3892 11.5737C60.361 12.0131 59.982 12.3466 59.5425 12.3184C59.103 12.2902 58.7696 11.9112 58.7977 11.4717L59.0782 7.09516L54.7017 6.81471C54.2622 6.78655 53.9288 6.40746 53.9569 5.96799C53.9851 5.52852 54.3642 5.19509 54.8036 5.22325L59.1802 5.5037L59.4606 1.12717C59.4888 0.687701 59.8679 0.354269 60.3073 0.38243Z" fill="black"/>
<path fill-rule="evenodd" clip-rule="evenodd" d="M-7.48799 80.5362C-7.09231 80.3429 -6.61485 80.507 -6.42155 80.9026L-4.49659 84.8431L-0.556139 82.9181C-0.160458 82.7248 0.317004 82.8889 0.5103 83.2846C0.703596 83.6802 0.539529 84.1577 0.143848 84.351L-3.7966 86.276L-1.87163 90.2164C-1.67834 90.6121 -1.8424 91.0896 -2.23809 91.2829C-2.63377 91.4762 -3.11123 91.3121 -3.30452 90.9164L-5.22949 86.976L-9.16994 88.9009C-9.56562 89.0942 -10.0431 88.9302 -10.2364 88.5345C-10.4297 88.1388 -10.2656 87.6613 -9.86992 87.468L-5.92948 85.5431L-7.85444 81.6026C-8.04774 81.2069 -7.88367 80.7295 -7.48799 80.5362Z" fill="black"/>
<path fill-rule="evenodd" clip-rule="evenodd" d="M29.5944 192.764C30.1857 192.535 30.8514 192.828 31.0812 193.419L33.3702 199.307L39.2588 197.019C39.8501 196.789 40.5158 197.082 40.7457 197.673C40.9755 198.264 40.6825 198.93 40.0912 199.16L34.2026 201.449L36.4916 207.337C36.7214 207.929 36.4284 208.594 35.8371 208.824C35.2458 209.054 34.5801 208.761 34.3502 208.17L32.0613 202.281L26.1726 204.57C25.5813 204.8 24.9156 204.507 24.6858 203.916C24.4559 203.324 24.749 202.659 25.3403 202.429L31.2289 200.14L28.9399 194.251C28.7101 193.66 29.0031 192.994 29.5944 192.764Z" fill="black"/>
<path fill-rule="evenodd" clip-rule="evenodd" d="M117.759 226.7C118.072 226.371 118.592 226.358 118.921 226.671L122.199 229.79L125.317 226.513C125.63 226.184 126.151 226.171 126.48 226.484C126.809 226.797 126.822 227.318 126.509 227.647L123.39 230.924L126.667 234.043C126.996 234.356 127.009 234.877 126.696 235.206C126.383 235.535 125.862 235.548 125.533 235.235L122.256 232.116L119.137 235.393C118.824 235.722 118.304 235.735 117.975 235.422C117.646 235.109 117.633 234.588 117.946 234.259L121.064 230.982L117.787 227.863C117.458 227.55 117.445 227.029 117.759 226.7Z" fill="black"/>
<path fill-rule="evenodd" clip-rule="evenodd" d="M148.77 224.542C148.931 224.329 149.234 224.287 149.447 224.448L151.565 226.052L153.168 223.933C153.329 223.721 153.632 223.679 153.845 223.84C154.058 224.001 154.1 224.303 153.939 224.516L152.335 226.635L154.454 228.238C154.666 228.399 154.708 228.702 154.547 228.914C154.386 229.127 154.084 229.169 153.871 229.008L151.752 227.405L150.149 229.523C149.988 229.736 149.685 229.778 149.473 229.617C149.26 229.456 149.218 229.153 149.379 228.94L150.982 226.822L148.864 225.219C148.651 225.058 148.609 224.755 148.77 224.542Z" fill="black"/>
<path d="M42.54 80.6728H39.9538L41.2831 72.2676H48.9573L47.6158 80.6728H45.0296L46.0206 74.489H43.531L42.54 80.6728Z" fill="black"/>
<path d="M51.534 79.9884L51.0385 83.0743H48.4885L49.83 74.4769H52.3921L52.2833 75.1734C52.3881 74.9653 52.6056 74.7731 52.9359 74.597C53.2663 74.4129 53.6328 74.3209 54.0357 74.3209C54.7366 74.3209 55.3127 74.593 55.7639 75.1374C56.2151 75.6817 56.4407 76.3581 56.4407 77.1666C56.4407 77.759 56.3238 78.3313 56.0902 78.8837C55.8565 79.436 55.494 79.8963 55.0025 80.2645C54.503 80.6408 53.9229 80.8289 53.2622 80.8289C52.8594 80.8289 52.4928 80.7408 52.1625 80.5647C51.8402 80.3886 51.6307 80.1965 51.534 79.9884ZM51.9328 76.9265L51.7395 78.2113C51.949 78.5555 52.2793 78.7276 52.7305 78.7276C53.0528 78.7276 53.3186 78.6035 53.5281 78.3554C53.7376 78.0992 53.8423 77.783 53.8423 77.4068C53.8423 77.0946 53.7577 76.8544 53.5885 76.6863C53.4274 76.5102 53.2139 76.4222 52.948 76.4222C52.5613 76.4222 52.2229 76.5903 51.9328 76.9265Z" fill="black"/>
<path d="M63.4279 76.9505C63.4279 77.2387 63.3755 77.6269 63.2708 78.1152H59.3793C59.4196 78.3473 59.5767 78.5275 59.8506 78.6555C60.1326 78.7836 60.471 78.8477 60.8658 78.8477C61.5748 78.8477 62.2556 78.6876 62.9082 78.3674L62.6181 80.2285C62.0703 80.6288 61.2565 80.8289 60.1769 80.8289C59.2665 80.8289 58.5011 80.5567 57.8807 80.0124C57.2684 79.476 56.9622 78.7556 56.9622 77.851C56.9622 76.8184 57.3006 75.9739 57.9774 75.3175C58.6703 74.6531 59.5163 74.3209 60.5153 74.3209C61.3613 74.3209 62.0582 74.557 62.6061 75.0293C63.1539 75.5016 63.4279 76.142 63.4279 76.9505ZM59.4397 76.9145H61.1317V76.8424C61.1317 76.5863 61.0672 76.3861 60.9383 76.242C60.8174 76.0899 60.6482 76.0139 60.4307 76.0139C60.1971 76.0139 59.9916 76.0939 59.8144 76.254C59.6371 76.4061 59.5122 76.6263 59.4397 76.9145Z" fill="black"/>
<path d="M66.2208 80.6728H63.8279L64.8068 74.4769H67.1876L66.7767 77.1066L69.0246 74.4769H71.4175L70.4386 80.6728H68.0578L68.4687 78.0552L66.2208 80.6728Z" fill="black"/>
<path d="M73.8893 80.6728H71.6173L72.5962 74.4769H74.9891L75.9921 76.4101L77.5995 74.4769H80.0045L79.0256 80.6728H76.7414L77.2007 77.731L76.0767 79.0878H75.0737L74.3606 77.719L73.8893 80.6728Z" fill="black"/>
<path d="M81.1881 83.1463C80.5355 83.1463 80.052 83.0503 79.7378 82.8581L80.0883 80.6848C80.3542 80.9009 80.6885 81.009 81.0914 81.009C81.3573 81.009 81.5667 80.969 81.7198 80.8889C81.8729 80.8169 82.0058 80.6768 82.1186 80.4687L80.5234 74.4769H83.1701L83.7018 77.9831L85.2608 74.4769H87.9075L84.1852 81.2732C83.5084 82.5219 82.5094 83.1463 81.1881 83.1463Z" fill="black"/>
<path d="M97.5811 82.0056H95.297L95.5025 80.6728H87.5382L88.5292 74.4769H90.9705L90.2937 78.6916H91.2847L91.9615 74.4769H94.4027L93.7259 78.6916H94.7652L95.442 74.4769H97.8833L97.2065 78.6916H98.1008L97.5811 82.0056Z" fill="black"/>
<path d="M105.125 76.9505C105.125 77.2387 105.072 77.6269 104.967 78.1152H101.076C101.116 78.3473 101.273 78.5275 101.547 78.6555C101.829 78.7836 102.168 78.8477 102.562 78.8477C103.271 78.8477 103.952 78.6876 104.605 78.3674L104.315 80.2285C103.767 80.6288 102.953 80.8289 101.874 80.8289C100.963 80.8289 100.198 80.5567 99.5774 80.0124C98.965 79.476 98.6589 78.7556 98.6589 77.851C98.6589 76.8184 98.9973 75.9739 99.674 75.3175C100.367 74.6531 101.213 74.3209 102.212 74.3209C103.058 74.3209 103.755 74.557 104.303 75.0293C104.851 75.5016 105.125 76.142 105.125 76.9505ZM101.136 76.9145H102.828V76.8424C102.828 76.5863 102.764 76.3861 102.635 76.242C102.514 76.0899 102.345 76.0139 102.127 76.0139C101.894 76.0139 101.688 76.0939 101.511 76.254C101.334 76.4061 101.209 76.6263 101.136 76.9145Z" fill="black"/>
<path d="M109.053 80.8289C108.111 80.8289 107.309 80.5607 106.648 80.0244C105.988 79.4881 105.658 78.7356 105.658 77.767C105.658 76.7904 106.02 75.9739 106.745 75.3175C107.486 74.6531 108.401 74.3209 109.489 74.3209C110.23 74.3209 110.898 74.4729 111.495 74.7771L111.156 76.8064C110.383 76.4462 109.69 76.3581 109.078 76.5422C108.473 76.7263 108.171 77.0946 108.171 77.6469C108.171 77.9271 108.264 78.1512 108.449 78.3193C108.739 78.5675 109.146 78.6916 109.67 78.6916C110.121 78.6916 110.556 78.6115 110.975 78.4514L110.637 80.5407C110.137 80.7328 109.609 80.8289 109.053 80.8289Z" fill="black"/>
<path d="M115.517 80.6728H112.967L113.631 76.4582H111.963L112.278 74.4769H118.187L117.873 76.4582H116.181L115.517 80.6728Z" fill="black"/>
<path d="M123.751 77.4908C124.371 77.723 124.681 78.1472 124.681 78.7636C124.681 79.388 124.435 79.8643 123.944 80.1925C123.46 80.5127 122.788 80.6728 121.926 80.6728H118.058L119.037 74.4769H122.844C123.432 74.4769 123.887 74.621 124.21 74.9092C124.54 75.1974 124.705 75.5576 124.705 75.9899C124.705 76.3421 124.609 76.6543 124.415 76.9265C124.23 77.1986 124.008 77.3868 123.751 77.4908ZM121.817 76.0019H121.237L121.092 76.9385H121.672C121.865 76.9385 122.022 76.8864 122.143 76.7824C122.264 76.6783 122.324 76.5422 122.324 76.3741C122.324 76.126 122.155 76.0019 121.817 76.0019ZM120.91 78.0792L120.741 79.0998H121.491C121.966 79.0998 122.204 78.8917 122.204 78.4754C122.204 78.2113 122.018 78.0792 121.648 78.0792H120.91Z" fill="black"/>
<path d="M131.818 78.8236C131.914 78.8236 132.023 78.8036 132.144 78.7636L131.854 80.4807C131.524 80.7128 131.093 80.8289 130.561 80.8289C129.779 80.8289 129.276 80.5847 129.05 80.0964C128.889 80.3046 128.651 80.4807 128.337 80.6248C128.023 80.7608 127.68 80.8289 127.31 80.8289C126.649 80.8289 126.13 80.6528 125.751 80.3006C125.372 79.9483 125.183 79.4921 125.183 78.9317C125.183 78.2593 125.416 77.743 125.884 77.3827C126.351 77.0145 126.951 76.8304 127.684 76.8304C128.273 76.8304 128.788 76.9425 129.231 77.1666C129.248 77.0545 129.256 76.9785 129.256 76.9385C129.256 76.4582 128.816 76.218 127.938 76.218C127.318 76.218 126.766 76.3261 126.283 76.5422L126.597 74.6571C127.249 74.4329 127.954 74.3209 128.712 74.3209C129.582 74.3209 130.311 74.509 130.899 74.8852C131.487 75.2534 131.781 75.8498 131.781 76.6743C131.781 76.8744 131.745 77.1586 131.673 77.5268L131.564 78.1272C131.532 78.3113 131.516 78.4594 131.516 78.5715C131.516 78.7396 131.616 78.8236 131.818 78.8236ZM129.074 78.9197L129.159 78.3073C128.998 78.1472 128.752 78.0672 128.422 78.0672C128.18 78.0672 127.983 78.1232 127.83 78.2353C127.684 78.3473 127.612 78.5074 127.612 78.7156C127.612 78.8757 127.672 79.0118 127.793 79.1238C127.914 79.2279 128.075 79.2799 128.277 79.2799C128.615 79.2799 128.881 79.1599 129.074 78.9197Z" fill="black"/>
<path d="M138.131 80.6728H135.738L136.717 74.4769H139.098L138.687 77.1066L140.935 74.4769H143.327L142.348 80.6728H139.968L140.379 78.0552L138.131 80.6728Z" fill="black"/>
<path d="M145.799 80.6728H143.527L144.506 74.4769H146.899L147.902 76.4101L149.509 74.4769H151.914L150.935 80.6728H148.651L149.111 77.731L147.987 79.0878H146.984L146.271 77.719L145.799 80.6728Z" fill="black"/>
<path d="M158.718 76.9505C158.718 77.2387 158.665 77.6269 158.561 78.1152H154.669C154.709 78.3473 154.866 78.5275 155.14 78.6555C155.422 78.7836 155.761 78.8477 156.156 78.8477C156.865 78.8477 157.545 78.6876 158.198 78.3674L157.908 80.2285C157.36 80.6288 156.546 80.8289 155.467 80.8289C154.556 80.8289 153.791 80.5567 153.171 80.0124C152.558 79.476 152.252 78.7556 152.252 77.851C152.252 76.8184 152.59 75.9739 153.267 75.3175C153.96 74.6531 154.806 74.3209 155.805 74.3209C156.651 74.3209 157.348 74.557 157.896 75.0293C158.444 75.5016 158.718 76.142 158.718 76.9505ZM154.73 76.9145H156.421V76.8424C156.421 76.5863 156.357 76.3861 156.228 76.242C156.107 76.0899 155.938 76.0139 155.721 76.0139C155.487 76.0139 155.281 76.0939 155.104 76.254C154.927 76.4061 154.802 76.6263 154.73 76.9145Z" fill="black"/>
<path d="M165.716 76.9505C165.716 77.2387 165.664 77.6269 165.559 78.1152H161.668C161.708 78.3473 161.865 78.5275 162.139 78.6555C162.421 78.7836 162.759 78.8477 163.154 78.8477C163.863 78.8477 164.544 78.6876 165.197 78.3674L164.907 80.2285C164.359 80.6288 163.545 80.8289 162.465 80.8289C161.555 80.8289 160.789 80.5567 160.169 80.0124C159.557 79.476 159.251 78.7556 159.251 77.851C159.251 76.8184 159.589 75.9739 160.266 75.3175C160.959 74.6531 161.805 74.3209 162.804 74.3209C163.65 74.3209 164.347 74.557 164.894 75.0293C165.442 75.5016 165.716 76.142 165.716 76.9505ZM161.728 76.9145H163.42V76.8424C163.42 76.5863 163.356 76.3861 163.227 76.242C163.106 76.0899 162.937 76.0139 162.719 76.0139C162.485 76.0139 162.28 76.0939 162.103 76.254C161.926 76.4061 161.801 76.6263 161.728 76.9145Z" fill="black"/>
<path d="M169.841 80.6728H167.291L167.956 76.4582H166.288L166.603 74.4769H172.512L172.198 76.4582H170.506L169.841 80.6728Z" fill="black"/>
<path d="M41.5531 96.2825H39.0031L39.6678 92.0678H38L38.3142 90.0866H44.2239L43.9097 92.0678H42.2178L41.5531 96.2825Z" fill="black"/>
<path d="M50.4425 94.4333C50.5392 94.4333 50.6479 94.4133 50.7688 94.3733L50.4787 96.0903C50.1484 96.3225 49.7174 96.4386 49.1856 96.4386C48.4041 96.4386 47.9005 96.1944 47.6749 95.7061C47.5138 95.9142 47.2761 96.0903 46.9619 96.2344C46.6477 96.3705 46.3053 96.4386 45.9347 96.4386C45.274 96.4386 44.7543 96.2624 44.3757 95.9102C43.997 95.558 43.8077 95.1017 43.8077 94.5414C43.8077 93.869 44.0413 93.3526 44.5086 92.9924C44.9759 92.6242 45.5761 92.4401 46.3093 92.4401C46.8975 92.4401 47.4131 92.5521 47.8562 92.7763C47.8723 92.6642 47.8804 92.5882 47.8804 92.5481C47.8804 92.0678 47.4413 91.8277 46.5631 91.8277C45.9427 91.8277 45.3908 91.9358 44.9074 92.1519L45.2216 90.2667C45.8742 90.0426 46.5792 89.9305 47.3366 89.9305C48.2067 89.9305 48.9358 90.1186 49.524 90.4949C50.1122 90.8631 50.4062 91.4595 50.4062 92.284C50.4062 92.4841 50.37 92.7683 50.2975 93.1365L50.1887 93.7369C50.1565 93.921 50.1404 94.0691 50.1404 94.1812C50.1404 94.3493 50.2411 94.4333 50.4425 94.4333ZM47.6991 94.5294L47.7837 93.917C47.6226 93.7569 47.3768 93.6768 47.0465 93.6768C46.8048 93.6768 46.6074 93.7329 46.4543 93.8449C46.3093 93.957 46.2368 94.1171 46.2368 94.3252C46.2368 94.4853 46.2972 94.6214 46.4181 94.7335C46.5389 94.8376 46.7001 94.8896 46.9015 94.8896C47.2399 94.8896 47.5058 94.7695 47.6991 94.5294Z" fill="black"/>
<path d="M56.9006 96.2825H54.3627L55.3295 90.0866H57.8795L57.5532 92.2239L59.3176 90.0866H62.4356L59.7164 93.0645L61.8676 96.2825H58.8946L57.2873 93.7729L56.9006 96.2825Z" fill="black"/>
<path d="M68.6767 94.4333C68.7733 94.4333 68.8821 94.4133 69.003 94.3733L68.7129 96.0903C68.3826 96.3225 67.9515 96.4386 67.4198 96.4386C66.6383 96.4386 66.1347 96.1944 65.9091 95.7061C65.748 95.9142 65.5103 96.0903 65.1961 96.2344C64.8819 96.3705 64.5395 96.4386 64.1688 96.4386C63.5082 96.4386 62.9885 96.2624 62.6098 95.9102C62.2312 95.558 62.0418 95.1017 62.0418 94.5414C62.0418 93.869 62.2755 93.3526 62.7428 92.9924C63.2101 92.6242 63.8103 92.4401 64.5435 92.4401C65.1316 92.4401 65.6473 92.5521 66.0904 92.7763C66.1065 92.6642 66.1146 92.5882 66.1146 92.5481C66.1146 92.0678 65.6755 91.8277 64.7973 91.8277C64.1769 91.8277 63.625 91.9358 63.1416 92.1519L63.4558 90.2667C64.1084 90.0426 64.8134 89.9305 65.5707 89.9305C66.4409 89.9305 67.17 90.1186 67.7582 90.4949C68.3463 90.8631 68.6404 91.4595 68.6404 92.284C68.6404 92.4841 68.6041 92.7683 68.5316 93.1365L68.4229 93.7369C68.3906 93.921 68.3745 94.0691 68.3745 94.1812C68.3745 94.3493 68.4752 94.4333 68.6767 94.4333ZM65.9333 94.5294L66.0179 93.917C65.8568 93.7569 65.611 93.6768 65.2807 93.6768C65.039 93.6768 64.8416 93.7329 64.6885 93.8449C64.5435 93.957 64.471 94.1171 64.471 94.3252C64.471 94.4853 64.5314 94.6214 64.6523 94.7335C64.7731 94.8376 64.9342 94.8896 65.1357 94.8896C65.4741 94.8896 65.7399 94.7695 65.9333 94.5294Z" fill="black"/>
<path d="M71.8711 96.2825H69.5991L70.578 90.0866H72.9709L73.974 92.0198L75.5813 90.0866H77.9863L77.0074 96.2825H74.7233L75.1825 93.3406L74.0586 94.6975H73.0555L72.3425 93.3286L71.8711 96.2825Z" fill="black"/>
<path d="M80.7289 96.2825H78.191L79.1699 90.0866H85.5872L84.6083 96.2825H82.0583L82.723 92.0678H81.3936L80.7289 96.2825Z" fill="black"/>
<path d="M92.2572 94.4333C92.3539 94.4333 92.4626 94.4133 92.5835 94.3733L92.2934 96.0903C91.9631 96.3225 91.532 96.4386 91.0003 96.4386C90.2188 96.4386 89.7152 96.1944 89.4896 95.7061C89.3285 95.9142 89.0908 96.0903 88.7766 96.2344C88.4624 96.3705 88.12 96.4386 87.7494 96.4386C87.0887 96.4386 86.569 96.2624 86.1903 95.9102C85.8117 95.558 85.6223 95.1017 85.6223 94.5414C85.6223 93.869 85.856 93.3526 86.3233 92.9924C86.7906 92.6242 87.3908 92.4401 88.124 92.4401C88.7121 92.4401 89.2278 92.5521 89.6709 92.7763C89.687 92.6642 89.6951 92.5882 89.6951 92.5481C89.6951 92.0678 89.256 91.8277 88.3778 91.8277C87.7574 91.8277 87.2055 91.9358 86.7221 92.1519L87.0363 90.2667C87.6889 90.0426 88.3939 89.9305 89.1512 89.9305C90.0214 89.9305 90.7505 90.1186 91.3387 90.4949C91.9268 90.8631 92.2209 91.4595 92.2209 92.284C92.2209 92.4841 92.1847 92.7683 92.1121 93.1365L92.0034 93.7369C91.9711 93.921 91.955 94.0691 91.955 94.1812C91.955 94.3493 92.0557 94.4333 92.2572 94.4333ZM89.5138 94.5294L89.5984 93.917C89.4373 93.7569 89.1915 93.6768 88.8612 93.6768C88.6195 93.6768 88.4221 93.7329 88.269 93.8449C88.124 93.957 88.0515 94.1171 88.0515 94.3252C88.0515 94.4853 88.1119 94.6214 88.2328 94.7335C88.3536 94.8376 88.5148 94.8896 88.7162 94.8896C89.0546 94.8896 89.3204 94.7695 89.5138 94.5294Z" fill="black"/>
<path d="M95.7175 96.2825H93.1796L94.1585 90.0866H96.6964L96.3701 92.1279H97.7479L98.0742 90.0866H100.624L99.6453 96.2825H97.0953L97.4336 94.0971H96.0559L95.7175 96.2825Z" fill="black"/>
<path d="M103.22 96.2825H100.827L101.806 90.0866H104.187L103.776 92.7163L106.024 90.0866H108.417L107.438 96.2825H105.057L105.468 93.6648L103.22 96.2825Z" fill="black"/>
<path d="M112.182 90.0866H115.662L114.671 96.2825H112.134L112.424 94.4573H112.194L110.816 96.2825H108.025L109.886 94.001C109.394 93.6568 109.148 93.1565 109.148 92.5001C109.148 91.7316 109.434 91.1353 110.007 90.711C110.579 90.2948 111.304 90.0866 112.182 90.0866ZM112.121 92.8844H112.677L112.822 91.9478H112.303C111.835 91.9478 111.602 92.1159 111.602 92.4521C111.602 92.5722 111.65 92.6762 111.747 92.7643C111.843 92.8443 111.968 92.8844 112.121 92.8844Z" fill="black"/>
<path d="M114.788 98.1076L116.552 93.893H119.187L116.83 98.1076H114.788Z" fill="black"/>
<path d="M125.341 96.2825H122.803L123.77 90.0866H126.32L125.993 92.2239L127.758 90.0866H130.876L128.157 93.0645L130.308 96.2825H127.335L125.727 93.7729L125.341 96.2825Z" fill="black"/>
<path d="M133.866 89.9305C134.849 89.9305 135.671 90.2227 136.331 90.8071C137 91.3834 137.334 92.1359 137.334 93.0645C137.334 93.969 136.988 94.7575 136.295 95.4299C135.61 96.1024 134.756 96.4386 133.733 96.4386C132.75 96.4386 131.928 96.1504 131.268 95.574C130.607 94.9897 130.277 94.2252 130.277 93.2806C130.277 92.376 130.619 91.5956 131.304 90.9391C131.989 90.2667 132.843 89.9305 133.866 89.9305ZM133.721 94.3012C134.043 94.3012 134.313 94.1812 134.531 93.941C134.756 93.6929 134.869 93.3847 134.869 93.0164C134.869 92.7203 134.776 92.4881 134.591 92.32C134.406 92.1519 134.168 92.0678 133.878 92.0678C133.556 92.0678 133.286 92.1879 133.068 92.4281C132.851 92.6682 132.742 92.9724 132.742 93.3406C132.742 93.6368 132.835 93.873 133.02 94.0491C133.205 94.2172 133.439 94.3012 133.721 94.3012Z" fill="black"/>
<path d="M141.351 96.2825H138.801L139.466 92.0678H137.798L138.112 90.0866H144.022L143.708 92.0678H142.016L141.351 96.2825Z" fill="black"/>
<path d="M147.615 89.9305C148.598 89.9305 149.42 90.2227 150.081 90.8071C150.749 91.3834 151.084 92.1359 151.084 93.0645C151.084 93.969 150.737 94.7575 150.044 95.4299C149.36 96.1024 148.506 96.4386 147.482 96.4386C146.499 96.4386 145.678 96.1504 145.017 95.574C144.356 94.9897 144.026 94.2252 144.026 93.2806C144.026 92.376 144.368 91.5956 145.053 90.9391C145.738 90.2667 146.592 89.9305 147.615 89.9305ZM147.47 94.3012C147.793 94.3012 148.062 94.1812 148.28 93.941C148.506 93.6929 148.618 93.3847 148.618 93.0164C148.618 92.7203 148.526 92.4881 148.34 92.32C148.155 92.1519 147.917 92.0678 147.627 92.0678C147.305 92.0678 147.035 92.1879 146.818 92.4281C146.6 92.6682 146.491 92.9724 146.491 93.3406C146.491 93.6368 146.584 93.873 146.769 94.0491C146.955 94.2172 147.188 94.3012 147.47 94.3012Z" fill="black"/>
<path d="M154.153 95.598L153.657 98.6839H151.107L152.449 90.0866H155.011L154.902 90.7831C155.007 90.5749 155.224 90.3828 155.555 90.2067C155.885 90.0226 156.252 89.9305 156.655 89.9305C157.356 89.9305 157.932 90.2027 158.383 90.747C158.834 91.2914 159.06 91.9678 159.06 92.7763C159.06 93.3687 158.943 93.941 158.709 94.4934C158.475 95.0457 158.113 95.506 157.621 95.8742C157.122 96.2504 156.542 96.4386 155.881 96.4386C155.478 96.4386 155.112 96.3505 154.781 96.1744C154.459 95.9983 154.25 95.8062 154.153 95.598ZM154.552 92.5361L154.358 93.8209C154.568 94.1651 154.898 94.3373 155.349 94.3373C155.672 94.3373 155.938 94.2132 156.147 93.965C156.356 93.7089 156.461 93.3927 156.461 93.0164C156.461 92.7042 156.377 92.4641 156.207 92.296C156.046 92.1199 155.833 92.0318 155.567 92.0318C155.18 92.0318 154.842 92.1999 154.552 92.5361Z" fill="black"/>
<path d="M166.032 94.4333C166.129 94.4333 166.237 94.4133 166.358 94.3733L166.068 96.0903C165.738 96.3225 165.307 96.4386 164.775 96.4386C163.993 96.4386 163.49 96.1944 163.264 95.7061C163.103 95.9142 162.865 96.0903 162.551 96.2344C162.237 96.3705 161.895 96.4386 161.524 96.4386C160.863 96.4386 160.344 96.2624 159.965 95.9102C159.586 95.558 159.397 95.1017 159.397 94.5414C159.397 93.869 159.631 93.3526 160.098 92.9924C160.565 92.6242 161.165 92.4401 161.899 92.4401C162.487 92.4401 163.002 92.5521 163.446 92.7763C163.462 92.6642 163.47 92.5882 163.47 92.5481C163.47 92.0678 163.031 91.8277 162.152 91.8277C161.532 91.8277 160.98 91.9358 160.497 92.1519L160.811 90.2667C161.464 90.0426 162.169 89.9305 162.926 89.9305C163.796 89.9305 164.525 90.1186 165.113 90.4949C165.701 90.8631 165.996 91.4595 165.996 92.284C165.996 92.4841 165.959 92.7683 165.887 93.1365L165.778 93.7369C165.746 93.921 165.73 94.0691 165.73 94.1812C165.73 94.3493 165.83 94.4333 166.032 94.4333ZM163.288 94.5294L163.373 93.917C163.212 93.7569 162.966 93.6768 162.636 93.6768C162.394 93.6768 162.197 93.7329 162.044 93.8449C161.899 93.957 161.826 94.1171 161.826 94.3252C161.826 94.4853 161.887 94.6214 162.007 94.7335C162.128 94.8376 162.289 94.8896 162.491 94.8896C162.829 94.8896 163.095 94.7695 163.288 94.5294Z" fill="black"/>
<path d="M170.519 90.0866H174L173.009 96.2825H170.471L170.761 94.4573H170.532L169.154 96.2825H166.362L168.223 94.001C167.732 93.6568 167.486 93.1565 167.486 92.5001C167.486 91.7316 167.772 91.1353 168.344 90.711C168.916 90.2948 169.641 90.0866 170.519 90.0866ZM170.459 92.8844H171.015L171.16 91.9478H170.64C170.173 91.9478 169.939 92.1159 169.939 92.4521C169.939 92.5722 169.988 92.6762 170.084 92.7643C170.181 92.8443 170.306 92.8844 170.459 92.8844Z" fill="black"/>
<path d="M47.8779 111.892H45.34L46.3189 105.696H52.7362L51.7573 111.892H49.2073L49.872 107.678H48.5426L47.8779 111.892Z" fill="black"/>
<path d="M56.6628 105.54C57.6457 105.54 58.4675 105.832 59.1282 106.417C59.7969 106.993 60.1313 107.746 60.1313 108.674C60.1313 109.579 59.7848 110.367 59.0919 111.04C58.4071 111.712 57.5531 112.048 56.5298 112.048C55.5469 112.048 54.7251 111.76 54.0644 111.184C53.4038 110.599 53.0734 109.835 53.0734 108.89C53.0734 107.986 53.4159 107.205 54.1007 106.549C54.7855 105.876 55.6396 105.54 56.6628 105.54ZM56.5178 109.911C56.84 109.911 57.1099 109.791 57.3275 109.551C57.5531 109.303 57.6659 108.994 57.6659 108.626C57.6659 108.33 57.5732 108.098 57.3879 107.93C57.2026 107.762 56.9649 107.678 56.6749 107.678C56.3526 107.678 56.0827 107.798 55.8652 108.038C55.6476 108.278 55.5388 108.582 55.5388 108.95C55.5388 109.246 55.6315 109.483 55.8168 109.659C56.0021 109.827 56.2358 109.911 56.5178 109.911Z" fill="black"/>
<path d="M63.0553 111.892H60.5174L61.4963 105.696H64.0343L63.7079 107.738H65.0857L65.412 105.696H67.962L66.9831 111.892H64.4331L64.7715 109.707H63.3937L63.0553 111.892Z" fill="black"/>
<path d="M70.558 111.892H68.1652L69.1441 105.696H71.5249L71.114 108.326L73.3618 105.696H75.7547L74.7758 111.892H72.395L72.8059 109.275L70.558 111.892Z" fill="black"/>
<path d="M78.2266 111.892H75.9545L76.9334 105.696H79.3263L80.3294 107.629L81.9367 105.696H84.3417L83.3628 111.892H81.0787L81.5379 108.95L80.414 110.307H79.4109L78.6979 108.938L78.2266 111.892Z" fill="black"/>
<path d="M91.0121 110.043C91.1087 110.043 91.2175 110.023 91.3384 109.983L91.0483 111.7C90.718 111.932 90.2869 112.048 89.7552 112.048C88.9737 112.048 88.4701 111.804 88.2445 111.316C88.0834 111.524 87.8457 111.7 87.5315 111.844C87.2173 111.98 86.8748 112.048 86.5042 112.048C85.8436 112.048 85.3239 111.872 84.9452 111.52C84.5666 111.168 84.3772 110.711 84.3772 110.151C84.3772 109.479 84.6109 108.962 85.0782 108.602C85.5455 108.234 86.1457 108.05 86.8789 108.05C87.467 108.05 87.9827 108.162 88.4258 108.386C88.4419 108.274 88.45 108.198 88.45 108.158C88.45 107.678 88.0109 107.437 87.1327 107.437C86.5123 107.437 85.9604 107.545 85.477 107.762L85.7912 105.876C86.4438 105.652 87.1488 105.54 87.9061 105.54C88.7763 105.54 89.5054 105.728 90.0936 106.105C90.6817 106.473 90.9758 107.069 90.9758 107.894C90.9758 108.094 90.9395 108.378 90.867 108.746L90.7583 109.347C90.726 109.531 90.7099 109.679 90.7099 109.791C90.7099 109.959 90.8106 110.043 91.0121 110.043ZM88.2687 110.139L88.3533 109.527C88.1921 109.367 87.9464 109.287 87.6161 109.287C87.3744 109.287 87.177 109.343 87.0239 109.455C86.8789 109.567 86.8064 109.727 86.8064 109.935C86.8064 110.095 86.8668 110.231 86.9876 110.343C87.1085 110.447 87.2696 110.499 87.4711 110.499C87.8094 110.499 88.0753 110.379 88.2687 110.139Z" fill="black"/>
<path d="M98.4151 108.17C98.4151 108.458 98.3627 108.846 98.2579 109.335H94.3665C94.4068 109.567 94.5639 109.747 94.8378 109.875C95.1198 110.003 95.4582 110.067 95.853 110.067C96.562 110.067 97.2428 109.907 97.8954 109.587L97.6053 111.448C97.0575 111.848 96.2437 112.048 95.1641 112.048C94.2537 112.048 93.4883 111.776 92.8679 111.232C92.2556 110.695 91.9494 109.975 91.9494 109.07C91.9494 108.038 92.2878 107.193 92.9646 106.537C93.6575 105.872 94.5034 105.54 95.5025 105.54C96.3485 105.54 97.0454 105.776 97.5933 106.249C98.1411 106.721 98.4151 107.361 98.4151 108.17ZM94.4269 108.134H96.1188V108.062C96.1188 107.806 96.0544 107.605 95.9255 107.461C95.8046 107.309 95.6354 107.233 95.4179 107.233C95.1843 107.233 94.9788 107.313 94.8015 107.473C94.6243 107.625 94.4994 107.846 94.4269 108.134Z" fill="black"/>
<path d="M102.54 111.892H99.9902L100.655 107.678H98.9871L99.3013 105.696H105.211L104.897 107.678H103.205L102.54 111.892Z" fill="black"/>
<path d="M110.252 111.892H107.714L108.693 105.696H111.231L110.904 107.738H112.282L112.608 105.696H115.158L114.179 111.892H111.629L111.968 109.707H110.59L110.252 111.892Z" fill="black"/>
<path d="M121.827 110.043C121.924 110.043 122.033 110.023 122.154 109.983L121.863 111.7C121.533 111.932 121.102 112.048 120.57 112.048C119.789 112.048 119.285 111.804 119.06 111.316C118.899 111.524 118.661 111.7 118.347 111.844C118.032 111.98 117.69 112.048 117.319 112.048C116.659 112.048 116.139 111.872 115.76 111.52C115.382 111.168 115.192 110.711 115.192 110.151C115.192 109.479 115.426 108.962 115.893 108.602C116.361 108.234 116.961 108.05 117.694 108.05C118.282 108.05 118.798 108.162 119.241 108.386C119.257 108.274 119.265 108.198 119.265 108.158C119.265 107.678 118.826 107.437 117.948 107.437C117.327 107.437 116.776 107.545 116.292 107.762L116.606 105.876C117.259 105.652 117.964 105.54 118.721 105.54C119.591 105.54 120.321 105.728 120.909 106.105C121.497 106.473 121.791 107.069 121.791 107.894C121.791 108.094 121.755 108.378 121.682 108.746L121.573 109.347C121.541 109.531 121.525 109.679 121.525 109.791C121.525 109.959 121.626 110.043 121.827 110.043ZM119.084 110.139L119.168 109.527C119.007 109.367 118.762 109.287 118.431 109.287C118.19 109.287 117.992 109.343 117.839 109.455C117.694 109.567 117.622 109.727 117.622 109.935C117.622 110.095 117.682 110.231 117.803 110.343C117.924 110.447 118.085 110.499 118.286 110.499C118.625 110.499 118.89 110.379 119.084 110.139Z" fill="black"/>
<path d="M128.285 111.892H125.747L126.714 105.696H129.264L128.938 107.834L130.702 105.696H133.82L131.101 108.674L133.252 111.892H130.279L128.672 109.383L128.285 111.892Z" fill="black"/>
<path d="M140.061 110.043C140.158 110.043 140.267 110.023 140.388 109.983L140.098 111.7C139.767 111.932 139.336 112.048 138.805 112.048C138.023 112.048 137.519 111.804 137.294 111.316C137.133 111.524 136.895 111.7 136.581 111.844C136.267 111.98 135.924 112.048 135.554 112.048C134.893 112.048 134.373 111.872 133.995 111.52C133.616 111.168 133.427 110.711 133.427 110.151C133.427 109.479 133.66 108.962 134.128 108.602C134.595 108.234 135.195 108.05 135.928 108.05C136.516 108.05 137.032 108.162 137.475 108.386C137.491 108.274 137.499 108.198 137.499 108.158C137.499 107.678 137.06 107.437 136.182 107.437C135.562 107.437 135.01 107.545 134.526 107.762L134.841 105.876C135.493 105.652 136.198 105.54 136.955 105.54C137.826 105.54 138.555 105.728 139.143 106.105C139.731 106.473 140.025 107.069 140.025 107.894C140.025 108.094 139.989 108.378 139.916 108.746L139.808 109.347C139.775 109.531 139.759 109.679 139.759 109.791C139.759 109.959 139.86 110.043 140.061 110.043ZM137.318 110.139L137.403 109.527C137.241 109.367 136.996 109.287 136.665 109.287C136.424 109.287 136.226 109.343 136.073 109.455C135.928 109.567 135.856 109.727 135.856 109.935C135.856 110.095 135.916 110.231 136.037 110.343C136.158 110.447 136.319 110.499 136.52 110.499C136.859 110.499 137.125 110.379 137.318 110.139Z" fill="black"/>
<path d="M143.522 111.892H140.984L141.951 105.696H144.501L144.174 107.834L145.939 105.696H149.057L146.338 108.674L148.489 111.892H145.516L143.908 109.383L143.522 111.892Z" fill="black"/>
<path d="M149.693 114.366C149.04 114.366 148.557 114.27 148.243 114.077L148.593 111.904C148.859 112.12 149.194 112.228 149.596 112.228C149.862 112.228 150.072 112.188 150.225 112.108C150.378 112.036 150.511 111.896 150.624 111.688L149.028 105.696H151.675L152.207 109.202L153.766 105.696H156.413L152.69 112.493C152.013 113.741 151.014 114.366 149.693 114.366Z" fill="black"/>
<path d="M163.004 105.54C163.947 105.54 164.712 105.828 165.301 106.405C165.889 106.965 166.183 107.706 166.183 108.626C166.183 109.571 165.84 110.379 165.156 111.052C164.471 111.716 163.657 112.048 162.714 112.048C161.901 112.048 161.216 111.832 160.66 111.4C160.104 110.968 159.753 110.383 159.608 109.647H158.823L158.46 111.892H156.043L157.034 105.696H159.451L159.125 107.714H159.79C160.048 107.065 160.466 106.541 161.047 106.141C161.643 105.74 162.295 105.54 163.004 105.54ZM162.751 109.911C163.008 109.911 163.23 109.787 163.415 109.539C163.609 109.283 163.705 108.97 163.705 108.602C163.705 108.322 163.633 108.098 163.488 107.93C163.351 107.762 163.17 107.678 162.944 107.678C162.686 107.678 162.461 107.806 162.267 108.062C162.082 108.31 161.989 108.618 161.989 108.986C161.989 109.267 162.058 109.491 162.195 109.659C162.34 109.827 162.525 109.911 162.751 109.911Z" fill="black"/>
<path d="M43.7919 126.817L43.2964 129.903H40.7464L42.0879 121.306H44.6499L44.5412 122.002C44.6459 121.794 44.8634 121.602 45.1938 121.426C45.5241 121.242 45.8907 121.15 46.2935 121.15C46.9945 121.15 47.5706 121.422 48.0217 121.966C48.4729 122.511 48.6985 123.187 48.6985 123.996C48.6985 124.588 48.5817 125.16 48.348 125.713C48.1144 126.265 47.7518 126.725 47.2604 127.094C46.7608 127.47 46.1807 127.658 45.5201 127.658C45.1172 127.658 44.7507 127.57 44.4203 127.394C44.098 127.218 43.8886 127.026 43.7919 126.817ZM44.1907 123.755L43.9973 125.04C44.2068 125.384 44.5371 125.557 44.9883 125.557C45.3106 125.557 45.5765 125.433 45.786 125.184C45.9954 124.928 46.1002 124.612 46.1002 124.236C46.1002 123.924 46.0156 123.683 45.8464 123.515C45.6852 123.339 45.4717 123.251 45.2059 123.251C44.8191 123.251 44.4807 123.419 44.1907 123.755Z" fill="black"/>
<path d="M55.6708 125.653C55.7675 125.653 55.8762 125.633 55.9971 125.593L55.7071 127.31C55.3767 127.542 54.9457 127.658 54.4139 127.658C53.6324 127.658 53.1289 127.414 52.9033 126.925C52.7421 127.134 52.5044 127.31 52.1902 127.454C51.876 127.59 51.5336 127.658 51.163 127.658C50.5023 127.658 49.9826 127.482 49.604 127.13C49.2253 126.777 49.036 126.321 49.036 125.761C49.036 125.088 49.2696 124.572 49.7369 124.212C50.2042 123.844 50.8044 123.659 51.5376 123.659C52.1258 123.659 52.6414 123.771 53.0845 123.996C53.1007 123.884 53.1087 123.808 53.1087 123.767C53.1087 123.287 52.6696 123.047 51.7914 123.047C51.171 123.047 50.6191 123.155 50.1357 123.371L50.4499 121.486C51.1025 121.262 51.8075 121.15 52.5649 121.15C53.435 121.15 54.1642 121.338 54.7523 121.714C55.3405 122.082 55.6345 122.679 55.6345 123.503C55.6345 123.703 55.5983 123.988 55.5258 124.356L55.417 124.956C55.3848 125.14 55.3687 125.288 55.3687 125.401C55.3687 125.569 55.4694 125.653 55.6708 125.653ZM52.9274 125.749L53.012 125.136C52.8509 124.976 52.6052 124.896 52.2748 124.896C52.0331 124.896 51.8357 124.952 51.6826 125.064C51.5376 125.176 51.4651 125.336 51.4651 125.545C51.4651 125.705 51.5255 125.841 51.6464 125.953C51.7672 126.057 51.9284 126.109 52.1298 126.109C52.4682 126.109 52.7341 125.989 52.9274 125.749Z" fill="black"/>
<path d="M63.4513 118.856L63.1008 121.018L61.6264 121.15C60.0311 121.334 59.157 121.774 59.0039 122.471C59.5759 122.078 60.2205 121.882 60.9375 121.882C61.6385 121.882 62.2105 122.114 62.6536 122.579C63.1048 123.051 63.3304 123.639 63.3304 124.344C63.3304 125.312 62.9961 126.109 62.3273 126.733C61.6586 127.35 60.8086 127.658 59.7773 127.658C58.7461 127.658 57.9525 127.346 57.3965 126.721C56.8406 126.097 56.5627 125.264 56.5627 124.224C56.5627 122.783 56.9534 121.662 57.7349 120.862C58.5164 120.053 59.7048 119.501 61.3001 119.205C61.6143 119.149 62.3314 119.033 63.4513 118.856ZM59.9103 125.701C60.2164 125.701 60.4622 125.605 60.6475 125.413C60.8328 125.212 60.9254 124.956 60.9254 124.644C60.9254 124.372 60.8449 124.156 60.6837 123.996C60.5226 123.828 60.297 123.743 60.007 123.743C59.5397 123.743 59.157 123.88 58.8589 124.152C58.8427 124.248 58.8347 124.344 58.8347 124.44C58.8347 124.8 58.9273 125.1 59.1127 125.34C59.298 125.581 59.5638 125.701 59.9103 125.701Z" fill="black"/>
<path d="M67.503 121.15C68.4859 121.15 69.3077 121.442 69.9684 122.026C70.6371 122.603 70.9715 123.355 70.9715 124.284C70.9715 125.188 70.625 125.977 69.9321 126.649C69.2473 127.322 68.3933 127.658 67.37 127.658C66.3871 127.658 65.5653 127.37 64.9046 126.793C64.244 126.209 63.9136 125.445 63.9136 124.5C63.9136 123.595 64.2561 122.815 64.9409 122.158C65.6257 121.486 66.4797 121.15 67.503 121.15ZM67.3579 125.521C67.6802 125.521 67.9501 125.401 68.1677 125.16C68.3933 124.912 68.506 124.604 68.506 124.236C68.506 123.94 68.4134 123.707 68.2281 123.539C68.0428 123.371 67.8051 123.287 67.5151 123.287C67.1928 123.287 66.9229 123.407 66.7053 123.647C66.4878 123.888 66.379 124.192 66.379 124.56C66.379 124.856 66.4717 125.092 66.657 125.268C66.8423 125.437 67.076 125.521 67.3579 125.521Z" fill="black"/>
<path d="M74.9883 127.502H72.4383L73.103 123.287H71.4352L71.7494 121.306H77.6592L77.3449 123.287H75.653L74.9883 127.502Z" fill="black"/>
<path d="M78.509 129.975C77.8564 129.975 77.373 129.879 77.0588 129.687L77.4092 127.514C77.6751 127.73 78.0095 127.838 78.4123 127.838C78.6782 127.838 78.8877 127.798 79.0408 127.718C79.1938 127.646 79.3268 127.506 79.4396 127.298L77.8443 121.306H80.491L81.0227 124.812L82.5817 121.306H85.2284L81.5062 128.102C80.8294 129.351 79.8303 129.975 78.509 129.975Z" fill="black"/>
<path d="M90.3948 127.502H87.8569L88.8358 121.306H91.3737L91.0474 123.347H92.4251L92.7514 121.306H95.3014L94.3225 127.502H91.7725L92.1109 125.316H90.7332L90.3948 127.502Z" fill="black"/>
<path d="M101.97 125.653C102.067 125.653 102.176 125.633 102.297 125.593L102.007 127.31C101.676 127.542 101.245 127.658 100.713 127.658C99.9319 127.658 99.4283 127.414 99.2027 126.925C99.0416 127.134 98.8039 127.31 98.4897 127.454C98.1755 127.59 97.8331 127.658 97.4624 127.658C96.8018 127.658 96.2821 127.482 95.9034 127.13C95.5248 126.777 95.3354 126.321 95.3354 125.761C95.3354 125.088 95.5691 124.572 96.0364 124.212C96.5037 123.844 97.1039 123.659 97.8371 123.659C98.4252 123.659 98.9409 123.771 99.384 123.996C99.4001 123.884 99.4082 123.808 99.4082 123.767C99.4082 123.287 98.9691 123.047 98.0909 123.047C97.4705 123.047 96.9186 123.155 96.4352 123.371L96.7494 121.486C97.402 121.262 98.107 121.15 98.8643 121.15C99.7345 121.15 100.464 121.338 101.052 121.714C101.64 122.082 101.934 122.679 101.934 123.503C101.934 123.703 101.898 123.988 101.825 124.356L101.716 124.956C101.684 125.14 101.668 125.288 101.668 125.401C101.668 125.569 101.769 125.653 101.97 125.653ZM99.2269 125.749L99.3115 125.136C99.1504 124.976 98.9046 124.896 98.5743 124.896C98.3326 124.896 98.1352 124.952 97.9821 125.064C97.8371 125.176 97.7646 125.336 97.7646 125.545C97.7646 125.705 97.825 125.841 97.9459 125.953C98.0667 126.057 98.2278 126.109 98.4293 126.109C98.7677 126.109 99.0335 125.989 99.2269 125.749Z" fill="black"/>
<path d="M105.431 127.502H102.893L103.872 121.306H106.41L106.083 123.347H107.461L107.787 121.306H110.337L109.358 127.502H106.808L107.147 125.316H105.769L105.431 127.502Z" fill="black"/>
<path d="M112.933 127.502H110.54L111.519 121.306H113.9L113.489 123.936L115.737 121.306H118.13L117.151 127.502H114.77L115.181 124.884L112.933 127.502Z" fill="black"/>
<path d="M120.602 127.502H118.33L119.309 121.306H121.702L122.705 123.239L124.312 121.306H126.717L125.738 127.502H123.454L123.913 124.56L122.789 125.917H121.786L121.073 124.548L120.602 127.502Z" fill="black"/>
<path d="M133.387 125.653C133.484 125.653 133.593 125.633 133.714 125.593L133.424 127.31C133.093 127.542 132.662 127.658 132.13 127.658C131.349 127.658 130.845 127.414 130.62 126.925C130.459 127.134 130.221 127.31 129.907 127.454C129.593 127.59 129.25 127.658 128.88 127.658C128.219 127.658 127.699 127.482 127.321 127.13C126.942 126.777 126.752 126.321 126.752 125.761C126.752 125.088 126.986 124.572 127.453 124.212C127.921 123.844 128.521 123.659 129.254 123.659C129.842 123.659 130.358 123.771 130.801 123.996C130.817 123.884 130.825 123.808 130.825 123.767C130.825 123.287 130.386 123.047 129.508 123.047C128.888 123.047 128.336 123.155 127.852 123.371L128.166 121.486C128.819 121.262 129.524 121.15 130.281 121.15C131.152 121.15 131.881 121.338 132.469 121.714C133.057 122.082 133.351 122.679 133.351 123.503C133.351 123.703 133.315 123.988 133.242 124.356L133.134 124.956C133.101 125.14 133.085 125.288 133.085 125.401C133.085 125.569 133.186 125.653 133.387 125.653ZM130.644 125.749L130.729 125.136C130.567 124.976 130.322 124.896 129.991 124.896C129.75 124.896 129.552 124.952 129.399 125.064C129.254 125.176 129.182 125.336 129.182 125.545C129.182 125.705 129.242 125.841 129.363 125.953C129.484 126.057 129.645 126.109 129.846 126.109C130.185 126.109 130.451 125.989 130.644 125.749Z" fill="black"/>
<path d="M140.79 123.78C140.79 124.068 140.738 124.456 140.633 124.944H136.742C136.782 125.176 136.939 125.356 137.213 125.485C137.495 125.613 137.833 125.677 138.228 125.677C138.937 125.677 139.618 125.517 140.271 125.196L139.981 127.058C139.433 127.458 138.619 127.658 137.539 127.658C136.629 127.658 135.864 127.386 135.243 126.841C134.631 126.305 134.325 125.585 134.325 124.68C134.325 123.647 134.663 122.803 135.34 122.146C136.033 121.482 136.879 121.15 137.878 121.15C138.724 121.15 139.421 121.386 139.969 121.858C140.516 122.331 140.79 122.971 140.79 123.78ZM136.802 123.743H138.494V123.671C138.494 123.415 138.43 123.215 138.301 123.071C138.18 122.919 138.011 122.843 137.793 122.843C137.56 122.843 137.354 122.923 137.177 123.083C137 123.235 136.875 123.455 136.802 123.743Z" fill="black"/>
<path d="M144.915 127.502H142.365L143.03 123.287H141.362L141.677 121.306H147.586L147.272 123.287H145.58L144.915 127.502Z" fill="black"/>
<path d="M155.781 124.32C156.402 124.552 156.712 124.976 156.712 125.593C156.712 126.217 156.466 126.693 155.975 127.022C155.491 127.342 154.819 127.502 153.956 127.502H150.089L151.068 121.306H154.875C155.463 121.306 155.918 121.45 156.241 121.738C156.571 122.026 156.736 122.387 156.736 122.819C156.736 123.171 156.639 123.483 156.446 123.755C156.261 124.028 156.039 124.216 155.781 124.32ZM153.848 122.831H153.268L153.123 123.767H153.703C153.896 123.767 154.053 123.715 154.174 123.611C154.295 123.507 154.355 123.371 154.355 123.203C154.355 122.955 154.186 122.831 153.848 122.831ZM152.941 124.908L152.772 125.929H153.521C153.997 125.929 154.234 125.721 154.234 125.304C154.234 125.04 154.049 124.908 153.678 124.908H152.941Z" fill="black"/>
<path d="M163.848 125.653C163.945 125.653 164.054 125.633 164.175 125.593L163.885 127.31C163.554 127.542 163.123 127.658 162.592 127.658C161.81 127.658 161.306 127.414 161.081 126.925C160.92 127.134 160.682 127.31 160.368 127.454C160.054 127.59 159.711 127.658 159.341 127.658C158.68 127.658 158.16 127.482 157.782 127.13C157.403 126.777 157.214 126.321 157.214 125.761C157.214 125.088 157.447 124.572 157.915 124.212C158.382 123.844 158.982 123.659 159.715 123.659C160.303 123.659 160.819 123.771 161.262 123.996C161.278 123.884 161.286 123.808 161.286 123.767C161.286 123.287 160.847 123.047 159.969 123.047C159.349 123.047 158.797 123.155 158.313 123.371L158.628 121.486C159.28 121.262 159.985 121.15 160.743 121.15C161.613 121.15 162.342 121.338 162.93 121.714C163.518 122.082 163.812 122.679 163.812 123.503C163.812 123.703 163.776 123.988 163.703 124.356L163.595 124.956C163.562 125.14 163.546 125.288 163.546 125.401C163.546 125.569 163.647 125.653 163.848 125.653ZM161.105 125.749L161.19 125.136C161.029 124.976 160.783 124.896 160.452 124.896C160.211 124.896 160.013 124.952 159.86 125.064C159.715 125.176 159.643 125.336 159.643 125.545C159.643 125.705 159.703 125.841 159.824 125.953C159.945 126.057 160.106 126.109 160.307 126.109C160.646 126.109 160.912 125.989 161.105 125.749Z" fill="black"/>
<path d="M168.182 127.658C167.239 127.658 166.437 127.39 165.777 126.853C165.116 126.317 164.786 125.565 164.786 124.596C164.786 123.619 165.148 122.803 165.873 122.146C166.615 121.482 167.529 121.15 168.617 121.15C169.358 121.15 170.027 121.302 170.623 121.606L170.285 123.635C169.511 123.275 168.818 123.187 168.206 123.371C167.602 123.555 167.3 123.924 167.3 124.476C167.3 124.756 167.392 124.98 167.578 125.148C167.868 125.397 168.274 125.521 168.798 125.521C169.249 125.521 169.684 125.441 170.103 125.28L169.765 127.37C169.265 127.562 168.738 127.658 168.182 127.658Z" fill="black"/>
<path d="M86.1756 143.111H83.6377L84.6045 136.916H87.1545L86.8282 139.053L88.5926 136.916H91.7106L88.9914 139.893L91.1426 143.111H88.1696L86.5623 140.602L86.1756 143.111Z" fill="black"/>
<path d="M96.3806 138.897H95.2929L95.1479 139.677C94.9706 140.614 94.6967 141.402 94.3261 142.043C93.8668 142.835 93.1659 143.232 92.2232 143.232C91.7156 143.232 91.3491 143.164 91.1235 143.027L91.4256 141.058C91.5384 141.122 91.6592 141.154 91.7882 141.154C92.1265 141.154 92.3803 140.946 92.5495 140.53C92.7268 140.09 92.8919 139.381 93.045 138.405L93.2867 136.916H99.2448L98.2659 143.111H95.7159L96.3806 138.897Z" fill="black"/>
<path d="M101.845 143.111H99.4524L100.431 136.916H102.812L102.401 139.545L104.649 136.916H107.042L106.063 143.111H103.682L104.093 140.494L101.845 143.111Z" fill="black"/>
<path d="M113.84 139.389C113.84 139.677 113.788 140.066 113.683 140.554H109.792C109.832 140.786 109.989 140.966 110.263 141.094C110.545 141.222 110.883 141.286 111.278 141.286C111.987 141.286 112.668 141.126 113.321 140.806L113.031 142.667C112.483 143.067 111.669 143.268 110.589 143.268C109.679 143.268 108.914 142.995 108.293 142.451C107.681 141.915 107.375 141.194 107.375 140.29C107.375 139.257 107.713 138.413 108.39 137.756C109.083 137.092 109.929 136.76 110.928 136.76C111.774 136.76 112.471 136.996 113.019 137.468C113.566 137.94 113.84 138.581 113.84 139.389ZM109.852 139.353H111.544V139.281C111.544 139.025 111.48 138.825 111.351 138.681C111.23 138.529 111.061 138.453 110.843 138.453C110.61 138.453 110.404 138.533 110.227 138.693C110.05 138.845 109.925 139.065 109.852 139.353Z" fill="black"/>
<path d="M116.778 143.111H114.24L115.219 136.916H117.757L117.431 138.957H118.809L119.135 136.916H121.685L120.706 143.111H118.156L118.494 140.926H117.117L116.778 143.111Z" fill="black"/>
<path d="M125.731 143.111H123.181L123.846 138.897H122.178L122.492 136.916H128.402L128.088 138.897H126.396L125.731 143.111Z" fill="black"/>
</svg>
