<svg width="229" height="227" viewBox="0 0 229 227" fill="none" xmlns="http://www.w3.org/2000/svg">
<path d="M114.147 226.449C176.449 226.449 226.954 222.814 226.954 218.33C226.954 213.846 176.449 210.21 114.147 210.21C51.8461 210.21 1.34094 213.846 1.34094 218.33C1.34094 222.814 51.8461 226.449 114.147 226.449Z" fill="#D9DEFA"/>
<path d="M102.875 81.8096C94.069 49.8581 54.3736 39.5669 31.63 63.442C31.3028 63.7853 30.9757 64.1338 30.6486 64.4878C-1.96259 99.9359 12.5438 188.508 81.209 208.688C152.464 229.635 220.352 191.146 224.326 155.001C228.305 118.856 196.906 107.497 148.174 117.606C120.647 123.318 108.355 101.7 102.875 81.8096Z" fill="#D9DEFA"/>
<path d="M43.4495 46.9035H10.0715C10.0715 46.9035 11.5355 37.4864 15.6649 37.8565C16.8071 37.9584 17.5847 39.1167 18.0942 40.3609C18.4106 41.1278 19.5046 41.0741 19.7299 40.2751C20.8239 36.446 23.0548 30.6113 26.5192 30.6113C30.1015 30.6113 30.2195 37.2934 29.9567 41.3637C29.9192 41.9751 30.7129 42.2486 31.0561 41.7391C31.9999 40.3502 33.3782 39.0148 35.0567 39.4009C36.4886 39.7334 37.1214 41.2136 37.3842 42.7795C37.4646 43.2514 38.1135 43.3104 38.2798 42.8653C39.1539 40.5486 40.6984 37.1754 42.3394 37.1057C44.8492 36.9984 43.4495 46.9035 43.4495 46.9035Z" fill="#D9DEFA"/>
<path d="M228.525 88.9201H195.147C195.147 88.9201 196.611 79.503 200.74 79.8731C201.882 79.975 202.66 81.1333 203.17 82.3775C203.486 83.1444 204.58 83.0907 204.805 82.2917C205.899 78.4627 208.13 72.6279 211.594 72.6279C215.177 72.6279 215.295 79.31 215.032 83.3803C214.994 83.9917 215.788 84.2652 216.131 83.7557C217.075 82.3668 218.453 81.0314 220.132 81.4175C221.564 81.75 222.197 83.2302 222.459 84.7961C222.54 85.268 223.189 85.327 223.355 84.8819C224.229 82.5652 225.774 79.192 227.415 79.1223C229.93 79.015 228.525 88.9201 228.525 88.9201Z" fill="#D9DEFA"/>
<path d="M198.863 35.464H165.485C165.485 35.464 166.949 26.047 171.079 26.417C172.221 26.5189 172.998 27.6773 173.508 28.9214C173.824 29.6883 174.918 29.6347 175.144 28.8356C176.238 25.0066 178.469 19.1719 181.933 19.1719C185.515 19.1719 185.633 25.8539 185.37 29.9243C185.333 30.5356 186.127 30.8091 186.47 30.2997C187.414 28.9107 188.792 27.5754 190.47 27.9615C191.902 28.294 192.535 29.7741 192.798 31.3401C192.878 31.812 193.527 31.871 193.693 31.4259C194.568 29.1091 196.112 25.7359 197.753 25.6662C200.268 25.559 198.863 35.464 198.863 35.464Z" fill="#D9DEFA"/>
<path d="M11.4711 152.282C13.08 148.469 12.962 144.163 11.2835 140.377C9.6478 136.687 6.93959 132.703 3.16954 134.092C-3.44814 136.532 1.57679 153.376 6.61782 155.596C8.90237 156.61 10.4576 154.685 11.4711 152.282Z" fill="#D9DEFA"/>
<path d="M211.187 203.513C215.263 202.816 218.829 200.386 221.108 196.933C223.334 193.565 225.227 189.135 222.025 186.711C216.4 182.453 204.929 195.769 205.776 201.217C206.157 203.684 208.613 203.952 211.187 203.513Z" fill="#D9DEFA"/>
<path d="M99.8769 53.4029C98.8741 50.6035 96.7182 48.3887 93.9939 47.2035C91.3394 46.0505 87.9662 45.2568 86.6523 47.8256C84.3409 52.3304 95.1845 58.7925 98.9277 57.5162C100.622 56.937 100.51 55.1673 99.8769 53.4029Z" fill="#D9DEFA"/>
<path d="M167.941 52.9361C168.006 52.9522 168.081 52.9522 168.15 52.9361C168.901 52.7538 169.336 52.6787 169.341 52.6787C169.566 52.6412 169.716 52.4374 169.679 52.2229C169.636 52.0084 169.421 51.869 169.191 51.9065C169.175 51.9119 168.724 51.9869 167.941 52.18C167.716 52.2336 167.582 52.4481 167.641 52.6573C167.679 52.7967 167.797 52.8986 167.941 52.9361Z" fill="#D9DEFA"/>
<path d="M143.659 70.9186C143.267 71.5836 142.892 72.2754 142.543 72.9726C142.458 73.1442 142.254 73.23 142.061 73.1871C142.034 73.1817 142.007 73.171 141.986 73.1603C141.776 73.0691 141.685 72.8331 141.787 72.6401C142.147 71.9268 142.527 71.2243 142.924 70.5432C143.037 70.3555 143.289 70.2858 143.493 70.3877C143.696 70.4896 143.771 70.7309 143.659 70.9186Z" fill="#D9DEFA"/>
<path d="M141.562 75.0846C141.261 75.7872 140.972 76.5165 140.709 77.2512C140.639 77.4443 140.419 77.5569 140.21 77.5086C140.2 77.5086 140.189 77.5033 140.178 77.4979C139.958 77.4282 139.84 77.2029 139.915 76.9992C140.183 76.2537 140.478 75.5137 140.784 74.795C140.87 74.5913 141.117 74.4947 141.326 74.5752C141.546 74.6556 141.648 74.8862 141.562 75.0846Z" fill="#D9DEFA"/>
<path d="M138.017 86.5834C137.813 86.5351 137.679 86.3528 137.706 86.1544C137.813 85.3714 137.937 84.5938 138.081 83.8323C138.119 83.6178 138.339 83.4783 138.564 83.5159C138.795 83.5534 138.945 83.7572 138.902 83.9717C138.762 84.7171 138.639 85.4894 138.532 86.2563C138.505 86.4708 138.291 86.6209 138.065 86.5941C138.049 86.5887 138.033 86.5834 138.017 86.5834Z" fill="#D9DEFA"/>
<path d="M139.696 78.973C139.915 79.032 140.05 79.2465 139.985 79.4556C139.883 79.7989 139.781 80.1474 139.69 80.4907C139.583 80.8875 139.481 81.2897 139.385 81.6919C139.336 81.9011 139.111 82.0351 138.886 81.9869C138.88 81.9869 138.88 81.9869 138.875 81.9869C138.655 81.9332 138.521 81.7295 138.569 81.5203C138.666 81.1127 138.773 80.6998 138.88 80.2976C138.977 79.949 139.074 79.5951 139.181 79.2411C139.24 79.0373 139.465 78.914 139.685 78.9676C139.69 78.973 139.69 78.973 139.696 78.973Z" fill="#D9DEFA"/>
<path d="M144.908 68.9344C144.812 69.0792 144.624 69.1435 144.452 69.106C144.409 69.0953 144.372 69.0792 144.334 69.0577C144.141 68.9398 144.082 68.6984 144.206 68.5161C144.651 67.8565 145.123 67.1968 145.611 66.5694C145.745 66.3924 146.008 66.3549 146.195 66.4836C146.383 66.6123 146.426 66.8536 146.286 67.0306C145.804 67.642 145.343 68.2855 144.908 68.9344Z" fill="#D9DEFA"/>
<path d="M165.802 53.6016C165.04 53.8483 164.263 54.1218 163.501 54.4167C163.415 54.4489 163.324 54.4543 163.238 54.4328C163.115 54.4007 163.008 54.3202 162.954 54.2022C162.868 54.0038 162.97 53.7732 163.179 53.6874C163.957 53.3871 164.751 53.1029 165.528 52.8562C165.748 52.7865 165.984 52.8937 166.059 53.1029C166.14 53.312 166.022 53.5319 165.802 53.6016Z" fill="#D9DEFA"/>
<path d="M159.077 56.4282C158.98 56.4765 158.868 56.4872 158.771 56.4658C158.664 56.4389 158.567 56.3746 158.508 56.2781C158.396 56.0904 158.465 55.849 158.669 55.7418C159.398 55.361 160.144 54.9963 160.895 54.6531C161.104 54.5566 161.351 54.6424 161.452 54.8355C161.554 55.0285 161.469 55.2645 161.259 55.361C160.525 55.6935 159.79 56.0528 159.077 56.4282Z" fill="#D9DEFA"/>
<path d="M151.151 61.8443C151.043 61.9408 150.893 61.9677 150.759 61.9408C150.684 61.9248 150.614 61.8872 150.555 61.8282C150.4 61.6727 150.405 61.4207 150.577 61.2759C151.183 60.7449 151.816 60.2194 152.459 59.7207C152.636 59.5812 152.899 59.608 153.049 59.7743C153.194 59.9405 153.172 60.1872 152.995 60.3266C152.363 60.8147 151.74 61.3241 151.151 61.8443Z" fill="#D9DEFA"/>
<path d="M154.937 58.9107C154.835 58.9805 154.706 59.0019 154.588 58.9751C154.497 58.9536 154.411 58.9054 154.352 58.8249C154.218 58.648 154.256 58.4066 154.443 58.2779C155.114 57.8221 155.811 57.3716 156.513 56.9533C156.706 56.8353 156.969 56.889 157.092 57.0713C157.216 57.2536 157.162 57.495 156.964 57.613C156.277 58.0259 155.591 58.4603 154.937 58.9107Z" fill="#D9DEFA"/>
<path d="M147.788 65.2019C147.681 65.3252 147.514 65.3682 147.364 65.3306C147.305 65.3145 147.252 65.2931 147.203 65.2502C147.026 65.1107 147 64.864 147.15 64.6978C147.681 64.0972 148.238 63.5019 148.807 62.9334C148.968 62.7779 149.231 62.7672 149.397 62.9174C149.563 63.0675 149.574 63.3142 149.413 63.4697C148.85 64.0328 148.303 64.612 147.788 65.2019Z" fill="#D9DEFA"/>
<path d="M168.354 50.2765L167.513 43.7393L189.672 46.914L168.354 50.2765Z" fill="#FF495A"/>
<path d="M189.672 46.9141L169.202 51.9444L169.148 51.9604L168.119 53.1349L168.355 50.2765L189.672 46.9141Z" fill="#E21C47"/>
<path d="M168.119 53.1354L169.958 53.1139L169.148 51.9609L168.119 53.1354Z" fill="#B9112E"/>
<path d="M171.722 51.3276L169.148 51.9551L173.337 57.9239L189.672 46.9141L171.722 51.3276Z" fill="#FF495A"/>
<path d="M184.92 96.4072C184.92 94.8359 186.197 93.5596 187.768 93.5596C189.339 93.5596 190.616 94.8359 190.616 96.4072C190.616 97.9785 189.339 99.2549 187.768 99.2549C186.197 99.2549 184.92 97.9785 184.92 96.4072ZM185.811 96.4072C185.811 97.4851 186.685 98.3593 187.763 98.3593C188.841 98.3593 189.715 97.4851 189.715 96.4072C189.715 95.3293 188.841 94.4552 187.763 94.4552C186.69 94.4498 185.811 95.3293 185.811 96.4072Z" fill="#FF495A"/>
<path d="M187.602 79.9482C187.602 78.3769 188.878 77.1006 190.449 77.1006C192.021 77.1006 193.297 78.3769 193.297 79.9482C193.297 81.5195 192.021 82.7959 190.449 82.7959C188.878 82.7959 187.602 81.5195 187.602 79.9482ZM188.497 79.9482C188.497 81.0262 189.371 81.9003 190.449 81.9003C191.527 81.9003 192.401 81.0262 192.401 79.9482C192.401 78.8703 191.527 77.9962 190.449 77.9962C189.371 77.9962 188.497 78.8703 188.497 79.9482Z" fill="#22D4B8"/>
<path d="M177.299 84.3574C177.546 84.3574 177.744 84.159 177.744 83.9123V81.9441C177.744 81.6974 177.546 81.499 177.299 81.499C177.053 81.499 176.854 81.6974 176.854 81.9441V83.9123C176.854 84.159 177.053 84.3574 177.299 84.3574Z" fill="#7C3CDF"/>
<path d="M177.3 87.8056C177.547 87.8056 177.745 87.6072 177.745 87.3605V85.3924C177.745 85.1457 177.547 84.9473 177.3 84.9473C177.053 84.9473 176.855 85.1457 176.855 85.3924V87.3605C176.855 87.6072 177.053 87.8056 177.3 87.8056Z" fill="#7C3CDF"/>
<path d="M174.533 85.0973H176.302C176.549 85.0973 176.748 84.8988 176.748 84.6521C176.748 84.4055 176.549 84.207 176.302 84.207H174.533C174.286 84.207 174.088 84.4055 174.088 84.6521C174.088 84.8988 174.286 85.0973 174.533 85.0973Z" fill="#7C3CDF"/>
<path d="M178.292 85.0973H180.062C180.309 85.0973 180.507 84.8988 180.507 84.6521C180.507 84.4055 180.309 84.207 180.062 84.207H178.292C178.045 84.207 177.847 84.4055 177.847 84.6521C177.847 84.8988 178.045 85.0973 178.292 85.0973Z" fill="#7C3CDF"/>
<path d="M181.821 68.9873C182.067 68.9873 182.266 68.7889 182.266 68.5422V66.574C182.266 66.3273 182.067 66.1289 181.821 66.1289C181.574 66.1289 181.376 66.3273 181.376 66.574V68.5422C181.376 68.7889 181.574 68.9873 181.821 68.9873Z" fill="#FF495A"/>
<path d="M181.821 72.4365C182.067 72.4365 182.266 72.2381 182.266 71.9914V70.0232C182.266 69.7765 182.067 69.5781 181.821 69.5781C181.574 69.5781 181.375 69.7765 181.375 70.0232V71.9914C181.375 72.2381 181.574 72.4365 181.821 72.4365Z" fill="#FF495A"/>
<path d="M179.058 69.7271H180.828C181.075 69.7271 181.273 69.5287 181.273 69.282C181.273 69.0353 181.075 68.8369 180.828 68.8369H179.058C178.812 68.8369 178.613 69.0353 178.613 69.282C178.608 69.5287 178.812 69.7271 179.058 69.7271Z" fill="#FF495A"/>
<path d="M182.818 69.7271H184.587C184.834 69.7271 185.032 69.5287 185.032 69.282C185.032 69.0353 184.834 68.8369 184.587 68.8369H182.818C182.571 68.8369 182.372 69.0353 182.372 69.282C182.372 69.5287 182.571 69.7271 182.818 69.7271Z" fill="#FF495A"/>
<path d="M6.58562 120.427C5.01432 120.427 3.73798 119.15 3.73798 117.579C3.73798 116.008 5.01432 114.731 6.58562 114.731C8.15692 114.731 9.43326 116.008 9.43326 117.579C9.43326 119.145 8.15156 120.427 6.58562 120.427ZM6.58562 115.622C5.5077 115.622 4.63356 116.496 4.63356 117.574C4.63356 118.652 5.5077 119.526 6.58562 119.526C7.66354 119.526 8.53768 118.652 8.53768 117.574C8.53768 116.501 7.66354 115.622 6.58562 115.622Z" fill="#FF495A"/>
<path d="M4.62828 104.794C3.05698 104.794 1.78064 103.518 1.78064 101.946C1.78064 100.375 3.05698 99.0986 4.62828 99.0986C6.19958 99.0986 7.47593 100.375 7.47593 101.946C7.47593 103.518 6.19958 104.794 4.62828 104.794ZM4.62828 99.9942C3.55036 99.9942 2.67623 100.868 2.67623 101.946C2.67623 103.024 3.55036 103.898 4.62828 103.898C5.70621 103.898 6.58034 103.024 6.58034 101.946C6.5857 100.868 5.70621 99.9942 4.62828 99.9942Z" fill="#22D4B8"/>
<path d="M17.9549 105.395C17.7082 105.395 17.5098 105.197 17.5098 104.95V102.982C17.5098 102.736 17.7082 102.537 17.9549 102.537C18.2016 102.537 18.4001 102.736 18.4001 102.982V104.95C18.4001 105.197 18.2016 105.395 17.9549 105.395Z" fill="#7C3CDF"/>
<path d="M17.9547 108.844C17.708 108.844 17.5096 108.645 17.5096 108.399V106.43C17.5096 106.184 17.708 105.985 17.9547 105.985C18.2014 105.985 18.3998 106.184 18.3998 106.43V108.399C18.3998 108.645 18.2014 108.844 17.9547 108.844Z" fill="#7C3CDF"/>
<path d="M20.7161 106.135H18.9464C18.6997 106.135 18.5013 105.937 18.5013 105.69C18.5013 105.444 18.6997 105.245 18.9464 105.245H20.7161C20.9628 105.245 21.1612 105.444 21.1612 105.69C21.1612 105.937 20.9628 106.135 20.7161 106.135Z" fill="#7C3CDF"/>
<path d="M16.9571 106.135H15.1874C14.9407 106.135 14.7423 105.937 14.7423 105.69C14.7423 105.444 14.9407 105.245 15.1874 105.245H16.9571C17.2038 105.245 17.4023 105.444 17.4023 105.69C17.4023 105.937 17.2038 106.135 16.9571 106.135Z" fill="#7C3CDF"/>
<path d="M16.0727 89.9394C15.826 89.9394 15.6276 89.741 15.6276 89.4943V87.5262C15.6276 87.2795 15.826 87.0811 16.0727 87.0811C16.3194 87.0811 16.5178 87.2795 16.5178 87.5262V89.4943C16.5178 89.741 16.3194 89.9394 16.0727 89.9394Z" fill="#FF495A"/>
<path d="M16.0726 93.3867C15.8259 93.3867 15.6275 93.1883 15.6275 92.9416V90.9734C15.6275 90.7267 15.8259 90.5283 16.0726 90.5283C16.3193 90.5283 16.5177 90.7267 16.5177 90.9734V92.9416C16.5177 93.1829 16.3193 93.3867 16.0726 93.3867Z" fill="#FF495A"/>
<path d="M18.8395 90.6793H17.0698C16.8231 90.6793 16.6247 90.4809 16.6247 90.2342C16.6247 89.9875 16.8231 89.7891 17.0698 89.7891H18.8395C19.0862 89.7891 19.2846 89.9875 19.2846 90.2342C19.2846 90.4755 19.0862 90.6793 18.8395 90.6793Z" fill="#FF495A"/>
<path d="M15.0749 90.6793H13.3052C13.0585 90.6793 12.8601 90.4809 12.8601 90.2342C12.8601 89.9875 13.0585 89.7891 13.3052 89.7891H15.0749C15.3216 89.7891 15.5201 89.9875 15.5201 90.2342C15.5254 90.4755 15.3216 90.6793 15.0749 90.6793Z" fill="#FF495A"/>
<path d="M81.4183 41.6203H71.2075C69.8132 41.6203 68.6709 40.478 68.6709 39.0837V31.9673C68.6709 30.5729 69.8132 29.4307 71.2075 29.4307H81.4183C82.8126 29.4307 83.9549 30.5729 83.9549 31.9673V39.0837C83.9495 40.478 82.8126 41.6203 81.4183 41.6203Z" fill="#FF495A"/>
<path d="M76.3128 31.3457C74.0068 31.3457 72.1298 33.2227 72.1298 35.5287C72.1298 37.8347 74.0068 39.7117 76.3128 39.7117C78.6188 39.7117 80.4958 37.8347 80.4958 35.5287C80.4958 33.2227 78.6188 31.3457 76.3128 31.3457ZM76.479 37.0732V35.6091H78.3668C78.356 36.1293 78.281 36.6173 78.1415 37.0732H76.479ZM77.6642 38.741C77.9699 38.3495 78.2166 37.9044 78.3936 37.411H79.6645C79.1283 38.3656 78.222 39.0413 77.1601 39.2826C77.3425 39.1164 77.5087 38.9394 77.6642 38.741ZM78.0343 37.411C77.8787 37.824 77.6642 38.1994 77.4122 38.5265C77.01 39.036 76.6131 39.2987 76.4844 39.3738V37.411H78.0343ZM76.479 33.4694V31.6889C76.5273 31.6889 76.5809 31.6943 76.6292 31.6996C76.8384 31.8766 77.4926 32.4826 77.9377 33.4747H76.479V33.4694ZM78.3078 33.4694C78.1576 33.1101 77.9699 32.7615 77.7447 32.4397C77.5838 32.2091 77.4068 31.9892 77.2137 31.7855C78.1737 32.0161 79.021 32.622 79.5573 33.464H78.3078V33.4694ZM76.479 35.2713V33.8072H78.0772C78.2488 34.2792 78.3453 34.7725 78.3668 35.2713H76.479ZM78.7046 35.2713C78.6885 34.7725 78.5973 34.2792 78.4365 33.8072H79.7504C79.981 34.2684 80.115 34.7564 80.1472 35.2713H78.7046ZM80.1579 35.6091C80.1472 36.1186 80.0399 36.612 79.8362 37.0732H78.5008C78.6295 36.6173 78.6992 36.124 78.71 35.6091H80.1579ZM74.1677 37.0732H72.7948C72.591 36.612 72.4838 36.1186 72.473 35.6091H73.9639C73.9693 36.124 74.039 36.612 74.1677 37.0732ZM74.7201 33.4694C74.8488 33.1798 75.0043 32.9009 75.1866 32.6435C75.5406 32.1394 75.8891 31.8176 76.0339 31.6943C76.0715 31.6943 76.1037 31.6889 76.1412 31.6889V33.4694H74.7201ZM76.1412 33.8072V35.2713H74.291C74.3125 34.7725 74.409 34.2792 74.5806 33.8072H76.1412ZM73.0683 33.4694C73.6153 32.6113 74.4787 32.0053 75.4601 31.7801C75.2671 31.9839 75.0847 32.2037 74.9185 32.4451C74.6932 32.7668 74.5055 33.1101 74.3554 33.4747H73.0683V33.4694ZM76.1412 35.6091V37.0732H74.5109C74.3768 36.6227 74.3018 36.1293 74.2857 35.6091H76.1412ZM72.473 35.2713C72.5052 34.7564 72.6393 34.2684 72.8752 33.8072H74.2267C74.0658 34.2845 73.9746 34.7725 73.9585 35.2713H72.473ZM74.2696 37.411C74.4466 37.9044 74.6879 38.3549 74.9989 38.741C75.1598 38.9448 75.3314 39.1271 75.5137 39.288C74.4412 39.0574 73.4973 38.3656 72.9611 37.4057H74.2696V37.411ZM76.1412 37.411V39.347C75.8891 39.1861 75.0901 38.6123 74.6289 37.411H76.1412Z" fill="#FFF9FF"/>
<path d="M223.221 112.351H213.01C211.616 112.351 210.474 111.208 210.474 109.814V102.698C210.474 101.303 211.616 100.161 213.01 100.161H223.221C224.616 100.161 225.758 101.303 225.758 102.698V109.814C225.758 111.208 224.616 112.351 223.221 112.351Z" fill="#FF495A"/>
<path d="M217.118 106.962C215.965 105.9 215.896 104.098 216.957 102.945C218.019 101.792 219.821 101.723 220.974 102.785C222.127 103.846 222.197 105.648 221.135 106.801C220.073 107.949 218.271 108.024 217.118 106.962ZM220.336 103.471C219.564 102.758 218.357 102.806 217.644 103.578C216.931 104.351 216.979 105.557 217.751 106.27C218.523 106.984 219.73 106.935 220.443 106.163C221.156 105.391 221.108 104.184 220.336 103.471Z" fill="#FFF9FF"/>
<path d="M213.981 110.362C213.793 110.185 213.777 109.89 213.954 109.702L217.092 106.302C217.269 106.114 217.563 106.098 217.751 106.275C217.939 106.452 217.955 106.747 217.778 106.935L214.641 110.335C214.469 110.523 214.174 110.533 213.981 110.362Z" fill="#FFF9FF"/>
<path d="M10.1949 65.8388V73.9473C10.1949 75.0199 11.0637 75.8887 12.1363 75.8887H26.8571L31.3029 77.4814C31.7587 77.6477 32.1985 77.1972 32.0215 76.7467L30.343 72.4029V65.8388C30.343 64.7662 29.4742 63.8975 28.4016 63.8975H12.1363C11.0691 63.8975 10.1949 64.7662 10.1949 65.8388Z" fill="#FF495A"/>
<path d="M22.9851 70.1238C22.9851 70.9014 23.6126 71.5289 24.3902 71.5289C25.1678 71.5289 25.7952 70.9014 25.7952 70.1238C25.7952 69.3462 25.1678 68.7188 24.3902 68.7188C23.6126 68.7188 22.9851 69.3462 22.9851 70.1238Z" fill="#E21C47"/>
<path d="M18.5393 70.1238C18.5393 70.9014 19.1668 71.5289 19.9444 71.5289C20.722 71.5289 21.3494 70.9014 21.3494 70.1238C21.3494 69.3462 20.722 68.7188 19.9444 68.7188C19.1721 68.7188 18.5393 69.3462 18.5393 70.1238Z" fill="#E21C47"/>
<path d="M14.0937 70.1238C14.0937 70.9014 14.7211 71.5289 15.4987 71.5289C16.2763 71.5289 16.9038 70.9014 16.9038 70.1238C16.9038 69.3462 16.2763 68.7188 15.4987 68.7188C14.7265 68.7188 14.0937 69.3462 14.0937 70.1238Z" fill="#E21C47"/>
<path d="M85.5744 219.252C85.3331 219.252 85.0918 219.204 84.8558 219.097C83.9709 218.7 83.5741 217.665 83.9709 216.78L97.1259 187.419C97.5227 186.534 98.5577 186.137 99.4426 186.534C100.327 186.931 100.724 187.966 100.327 188.851L87.1725 218.212C86.8829 218.866 86.2448 219.252 85.5744 219.252Z" fill="#2A3554"/>
<path d="M148.115 219.252C148.357 219.252 148.598 219.204 148.834 219.097C149.719 218.7 150.116 217.665 149.719 216.78L136.564 187.419C136.167 186.534 135.132 186.137 134.247 186.534C133.362 186.931 132.966 187.966 133.362 188.851L146.517 218.212C146.807 218.866 147.445 219.252 148.115 219.252Z" fill="#2A3554"/>
<path d="M168.23 178.97C192.66 154.54 192.66 114.932 168.23 90.5017C143.8 66.0719 104.192 66.0719 79.762 90.5017C55.3322 114.932 55.3322 154.54 79.762 178.97C104.192 203.4 143.8 203.4 168.23 178.97Z" fill="#E21C47"/>
<path d="M161.076 178.968C185.506 154.539 185.506 114.93 161.076 90.5005C136.646 66.0708 97.0374 66.0708 72.6075 90.5005C48.1776 114.93 48.1776 154.539 72.6075 178.968C97.0374 203.398 136.646 203.398 161.076 178.968Z" fill="#FF495A"/>
<path d="M151.804 169.697C171.114 150.388 171.114 119.081 151.804 99.772C132.495 80.4628 101.188 80.4628 81.879 99.772C62.5696 119.081 62.5696 150.388 81.879 169.697C101.188 189.006 132.495 189.006 151.804 169.697Z" fill="#FFF9FF"/>
<path d="M125.655 169.985C145.124 165.121 156.963 145.396 152.099 125.928C147.235 106.46 127.51 94.6209 108.041 99.485C88.5734 104.349 76.7343 124.074 81.5983 143.542C86.4622 163.011 106.187 174.85 125.655 169.985Z" fill="#FF495A"/>
<path d="M123.332 157.032C135.644 153.446 142.719 140.558 139.133 128.245C135.548 115.932 122.659 108.857 110.347 112.443C98.0337 116.029 90.959 128.917 94.5447 141.23C98.1304 153.543 111.019 160.618 123.332 157.032Z" fill="#FFF9FF"/>
<path d="M119.569 144.468C114.206 145.975 108.618 142.833 107.111 137.47C105.604 132.107 108.747 126.519 114.115 125.012C119.478 123.505 125.066 126.648 126.573 132.016C128.075 137.373 124.937 142.961 119.569 144.468Z" fill="#FF495A"/>
<path d="M118.464 133.614L58.2989 66.4343C57.6875 65.7478 56.6364 65.6942 55.95 66.3056C55.2635 66.9169 55.2099 67.968 55.8213 68.6545L116.11 135.979C117.279 135.577 118.115 134.821 118.464 133.614Z" fill="#2A3554"/>
<path d="M84.3888 100.554L65.4206 99.4381L55.3493 88.1923L60.4493 87.7633L51.4022 83.7841L37.2123 67.9424L56.1161 68.9828L84.3888 100.554Z" fill="#22D4B8"/>
<path d="M86.8665 98.3379L87.8425 79.3643L77.7712 68.1132L76.7844 73.1381L73.8241 63.705L59.6342 47.8633L58.5938 66.7618L86.8665 98.3379Z" fill="#22D4B8"/>
<path d="M30.5576 217.67V192.293C30.5576 189.247 8.01239 189.247 8.01239 192.293V217.67C8.00703 219.981 30.5576 219.981 30.5576 217.67Z" fill="#FF495A"/>
<path d="M30.5575 194.937V196.407C28.2246 197.013 24.4331 197.71 19.3707 197.71C14.158 197.71 10.3075 196.965 8.01227 196.348V194.873C10.1574 195.479 14.04 196.294 19.3707 196.294C24.5404 196.3 28.3587 195.533 30.5575 194.937Z" fill="#E21C47"/>
<path d="M19.2848 193.334C24.8619 193.334 29.383 192.746 29.383 192.02C29.383 191.294 24.8619 190.706 19.2848 190.706C13.7078 190.706 9.18671 191.294 9.18671 192.02C9.18671 192.746 13.7078 193.334 19.2848 193.334Z" fill="#2A3554"/>
<path d="M19.3225 185.065C19.3225 185.065 19.4244 185.043 19.6121 184.99C21.1995 184.534 28.8683 181.901 30.0213 173.149C31.0456 165.34 32.1289 160.396 34.0863 157.704C34.3705 157.307 33.9576 156.787 33.5125 156.985C26.6642 159.945 7.10606 170.038 18.8399 184.491C18.99 184.679 19.1563 184.872 19.3225 185.065Z" fill="#00A8A0"/>
<path d="M19.0811 192.02C19.0382 191.066 19.671 184.507 19.671 184.507C20.9259 175.369 27.6508 164.825 27.7367 164.691C27.86 164.498 27.801 164.246 27.6133 164.128C27.4256 164.005 27.1682 164.064 27.0502 164.252C27.0234 164.295 24.283 168.569 21.9663 174.001C20.3467 177.787 19.3224 181.171 18.888 184.142C18.8827 184.18 18.872 184.239 18.8666 184.303C18.8612 184.357 18.8505 184.421 18.8451 184.491C18.7325 185.413 18.3625 192.026 18.3625 192.026C18.5502 192.39 18.6414 192.294 19.0811 192.02Z" fill="#007E87"/>
<path d="M18.4322 189.527C18.4322 189.527 18.3303 189.5 18.148 189.435C16.5928 188.883 9.10096 185.778 8.49497 176.972C7.95333 169.116 7.18108 164.118 5.39527 161.302C5.1325 160.889 5.57761 160.396 6.01199 160.616C12.6619 163.994 31.5603 175.278 18.9524 188.974C18.7862 189.157 18.6146 189.339 18.4322 189.527Z" fill="#22D4B8"/>
<path d="M18.1157 192.121C18.2176 191.167 18.1157 188.947 18.1157 188.947C17.4346 179.749 11.3747 168.809 11.2996 168.67C11.1923 168.471 11.262 168.225 11.4605 168.112C11.6589 168 11.9056 168.075 12.0182 168.273C12.045 168.316 14.5119 172.756 16.4908 178.318C17.869 182.195 18.6841 185.638 18.9362 188.625C18.9416 188.668 18.9469 188.721 18.9469 188.786C18.9523 188.839 18.9523 188.904 18.9576 188.973C19.0113 189.901 19.0917 192.014 19.0917 192.014C18.8611 192.379 18.5447 192.422 18.1157 192.121Z" fill="#00A8A0"/>
<path d="M124.144 24.0361C124.144 24.0361 129.195 34.9494 135.293 37.6415L132.102 42.2482C132.102 42.2482 126.106 40.0494 123.934 35.0889C122.706 31.5977 123.286 27.8384 124.144 24.0361Z" fill="#5320B1"/>
<path d="M153.424 67.249L156.24 74.773C154.813 74.9875 153.28 74.5317 151.671 73.5235L149.456 68.5415L153.424 67.249Z" fill="#F9A38F"/>
<path d="M154.502 74.3921C154.502 74.3921 156.186 73.0889 156.916 73.3571C157.64 73.6252 161.463 79.9694 162.965 81.412C164.654 83.0316 162.954 85.654 162.225 85.2088C156.53 81.7498 149.016 77.8028 149.016 77.8028C149.016 77.8028 149.729 74.5583 150.63 73.3142C151.531 72.0646 152.877 74.2741 154.502 74.3921Z" fill="#22D4B8"/>
<path d="M157.237 78.0397C157.162 78.0397 157.087 78.0129 157.028 77.9539C156.915 77.8413 156.921 77.659 157.033 77.5517C157.071 77.5142 157.972 76.6508 158.894 76.4792C160.122 76.2486 160.782 77.0959 160.814 77.1334C160.91 77.2568 160.884 77.4391 160.76 77.5356C160.637 77.6322 160.455 77.6054 160.358 77.482C160.342 77.4606 159.875 76.8814 159.001 77.0423C158.251 77.1817 157.441 77.9593 157.43 77.9647C157.376 78.0129 157.307 78.0397 157.237 78.0397Z" fill="#FFF9FF"/>
<path d="M156.642 77.0261C156.567 77.0261 156.492 76.9993 156.433 76.9403C156.32 76.8276 156.326 76.6453 156.438 76.5381C156.476 76.5005 157.377 75.6371 158.299 75.4655C159.527 75.2349 160.187 76.0822 160.214 76.1198C160.31 76.2431 160.283 76.4254 160.16 76.522C160.037 76.6185 159.854 76.5917 159.758 76.4683C159.742 76.4469 159.275 75.8677 158.401 76.0286C157.645 76.168 156.84 76.9456 156.83 76.951C156.781 76.9993 156.712 77.0261 156.642 77.0261Z" fill="#FFF9FF"/>
<path d="M158.165 78.9894C158.09 78.9894 158.015 78.9626 157.956 78.9036C157.848 78.791 157.848 78.6087 157.961 78.5014C157.998 78.4639 158.899 77.6005 159.822 77.4235C161.05 77.1929 161.71 78.0402 161.742 78.0778C161.838 78.2011 161.811 78.3834 161.688 78.48C161.565 78.5765 161.382 78.5497 161.286 78.4263C161.27 78.4049 160.803 77.8257 159.929 77.9866C159.173 78.126 158.369 78.9036 158.358 78.909C158.304 78.9626 158.234 78.9894 158.165 78.9894Z" fill="#FFF9FF"/>
<path d="M154.931 69.3568L153.006 69.7751L151.655 70.0432L149.799 70.3436C147.15 68.2467 139.116 60.1435 137.722 56.4271C137.722 56.4271 128.53 77.8032 115.82 77.8032C114.995 77.8032 117.177 67.1634 119.247 64.954C119.247 64.954 130.965 43.122 138.559 45.4388C141.964 46.4738 146.152 53.1129 154.931 69.3568Z" fill="#2A3554"/>
<path d="M152.588 69.8548L152.202 70.3374C144.404 64.433 139.514 57.515 137.851 54.3134C137.792 54.2008 137.701 54.1686 137.637 54.1686C137.583 54.1686 137.545 54.2008 137.519 54.2651C133.786 63.0548 129.303 68.3264 126.203 71.2062C122.825 74.3434 120.352 75.3785 120.25 75.4214L120.106 75.0728L119.961 74.7242C119.982 74.7135 122.438 73.6838 125.726 70.6217C128.761 67.7955 133.153 62.615 136.822 53.9702C136.961 53.6377 137.256 53.4339 137.604 53.4178C137.98 53.4017 138.334 53.6216 138.516 53.9702C140.195 57.1986 144.748 63.2907 152.588 69.8548Z" fill="#021019"/>
<path d="M148.523 70.0428C148.855 70.6649 149.821 71.8608 150.368 72.2899C150.368 72.2899 154.465 71.7697 156.648 70.6703L155.666 68.3857C155.672 68.3911 152.1 69.6943 148.523 70.0428Z" fill="#524E82"/>
<path d="M102.569 56.116L103.915 66.2785C121.763 76.1943 126.959 59.634 125.543 54.963C122.728 42.5696 124.192 39.2769 124.144 24.0358L119.328 23.3708L118.942 23.3172L117.848 23.167L111.117 22.2393L109.98 22.62L108.549 23.1027L108.205 23.2206L101.829 25.3765L101.926 45.2564V48.6886C102.027 51.1769 102.242 53.6545 102.569 56.116Z" fill="#7C3CDF"/>
<path d="M107.497 62.1281C112.538 60.7177 116.217 57.2373 118.416 54.5666C120.792 51.6761 121.998 49.0805 122.014 49.0537C122.073 48.925 122.02 48.7802 121.891 48.7212C121.762 48.6622 121.618 48.7158 121.559 48.8445C121.548 48.8713 120.363 51.4186 118.019 54.2609C115.869 56.8726 112.276 60.2726 107.363 61.6455C107.229 61.683 107.149 61.8225 107.186 61.9565C107.224 62.0852 107.363 62.1657 107.497 62.1281Z" fill="#5320B1"/>
<path d="M113.23 62.3965C117.612 61.1953 121.296 57.5003 121.462 57.3287C121.559 57.2322 121.559 57.0713 121.462 56.9747C121.366 56.8782 121.205 56.8782 121.108 56.9747C121.065 57.0176 116.732 61.3669 112.045 62.1445C111.906 62.1659 111.814 62.2946 111.836 62.4341C111.857 62.5735 111.986 62.6647 112.126 62.6432C112.496 62.5842 112.866 62.4984 113.23 62.3965Z" fill="#5320B1"/>
<path d="M110.131 29.9886C114.507 28.7766 118.18 25.0709 118.346 24.8993C118.443 24.7974 118.443 24.6419 118.341 24.5454C118.239 24.4488 118.084 24.4488 117.987 24.5507C117.944 24.5936 113.622 28.9536 108.935 29.7419C108.795 29.7634 108.704 29.8974 108.731 30.0315C108.752 30.1709 108.886 30.2621 109.02 30.2353C109.396 30.1709 109.766 30.0905 110.131 29.9886Z" fill="#5320B1"/>
<path d="M148.544 108.27L150.308 112.195L146.694 113.75L144.592 109.696L148.544 108.27Z" fill="#F9A38F"/>
<path d="M149.52 112.109C149.52 112.109 149.89 110.522 150.619 110.265C151.349 110.007 158.707 111.97 160.734 111.514C162.761 111.058 162.997 112.592 162.965 113.45C162.927 114.303 147.917 119.687 147.917 119.687C147.917 119.687 145.627 115.52 145.525 113.981C145.418 112.453 148.19 113.064 149.52 112.109Z" fill="#22D4B8"/>
<path d="M153.859 113.825C153.8 113.874 153.725 113.9 153.644 113.89C153.489 113.874 153.376 113.734 153.392 113.573C153.397 113.52 153.537 112.281 154.138 111.557C154.937 110.592 155.988 110.828 156.031 110.833C156.186 110.87 156.283 111.021 156.245 111.176C156.208 111.332 156.057 111.428 155.902 111.391C155.875 111.385 155.146 111.235 154.577 111.922C154.089 112.511 153.961 113.622 153.961 113.632C153.95 113.718 153.912 113.782 153.859 113.825Z" fill="#FFF9FF"/>
<path d="M152.754 113.427C152.695 113.476 152.62 113.502 152.539 113.492C152.384 113.476 152.271 113.336 152.287 113.175C152.293 113.122 152.432 111.883 153.033 111.159C153.832 110.194 154.883 110.424 154.926 110.435C155.081 110.472 155.178 110.623 155.14 110.778C155.103 110.934 154.953 111.03 154.797 110.993C154.77 110.987 154.041 110.837 153.473 111.524C152.979 112.113 152.856 113.224 152.856 113.234C152.845 113.315 152.808 113.384 152.754 113.427Z" fill="#FFF9FF"/>
<path d="M155.178 113.963C155.119 114.012 155.044 114.039 154.963 114.028C154.808 114.012 154.695 113.872 154.711 113.711C154.717 113.658 154.856 112.419 155.457 111.695C156.256 110.73 157.307 110.96 157.35 110.971C157.505 111.009 157.602 111.159 157.564 111.314C157.527 111.47 157.377 111.566 157.221 111.529C157.194 111.523 156.465 111.373 155.896 112.06C155.403 112.65 155.28 113.76 155.28 113.77C155.269 113.851 155.231 113.921 155.178 113.963Z" fill="#FFF9FF"/>
<path d="M149.456 109.031C149.081 109.455 147.923 110.104 146.662 110.667C146.432 110.769 146.201 110.87 145.965 110.967C145.558 111.133 145.15 111.289 144.769 111.417C144.769 111.417 136.194 95.6079 132.901 84.1476C132.901 84.1476 103.873 80.5653 102.87 70.3974C102.838 70.0596 102.832 69.711 102.864 69.3517C102.95 68.381 103.288 67.3567 103.916 66.2734C104.575 65.1311 114.512 66.2466 119.881 67.7536C119.881 67.7536 134.43 73.422 139.814 79.2621C142.533 82.2224 149.456 109.031 149.456 109.031Z" fill="#2A3554"/>
<path d="M146.662 110.666C146.431 110.767 146.2 110.869 145.964 110.966C141.626 103.79 135.604 87.0156 134.263 82.9935C134.172 82.72 133.941 82.5162 133.652 82.4626C119.547 79.8134 111.423 76.1131 107.09 73.4746C105.18 72.3108 103.818 71.2544 102.864 70.3963C102.832 70.0585 102.826 69.7099 102.858 69.3506C103.781 70.2515 105.272 71.4957 107.562 72.8793C111.841 75.4642 119.864 79.1001 133.786 81.7172C134.338 81.8191 134.794 82.2159 134.971 82.7468C136.322 86.785 142.371 103.63 146.662 110.666Z" fill="#021019"/>
<path d="M143.219 109.765L144.586 111.953C144.586 111.953 147.997 111.363 150.303 109.031L149.45 107.073C149.456 107.073 145.305 109.122 143.219 109.765Z" fill="#524E82"/>
<path d="M120.857 14.7574C123.32 11.5323 122.702 6.92162 119.477 4.45903C116.252 1.99644 111.641 2.61451 109.178 5.83953C106.716 9.06455 107.334 13.6753 110.559 16.1379C113.784 18.6005 118.395 17.9824 120.857 14.7574Z" fill="#2A3554"/>
<path d="M122.358 10.2532C122.358 10.2532 124.508 10.0495 124.589 8.0116C124.658 6.27941 122.476 7.02484 122.883 5.73241C123.291 4.43998 123.892 3.30843 122.24 2.67562C120.792 2.12325 120.588 3.14218 118.888 1.3081C116.877 -0.858466 114.373 2.89549 112.281 2.6488C109.192 2.28949 108.5 3.9466 107.959 5.27657C107.412 6.60654 108.42 7.78636 108.42 7.78636L122.358 10.2532Z" fill="#2A3554"/>
<path d="M120.674 13.3849C120.674 13.3849 122.09 12.0603 122.717 13.476C123.344 14.8918 121.484 18.4098 119.558 17.1281L120.674 13.3849Z" fill="#F9856B"/>
<path d="M120.218 16.0505C120.293 16.0665 120.373 16.0236 120.411 15.9539C120.936 14.8599 122.213 14.6025 122.229 14.6025C122.325 14.5864 122.39 14.4899 122.373 14.3934C122.357 14.2968 122.261 14.2325 122.164 14.2486C122.105 14.2593 120.7 14.5381 120.094 15.7984C120.051 15.8896 120.089 15.9968 120.18 16.0397C120.185 16.0451 120.201 16.0505 120.218 16.0505Z" fill="#D25C48"/>
<path d="M121.526 15.6858C121.558 15.6912 121.596 15.6858 121.628 15.6751C121.719 15.6376 121.762 15.5303 121.725 15.4391C121.719 15.4231 121.564 15.0638 121.156 14.7902C121.076 14.7366 120.963 14.7581 120.909 14.8385C120.856 14.919 120.877 15.0316 120.958 15.0852C121.274 15.2997 121.392 15.5732 121.397 15.5786C121.414 15.6376 121.467 15.6751 121.526 15.6858Z" fill="#D25C48"/>
<path d="M111.128 18.8984L110.474 22.6095C110.474 22.6095 111.713 24.5133 113.182 24.9101C114.657 25.307 115.879 23.6874 115.879 23.6874L116.512 20.1212L111.128 18.8984Z" fill="#F9A38F"/>
<path d="M111.128 18.8984L110.839 20.5448C111.648 21.8372 113.381 22.4325 116.089 22.5076L116.512 20.1212L111.128 18.8984Z" fill="#F9856B"/>
<path d="M108.897 8.67727C108.709 10.1306 108.527 11.9593 108.548 13.4502C108.554 13.8202 108.57 14.1741 108.602 14.4905C108.897 17.365 110.023 22.4007 115.837 21.4139C118.405 20.9795 119.998 18.4858 120.979 15.8366C121.644 14.0401 122.031 12.1684 122.24 10.8224C122.454 9.44951 121.929 8.06591 120.856 7.17569C117.949 4.77316 114.426 4.8536 112.029 5.32016C110.377 5.64729 109.112 6.99872 108.897 8.67727Z" fill="#F9A38F"/>
<path d="M117.837 13.3798C117.767 13.7766 117.912 14.1306 118.164 14.1788C118.416 14.2217 118.679 13.9375 118.748 13.5406C118.818 13.1438 118.673 12.7899 118.421 12.7416C118.169 12.6987 117.907 12.9829 117.837 13.3798Z" fill="#2A3554"/>
<path d="M112.496 12.4364C112.426 12.8332 112.571 13.1872 112.823 13.2355C113.075 13.2784 113.337 12.9941 113.407 12.5973C113.477 12.2004 113.332 11.8465 113.08 11.7982C112.828 11.7553 112.571 12.0396 112.496 12.4364Z" fill="#2A3554"/>
<path d="M120.17 11.5188C120.17 11.5188 118.405 10.4355 116.829 10.8055V11.5081C116.829 11.5081 118.475 11.433 119.923 12.2857C120.073 11.9907 120.234 11.862 120.17 11.5188Z" fill="#2A3554"/>
<path d="M111.482 9.98529C111.482 9.98529 113.514 9.57235 114.86 10.4626L114.619 11.1168C114.619 11.1168 113.096 10.484 111.444 10.7897C111.407 10.4572 111.3 10.2856 111.482 9.98529Z" fill="#2A3554"/>
<path d="M114.812 15.756C114.517 15.7024 114.239 15.5362 114.196 15.5094C114.11 15.4557 114.088 15.3485 114.142 15.2627C114.196 15.1769 114.303 15.1554 114.389 15.209C114.539 15.3002 114.904 15.4718 115.086 15.4021C115.123 15.386 115.172 15.3592 115.204 15.2519C115.375 14.6459 115.574 12.5545 115.574 12.533C115.585 12.4365 115.67 12.3614 115.767 12.3721C115.863 12.3828 115.939 12.4686 115.928 12.5652C115.917 12.651 115.724 14.7157 115.547 15.3485C115.477 15.5898 115.327 15.6917 115.215 15.7346C115.086 15.7829 114.946 15.7829 114.812 15.756Z" fill="#F9856B"/>
<path d="M116.839 17.2307C116.566 17.9279 115.853 19.1774 114.238 18.8932C112.619 18.609 112.383 17.3058 112.377 16.4424L116.839 17.2307Z" fill="#FFF9FF"/>
<path d="M114.099 19.8155C113.643 19.7351 113.295 19.4347 113.284 19.424C113.209 19.3597 113.203 19.247 113.268 19.172C113.332 19.0969 113.445 19.0915 113.52 19.1559C113.52 19.1559 113.809 19.4026 114.163 19.4669C114.491 19.5259 114.834 19.3918 114.839 19.3918C114.93 19.3543 115.038 19.4026 115.07 19.4937C115.107 19.5849 115.059 19.6922 114.968 19.7243C114.952 19.7297 114.528 19.8906 114.099 19.8155Z" fill="#F9856B"/>
<path d="M120.647 14.592C120.91 13.8894 121.205 12.9724 121.194 12.4736C121.173 11.5942 120.556 10.9667 120.937 10.1891C121.317 9.40613 120.604 8.37111 119.993 8.1137C119.381 7.85092 117.831 7.90455 116.485 6.94997C115.198 6.03293 112.678 6.0812 112.12 6.91243C111.444 7.91527 112.083 8.13515 110.565 9.08436C109.959 9.45976 110.361 10.7897 110.313 11.5995C110.286 11.9695 110.265 12.1519 110.179 12.538L110.136 12.7364L108.565 12.4576C108.607 11.1973 108.752 9.82443 108.897 8.67679C109.112 6.99824 110.377 5.64681 112.04 5.32504C114.437 4.85848 117.96 4.77804 120.867 7.18057C121.939 8.06543 122.465 9.44903 122.25 10.8219C122.084 11.8891 121.805 13.2888 121.366 14.7153L120.647 14.592Z" fill="#2A3554"/>
<path d="M109.144 13.2566C109.219 12.8491 109.267 12.4308 109.267 12.0125C109.267 11.444 109.197 10.9131 108.672 10.5806C108.248 10.3125 107.766 10.2267 107.326 10.6771C106.248 11.7926 106.505 15.8898 108.752 15.3481L109.144 13.2566Z" fill="#F9A38F"/>
<path d="M108.543 14.1316C108.468 14.1048 108.42 14.0297 108.431 13.9493C108.549 12.7426 107.594 11.8578 107.583 11.847C107.508 11.7827 107.503 11.6701 107.573 11.595C107.637 11.5199 107.75 11.5145 107.825 11.5843C107.868 11.6272 108.924 12.5925 108.79 13.9868C108.779 14.0833 108.693 14.1584 108.592 14.1477C108.575 14.1423 108.559 14.1423 108.543 14.1316Z" fill="#F9856B"/>
<path d="M107.621 13.139C107.589 13.1283 107.562 13.1068 107.54 13.0747C107.481 12.9942 107.503 12.8816 107.578 12.8226C107.589 12.8119 107.91 12.5867 108.398 12.5598C108.495 12.5545 108.581 12.6296 108.586 12.7314C108.591 12.828 108.516 12.9138 108.415 12.9191C108.034 12.9352 107.787 13.1122 107.782 13.1122C107.739 13.1551 107.674 13.1605 107.621 13.139Z" fill="#F9856B"/>
<path d="M148.487 18.5812L98.5931 90.6729L107.58 96.8927L157.474 24.8011L148.487 18.5812Z" fill="#22D4B8"/>
<path d="M155.326 23.3115L105.433 95.4033L106.032 95.8184L155.926 23.7266L155.326 23.3115Z" fill="#00A8A0"/>
<path d="M152.68 21.4833L102.786 93.5752L103.386 93.9903L153.28 21.8984L152.68 21.4833Z" fill="#00A8A0"/>
<path d="M150.033 19.6484L100.139 91.7402L100.739 92.1553L150.633 20.0635L150.033 19.6484Z" fill="#00A8A0"/>
<path d="M101.206 86.9012L98.597 90.6716L107.584 96.8915L110.194 93.1211L101.206 86.9012Z" fill="#2A3554"/>
<path d="M107.578 96.8898L106.838 97.9623C105.122 100.445 101.716 101.062 99.2333 99.346C96.7503 97.6299 96.1336 94.2245 97.8497 91.7415L98.5898 90.6689L107.578 96.8898Z" fill="#FF495A"/>
<path d="M148.48 18.5771L157.468 24.7979L158.975 16.9146L159.291 15.279L160.176 10.6455L156.186 13.3537L154.631 14.4048L148.48 18.5771Z" fill="#F9A38F"/>
<path d="M156.186 13.3537C156.492 13.7506 156.905 14.1581 157.473 14.5496C158.149 15.0162 158.765 15.22 159.291 15.279L160.176 10.6455L156.186 13.3537Z" fill="#FF495A"/>
<path d="M124.149 59.141H125.012C125.785 59.141 126.369 58.6852 126.712 57.9987C126.862 57.6931 127.072 57.1353 127.216 56.9476C127.619 56.4114 128.718 55.5104 129.131 55.4782C129.544 55.4514 129.469 56.2183 129.174 56.5508C128.884 56.8886 128.423 57.3123 128.176 57.7896C127.93 58.2669 130.193 59.2268 131.11 59.4521C132.027 59.6773 133.641 59.1839 133.797 59.9454C133.952 60.7069 132.745 60.8196 132.745 60.8196C132.745 60.8196 133.099 61.506 132.097 62.0745C132.097 62.0745 132.274 62.7448 131.625 63.1041C131.625 63.1041 131.7 63.9568 130.944 64.1767C130.193 64.4019 127.839 65.083 123.227 62.2836L124.149 59.141Z" fill="#F9A38F"/>
<path d="M108.323 39.5616C110.066 46.1417 111.772 49.0537 111.772 49.0537C111.772 49.0537 113.724 52.0408 117.74 54.867C120.529 56.8298 125.012 59.1465 125.012 59.1465C124.24 60.1493 123.693 62.1389 123.993 62.7342C114.673 62.7342 106.527 53.9071 106.527 53.9071C100.006 42.5594 99.5819 33.3193 99.6892 29.9514C99.7267 28.7663 100.07 27.6025 100.724 26.6158C101.062 26.1063 101.48 25.629 101.979 25.3984C101.979 25.3984 104.773 26.4388 105.744 29.7209C106.714 32.9975 108.323 39.5616 108.323 39.5616Z" fill="#5320B1"/>
<path d="M147.171 39.84C147.171 39.84 145.235 39.1535 144.345 39.5236C143.455 39.8936 145.922 41.2289 145.922 41.2289C145.922 41.2289 142.929 39.6362 142.415 40.2797C141.9 40.9233 144.758 42.5535 144.758 42.5535C144.758 42.5535 142.565 41.7813 142.12 42.2371C141.674 42.6876 143.718 43.9693 143.718 43.9693C143.718 43.9693 141.921 43.5349 141.546 43.8406C141.17 44.1463 142.763 45.428 143.777 45.7659C144.79 46.1037 144.951 44.6826 144.951 44.6826C144.951 44.6826 145.906 43.846 145.777 43.2614C145.777 43.2614 146.764 42.5964 146.833 41.9154C146.833 41.91 148.228 40.6819 147.171 39.84Z" fill="#F9A38F"/>
<path d="M65.6088 115.82C65.6088 115.82 68.0274 120.405 70.875 124.041C71.717 125.114 72.5911 126.101 73.4545 126.868C74.8542 128.106 76.2217 128.755 77.3318 128.203C81.4558 126.165 91.7417 109.262 91.7417 109.262L89.5376 106.709C89.5376 106.709 84.2927 111.954 81.3003 114.721C78.5385 117.274 76.4202 119.183 76.4202 119.183C76.0394 118.614 75.6318 117.987 75.2082 117.327C74.7577 116.625 74.2911 115.885 73.8138 115.118C70.3656 109.578 66.2201 103.513 66.2201 103.513L65.6088 115.82Z" fill="#F9A38F"/>
<path d="M70.8749 124.042C71.7169 125.114 72.591 126.101 73.4544 126.868L75.2081 117.338C74.7576 116.636 74.291 115.896 73.8137 115.129L70.8749 124.042Z" fill="#F9856B"/>
<path d="M66.0967 103.095L74.8112 115.665L72.0387 126.863L65.2011 115.955C65.2011 115.955 63.9194 108.656 66.0967 103.095Z" fill="#7C3CDF"/>
<path d="M89.0066 105.695C89.0066 105.695 88.4543 106.575 88.7278 107.76L91.1571 110.125C91.1571 110.125 91.865 110.087 92.6909 109.803L89.0066 105.695Z" fill="#F9A38F"/>
<path d="M90.6959 101.465C90.6959 101.465 89.3391 103.444 89.4893 104.564C89.6394 105.68 91.8918 103.299 91.8918 103.299C91.8918 103.299 89.1943 106.195 89.7628 106.972C90.3312 107.75 93.0341 105.009 93.0341 105.009C93.0341 105.009 91.5057 107.251 91.8811 107.889C92.2565 108.527 94.3158 106.608 94.3158 106.608C94.3158 106.608 93.2808 108.506 93.5167 109.021C93.7473 109.536 95.6726 108.125 96.3644 107.085C97.0508 106.044 95.4956 105.433 95.4956 105.433C95.4956 105.433 94.836 104.108 94.1442 104.071C94.1442 104.071 93.6883 102.757 92.9429 102.473C92.9322 102.473 91.9669 100.532 90.6959 101.465Z" fill="#F9A38F"/>
<path d="M61.624 210.65V214.619L57.9183 214.56L57.677 210.355L61.624 210.65Z" fill="#F9A38F"/>
<path d="M52.2178 152.667C52.2446 153.139 52.3733 155.402 52.5664 158.561C53.0865 167.238 54.0626 182.651 54.6364 186.115C55.2263 189.671 54.9582 201.319 54.7705 207.416C54.7383 208.451 55.1459 209.395 55.8216 210.087C56.0736 210.344 56.3632 210.564 56.6796 210.741C57.232 211.047 57.8648 211.224 58.5405 211.224H61.3613C63.4904 211.224 65.1957 209.502 65.1314 207.416C64.9705 202.257 64.7774 192.851 65.1475 185.589C65.5014 178.671 64.9866 166.439 64.5951 158.808H64.5897C64.4289 155.762 64.2948 153.456 64.2358 152.512L52.2178 152.667Z" fill="#2A3554"/>
<path d="M64.2358 152.512L52.2178 152.667C52.2446 153.139 52.3733 155.402 52.5664 158.561C56.6474 159.054 60.9001 159.258 64.5897 158.808C64.4342 155.762 64.2948 153.456 64.2358 152.512Z" fill="#021019"/>
<path d="M55.8644 196.541C55.7571 200.44 55.6499 204.473 55.7196 207.723C55.741 208.634 55.7732 209.417 55.8161 210.082C56.0681 210.34 56.3577 210.565 56.6795 210.742C56.6098 209.964 56.5562 208.972 56.5294 207.707C56.4596 204.473 56.5669 200.451 56.6741 196.563C56.8029 191.806 56.9262 187.317 56.6581 185.403C56.0789 181.22 54.7918 158.535 54.4539 152.48L53.6442 152.518C53.982 158.567 55.2745 181.3 55.859 185.51C56.1164 187.36 55.9931 191.822 55.8644 196.541Z" fill="#021019"/>
<path d="M60.6746 214.469C60.6746 214.469 61.4415 213.413 62.069 213.445C62.6964 213.477 67.6248 217.145 69.2926 217.419C70.9605 217.692 70.6655 218.899 70.3706 219.516C70.081 220.132 57.1298 219.569 57.1298 219.569C57.1298 219.569 56.6901 215.805 57.0869 214.646C57.4838 213.483 59.3822 214.77 60.6746 214.469Z" fill="#22D4B8"/>
<path d="M63.4098 217.043C63.3508 217.059 63.2865 217.059 63.2275 217.027C63.1149 216.968 63.072 216.828 63.1309 216.716C63.1524 216.678 63.6404 215.804 64.3108 215.455C65.2063 214.989 65.925 215.472 65.9571 215.493C66.0644 215.568 66.0858 215.708 66.0108 215.809C65.9357 215.911 65.7909 215.938 65.689 215.863C65.6675 215.852 65.1688 215.52 64.5306 215.852C63.9836 216.137 63.5439 216.92 63.5385 216.93C63.5117 216.989 63.4634 217.027 63.4098 217.043Z" fill="#FFF9FF"/>
<path d="M62.7019 216.416C62.6429 216.432 62.5785 216.432 62.5195 216.4C62.4069 216.341 62.364 216.201 62.423 216.089C62.4445 216.051 62.9325 215.177 63.6028 214.829C64.4984 214.362 65.217 214.845 65.2492 214.866C65.3564 214.941 65.3779 215.081 65.3028 215.182C65.2277 215.284 65.0829 215.311 64.9811 215.236C64.9596 215.225 64.4609 214.893 63.8227 215.225C63.2703 215.515 62.8359 216.293 62.8306 216.303C62.8038 216.362 62.7555 216.4 62.7019 216.416Z" fill="#FFF9FF"/>
<path d="M64.3588 217.542C64.2998 217.558 64.2354 217.558 64.1765 217.526C64.0638 217.467 64.0209 217.327 64.0799 217.215C64.1014 217.177 64.5894 216.303 65.2597 215.954C66.1553 215.488 66.8739 215.971 66.9061 215.992C67.0134 216.067 67.0348 216.207 66.9597 216.308C66.8847 216.41 66.7399 216.437 66.638 216.362C66.6165 216.351 66.1178 216.019 65.4796 216.351C64.9272 216.641 64.4929 217.419 64.4875 217.429C64.4607 217.488 64.4124 217.526 64.3588 217.542Z" fill="#FFF9FF"/>
<path d="M43.5786 210.65L43.1817 214.614L39.8782 214.56L39.6369 210.355L43.5786 210.65Z" fill="#F9A38F"/>
<path d="M36.7784 185.59C37.1484 192.857 36.95 202.263 36.7945 207.417C36.7355 209.503 38.4355 211.224 40.5645 211.224H43.3907C44.0128 211.224 44.6081 211.074 45.1229 210.811C45.4339 210.651 45.7289 210.452 45.9756 210.211C46.7317 209.514 47.1929 208.516 47.1554 207.417C46.9677 201.319 46.6995 189.666 47.2895 186.116C47.874 182.592 48.8768 166.708 49.3917 158.122C49.5579 155.253 49.6759 153.204 49.7081 152.7L37.6686 152.856C37.6311 153.467 37.5774 154.411 37.5077 155.601C37.1162 162.466 36.3654 177.589 36.7784 185.59Z" fill="#2A3554"/>
<path d="M37.5078 155.601C39.7762 156.207 44.2702 157.323 49.3917 158.122C49.5579 155.253 49.6759 153.204 49.7081 152.7L37.6686 152.856C37.6311 153.467 37.5721 154.411 37.5078 155.601Z" fill="#021019"/>
<path d="M45.273 207.706C45.2462 209.009 45.1872 210.028 45.1175 210.811C45.4339 210.65 45.7182 210.452 45.9756 210.216C46.0238 209.519 46.0614 208.698 46.0828 207.722C46.1525 204.472 46.0453 200.439 45.938 196.541C45.8093 191.821 45.6913 187.36 45.9434 185.509C46.5226 181.294 47.8204 158.556 48.1529 152.512L47.3431 152.475C47.0052 158.524 45.7128 181.219 45.139 185.402C44.8762 187.317 44.9995 191.805 45.1229 196.562C45.2355 200.456 45.3428 204.478 45.273 207.706Z" fill="#021019"/>
<path d="M41.8945 214.002C41.8945 214.002 40.2106 213.563 39.744 213.573C39.2774 213.584 36.1563 217.006 35.1052 217.204C33.196 217.569 33.196 220.486 34.3544 220.631C37.7115 221.049 43.4497 219.66 43.4497 219.66C43.4497 219.66 43.9806 215.917 43.75 214.743C43.5194 213.568 42.833 214.346 41.8945 214.002Z" fill="#22D4B8"/>
<path d="M39.1167 217.199C39.1757 217.209 39.24 217.204 39.299 217.166C39.4063 217.097 39.4331 216.957 39.3634 216.85C39.3419 216.812 38.7681 215.992 38.0656 215.708C37.1271 215.327 36.4567 215.879 36.4299 215.901C36.3334 215.981 36.3227 216.126 36.4085 216.223C36.4943 216.319 36.6391 216.33 36.7356 216.244C36.7517 216.228 37.2182 215.858 37.8886 216.126C38.4624 216.362 38.9772 217.097 38.9826 217.102C39.0094 217.15 39.0577 217.183 39.1167 217.199Z" fill="#FFF9FF"/>
<path d="M39.76 216.507C39.819 216.517 39.8834 216.512 39.9424 216.475C40.0496 216.405 40.0765 216.265 40.0067 216.158C39.9853 216.121 39.4115 215.3 38.7089 215.01C37.7705 214.63 37.1001 215.182 37.0733 215.204C36.9768 215.284 36.966 215.429 37.0518 215.525C37.1376 215.622 37.2824 215.633 37.379 215.547C37.3951 215.531 37.8616 215.161 38.532 215.429C39.1111 215.665 39.6206 216.399 39.626 216.405C39.6474 216.464 39.7011 216.496 39.76 216.507Z" fill="#FFF9FF"/>
<path d="M38.2156 217.783C38.2746 217.794 38.339 217.788 38.3979 217.751C38.5052 217.681 38.532 217.542 38.4623 217.434C38.4408 217.397 37.867 216.576 37.1645 216.287C36.226 215.906 35.5557 216.458 35.5289 216.48C35.4323 216.56 35.4216 216.705 35.5074 216.802C35.5932 216.898 35.738 216.909 35.8345 216.823C35.8506 216.807 36.3172 216.437 36.9875 216.705C37.5667 216.941 38.0762 217.676 38.0815 217.681C38.1084 217.74 38.162 217.772 38.2156 217.783Z" fill="#FFF9FF"/>
<path d="M34.9335 153.885C45.8093 156.567 56.6689 156.572 67.5232 153.885C67.5822 149.912 67.6358 134.032 67.3248 120.995C67.3194 120.738 67.3141 120.486 67.3087 120.228C67.3087 120.105 67.3033 119.976 67.298 119.853V119.832C67.2926 119.671 67.2926 119.51 67.2873 119.349C67.0567 110.752 66.6491 103.733 65.9573 102.794C64.3377 100.617 56.2024 97.1309 53.95 95.5811C53.7623 95.876 52.6522 97.5224 51.2042 97.6404C49.6115 97.7798 48.1957 95.9404 48.1957 95.9404V95.5918C45.9326 97.147 38.5641 100.365 36.9446 102.542C35.1641 104.928 34.8584 147.118 34.9335 153.885Z" fill="#7C3CDF"/>
<path d="M64.005 114.876C64.9381 116.115 66.3003 118.914 66.917 120.212C67.0028 120.389 67.0672 120.539 67.1208 120.652C67.1905 120.802 67.228 120.888 67.2334 120.893C67.2549 120.936 67.2817 120.973 67.3246 120.995C67.3192 120.737 67.3138 120.485 67.3085 120.228C67.3085 120.105 67.3031 119.976 67.2978 119.852V119.831C67.1744 119.568 67.0242 119.257 66.858 118.919C66.1608 117.498 65.1687 115.578 64.4179 114.581C64.3375 114.474 64.1766 114.447 64.064 114.527C63.946 114.613 63.9246 114.769 64.005 114.876Z" fill="#5320B1"/>
<path d="M43.1814 105.282C43.1867 105.282 43.1867 105.282 43.1867 105.282C47.5091 105.148 50.8448 103.383 52.8773 101.93C55.0814 100.353 56.2505 98.8303 56.2988 98.7659C56.3792 98.6587 56.3578 98.5031 56.2451 98.4227C56.1325 98.3423 55.977 98.3637 55.8912 98.471C55.8429 98.5299 51.1827 104.536 43.1653 104.783C43.0259 104.788 42.9186 104.901 42.924 105.035C42.9347 105.174 43.0473 105.282 43.1814 105.282Z" fill="#5320B1"/>
<path d="M57.7412 145.599C57.8753 145.599 57.9825 145.498 57.9933 145.369C58.004 145.235 57.8967 145.117 57.7573 145.106C50.6677 144.65 46.4364 141.132 44.1412 138.258C41.6421 135.137 40.8109 132.074 40.8055 132.048C40.768 131.914 40.6339 131.839 40.4998 131.871C40.3658 131.903 40.2853 132.037 40.3175 132.171C40.3497 132.3 41.1756 135.346 43.7336 138.547C46.0986 141.508 50.4425 145.133 57.7305 145.599C57.7305 145.599 57.7359 145.599 57.7412 145.599Z" fill="#5320B1"/>
<path d="M53.9338 141.191C54.0464 141.191 54.1483 141.116 54.1751 141.009C54.2126 140.875 54.1322 140.741 53.9981 140.708C47.8363 139.078 46.6457 134.037 46.635 133.984C46.6028 133.849 46.4688 133.764 46.3347 133.796C46.2006 133.823 46.1148 133.957 46.1416 134.091C46.1523 134.144 46.4527 135.464 47.5574 137.003C48.571 138.419 50.4908 140.296 53.864 141.191C53.8909 141.186 53.9123 141.191 53.9338 141.191Z" fill="#5320B1"/>
<path d="M26.9536 153.451C27.1091 155.612 28.4337 157.215 28.4391 158.637C28.4444 160.058 30.123 159.13 29.3454 156.32C28.5731 153.51 29.7208 150.791 30.3321 150.818C30.9489 150.844 30.1391 153.982 30.7826 155.027C31.4261 156.068 31.9142 153.88 32.4826 152.523C33.0725 151.118 32.74 148.201 32.2091 146.147C31.6782 144.093 34.2899 131.066 33.9467 127.393L34.8905 122.631L35.4429 119.853L35.5448 116.952L30.5091 114.994C30.3214 115.927 30.123 116.893 29.9299 117.863C29.8441 118.292 29.7637 118.721 29.6779 119.15C29.0022 122.625 28.4015 126.041 28.1548 128.235C27.4738 134.3 28.5892 146.672 28.5892 146.672C28.5892 146.672 26.8088 151.424 26.9536 153.451Z" fill="#F9A38F"/>
<path d="M29.6831 119.15C30.82 120.421 32.6326 122.041 34.8957 122.631L35.4481 119.853L35.55 116.952L30.5143 114.994C30.3266 115.927 30.1282 116.893 29.9352 117.863C29.8494 118.292 29.7635 118.721 29.6831 119.15Z" fill="#F9856B"/>
<path d="M28.2835 116.4C28.2835 116.4 28.8841 117.097 29.9352 117.864C31.2062 118.797 33.1315 119.832 35.4375 119.853C35.7163 111.815 36.1239 105.025 36.7245 103.03C35.6627 104.317 30.5573 110.645 28.2835 116.4Z" fill="#7C3CDF"/>
<path d="M38.8967 114.072C37.9636 115.31 36.6015 118.11 35.9901 119.408C35.9097 119.585 35.8399 119.735 35.7863 119.847C35.7166 119.998 35.679 120.083 35.6737 120.089C35.6308 120.18 35.5396 120.233 35.4431 120.233H35.4377C35.4377 120.11 35.4431 119.981 35.4484 119.858C35.3734 119.858 35.2983 119.858 35.2286 119.858C35.2608 119.783 35.3466 119.606 35.4592 119.359C35.604 119.043 35.8131 118.614 36.0491 118.121C36.7462 116.699 37.7384 114.78 38.4892 113.782C38.5696 113.675 38.7305 113.648 38.8431 113.728C38.9557 113.803 38.9772 113.959 38.8967 114.072Z" fill="#5320B1"/>
<path d="M43.4498 82.6729C43.4498 87.0275 46.1848 90.0253 50.6306 90.0253C55.0763 90.0253 58.1706 86.8022 58.1706 82.4476C58.1706 78.093 55.5375 74.7949 51.0971 74.7949C45.7665 74.7949 43.4498 78.3183 43.4498 82.6729Z" fill="#2A3554"/>
<path d="M43.7125 82.0935C43.7125 82.0935 42.7848 81.9809 42.4791 79.1011C42.1734 76.2212 44.3775 76.9613 45.2946 75.4329C46.2116 73.9045 47.2734 71.7647 49.6438 72.4619C52.0195 73.1591 54.0252 73.7704 56.165 72.7676C58.3047 71.7647 60.7501 74.6017 60.2675 76.5215C59.7848 78.4414 57.2107 79.1386 57.2107 79.1386L43.7125 82.0935Z" fill="#2A3554"/>
<path d="M44.4472 84.5441C44.4472 84.5441 43.2137 82.9299 42.2967 84.2652C41.3797 85.6006 42.6775 89.5369 44.9245 88.5769L44.4472 84.5441Z" fill="#F9856B"/>
<path d="M44.4311 87.359C44.3506 87.359 44.2702 87.3053 44.2487 87.2249C43.9001 86.0075 42.6131 85.5142 42.6023 85.5088C42.5058 85.4712 42.4575 85.364 42.4897 85.2675C42.5273 85.1709 42.6345 85.1227 42.7364 85.1602C42.7954 85.1817 44.2112 85.7233 44.6134 87.123C44.6402 87.2195 44.5812 87.3268 44.4793 87.3536C44.4632 87.359 44.4471 87.359 44.4311 87.359Z" fill="#D25C48"/>
<path d="M43.1334 86.7472C43.0959 86.7472 43.0637 86.7365 43.0315 86.7151C42.9457 86.6614 42.9189 86.5435 42.9726 86.4576C42.9833 86.4416 43.2085 86.1037 43.6858 85.8946C43.7823 85.8517 43.895 85.8946 43.9379 85.9911C43.9808 86.0823 43.9379 86.1949 43.8413 86.2378C43.4713 86.3987 43.2943 86.6614 43.2943 86.6614C43.2568 86.7151 43.1978 86.7472 43.1334 86.7472Z" fill="#D25C48"/>
<path d="M57.1677 84.5441C57.1677 84.5441 58.4012 82.9299 59.3182 84.2652C60.2352 85.6006 58.9374 89.5369 56.6904 88.5769L57.1677 84.5441Z" fill="#F9856B"/>
<path d="M57.1837 87.359C57.2642 87.359 57.3446 87.3053 57.3661 87.2249C57.7146 86.0075 59.0017 85.5142 59.0124 85.5088C59.109 85.4712 59.1572 85.364 59.1251 85.2675C59.0875 85.1709 58.9803 85.1227 58.8784 85.1602C58.8194 85.1817 57.4036 85.7233 57.0014 87.123C56.9746 87.2195 57.0336 87.3268 57.1355 87.3536C57.1516 87.359 57.1676 87.359 57.1837 87.359Z" fill="#D25C48"/>
<path d="M58.4816 86.7472C58.5191 86.7472 58.5513 86.7365 58.5835 86.7151C58.6693 86.6614 58.6961 86.5435 58.6425 86.4576C58.6317 86.4416 58.4065 86.1037 57.9292 85.8946C57.8327 85.8517 57.7201 85.8946 57.6772 85.9911C57.6343 86.0823 57.6772 86.1949 57.7737 86.2378C58.1437 86.3987 58.3207 86.6614 58.3207 86.6614C58.3582 86.7151 58.4226 86.7472 58.4816 86.7472Z" fill="#D25C48"/>
<path d="M53.8481 91.918V95.8328C53.8481 95.8328 52.6575 97.8278 51.0433 97.9618C49.4345 98.1013 48.0026 96.2457 48.0026 96.2457V92.1915L53.8481 91.918Z" fill="#F9A38F"/>
<path d="M53.8481 91.918V93.6555C52.7648 94.83 50.8449 95.1249 48.0026 94.712V92.1915L53.8481 91.918Z" fill="#F9856B"/>
<path d="M43.7876 84.4206C43.8466 85.2519 43.9485 86.126 44.1147 87.0001C44.651 89.8853 45.8576 92.7276 48.4586 93.6393C54.3469 95.6986 56.4545 90.7487 57.2965 87.8635C57.3876 87.5418 57.4734 87.1878 57.5432 86.8071C57.6772 86.1206 57.7791 85.3538 57.8596 84.5815C57.9561 83.643 58.0204 82.6938 58.058 81.8626C58.1438 80.1089 57.0712 78.4947 55.3927 77.8619C52.9794 76.9503 49.3059 76.2316 45.8308 78.1676C44.5437 78.8809 43.7393 80.2001 43.7125 81.6481C43.7018 82.4257 43.7125 83.3856 43.7876 84.4206Z" fill="#F9A38F"/>
<path d="M43.7875 84.4209C43.8465 85.2521 43.9484 86.1263 44.1147 87.0004C44.6509 89.8856 45.8576 92.7279 48.4585 93.6395C54.3469 95.6988 56.4545 90.749 57.2964 87.8638C57.3876 87.542 57.4734 87.1881 57.5431 86.8073C57.6772 86.1209 57.7791 85.354 57.8595 84.5818H57.0015C56.8245 85.1181 55.8645 88.3947 55.5535 88.8613C54.8832 87.29 51.4831 88.3304 51.4831 88.3304L51.4671 88.3357C51.2633 88.4001 51.0488 88.4323 50.8342 88.4323C50.6144 88.4323 50.3945 88.3947 50.1854 88.3304C50.1854 88.3304 46.8229 87.2417 46.1311 88.7433C45.8254 88.2767 44.7207 84.9411 44.5222 84.5818L43.7875 84.4209ZM50.8235 89.0383C54.6686 88.5288 54.0626 90.5559 54.0626 90.5559C53.6336 90.9367 53.2475 91.2156 52.9847 91.3603C52.1428 91.8162 51.3169 91.9932 50.7163 91.9663C50.1264 91.9395 49.9655 92.0629 48.4746 91.2692C48.2118 91.1297 47.9437 90.926 47.6863 90.6793C47.6219 90.2878 46.9677 88.3894 50.8235 89.0383Z" fill="#2A3554"/>
<path d="M48.2816 85.0589C48.2816 85.4772 48.0617 85.815 47.7882 85.815C47.5147 85.815 47.2948 85.4772 47.2948 85.0589C47.2948 84.6406 47.5147 84.3027 47.7882 84.3027C48.0617 84.3027 48.2816 84.6406 48.2816 85.0589Z" fill="#2A3554"/>
<path d="M54.0733 85.0423C54.0733 85.4606 53.8534 85.7984 53.5799 85.7984C53.3064 85.7984 53.0865 85.4606 53.0865 85.0423C53.0865 84.624 53.3064 84.2861 53.5799 84.2861C53.8534 84.2861 54.0733 84.624 54.0733 85.0423Z" fill="#2A3554"/>
<path d="M45.8416 82.9198C45.8416 82.9198 47.724 82.1904 49.1719 82.8018L49.0271 83.5901C49.0271 83.5901 46.8981 83.4131 45.8309 83.8368C45.7344 83.5419 45.7183 83.2308 45.8416 82.9198Z" fill="#2A3554"/>
<path d="M55.205 82.9198C55.205 82.9198 53.3226 82.1904 51.8747 82.8018L52.0195 83.5901C52.0195 83.5901 54.1485 83.4131 55.2157 83.8368C55.3122 83.5419 55.323 83.2308 55.205 82.9198Z" fill="#2A3554"/>
<path d="M50.8719 87.987C51.1937 87.987 51.5101 87.8637 51.5583 87.8476C51.6549 87.8101 51.7031 87.7028 51.6602 87.6063C51.6227 87.5098 51.5101 87.4669 51.4135 87.5044C51.2419 87.5741 50.829 87.6814 50.652 87.5741C50.6198 87.5527 50.5716 87.5151 50.5609 87.4025C50.4911 86.7536 50.6735 84.5763 50.6735 84.5549C50.6842 84.453 50.6038 84.3618 50.5019 84.3564C50.3946 84.3457 50.3034 84.4262 50.2981 84.528C50.2927 84.6192 50.1104 86.7643 50.1855 87.4454C50.2123 87.7028 50.3517 87.8369 50.459 87.9012C50.5823 87.9656 50.7271 87.987 50.8719 87.987Z" fill="#F9856B"/>
<path d="M48.2815 89.3545C48.437 90.1214 48.9518 91.5264 50.6894 91.5264C52.4323 91.5264 52.9203 90.2394 53.0866 89.3545H48.2815Z" fill="#FFF9FF"/>
<path d="M57.8596 84.5818H56.9962C57.0927 83.7345 57.2268 82.2437 56.5189 82.0292C54.2772 81.3534 57.1839 79.8036 56.1703 79.026C55.1567 78.2484 52.6362 78.5809 50.888 78.5272C49.1236 78.4736 46.292 78.4951 45.6056 78.6506C44.9138 78.8061 45.2946 79.9269 45.5466 80.7957C45.7987 81.6645 44.6993 82.6244 44.517 83.52C44.4633 83.7774 44.4741 84.1635 44.517 84.5765H43.7983C43.7125 83.4825 43.7018 82.4635 43.7179 81.6377C43.7447 80.1897 44.5491 78.8705 45.8362 78.1572C49.3113 76.2266 52.9848 76.9452 55.3981 77.8569C57.0766 78.4897 58.1492 80.0986 58.0634 81.8575C58.0205 82.6941 57.9615 83.6434 57.8596 84.5818Z" fill="#2A3554"/>
<path d="M50.0193 84.5383C50.0193 84.4203 49.9871 84.3023 49.9388 84.2004C49.8048 83.9216 49.5205 83.7285 49.188 83.7285H46.2653C46.0347 83.7285 45.8309 83.8197 45.6808 83.9698C45.6003 84.0503 45.536 84.1522 45.4931 84.2648C45.4555 84.356 45.4395 84.4579 45.4395 84.5598V84.9351C45.4395 85.568 45.6861 86.174 46.1205 86.5976C46.5549 87.0159 47.0429 87.2358 47.5899 87.2465H47.665C48.2925 87.2465 48.877 87.0052 49.3221 86.5601C49.7726 86.1096 50.0193 85.5143 50.0193 84.8762V84.5598C50.0193 84.5544 50.0193 84.549 50.0193 84.5383ZM49.6761 84.8762C49.6761 85.4232 49.4615 85.9326 49.0808 86.3134C48.7 86.6888 48.1959 86.8979 47.665 86.8979H47.5953C47.1448 86.8872 46.7265 86.7049 46.3619 86.3456C45.9918 85.9863 45.7827 85.4714 45.7827 84.9298V84.5544C45.7827 84.2863 45.9972 84.0664 46.2707 84.0664H49.1934C49.4615 84.0664 49.6814 84.2809 49.6814 84.5544V84.8762H49.6761Z" fill="#FFF9FF"/>
<path d="M55.8379 84.3394C55.8057 84.2268 55.7521 84.1195 55.677 84.0337C55.5268 83.8514 55.2962 83.7334 55.0388 83.7334H52.1161C51.7782 83.7334 51.4833 83.9372 51.3546 84.2321C51.3117 84.3287 51.2849 84.4359 51.2849 84.5485C51.2849 84.5539 51.2849 84.5593 51.2849 84.5646V84.94C51.2849 85.5728 51.5315 86.1788 51.9659 86.6025C52.395 87.0208 52.8883 87.2407 53.43 87.2514H53.5104C54.1379 87.2514 54.7224 87.0101 55.1675 86.565C55.618 86.1145 55.8647 85.5192 55.8647 84.881V84.5646C55.87 84.4842 55.8647 84.4091 55.8379 84.3394ZM55.5268 84.8757C55.5268 85.4227 55.3123 85.9321 54.9262 86.3129C54.5454 86.6883 54.0467 86.8974 53.5104 86.8974H53.4407C52.9902 86.8867 52.5719 86.7044 52.2073 86.3451C51.8426 85.9858 51.6281 85.4709 51.6281 84.9293V84.5539C51.6281 84.2858 51.8479 84.0659 52.1161 84.0659H55.0388C55.3069 84.0659 55.5268 84.2804 55.5268 84.5539V84.8757Z" fill="#FFF9FF"/>
<path d="M43.7554 83.9333C44.5705 84.0352 44.8548 84.1318 45.1497 84.2712C45.2409 84.3141 45.4661 84.4482 45.4715 84.4482L45.6377 84.1532C45.627 84.1479 45.4179 84.0138 45.3428 83.9763C44.9781 83.7939 43.9592 83.4561 42.951 83.7617C42.9456 83.7617 43.4068 83.7403 43.7554 83.9333Z" fill="#FFF9FF"/>
<path d="M57.924 83.8944C57.082 83.9373 56.4599 84.1303 56.165 84.2644C56.0738 84.3073 55.8485 84.4414 55.8432 84.4414L55.6769 84.1464C55.6877 84.1411 55.8968 84.007 55.9719 83.9694C56.3366 83.7871 57.4949 83.4224 58.5085 83.7335C58.5139 83.7389 58.2725 83.7013 57.924 83.8944Z" fill="#FFF9FF"/>
<path d="M49.7886 84.5759L49.676 84.2488C49.6975 84.2434 50.1801 84.0771 50.711 84.0771C51.2795 84.0771 51.6388 84.2488 51.6549 84.2595L51.5047 84.5705C51.5047 84.5705 51.1937 84.4257 50.711 84.4257C50.2391 84.4204 49.794 84.5759 49.7886 84.5759Z" fill="#FFF9FF"/>
<path d="M217.446 183.219H174.838C175.541 178.945 178.935 175.84 182.882 175.851L196.139 175.888L209.396 175.851C213.354 175.84 216.743 178.945 217.446 183.219Z" fill="#FF495A"/>
<path d="M180.512 182.608H178.19V218.593H180.512V182.608Z" fill="#FF495A"/>
<path d="M214.094 182.608H211.772V218.593H214.094V182.608Z" fill="#FF495A"/>
<path d="M211.777 193.741H180.512V195.978H211.777V193.741Z" fill="#E21C47"/>
<path d="M203.287 148.377L208.221 166.74C208.221 166.74 203.888 168.772 197.195 169.153C196.562 169.19 195.908 169.212 195.232 169.212C194.584 169.217 193.956 169.206 193.339 169.185C186.582 168.944 182.051 167.34 182.051 167.34L187.295 148.356L182.356 132.922L192.213 129.082H197.635L208.366 133.018L203.287 148.377Z" fill="#7C3CDF"/>
<path d="M194.9 134.022C190.974 134.022 190.717 129.517 190.717 129.474C190.712 129.329 190.824 129.206 190.964 129.2C191.108 129.195 191.232 129.308 191.237 129.447C191.242 129.613 191.473 133.496 194.895 133.496C198.396 133.496 198.707 129.715 198.718 129.554C198.729 129.41 198.852 129.302 198.997 129.313C199.142 129.324 199.249 129.447 199.238 129.592C199.244 129.64 198.884 134.022 194.9 134.022Z" fill="#FFF9FF"/>
<path d="M188.743 138.901H188.749C192.733 138.778 195.806 137.153 197.683 135.812C199.716 134.359 200.794 132.959 200.836 132.9C200.912 132.798 200.89 132.659 200.788 132.584C200.686 132.509 200.542 132.53 200.461 132.632C200.418 132.686 196.123 138.22 188.733 138.451C188.604 138.456 188.502 138.558 188.507 138.687C188.518 138.805 188.62 138.901 188.743 138.901Z" fill="#5320B1"/>
<path d="M182.362 132.922C182.362 132.922 177.374 139.835 177.852 148.217C178.291 155.853 184.115 160.937 184.115 160.937L186.373 157.253C186.373 157.253 183.82 152.796 183.697 148.222C183.568 143.647 184.936 140.977 184.936 140.977L182.362 132.922Z" fill="#7C3CDF"/>
<path d="M208.377 133.019C208.377 133.019 212.897 139.781 213.364 147.418C213.83 155.054 207.867 160.937 207.867 160.937L205.609 157.253C205.609 157.253 207.835 153.188 207.964 148.614C208.092 144.039 205.427 140.977 205.427 140.977L208.377 133.019Z" fill="#7C3CDF"/>
<path d="M197.201 169.153C196.568 169.191 195.914 169.212 195.238 169.212C194.589 169.217 193.961 169.207 193.345 169.185L195.173 156.674L197.201 169.153Z" fill="#FFF9FF"/>
<path d="M181.568 171.995C181.568 171.995 187.526 178.098 195.651 178.098C205.519 178.098 209.728 173.132 209.728 173.132L208.227 166.739L181.788 167.302L181.568 171.995Z" fill="#021019"/>
<path d="M200.392 211.454L200.558 215.165L204.135 214.42V211.331L200.392 211.454Z" fill="#F9A38F"/>
<path d="M196.171 175.272C196.075 174.387 196.23 173.492 196.386 172.617C196.938 169.502 198.735 163.152 204.113 163.871C211.208 164.82 209.047 178.307 209.047 178.307L204.451 211.321L199.914 211.492C199.914 211.492 197.984 192.24 196.171 175.272Z" fill="#021019"/>
<path d="M205.256 209.578L199.459 210.013L199.545 212.313C199.545 212.313 203.379 212.104 204.859 211.932L205.256 209.578Z" fill="#2A3554"/>
<path d="M174.811 163.951C174.811 163.951 181.273 173.604 188.647 177.422C196.525 181.503 200.236 174.022 200.236 174.022C200.236 174.022 182.678 161.693 174.811 163.951Z" fill="#021019"/>
<path d="M209.535 162.171H180.995L178.356 146.748C178.125 145.412 179.155 144.189 180.512 144.189H210.013C211.369 144.189 212.399 145.407 212.168 146.748L209.535 162.171Z" fill="#22D4B8"/>
<path d="M207.824 165.528H182.743C181.783 165.528 181 164.75 181 163.785V162.171H209.567V163.785C209.562 164.745 208.784 165.528 207.824 165.528Z" fill="#00A8A0"/>
<path d="M198.032 153.821C198.032 155.189 196.922 156.299 195.554 156.299C194.187 156.299 193.077 155.189 193.077 153.821C193.077 152.454 194.187 151.344 195.554 151.344C196.927 151.338 198.032 152.449 198.032 153.821Z" fill="#00A8A0"/>
<path d="M213.906 176.071L217.536 176.865L218.115 173.733L214.758 172.419L213.906 176.071Z" fill="#F9A38F"/>
<path d="M215.52 172.789C215.102 174.794 214.71 175.288 214.201 176.339C214.201 176.339 184.609 169.292 179.681 167.319C177.82 166.573 175.975 165.275 174.645 163.774C174.345 163.431 174.066 163.082 173.824 162.723C172.307 160.497 172.044 158.03 174.452 156.341C178.935 153.193 184.271 156.373 184.271 156.373C184.271 156.373 190.39 157.178 201.48 164.246C206.35 167.345 215.52 172.789 215.52 172.789Z" fill="#2A3554"/>
<path d="M213.455 175.003L213.326 175.513C213.112 175.459 192.036 170.016 184.094 167.501C179.659 166.096 176.65 164.803 174.65 163.774C174.35 163.431 174.071 163.082 173.829 162.723C175.739 163.817 178.972 165.329 184.255 167.002C192.176 169.512 213.241 174.95 213.455 175.003Z" fill="#021019"/>
<path d="M213.89 171.229L212.613 176.291L214.592 176.656C214.592 176.656 215.633 173.433 215.906 172.124L213.89 171.229Z" fill="#524E82"/>
<path d="M188.454 120.217C188.454 120.217 185.628 115.385 188.009 111.653C190.395 107.92 195.458 108.274 196.772 108.564C198.085 108.859 205.636 112.398 201.067 120.989L188.454 120.217Z" fill="#2A3554"/>
<path d="M188.926 118.85C188.926 118.85 187.783 117.322 186.931 118.588C186.078 119.848 187.285 123.575 189.365 122.669L188.926 118.85Z" fill="#F9856B"/>
<path d="M188.91 121.516C188.834 121.516 188.759 121.467 188.738 121.387C188.416 120.234 187.22 119.767 187.21 119.767C187.118 119.735 187.075 119.633 187.108 119.542C187.14 119.451 187.242 119.408 187.333 119.44C187.386 119.462 188.7 119.971 189.076 121.296C189.103 121.387 189.049 121.489 188.952 121.51C188.942 121.51 188.926 121.516 188.91 121.516Z" fill="#D25C48"/>
<path d="M187.708 120.931C187.676 120.931 187.644 120.92 187.612 120.904C187.531 120.85 187.504 120.743 187.558 120.663C187.569 120.646 187.778 120.325 188.218 120.132C188.303 120.094 188.411 120.132 188.448 120.223C188.486 120.314 188.448 120.416 188.357 120.453C188.014 120.604 187.848 120.856 187.848 120.856C187.821 120.904 187.767 120.931 187.708 120.931Z" fill="#D25C48"/>
<path d="M200.724 118.85C200.724 118.85 201.866 117.322 202.719 118.588C203.572 119.848 202.365 123.575 200.284 122.669L200.724 118.85Z" fill="#F9856B"/>
<path d="M200.735 121.516C200.81 121.516 200.885 121.467 200.906 121.387C201.228 120.234 202.419 119.767 202.435 119.767C202.526 119.735 202.569 119.633 202.537 119.542C202.505 119.451 202.403 119.408 202.312 119.44C202.258 119.462 200.944 119.971 200.569 121.296C200.542 121.387 200.595 121.489 200.692 121.51C200.708 121.51 200.724 121.516 200.735 121.516Z" fill="#D25C48"/>
<path d="M201.942 120.931C201.974 120.931 202.006 120.92 202.038 120.904C202.118 120.85 202.145 120.743 202.092 120.663C202.081 120.646 201.872 120.325 201.432 120.132C201.346 120.094 201.239 120.132 201.201 120.223C201.164 120.314 201.201 120.416 201.293 120.453C201.636 120.604 201.802 120.856 201.802 120.856C201.824 120.904 201.883 120.931 201.942 120.931Z" fill="#D25C48"/>
<path d="M197.64 125.827V129.533C197.64 129.533 196.536 131.421 195.039 131.549C193.548 131.678 192.219 129.924 192.219 129.924V126.09L197.64 125.827Z" fill="#F9A38F"/>
<path d="M197.64 125.827V127.474C196.637 128.589 194.857 128.862 192.219 128.476V126.09L197.64 125.827Z" fill="#F9856B"/>
<path d="M201.55 116.308C201.48 117.75 201.346 119.547 201.067 120.99C200.997 121.349 200.922 121.687 200.837 121.992C200.059 124.722 198.107 129.409 192.642 127.457C190.229 126.594 189.113 123.907 188.615 121.177C188.277 119.322 188.223 117.445 188.25 116.104C188.277 114.737 189.022 113.487 190.213 112.811C193.436 110.983 196.841 111.664 199.078 112.527C200.633 113.117 201.63 114.645 201.55 116.308Z" fill="#F9A38F"/>
<path d="M193.35 111.031C193.35 111.031 200.558 122.593 201.55 118.351C202.96 112.34 198.654 108.623 193.35 111.031Z" fill="#2A3554"/>
<path d="M193.055 111.031C188.261 111.069 185.874 116.517 188.1 117.161C191.194 118.057 193.881 113.675 194.707 112.157C194.144 111.787 193.586 111.423 193.055 111.031Z" fill="#2A3554"/>
<path d="M201.725 109.219C202.163 106.634 200.422 104.185 197.838 103.747C195.253 103.309 192.803 105.049 192.366 107.634C191.928 110.218 193.668 112.668 196.253 113.106C198.837 113.544 201.287 111.803 201.725 109.219Z" fill="#2A3554"/>
<path d="M189.087 116.64C189.087 116.64 189.596 118.088 189.087 119.064C188.577 120.04 188.99 121.708 189.221 123.591C189.221 123.591 188.143 122.448 188.094 120.614C188.046 118.78 188.346 117.252 188.094 116.522L189.087 116.64Z" fill="#2A3554"/>
<path d="M200.413 116.64C200.413 116.64 200.037 118.088 200.547 119.064C201.056 120.04 200.509 121.735 200.279 123.617C200.279 123.617 201.357 122.448 201.405 120.614C201.453 118.78 201.153 117.252 201.405 116.522L200.413 116.64Z" fill="#2A3554"/>
<path d="M192.417 119.284C192.417 119.681 192.213 120.003 191.961 120.003C191.709 120.003 191.505 119.681 191.505 119.284C191.505 118.887 191.709 118.565 191.961 118.565C192.213 118.571 192.417 118.887 192.417 119.284Z" fill="#2A3554"/>
<path d="M198.042 119.284C198.042 119.681 197.839 120.003 197.587 120.003C197.334 120.003 197.131 119.681 197.131 119.284C197.131 118.887 197.334 118.565 197.587 118.565C197.839 118.571 198.042 118.887 198.042 119.284Z" fill="#2A3554"/>
<path d="M191.06 116.936C191.441 116.829 192.202 116.646 193.007 116.646C193.221 116.646 193.382 116.834 193.345 117.043V117.049C193.313 117.215 193.168 117.333 192.996 117.328C192.449 117.301 191.007 117.381 190.331 117.655C190.315 117.537 190.384 117.408 190.486 117.29C190.636 117.113 190.84 116.995 191.06 116.936Z" fill="#2A3554"/>
<path d="M198.423 116.952C198.043 116.844 197.281 116.662 196.477 116.662C196.262 116.662 196.101 116.85 196.139 117.059V117.064C196.171 117.231 196.316 117.349 196.487 117.343C197.034 117.316 198.477 117.397 199.153 117.67C199.169 117.552 199.099 117.424 198.997 117.306C198.847 117.129 198.643 117.011 198.423 116.952Z" fill="#2A3554"/>
<path d="M194.884 122.336C194.75 122.336 194.616 122.314 194.503 122.244C194.401 122.185 194.272 122.057 194.245 121.815C194.181 121.166 194.342 119.139 194.353 119.054C194.358 118.957 194.444 118.882 194.54 118.893C194.637 118.898 194.712 118.984 194.701 119.08C194.701 119.102 194.53 121.161 194.594 121.778C194.605 121.885 194.648 121.923 194.68 121.944C194.846 122.041 195.227 121.944 195.388 121.88C195.479 121.842 195.581 121.885 195.618 121.976C195.656 122.067 195.613 122.169 195.522 122.207C195.479 122.218 195.184 122.336 194.884 122.336Z" fill="#F9856B"/>
<path d="M192.706 123.446C192.84 124.117 193.28 125.35 194.771 125.35C196.267 125.35 196.686 124.224 196.83 123.446H192.706Z" fill="#FFF9FF"/>
<path d="M194.75 126.379C194.321 126.379 193.94 126.149 193.924 126.138C193.843 126.084 193.816 125.977 193.865 125.897C193.918 125.816 194.026 125.789 194.106 125.838C194.111 125.838 194.417 126.025 194.75 126.025C195.104 126.025 195.425 125.838 195.425 125.838C195.511 125.789 195.618 125.816 195.667 125.897C195.715 125.977 195.688 126.09 195.608 126.138C195.592 126.149 195.205 126.379 194.75 126.379Z" fill="#F9856B"/>
<path d="M194.02 118.657C194.02 118.534 193.988 118.411 193.935 118.303C193.795 118.008 193.495 117.805 193.152 117.805H190.089C189.848 117.805 189.634 117.901 189.473 118.062C189.387 118.148 189.317 118.25 189.274 118.368C189.237 118.464 189.215 118.566 189.215 118.673V119.065C189.215 119.73 189.473 120.363 189.929 120.802C190.379 121.242 190.899 121.473 191.468 121.484H191.548C192.202 121.484 192.819 121.232 193.286 120.765C193.758 120.293 194.02 119.671 194.02 119.001V118.668C194.026 118.673 194.026 118.663 194.02 118.657ZM193.661 119.011C193.661 119.58 193.436 120.116 193.034 120.518C192.637 120.915 192.111 121.13 191.548 121.13H191.473C191.001 121.119 190.567 120.926 190.181 120.55C189.795 120.175 189.575 119.633 189.575 119.07V118.679C189.575 118.395 189.8 118.169 190.084 118.169H193.146C193.425 118.169 193.656 118.395 193.656 118.679V119.011H193.661Z" fill="#FFF9FF"/>
<path d="M200.413 118.442C200.381 118.324 200.322 118.211 200.247 118.12C200.086 117.927 199.845 117.804 199.577 117.804H196.514C196.16 117.804 195.855 118.018 195.721 118.324C195.672 118.426 195.651 118.538 195.646 118.656C195.646 118.662 195.646 118.667 195.646 118.672V119.064C195.646 119.729 195.908 120.362 196.359 120.802C196.809 121.241 197.33 121.472 197.893 121.483H197.973C198.627 121.483 199.244 121.231 199.711 120.764C200.183 120.292 200.445 119.67 200.445 119V118.667C200.445 118.597 200.435 118.517 200.413 118.442ZM200.086 119.01C200.086 119.579 199.861 120.115 199.459 120.517C199.062 120.914 198.536 121.129 197.978 121.129H197.903C197.431 121.118 196.997 120.925 196.611 120.549C196.225 120.174 196.005 119.632 196.005 119.069V118.678C196.005 118.394 196.236 118.168 196.514 118.168H199.577C199.855 118.168 200.086 118.394 200.086 118.678V119.01Z" fill="#FFF9FF"/>
<path d="M193.849 118.694L193.731 118.351C193.752 118.346 194.262 118.169 194.814 118.169C195.41 118.169 195.79 118.351 195.806 118.357L195.651 118.684C195.651 118.684 195.324 118.528 194.82 118.528C194.321 118.528 193.854 118.689 193.849 118.694Z" fill="#FFF9FF"/>
<path d="M201.888 214.212C201.888 214.212 203.743 213.632 204.264 213.616C204.784 213.6 208.441 217.247 209.621 217.418C211.766 217.724 211.916 220.974 210.635 221.194C206.918 221.837 200.451 220.588 200.451 220.588C200.451 220.588 199.668 216.448 199.861 215.129C200.054 213.809 200.864 214.646 201.888 214.212Z" fill="#22D4B8"/>
<path d="M205.149 217.622C205.084 217.638 205.009 217.633 204.945 217.595C204.821 217.52 204.784 217.364 204.859 217.246C204.886 217.209 205.476 216.26 206.248 215.906C207.272 215.428 208.045 216.013 208.077 216.034C208.189 216.12 208.211 216.281 208.12 216.388C208.034 216.501 207.868 216.517 207.755 216.431C207.733 216.415 207.197 216.024 206.463 216.362C205.835 216.651 205.304 217.498 205.299 217.509C205.267 217.568 205.213 217.606 205.149 217.622Z" fill="#FFF9FF"/>
<path d="M204.398 216.886C204.334 216.903 204.258 216.897 204.194 216.86C204.071 216.785 204.033 216.629 204.108 216.511C204.135 216.474 204.725 215.524 205.497 215.17C206.522 214.693 207.294 215.278 207.326 215.299C207.439 215.385 207.46 215.546 207.369 215.653C207.283 215.766 207.117 215.782 207.004 215.696C206.983 215.68 206.446 215.288 205.712 215.626C205.079 215.916 204.553 216.763 204.548 216.774C204.516 216.833 204.462 216.87 204.398 216.886Z" fill="#FFF9FF"/>
<path d="M206.178 218.226C206.114 218.242 206.039 218.237 205.974 218.2C205.851 218.124 205.813 217.969 205.888 217.851C205.915 217.813 206.505 216.864 207.277 216.51C208.302 216.033 209.074 216.617 209.106 216.639C209.219 216.725 209.24 216.886 209.149 216.993C209.063 217.105 208.897 217.122 208.784 217.036C208.763 217.02 208.227 216.628 207.492 216.966C206.859 217.256 206.334 218.103 206.328 218.114C206.296 218.173 206.242 218.21 206.178 218.226Z" fill="#FFF9FF"/>
<path d="M217.091 175.406C217.091 175.406 217.998 173.679 218.368 173.298C218.738 172.917 224.219 172.88 225.211 172.161C227.013 170.853 229.63 173.03 228.863 174.103C226.643 177.202 220.958 180.929 220.958 180.929C220.958 180.929 217.193 178.57 216.319 177.503C215.445 176.43 216.678 176.441 217.091 175.406Z" fill="#22D4B8"/>
<path d="M222.106 175.486C222.073 175.545 222.009 175.593 221.939 175.61C221.795 175.647 221.644 175.561 221.607 175.427C221.596 175.379 221.296 174.29 221.585 173.491C221.966 172.424 222.98 172.285 223.023 172.279C223.173 172.258 223.307 172.36 223.328 172.499C223.35 172.639 223.243 172.767 223.098 172.789C223.071 172.794 222.374 172.901 222.1 173.657C221.864 174.312 222.132 175.288 222.132 175.293C222.148 175.363 222.138 175.427 222.106 175.486Z" fill="#FFF9FF"/>
<path d="M220.99 175.503C220.958 175.562 220.894 175.61 220.824 175.626C220.679 175.664 220.529 175.578 220.491 175.444C220.481 175.396 220.18 174.307 220.47 173.508C220.856 172.441 221.864 172.301 221.907 172.296C222.057 172.274 222.191 172.376 222.213 172.516C222.234 172.655 222.127 172.784 221.982 172.805C221.955 172.811 221.258 172.918 220.985 173.674C220.749 174.328 221.017 175.304 221.017 175.31C221.033 175.379 221.022 175.449 220.99 175.503Z" fill="#FFF9FF"/>
<path d="M223.323 175.181C223.291 175.24 223.226 175.288 223.157 175.304C223.012 175.341 222.862 175.256 222.824 175.122C222.813 175.073 222.513 173.985 222.803 173.186C223.183 172.118 224.197 171.979 224.24 171.974C224.39 171.952 224.524 172.054 224.546 172.193C224.567 172.333 224.46 172.462 224.315 172.483C224.288 172.488 223.591 172.596 223.318 173.352C223.082 174.006 223.35 174.982 223.35 174.987C223.366 175.057 223.355 175.122 223.323 175.181Z" fill="#FFF9FF"/>
<path d="M166.606 221.784H156.674C155.323 221.784 154.127 220.915 153.709 219.628L149.499 206.666C149.327 206.135 149.697 205.583 150.255 205.54C157.924 204.945 165.517 204.945 173.036 205.54C173.594 205.583 173.958 206.135 173.787 206.666L169.577 219.634C169.153 220.915 167.958 221.784 166.606 221.784Z" fill="#FF495A"/>
<path d="M161.71 207.106C167.891 207.106 172.902 206.827 172.902 206.483C172.902 206.14 167.891 205.861 161.71 205.861C155.529 205.861 150.518 206.14 150.518 206.483C150.518 206.827 155.529 207.106 161.71 207.106Z" fill="#2A3554"/>
<path d="M162.166 206.484V190.31C162.166 190.02 161.93 189.784 161.641 189.784C161.351 189.784 161.115 190.02 161.115 190.31V206.484C161.464 206.688 161.812 206.682 162.166 206.484Z" fill="#00A8A0"/>
<path d="M161.641 194.117C161.641 194.117 162.633 186.941 171.819 186.941C171.819 186.941 170.248 197.093 161.641 194.117Z" fill="#22D4B8"/>
<path d="M162.112 196.321C162.112 196.321 161.12 189.146 151.934 189.146C151.934 189.146 153.505 199.292 162.112 196.321Z" fill="#22D4B8"/>
<path d="M162.214 202.693C162.214 202.693 159.86 195.844 150.851 197.603C150.851 197.603 154.342 207.262 162.214 202.693Z" fill="#22D4B8"/>
<path d="M161.635 202.633C161.635 202.633 168.381 205.26 172.859 197.238C172.859 197.238 163.228 193.671 161.635 202.633Z" fill="#22D4B8"/>
</svg>
