<svg width="277" height="172" viewBox="0 0 277 172" fill="none" xmlns="http://www.w3.org/2000/svg">
<path d="M104.878 42.1673L35.5843 2.16047C31.2075 -0.366573 27.2418 -0.601389 24.3781 1.06276L4.81968 12.4287C4.82873 12.4234 4.83878 12.4194 4.84815 12.4137C2.0049 14.0497 0.240261 17.5485 0.225857 22.5302L8.62004e-05 102.154C-0.0283865 112.148 7.00036 124.322 15.6976 129.343L84.9912 169.35C89.4936 171.949 93.5575 172.117 96.4372 170.294C96.3572 170.344 96.2791 170.399 96.1967 170.447L115.754 159.081C118.582 157.438 120.334 153.945 120.349 148.98L120.574 69.3564C120.604 59.3602 113.575 47.1886 104.878 42.1673Z" fill="#7F33AD"/>
<path d="M115.755 159.081L96.1972 170.446C99.0244 168.803 100.778 165.31 100.791 160.345L120.349 148.979C120.335 153.944 118.582 157.438 115.755 159.081Z" fill="#943EC7"/>
<path d="M4.8197 12.4284L24.3775 1.06276C27.2411 -0.601389 31.2069 -0.366573 35.5837 2.16047L16.0259 13.5261C11.6491 10.9991 7.68372 10.7639 4.8197 12.4284Z" fill="#A258CB"/>
<path d="M101.017 80.7214L120.575 69.3555L120.349 148.979L100.791 160.345L101.017 80.7214Z" fill="#A258CB"/>
<path d="M16.0262 13.5261L35.5843 2.16016L104.878 42.167L85.3198 53.5327L16.0262 13.5261Z" fill="#B77FDA"/>
<path d="M85.3195 53.5326L104.877 42.167C113.575 47.1882 120.603 59.3602 120.575 69.3561L101.017 80.7217C101.045 70.7258 94.0167 58.5542 85.3195 53.5326Z" fill="#D5B4E9"/>
<path d="M48.4676 122.086C39.8665 117.12 38.8479 116.494 35.4512 114.353C32.3115 112.378 30.6065 110.788 29.4723 109.625C27.9706 108.087 26.901 106.665 25.7772 104.719C24.6534 102.772 23.9586 101.135 23.3781 99.0691C22.9403 97.5092 22.4221 95.2481 22.2885 91.5543C22.1458 87.5621 22.116 86.3726 22.1438 76.4893C22.1719 66.6059 22.2077 65.4519 22.3729 61.6376C22.527 58.1123 23.0562 56.4558 23.5014 55.4057C24.0916 54.0162 24.7934 53.1852 25.9246 52.5403C27.0558 51.8955 28.1301 51.7123 29.6354 51.9099C30.7727 52.0583 32.481 52.4395 35.6217 54.0896C39.0194 55.8717 40.0377 56.4217 48.6391 61.3877C57.2426 66.3546 58.2609 66.9804 61.6575 69.1212C64.7972 71.0969 66.5026 72.6863 67.6365 73.8497C69.1382 75.3879 70.2077 76.8092 71.3316 78.7557C72.4554 80.7022 73.1501 82.3399 73.7306 84.4053C74.1664 85.9643 74.6867 88.2264 74.8203 91.9178C74.963 95.91 74.9928 97.1018 74.965 106.986C74.9369 116.869 74.901 118.021 74.7359 121.835C74.5818 125.363 74.0506 127.018 73.6074 128.069C73.0172 129.459 72.3154 130.29 71.1842 130.934C70.053 131.579 68.9787 131.763 67.4733 131.565C66.3361 131.417 64.6278 131.035 61.487 129.385C58.0901 127.603 57.0711 127.053 48.4676 122.086ZM48.6589 54.7193C39.9101 49.668 38.813 49.0774 35.3765 47.2729C31.9464 45.4721 29.6029 44.7479 27.5509 44.4779C25.4309 44.2019 23.63 44.4313 21.8336 45.4553C20.0371 46.479 18.9304 47.9087 18.0996 49.8663C17.296 51.7615 16.7443 54.1375 16.5772 57.9887C16.4077 61.8456 16.3671 63.0846 16.3387 73.1375C16.3102 83.1907 16.3437 84.4723 16.4904 88.5118C16.6355 92.5429 17.1717 95.5476 17.9623 98.363C18.7789 101.272 19.874 103.972 21.6591 107.064C23.4441 110.156 25.2376 112.46 27.3523 114.629C29.3996 116.726 31.7391 118.703 35.1682 120.865C38.6037 123.028 39.7 123.704 48.4495 128.755C57.2007 133.808 58.2974 134.398 61.7339 136.203C65.1624 138 67.5075 138.728 69.5576 138.996C71.6796 139.274 73.4804 139.044 75.2772 138.02C77.0737 136.996 78.1804 135.567 79.0112 133.609C79.8148 131.714 80.3665 129.338 80.5336 125.487C80.7008 121.629 80.7437 120.391 80.7721 110.338C80.8006 100.284 80.7651 99.0018 80.6204 94.9637C80.4753 90.9326 79.939 87.9283 79.1485 85.1125C78.3318 82.2039 77.2368 79.5037 75.4517 76.4115C73.6667 73.3197 71.8732 71.0151 69.7562 68.8448C67.7112 66.7492 65.3694 64.7685 61.9426 62.6103C58.5065 60.4474 57.4097 59.7718 48.6589 54.7193Z" fill="white"/>
<path d="M48.5189 104.077C42.5896 100.654 37.7974 92.3536 37.8169 85.5382C37.836 78.7229 42.6596 75.9741 48.5889 79.3972C54.5203 82.8216 59.3124 91.1219 59.293 97.9376C59.2736 104.753 54.4503 107.502 48.5189 104.077ZM48.6077 72.7282C39.4726 67.4537 32.0406 71.6867 32.0108 82.1862C31.981 92.6856 39.3648 105.472 48.4998 110.747C57.6369 116.022 65.0669 111.788 65.0967 101.289C65.1269 90.7893 57.7451 78.0033 48.6077 72.7282Z" fill="white"/>
<path d="M65.8206 77.463C63.6848 76.23 61.9476 77.2199 61.9406 79.6742C61.9335 82.1262 63.659 85.1152 65.7951 86.3482C67.9289 87.5802 69.6661 86.5904 69.6728 84.1384C69.6801 81.684 67.9547 78.6947 65.8206 77.463Z" fill="white"/>
<path d="M261.302 42.1673L192.009 2.16047C187.632 -0.366573 183.667 -0.601389 180.803 1.06276L161.244 12.4287C161.253 12.4234 161.264 12.4194 161.273 12.4137C158.43 14.0497 156.665 17.5485 156.651 22.5302L156.425 102.154C156.396 112.148 163.425 124.322 172.122 129.343L241.416 169.35C245.918 171.949 249.982 172.117 252.862 170.294C252.782 170.344 252.704 170.399 252.621 170.447L272.179 159.081C275.006 157.438 276.759 153.945 276.773 148.98L276.999 69.3564C277.028 59.3602 270 47.1886 261.302 42.1673Z" fill="#6F75E3"/>
<path d="M209.981 70.6112L198.353 63.8977C196.802 63.0023 196.022 63.2452 195.192 63.8816C194.712 64.2498 194.566 64.5851 195.548 65.3692C197.475 66.9014 198.559 68.9665 198.839 71.3509C199.294 75.1773 199.251 78.7189 198.974 82.135C198.891 83.1252 198.731 84.0795 198.371 84.8419C198.02 85.5909 197.535 85.7912 196.931 85.4428C196.565 85.2318 196.156 84.8191 195.707 84.2048C194.631 82.7332 193.875 81.0919 193.136 79.4575C190.36 73.3215 188.152 67.1556 186.349 60.9747C185.826 59.1883 184.927 57.7707 183.562 56.9591C181.881 55.9558 180.201 54.9683 178.523 53.9989C176.844 53.0298 175.166 52.0788 173.487 51.1479C171.466 50.0194 170.861 50.8036 171.677 53.3836C175.307 64.838 179.353 76.2793 184.64 87.6198C187.357 93.4423 190.484 99.0079 194.519 104C198.575 109.018 202.912 112.538 207.468 115.169C208.053 115.506 208.642 115.829 209.233 116.139C211.668 117.417 212.401 117.106 212.521 114.387C212.606 112.523 212.798 110.736 213.619 109.494C214.118 108.741 214.773 108.599 215.53 109.036C216.001 109.308 216.512 109.803 217.049 110.516C217.751 111.447 218.335 112.449 218.897 113.478C220.262 115.991 221.575 118.528 222.994 121.02C224.615 123.862 226.518 126.15 228.857 127.501C229.08 127.63 229.307 127.75 229.537 127.861L239.829 133.809C241.483 134.636 242.353 132.8 241.406 130.129C240.738 128.248 239.863 126.412 238.939 124.591C236.846 120.485 234.379 116.583 232.046 112.603C229.938 109.016 229.808 107.563 231.516 105.819C233.375 103.902 235.381 102.19 237.255 100.298C239.008 98.5252 240.802 96.7911 241.729 94.0004C242.319 92.2204 241.805 90.9893 239.919 89.5315C239.599 89.2813 239.263 89.0813 238.929 88.889L227.738 82.4184C227.707 82.3999 227.676 82.3815 227.645 82.3638C226.323 81.6007 225.582 81.866 225.104 82.9674C224.442 84.4862 223.757 85.9915 222.966 87.3643C221.178 90.4939 219.179 93.3589 216.384 95.1474C215.865 95.4776 215.301 95.9205 214.525 95.4729C214.378 95.3879 214.223 95.2706 214.059 95.1145C212.776 93.8326 212.406 91.1823 212.429 90.3743L212.461 75.525C212.215 73.2639 211.813 72.0851 209.981 70.6112Z" fill="white"/>
<path d="M272.18 159.081L252.622 170.446C255.449 168.803 257.202 165.31 257.216 160.345L276.774 148.979C276.76 153.944 275.006 157.438 272.18 159.081Z" fill="#7C84E7"/>
<path d="M161.244 12.4284L180.802 1.06276C183.666 -0.601389 187.632 -0.366573 192.008 2.16047L172.451 13.5261C168.074 10.9991 164.108 10.7639 161.244 12.4284Z" fill="#989FED"/>
<path d="M257.442 80.7214L277 69.3555L276.774 148.979L257.216 160.345L257.442 80.7214Z" fill="#989FED"/>
<path d="M172.451 13.5261L192.009 2.16016L261.302 42.167L241.745 53.5327L172.451 13.5261Z" fill="#A8ADEF"/>
<path d="M241.745 53.5326L261.302 42.167C270 47.1882 277.028 59.3602 277 69.3561L257.442 80.7217C257.47 70.7258 250.442 58.5542 241.745 53.5326Z" fill="#C5C8F5"/>
</svg>
