<svg width="36" height="75" viewBox="0 0 36 75" fill="none" xmlns="http://www.w3.org/2000/svg">
<path d="M3.07902 47.0083C1.37795 47.0083 -0.00018692 48.3864 -0.00018692 50.0875C-0.00018692 50.938 0.343527 51.7086 0.90148 52.2649C1.45943 52.8212 2.22849 53.1666 3.07887 53.1666H3.77616H9.0519C10.7513 53.1666 12.1311 51.7884 12.1311 50.0874C12.1311 49.2368 11.7857 48.4663 11.2294 47.91C10.6715 47.3537 9.90094 47.0083 9.05205 47.0083H3.07902Z" fill="#EB9C8D"/>
<path d="M0.650012 50.319C1.20796 50.8753 1.97702 51.2207 2.8274 51.2207H3.5244H8.80013C10.2934 51.2207 11.5389 50.1564 11.8194 48.7441C12.0169 49.1505 12.1311 49.6051 12.1311 50.0873C12.1311 51.7884 10.7515 53.1665 9.0519 53.1665H3.77631H3.07932C2.22879 53.1665 1.45988 52.8211 0.901928 52.2648C0.343975 51.7085 0.000261307 50.938 0.000261307 50.0874C0.000261307 49.8814 0.0201454 49.6821 0.058569 49.4875C0.20912 49.7974 0.408562 50.0783 0.650012 50.319Z" fill="#D78878"/>
<path d="M33.8653 65.5382H30.8411L24.5353 68.4862C23.4043 69.015 22.1353 69.2922 20.8453 69.2922H14.3534H8.74841V47.8965H33.8656C34.7773 47.8965 35.5163 48.5266 35.5161 49.3039L35.516 64.1308C35.516 64.9081 34.777 65.5382 33.8653 65.5382Z" fill="#EB9C8D"/>
<path d="M20.8455 65.8618C22.1353 65.8618 23.4043 65.5846 24.5353 65.0558L30.8411 62.1079H33.8653C34.7768 62.1079 35.5158 61.4777 35.5158 60.7004L35.5161 49.3032V49.3038L35.516 64.1307C35.516 64.908 34.777 65.5381 33.8654 65.5381H30.8411L24.5353 68.4861C23.4043 69.0149 22.1353 69.2921 20.8455 69.2921H14.3535H8.74857V65.8618H14.3535H20.8455Z" fill="#D78878"/>
<path d="M25.8985 47.8961V53.23C25.8985 55.9775 23.9556 58.3425 21.2599 58.8731L21.255 58.874C20.8136 58.9268 20.3674 58.9534 19.9287 58.9534C18.2737 58.9534 16.6701 58.5774 15.2216 57.8913C14.9254 58.6524 14.4716 59.3503 13.8771 59.9449C12.7493 61.0726 11.2492 61.6938 9.65323 61.6938L9.57803 61.6934C9.29637 61.6899 9.01963 61.665 8.74843 61.6228V47.896H25.8985V47.8961Z" fill="#D78878"/>
<path d="M12.4056 74.6651H16.4196C16.8702 74.6651 17.2356 74.2997 17.2356 73.8491V21.6177H11.5896V73.8491C11.5897 74.2997 11.9549 74.6651 12.4056 74.6651Z" fill="#BAAFB9"/>
<path d="M11.5896 56.7251C12.359 56.9698 13.0653 57.3958 13.6551 57.9839C14.6224 58.9512 15.155 60.2374 15.155 61.6058C15.155 62.6717 14.8275 63.6623 14.2682 64.4829C14.8444 65.3258 15.155 66.3212 15.155 67.3648C15.155 69.6465 13.6551 71.5838 11.5896 72.2443V56.7251Z" fill="#9B8E99"/>
<path d="M11.5896 47.896H17.2356V58.6161C16.8466 58.5174 16.4643 58.3978 16.0903 58.2583C15.6092 58.0789 15.0754 58.2867 14.8163 58.7299C14.5599 59.1682 14.2455 59.5764 13.8771 59.9449C13.2223 60.5997 12.4414 61.0823 11.5897 61.3731V47.896H11.5896Z" fill="#9B8E99"/>
<path d="M3.38424 52.7158C1.65462 52.7158 0.251812 54.117 0.251812 55.8466C0.251812 56.7113 0.602998 57.4949 1.16858 58.0606C1.73595 58.6264 2.51936 58.9774 3.38424 58.9774H8.74848C10.4765 58.9774 11.8793 57.5762 11.8793 55.8466C11.8793 54.9819 11.5281 54.1983 10.9625 53.6326C10.3951 53.0669 9.61173 52.7158 8.74848 52.7158H3.38424Z" fill="#EB9C8D"/>
<path d="M0.878985 56.1899C1.44636 56.7556 2.22976 57.1066 3.09465 57.1066H8.45889C10.0239 57.1066 11.3185 55.9559 11.5493 54.4541C11.7585 54.8741 11.8793 55.346 11.8793 55.847C11.8793 57.5767 10.4765 58.9778 8.74848 58.9778H3.38424C2.51951 58.9778 1.73595 58.6266 1.16858 58.0611C0.602849 57.4953 0.251812 56.7119 0.251812 55.847C0.251812 55.6841 0.265119 55.5229 0.289188 55.3667C0.441086 55.6717 0.640973 55.952 0.878985 56.1899Z" fill="#D78878"/>
<path d="M8.74848 52.716C9.61158 52.716 10.3951 53.0672 10.9625 53.6327C11.5282 54.1985 11.8793 54.9819 11.8793 55.8468C11.8793 57.5764 10.4765 58.9775 8.74848 58.9775H4.67731C4.04819 58.0195 3.68041 56.873 3.68041 55.6452V52.7158H8.74848V52.716Z" fill="#D78878"/>
<path d="M4.44739 58.7266C2.85666 58.7266 1.56792 60.0153 1.56792 61.606C1.56792 62.4014 1.88936 63.122 2.41113 63.6423C2.9329 64.1626 3.65202 64.4855 4.44739 64.4855H5.09923H10.0329C11.6221 64.4855 12.9124 63.1968 12.9124 61.606C12.9124 60.8107 12.5894 60.09 12.0692 59.5698C11.5474 59.0495 10.8268 58.7266 10.0329 58.7266H4.44739Z" fill="#EB9C8D"/>
<path d="M5.09923 64.4854C3.5085 64.4854 2.21827 65.7741 2.21827 67.3648C2.21827 68.1602 2.5412 68.8808 3.06148 69.4011C3.58325 69.9214 4.30386 70.2443 5.09923 70.2443H10.0329C11.6221 70.2443 12.9124 68.9556 12.9124 67.3648C12.9124 66.5695 12.5894 65.8488 12.0692 65.3286C11.5474 64.8083 10.8268 64.4854 10.0329 64.4854H5.09923Z" fill="#EB9C8D"/>
<path d="M2.11969 61.7518C2.64146 62.272 3.36058 62.595 4.15594 62.595H4.80779H9.74146C11.1496 62.595 12.3209 61.5812 12.5701 60.2441C12.7876 60.6493 12.9117 61.1138 12.9117 61.6058C12.9117 63.1966 11.6215 64.4853 10.0322 64.4853H5.09858H4.44673C3.65137 64.4853 2.93225 64.1624 2.41047 63.6421C1.8887 63.1218 1.56726 62.4012 1.56726 61.6058C1.56726 61.4249 1.58401 61.2478 1.61585 61.076C1.74981 61.3255 1.92099 61.5537 2.11969 61.7518Z" fill="#D78878"/>
<path d="M2.77086 67.5103C3.29263 68.0306 4.01325 68.3535 4.80861 68.3535H9.74228C11.1505 68.3535 12.3235 67.343 12.5727 66.0059C12.7902 66.411 12.9127 66.8722 12.9127 67.3643C12.9127 68.955 11.6225 70.2437 10.0332 70.2437H5.09955C4.30418 70.2437 3.58357 69.9208 3.0618 69.4005C2.54152 68.8802 2.21859 68.1596 2.21859 67.3643C2.21859 67.1831 2.23548 67.0053 2.26748 66.8332C2.40143 67.0832 2.57247 67.3121 2.77086 67.5103Z" fill="#D78878"/>
<path d="M3.77585 53.1666H3.68017V47.0083H9.05159C9.90048 47.0083 10.671 47.3537 11.229 47.91C11.7853 48.4663 12.1306 49.237 12.1306 50.0874C12.1306 51.7884 10.751 53.1666 9.05144 53.1666H3.77585Z" fill="#D78878"/>
<path d="M6.6706 45.2501V55.6452C6.6706 57.2903 7.9701 58.6832 9.61526 58.7037C10.4541 58.7142 11.2148 58.3789 11.7627 57.8309C12.3025 57.2912 12.6359 56.5452 12.6359 55.7214V51.317C13.9709 54.1755 16.8325 55.9636 19.9287 55.9636C20.2516 55.9636 20.5746 55.9442 20.9005 55.9053L22.6691 55.6915C25.0684 55.2255 27.0266 53.4956 27.7849 51.1721L28.8572 47.8873L19.6058 41.949C18.6071 41.3091 17.4469 40.9697 16.2614 40.9697H10.9509C8.58696 40.9697 6.6706 42.8861 6.6706 45.2501Z" fill="#EB9C8D"/>
<path d="M14.3423 27.5023C6.84381 27.5023 0.765039 21.4235 0.765039 13.925C0.765039 6.42642 6.84381 0.347656 14.3423 0.347656C21.8409 0.347656 27.9197 6.42642 27.9197 13.925C27.9197 21.4235 21.8409 27.5023 14.3423 27.5023Z" fill="#ADE194"/>
<path d="M21.483 13.925C21.483 7.53541 17.0647 2.177 11.1198 0.731735C12.1517 0.480865 13.2333 0.347656 14.3423 0.347656C21.8409 0.347656 27.9197 6.42639 27.9197 13.925C27.9197 21.4235 21.8409 27.5023 14.3423 27.5023C13.2333 27.5023 12.1528 27.3688 11.121 27.1179C17.0659 25.6726 21.483 20.3145 21.483 13.925Z" fill="#97DA7B"/>
<path d="M9.77355 20.7618H12.896C13.0514 20.7618 13.2007 20.7002 13.311 20.5904L23.0658 10.8715C23.2347 10.7031 23.2377 10.4306 23.0725 10.2587L20.157 7.22281C19.9874 7.04624 19.7061 7.04325 19.5328 7.21593L11.56 15.1594L9.5605 12.6413C9.49667 12.5609 9.3799 12.5464 9.29842 12.609L5.56393 15.475C5.48066 15.5389 5.46571 15.6585 5.53074 15.741L9.32055 20.5487C9.32115 20.5494 9.32174 20.5501 9.32234 20.5509C9.42984 20.688 9.59938 20.7618 9.77355 20.7618Z" fill="#F9F7F8"/>
</svg>
