<?xml version="1.0" encoding="UTF-8"?><!DOCTYPE svg PUBLIC "-//W3C//DTD SVG 1.1//EN" "http://www.w3.org/Graphics/SVG/1.1/DTD/svg11.dtd"><svg xmlns="http://www.w3.org/2000/svg" xmlns:xlink="http://www.w3.org/1999/xlink"><symbol id="lide-decor-1"><path d="M11 44.437a2.958 2.958 0 01-2.091 5.049H3.17A2.953 2.953 0 01.214 46.53 2.957 2.957 0 013.17 43.57h5.737c.815 0 1.555.332 2.091.866z" fill="#FFDFCF"/><path d="M9.233 47.553H3.496a2.953 2.953 0 01-2.912-2.458c-.236.425-.37.914-.37 1.434a2.953 2.953 0 002.958 2.958H8.907a2.958 2.958 0 002.958-2.958c0-.172-.018-.339-.046-.502a2.957 2.957 0 01-2.587 1.526z" fill="#FFCEBF"/><path d="M10.841 38.487a2.973 2.973 0 01-2.102 5.075H2.973A2.968 2.968 0 010 40.59a2.972 2.972 0 012.973-2.973h5.766c.82 0 1.563.333 2.102.87z" fill="#FFDFCF"/><path d="M9.074 41.858H3.308a2.968 2.968 0 01-2.957-2.671c-.224.417-.351.896-.351 1.402a2.968 2.968 0 002.973 2.973h5.766a2.973 2.973 0 002.957-3.277 2.972 2.972 0 01-2.622 1.573z" fill="#FFCEBF"/><path d="M22.944 59.974a6.54 6.54 0 003.147-.806l5.378-2.948h2.543c.797 0 1.443-.646 1.443-1.443V40.02c0-.797-.646-1.443-1.443-1.443H9.274v21.396h13.67z" fill="#FFDFCF"/><path d="M34.012 53.472h-2.543l-5.378 2.949a6.54 6.54 0 01-3.147.805H9.274v2.748h13.67a6.54 6.54 0 003.147-.806l5.378-2.948h2.543c.797 0 1.443-.646 1.443-1.443v-2.748c0 .797-.646 1.443-1.443 1.443zM27.543 38.578H9.273v13.788c.081.005.162.008.244.01h.075a5.934 5.934 0 004.223-1.749 5.954 5.954 0 001.345-2.054 10.994 10.994 0 006.038.983l1.968-.238.194-.05.047-.013c2.451-.649 4.136-2.9 4.136-5.436v-5.24z" fill="#FFCEBF"/><path d="M15.756 65.347h-2.81a1.419 1.419 0 01-1.418-1.418V18.53h5.646v45.398c0 .784-.635 1.42-1.418 1.42z" fill="#BAAFB9"/><path d="M13.591 48.664a5.11 5.11 0 00-2.063-1.257v15.52a5.13 5.13 0 003.566-4.88c0-1.043-.31-2.038-.887-2.882.559-.82.887-1.811.887-2.877a5.09 5.09 0 00-1.503-3.624z" fill="#9B8E99"/><path d="M17.174 38.578h-5.646v13.477a6.022 6.022 0 003.12-2.467 1.376 1.376 0 011.62-.561c.297.103.6.194.906.271v-10.72z" fill="#9B8E99"/><path d="M12.008 50.251a2.88 2.88 0 01-2.036 4.916H4.385a2.875 2.875 0 01-2.88-2.88c0-1.59 1.29-2.879 2.88-2.879h5.585c.794 0 1.515.323 2.037.843z" fill="#FFDFCF"/><path d="M12.008 56.01a2.88 2.88 0 01-2.036 4.916H5.038a2.878 2.878 0 110-5.759h4.934c.794 0 1.514.323 2.036.843z" fill="#FFDFCF"/><path d="M10.297 53.312H4.71a2.875 2.875 0 01-2.84-2.427 2.873 2.873 0 00-.364 1.403 2.875 2.875 0 002.88 2.88H9.97a2.88 2.88 0 002.843-3.34 2.887 2.887 0 01-2.517 1.484zM10.297 59.071H5.363a2.878 2.878 0 01-2.842-2.425 2.868 2.868 0 00-.364 1.401 2.878 2.878 0 002.881 2.88h4.934a2.88 2.88 0 002.843-3.34 2.887 2.887 0 01-2.518 1.484zM8.908 43.571h-5.29v2.756c0 1.155.327 2.238.889 3.16h4.4a2.958 2.958 0 000-5.916zM8.739 37.616h-5.12v5.946h5.12a2.973 2.973 0 000-5.946z" fill="#FFCEBF"/><path d="M28.91 38.578l-.415 1.768a8.156 8.156 0 01-5.887 6.027l-1.77.214a8.054 8.054 0 01-8.265-4.588v4.404c.001.824-.332 1.57-.872 2.11a2.975 2.975 0 01-2.147.872c-1.645-.02-2.945-1.413-2.945-3.058V35.932a4.28 4.28 0 014.28-4.28h5.31c1.186 0 2.346.339 3.345.979l9.267 5.947h.1z" fill="#FFDFCF"/><path d="M14.281 27.155c7.499 0 13.577-6.08 13.577-13.578C27.858 6.08 21.78 0 14.281 0S.704 6.079.704 13.577c0 7.499 6.079 13.578 13.577 13.578z" fill="#F58A97"/><path d="M6.236 13.578c0-6.551 4.641-12.019 10.813-13.296A13.661 13.661 0 0014.281 0C6.783 0 .704 6.079.704 13.577c0 7.499 6.079 13.578 13.577 13.578.948 0 1.876-.097 2.77-.282-6.173-1.277-10.815-6.745-10.815-13.296z" fill="#F07281"/><path d="M17.998 13.577L21.675 9.9a.847.847 0 000-1.197l-2.519-2.52a.847.847 0 00-1.197 0L14.28 9.862l-3.677-3.677a.847.847 0 00-1.197 0l-2.52 2.519a.847.847 0 000 1.197l3.678 3.677-3.677 3.678a.847.847 0 000 1.197l2.519 2.52c.33.33.866.33 1.197 0l3.677-3.678 3.678 3.677c.33.331.866.331 1.197 0l2.52-2.519a.847.847 0 000-1.197l-3.678-3.678z" fill="#F9F7F8"/></symbol><symbol id="lide-decor-2"><path d="M3.079 47.008a3.079 3.079 0 100 6.159h5.973a3.08 3.08 0 000-6.159H3.079z" fill="#EB9C8D"/><path d="M.65 50.319a3.075 3.075 0 002.177.902H8.8a3.08 3.08 0 003.02-2.477c.197.407.311.861.311 1.343a3.08 3.08 0 01-3.08 3.08H3.08A3.074 3.074 0 010 50.087c0-.206.02-.405.059-.6.15.31.35.591.591.832z" fill="#D78878"/><path d="M33.865 65.538h-3.024l-6.306 2.948a8.74 8.74 0 01-3.69.806H8.748V47.897h25.118c.911 0 1.65.63 1.65 1.407V64.13c0 .777-.739 1.407-1.65 1.407z" fill="#EB9C8D"/><path d="M20.846 65.862a8.74 8.74 0 003.69-.806l6.305-2.948h3.024c.912 0 1.65-.63 1.65-1.408l.001-11.397v14.828c0 .777-.739 1.407-1.65 1.407H30.84l-6.306 2.948a8.74 8.74 0 01-3.69.806H8.75v-3.43H20.846z" fill="#D78878"/><path d="M25.898 47.896v5.334a5.75 5.75 0 01-4.638 5.643l-.005.001a10.993 10.993 0 01-6.033-.983 5.957 5.957 0 01-1.345 2.054 5.934 5.934 0 01-4.224 1.749h-.075a5.865 5.865 0 01-.83-.071V47.896h17.15z" fill="#D78878"/><path d="M12.406 74.665h4.014c.45 0 .816-.365.816-.816V21.618H11.59v52.231c0 .45.365.816.816.816z" fill="#BAAFB9"/><path d="M11.59 56.725c.769.245 1.475.67 2.065 1.259a5.088 5.088 0 011.5 3.622 5.092 5.092 0 01-.887 2.877c.576.843.887 1.838.887 2.882a5.13 5.13 0 01-3.565 4.88v-15.52z" fill="#9B8E99"/><path d="M11.59 47.896h5.646v10.72a11.062 11.062 0 01-1.146-.358 1.055 1.055 0 00-1.274.472 6.011 6.011 0 01-3.226 2.643V47.896z" fill="#9B8E99"/><path d="M3.384 52.716a3.132 3.132 0 100 6.261h5.364a3.131 3.131 0 000-6.261H3.384z" fill="#EB9C8D"/><path d="M.879 56.19a3.13 3.13 0 002.216.917h5.364a3.13 3.13 0 003.09-2.653c.21.42.33.892.33 1.393 0 1.73-1.402 3.13-3.13 3.13H3.383a3.13 3.13 0 01-3.095-3.61c.152.305.352.585.59.823z" fill="#D78878"/><path d="M8.748 52.716a3.13 3.13 0 110 6.261h-4.07a6.056 6.056 0 01-.998-3.332v-2.93h5.068v.001z" fill="#D78878"/><path d="M4.447 58.727a2.879 2.879 0 100 5.759h5.586a2.88 2.88 0 000-5.76H4.447z" fill="#EB9C8D"/><path d="M5.1 64.485a2.88 2.88 0 100 5.76h4.933a2.88 2.88 0 000-5.76H5.099z" fill="#EB9C8D"/><path d="M2.12 61.752c.521.52 1.24.843 2.036.843H9.74a2.88 2.88 0 002.83-2.35 2.88 2.88 0 01-2.538 4.241H4.446a2.875 2.875 0 01-2.88-2.88c0-.181.017-.358.049-.53.134.25.305.478.504.676zM2.77 67.51c.523.52 1.243.843 2.039.843h4.933a2.88 2.88 0 002.83-2.347 2.88 2.88 0 01-2.54 4.238H5.101a2.878 2.878 0 01-2.833-3.41c.134.25.305.478.504.676zM3.776 53.167H3.68v-6.159h5.372a3.077 3.077 0 013.079 3.08 3.08 3.08 0 01-3.08 3.079H3.776z" fill="#D78878"/><path d="M6.67 45.25v10.395c0 1.645 1.3 3.038 2.945 3.059.84.01 1.6-.325 2.148-.873.54-.54.873-1.286.873-2.11v-4.404a8.054 8.054 0 008.265 4.588l1.768-.214a6.731 6.731 0 005.116-4.519l1.072-3.285-9.251-5.938a6.198 6.198 0 00-3.345-.98h-5.31a4.28 4.28 0 00-4.28 4.281z" fill="#EB9C8D"/><path d="M14.342 27.502C6.844 27.502.765 21.424.765 13.925S6.844.348 14.342.348c7.499 0 13.578 6.078 13.578 13.577 0 7.498-6.08 13.577-13.578 13.577z" fill="#ADE194"/><path d="M21.483 13.925c0-6.39-4.418-11.748-10.363-13.193a13.642 13.642 0 013.222-.384c7.499 0 13.578 6.078 13.578 13.577 0 7.498-6.08 13.577-13.578 13.577a13.63 13.63 0 01-3.221-.384c5.945-1.445 10.362-6.803 10.362-13.193z" fill="#97DA7B"/><path d="M9.774 20.762h3.122a.588.588 0 00.415-.172l9.755-9.719a.437.437 0 00.007-.612l-2.916-3.036a.437.437 0 00-.624-.007l-7.973 7.943-2-2.518a.188.188 0 00-.262-.032l-3.734 2.866a.188.188 0 00-.033.266l3.79 4.808.001.002c.108.137.277.21.452.21z" fill="#F9F7F8"/></symbol><symbol id="lightning"><path d="M7 11L9 0 0 11h7z" fill="#000"/><path d="M7.5 7l-2 11 9-11h-7z" fill="#000"/></symbol><symbol id="phone"><path d="M16.579 11.852c-1.11 0-2.198-.174-3.229-.514-.503-.173-1.074-.04-1.405.298l-2.043 1.543c-2.345-1.252-3.845-2.751-5.08-5.079l1.502-1.995c.378-.378.513-.931.351-1.45a10.287 10.287 0 01-.517-3.234C6.158.638 5.52 0 4.737 0H1.42C.638 0 0 .638 0 1.421 0 10.562 7.438 18 16.579 18c.783 0 1.421-.638 1.421-1.421v-3.306c0-.784-.638-1.421-1.421-1.421z" fill="#F07281"/></symbol></svg>