<svg width="410" height="438" viewBox="0 0 410 438" fill="none" xmlns="http://www.w3.org/2000/svg">
<path d="M361 88C366.523 88 371 92.4771 371 98V265C371 270.523 366.523 275 361 275H226.914C224.555 275.589 221.718 276.782 219.5 279C215 283.5 215 286.5 215 289.5V322C215 323.5 210 330 204.5 325.5C199 321 158 281 156 279C154.547 277.547 152.303 275.831 146.201 275H100C94.4771 275 90 270.523 90 265V98C90 92.4772 94.4771 88 100 88H361Z" fill="white"/>
<path d="M372 78C377.523 78 382 82.4771 382 88V255C382 260.523 377.523 265 372 265H237.914C235.555 265.589 232.718 266.782 230.5 269C226 273.5 226 276.5 226 279.5V312C226 313.5 221 320 215.5 315.5C210 311 169 271 167 269C165.547 267.547 163.303 265.831 157.201 265H111C105.477 265 101 260.523 101 255V88C101 82.4772 105.477 78 111 78H372Z" stroke="#F07281" stroke-width="3"/>
<circle cx="191.5" cy="49.5" r="13.5" stroke="#F07281" stroke-width="5"/>
<circle cx="265.5" cy="32.5" r="13.5" stroke="#F07281" stroke-width="5"/>
<path fill-rule="evenodd" clip-rule="evenodd" d="M205.5 362.281C201.513 362.281 198.281 365.513 198.281 369.5C198.281 373.487 201.513 376.719 205.5 376.719C209.487 376.719 212.719 373.487 212.719 369.5C212.719 365.513 209.487 362.281 205.5 362.281ZM195 369.5C195 363.701 199.701 359 205.5 359C211.299 359 216 363.701 216 369.5C216 375.299 211.299 380 205.5 380C199.701 380 195 375.299 195 369.5Z" fill="#F07281"/>
<path fill-rule="evenodd" clip-rule="evenodd" d="M66 287.375C60.6843 287.375 56.375 291.684 56.375 297C56.375 302.316 60.6843 306.625 66 306.625C71.3157 306.625 75.625 302.316 75.625 297C75.625 291.684 71.3157 287.375 66 287.375ZM52 297C52 289.268 58.268 283 66 283C73.732 283 80 289.268 80 297C80 304.732 73.732 311 66 311C58.268 311 52 304.732 52 297Z" fill="#F5F5F5"/>
<path fill-rule="evenodd" clip-rule="evenodd" d="M96 362.75C91.4437 362.75 87.75 366.444 87.75 371C87.75 375.556 91.4437 379.25 96 379.25C100.556 379.25 104.25 375.556 104.25 371C104.25 366.444 100.556 362.75 96 362.75ZM84 371C84 364.373 89.3726 359 96 359C102.627 359 108 364.373 108 371C108 377.627 102.627 383 96 383C89.3726 383 84 377.627 84 371Z" fill="#F5F5F5"/>
<path fill-rule="evenodd" clip-rule="evenodd" d="M270 424.5C266.962 424.5 264.5 426.962 264.5 430C264.5 433.038 266.962 435.5 270 435.5C273.038 435.5 275.5 433.038 275.5 430C275.5 426.962 273.038 424.5 270 424.5ZM262 430C262 425.582 265.582 422 270 422C274.418 422 278 425.582 278 430C278 434.418 274.418 438 270 438C265.582 438 262 434.418 262 430Z" fill="#F5F5F5"/>
<path fill-rule="evenodd" clip-rule="evenodd" d="M399.5 11.2812C395.513 11.2812 392.281 14.5132 392.281 18.5C392.281 22.4868 395.513 25.7188 399.5 25.7188C403.487 25.7188 406.719 22.4868 406.719 18.5C406.719 14.5132 403.487 11.2812 399.5 11.2812ZM389 18.5C389 12.701 393.701 8 399.5 8C405.299 8 410 12.701 410 18.5C410 24.299 405.299 29 399.5 29C393.701 29 389 24.299 389 18.5Z" fill="#F5F5F5"/>
<path fill-rule="evenodd" clip-rule="evenodd" d="M75.2276 21.0447C76.0505 20.949 76.7951 21.5385 76.8908 22.3614L77.8149 30.3079L84.768 29.4993C85.5909 29.4036 86.3355 29.9931 86.4312 30.816C86.5269 31.6389 85.9374 32.3835 85.1145 32.4792L78.1614 33.2878L79.0855 41.2342C79.1812 42.0571 78.5917 42.8018 77.7688 42.8975C76.9459 42.9932 76.2012 42.4036 76.1056 41.5808L75.1815 33.6343L67.7317 34.5006C66.9088 34.5963 66.1641 34.0068 66.0685 33.1839C65.9728 32.3611 66.5623 31.6164 67.3852 31.5207L74.8349 30.6544L73.9109 22.7079C73.8152 21.8851 74.4047 21.1404 75.2276 21.0447Z" fill="white"/>
<path fill-rule="evenodd" clip-rule="evenodd" d="M44.5 68.2812C40.5132 68.2812 37.2812 71.5132 37.2812 75.5C37.2812 79.4868 40.5132 82.7188 44.5 82.7188C48.4868 82.7188 51.7188 79.4868 51.7188 75.5C51.7188 71.5132 48.4868 68.2812 44.5 68.2812ZM34 75.5C34 69.701 38.701 65 44.5 65C50.299 65 55 69.701 55 75.5C55 81.299 50.299 86 44.5 86C38.701 86 34 81.299 34 75.5Z" fill="#F5F5F5"/>
<path fill-rule="evenodd" clip-rule="evenodd" d="M28.5 187.344C25.6523 187.344 23.3438 189.652 23.3438 192.5C23.3438 195.348 25.6523 197.656 28.5 197.656C31.3477 197.656 33.6562 195.348 33.6562 192.5C33.6562 189.652 31.3477 187.344 28.5 187.344ZM21 192.5C21 188.358 24.3579 185 28.5 185C32.6421 185 36 188.358 36 192.5C36 196.642 32.6421 200 28.5 200C24.3579 200 21 196.642 21 192.5Z" fill="#F5F5F5"/>
<path fill-rule="evenodd" clip-rule="evenodd" d="M313.025 21.0251C313.469 20.5814 314.188 20.5814 314.632 21.0251L319.05 25.4436L323.469 21.0251C323.913 20.5814 324.632 20.5814 325.076 21.0251C325.519 21.4688 325.519 22.1881 325.076 22.6318L320.657 27.0503L325.076 31.4688C325.519 31.9124 325.519 32.6318 325.076 33.0755C324.632 33.5192 323.913 33.5192 323.469 33.0755L319.05 28.657L314.632 33.0755C314.188 33.5192 313.469 33.5192 313.025 33.0755C312.582 32.6318 312.582 31.9124 313.025 31.4688L317.444 27.0503L313.025 22.6318C312.582 22.1881 312.582 21.4688 313.025 21.0251Z" fill="black"/>
<path fill-rule="evenodd" clip-rule="evenodd" d="M156.148 0.633204C156.876 0.679832 157.428 1.30751 157.381 2.03515L156.917 9.28153L164.163 9.74588C164.891 9.79251 165.443 10.4202 165.396 11.1478C165.35 11.8755 164.722 12.4276 163.994 12.3809L156.748 11.9166L156.284 19.163C156.237 19.8906 155.609 20.4427 154.882 20.396C154.154 20.3494 153.602 19.7217 153.649 18.9941L154.113 11.7477L146.866 11.2834C146.139 11.2367 145.587 10.6091 145.633 9.88142C145.68 9.15378 146.308 8.6017 147.035 8.64833L154.282 9.11268L154.746 1.8663C154.793 1.13865 155.42 0.586576 156.148 0.633204Z" fill="black"/>
<path fill-rule="evenodd" clip-rule="evenodd" d="M43.8968 133.346C44.552 133.026 45.3425 133.298 45.6626 133.953L48.8498 140.477L55.3742 137.29C56.0293 136.97 56.8199 137.242 57.1399 137.897C57.46 138.552 57.1883 139.342 56.5332 139.662L50.0088 142.85L53.196 149.374C53.5161 150.029 53.2444 150.82 52.5893 151.14C51.9342 151.46 51.1436 151.188 50.8236 150.533L47.6363 144.009L41.112 147.196C40.4568 147.516 39.6663 147.244 39.3462 146.589C39.0262 145.934 39.2978 145.144 39.953 144.823L46.4773 141.636L43.2901 135.112C42.97 134.457 43.2417 133.666 43.8968 133.346Z" fill="black"/>
<path fill-rule="evenodd" clip-rule="evenodd" d="M13.2955 261.168C14.2745 260.787 15.3767 261.273 15.7573 262.252L19.5472 272.002L29.2972 268.212C30.2763 267.831 31.3785 268.316 31.7591 269.295C32.1396 270.274 31.6545 271.377 30.6754 271.757L20.9254 275.547L24.7154 285.297C25.0959 286.276 24.6108 287.378 23.6317 287.759C22.6527 288.14 21.5505 287.654 21.1699 286.675L17.3799 276.925L7.62994 280.715C6.65089 281.096 5.5487 280.611 5.16813 279.632C4.78756 278.653 5.27272 277.55 6.25177 277.17L16.0018 273.38L12.2118 263.63C11.8312 262.651 12.3164 261.549 13.2955 261.168Z" fill="black"/>
<path fill-rule="evenodd" clip-rule="evenodd" d="M105.295 319.168C106.275 318.787 107.377 319.273 107.757 320.252L111.547 330.002L121.297 326.212C122.276 325.831 123.378 326.316 123.759 327.295C124.14 328.274 123.654 329.377 122.675 329.757L112.925 333.547L116.715 343.297C117.096 344.276 116.611 345.378 115.632 345.759C114.653 346.14 113.55 345.654 113.17 344.675L109.38 334.925L99.6299 338.715C98.6509 339.096 97.5487 338.611 97.1681 337.632C96.7876 336.653 97.2727 335.55 98.2518 335.17L108.002 331.38L104.212 321.63C103.831 320.651 104.316 319.549 105.295 319.168Z" fill="black"/>
<path fill-rule="evenodd" clip-rule="evenodd" d="M251.272 375.356C251.791 374.811 252.653 374.79 253.198 375.309L258.624 380.472L263.787 375.046C264.306 374.502 265.168 374.48 265.713 374.999C266.258 375.517 266.279 376.379 265.76 376.924L260.597 382.35L266.023 387.514C266.567 388.032 266.589 388.894 266.07 389.439C265.552 389.984 264.69 390.005 264.145 389.487L258.719 384.323L253.555 389.749C253.037 390.294 252.175 390.315 251.63 389.797C251.085 389.278 251.064 388.416 251.582 387.871L256.746 382.445L251.32 377.282C250.775 376.763 250.754 375.901 251.272 375.356Z" fill="black"/>
<path fill-rule="evenodd" clip-rule="evenodd" d="M302.62 371.783C302.886 371.431 303.388 371.361 303.74 371.628L307.247 374.282L309.902 370.775C310.168 370.423 310.67 370.353 311.022 370.62C311.374 370.886 311.444 371.388 311.177 371.74L308.523 375.247L312.03 377.902C312.382 378.169 312.452 378.67 312.185 379.022C311.919 379.374 311.417 379.444 311.065 379.177L307.558 376.523L304.903 380.03C304.637 380.383 304.135 380.452 303.783 380.185C303.431 379.919 303.361 379.417 303.628 379.065L306.282 375.558L302.775 372.903C302.423 372.637 302.353 372.135 302.62 371.783Z" fill="black"/>
</svg>
