<svg width="595" height="554" viewBox="0 0 595 554" fill="none" xmlns="http://www.w3.org/2000/svg">
<path d="M127.415 465.862C119.1 486.721 99.2706 490.758 82 494.122V517H595V11H576.45C570.054 11 541.269 29.1676 533.594 40.6064C525.918 52.0452 508.007 85.6888 497.773 96.4548C487.539 107.221 471.547 100.492 451.718 105.202C431.889 109.912 424.213 131.444 414.618 138.173C405.024 144.902 382.636 144.902 366.005 152.976C349.374 161.051 340.419 226.992 336.581 252.561C332.743 278.13 323.148 373.005 318.031 411.359C312.914 449.713 296.923 449.04 280.931 450.386C264.94 451.731 241.913 423.471 227.201 411.359C212.489 399.247 186.903 405.976 169.632 409.34C152.362 412.705 135.731 445.003 127.415 465.862Z" fill="url(#paint0_linear)"/>
<path d="M120.3 544.887H119.424V536.487H120.3L123.336 540.555L126.372 536.487H127.236V544.887H126.36V537.831L123.612 541.503H123.072L120.3 537.831V544.887ZM132.2 545.031C131.296 545.031 130.536 544.747 129.92 544.179C129.312 543.619 129.008 542.891 129.008 541.995C129.008 541.131 129.28 540.407 129.824 539.823C130.376 539.239 131.084 538.947 131.948 538.947C132.412 538.947 132.824 539.043 133.184 539.235C133.544 539.419 133.828 539.663 134.036 539.967C134.244 540.271 134.4 540.595 134.504 540.939C134.608 541.275 134.66 541.615 134.66 541.959V542.199H129.896C129.944 542.823 130.192 543.323 130.64 543.699C131.096 544.067 131.672 544.251 132.368 544.251C133.04 544.251 133.66 544.071 134.228 543.711V544.479C133.756 544.847 133.08 545.031 132.2 545.031ZM129.908 541.491H133.784C133.76 541.043 133.592 540.639 133.28 540.279C132.984 539.911 132.528 539.727 131.912 539.727C131.336 539.727 130.864 539.903 130.496 540.255C130.136 540.615 129.94 541.027 129.908 541.491ZM138.948 545.031C138.06 545.031 137.324 544.743 136.74 544.167C136.156 543.583 135.864 542.855 135.864 541.983C135.864 541.119 136.16 540.399 136.752 539.823C137.336 539.239 138.072 538.947 138.96 538.947C139.632 538.947 140.216 539.087 140.712 539.367V540.171C140.192 539.875 139.648 539.727 139.08 539.727C138.408 539.727 137.852 539.943 137.412 540.375C136.972 540.791 136.752 541.331 136.752 541.995C136.752 542.643 136.972 543.183 137.412 543.615C137.86 544.039 138.416 544.251 139.08 544.251C139.72 544.251 140.3 544.083 140.82 543.747V544.539C140.276 544.867 139.652 545.031 138.948 545.031ZM143.105 544.887H142.121L143.849 542.571C143.377 542.491 143.013 542.303 142.757 542.007C142.509 541.703 142.385 541.319 142.385 540.855C142.385 540.319 142.565 539.891 142.925 539.571C143.293 539.251 143.805 539.091 144.461 539.091H147.449V544.887H146.585V542.727H144.725L143.105 544.887ZM144.593 541.971H146.585V539.847H144.593C144.169 539.847 143.841 539.939 143.609 540.123C143.385 540.307 143.273 540.571 143.273 540.915C143.273 541.259 143.385 541.523 143.609 541.707C143.841 541.883 144.169 541.971 144.593 541.971ZM155.731 546.603H154.903V544.887H149.491V539.091H150.355V544.131H153.799V539.091H154.663V544.131H155.731V546.603ZM162.455 544.887H161.579V537.447L159.695 538.527V537.675L161.675 536.487H162.455V544.887Z" fill="white"/>
<path d="M10.8145 490.887H9.93848V483.447L8.05448 484.527V483.675L10.0345 482.487H10.8145V490.887ZM12.999 492.711H12.303L13.263 489.651H14.271L12.999 492.711ZM15.763 486.687C15.763 485.455 16.079 484.427 16.711 483.603C17.351 482.763 18.183 482.343 19.207 482.343C20.223 482.343 21.051 482.759 21.691 483.591C22.323 484.415 22.639 485.447 22.639 486.687C22.639 487.927 22.323 488.959 21.691 489.783C21.051 490.615 20.223 491.031 19.207 491.031C18.183 491.031 17.351 490.615 16.711 489.783C16.079 488.959 15.763 487.927 15.763 486.687ZM21.763 486.687C21.763 485.687 21.523 484.851 21.043 484.179C20.563 483.507 19.951 483.171 19.207 483.171C18.463 483.171 17.851 483.507 17.371 484.179C16.891 484.851 16.651 485.687 16.651 486.687C16.651 487.687 16.887 488.527 17.359 489.207C17.839 489.871 18.455 490.203 19.207 490.203C19.959 490.203 20.571 489.871 21.043 489.207C21.523 488.535 21.763 487.695 21.763 486.687ZM28.4791 490.887H27.6391V485.091H28.4791L30.7951 487.779L33.1231 485.091H33.9631V490.887H33.1231V486.279L30.9631 488.787H30.6271L28.4791 486.279V490.887ZM35.2383 490.887V490.095C35.2783 490.103 35.3543 490.107 35.4663 490.107C35.9703 490.107 36.3143 489.787 36.4983 489.147C36.6503 488.635 36.7463 487.899 36.7863 486.939L36.8343 485.091H41.1663V490.887H40.3023V485.847H37.6623L37.6263 486.963C37.6103 487.395 37.5943 487.707 37.5783 487.899C37.5063 488.683 37.3903 489.259 37.2303 489.627C37.0863 490.011 36.8663 490.327 36.5703 490.575C36.2743 490.815 35.9143 490.923 35.4903 490.899C35.3623 490.899 35.2783 490.895 35.2383 490.887ZM44.0656 490.887H43.2016V485.091H44.0656V487.527H47.6296V485.091H48.4936V490.887H47.6296V488.307H44.0656V490.887ZM50.9336 490.959C50.7576 490.959 50.6096 490.899 50.4896 490.779C50.3696 490.659 50.3096 490.511 50.3096 490.335C50.3096 490.159 50.3696 490.011 50.4896 489.891C50.6096 489.771 50.7576 489.711 50.9336 489.711C51.1096 489.711 51.2576 489.771 51.3776 489.891C51.4976 490.011 51.5576 490.159 51.5576 490.335C51.5576 490.511 51.4976 490.659 51.3776 490.779C51.2576 490.899 51.1096 490.959 50.9336 490.959Z" fill="white"/>
<path d="M8.9732 317.031C7.9892 317.031 7.1732 316.827 6.5252 316.419V315.495C7.2052 315.967 8.0052 316.203 8.9252 316.203C9.5572 316.203 10.1092 316.027 10.5812 315.675C11.0532 315.315 11.2892 314.831 11.2892 314.223C11.2892 313.647 11.0812 313.187 10.6652 312.843C10.2572 312.491 9.7052 312.315 9.0092 312.315C8.6732 312.315 8.3612 312.355 8.0732 312.435V311.823L10.6652 309.291H6.8732V308.487H11.8652V309.147L9.3572 311.607C10.0932 311.623 10.7452 311.871 11.3132 312.351C11.8892 312.831 12.1772 313.455 12.1772 314.223C12.1772 315.055 11.8692 315.731 11.2532 316.251C10.6372 316.771 9.8772 317.031 8.9732 317.031ZM13.6123 318.711H12.9163L13.8763 315.651H14.8843L13.6123 318.711ZM16.3763 312.687C16.3763 311.455 16.6923 310.427 17.3243 309.603C17.9643 308.763 18.7963 308.343 19.8203 308.343C20.8363 308.343 21.6643 308.759 22.3043 309.591C22.9363 310.415 23.2523 311.447 23.2523 312.687C23.2523 313.927 22.9363 314.959 22.3043 315.783C21.6643 316.615 20.8363 317.031 19.8203 317.031C18.7963 317.031 17.9643 316.615 17.3243 315.783C16.6923 314.959 16.3763 313.927 16.3763 312.687ZM22.3763 312.687C22.3763 311.687 22.1363 310.851 21.6563 310.179C21.1763 309.507 20.5643 309.171 19.8203 309.171C19.0763 309.171 18.4643 309.507 17.9843 310.179C17.5043 310.851 17.2643 311.687 17.2643 312.687C17.2643 313.687 17.5003 314.527 17.9723 315.207C18.4523 315.871 19.0683 316.203 19.8203 316.203C20.5723 316.203 21.1843 315.871 21.6563 315.207C22.1363 314.535 22.3763 313.695 22.3763 312.687ZM29.0924 316.887H28.2524V311.091H29.0924L31.4084 313.779L33.7364 311.091H34.5764V316.887H33.7364V312.279L31.5764 314.787H31.2404L29.0924 312.279V316.887ZM35.8516 316.887V316.095C35.8916 316.103 35.9676 316.107 36.0796 316.107C36.5836 316.107 36.9276 315.787 37.1116 315.147C37.2636 314.635 37.3596 313.899 37.3996 312.939L37.4476 311.091H41.7796V316.887H40.9156V311.847H38.2756L38.2396 312.963C38.2236 313.395 38.2076 313.707 38.1916 313.899C38.1196 314.683 38.0036 315.259 37.8436 315.627C37.6996 316.011 37.4796 316.327 37.1836 316.575C36.8876 316.815 36.5276 316.923 36.1036 316.899C35.9756 316.899 35.8916 316.895 35.8516 316.887ZM44.6789 316.887H43.8149V311.091H44.6789V313.527H48.2429V311.091H49.1069V316.887H48.2429V314.307H44.6789V316.887ZM51.5469 316.959C51.3709 316.959 51.2229 316.899 51.1029 316.779C50.9829 316.659 50.9229 316.511 50.9229 316.335C50.9229 316.159 50.9829 316.011 51.1029 315.891C51.2229 315.771 51.3709 315.711 51.5469 315.711C51.7229 315.711 51.8709 315.771 51.9909 315.891C52.1109 316.011 52.1709 316.159 52.1709 316.335C52.1709 316.511 52.1109 316.659 51.9909 316.779C51.8709 316.899 51.7229 316.959 51.5469 316.959Z" fill="white"/>
<path d="M8.94086 144.031C8.02886 144.031 7.25686 143.847 6.62486 143.479V142.591C7.28086 142.999 8.04486 143.203 8.91686 143.203C9.62886 143.203 10.2169 143.019 10.6809 142.651C11.1449 142.283 11.3769 141.811 11.3769 141.235C11.3769 140.667 11.1569 140.207 10.7169 139.855C10.2849 139.495 9.70886 139.315 8.98886 139.315C8.30086 139.315 7.62886 139.431 6.97286 139.663L7.52486 135.487H11.6769V136.291H8.19686L7.86086 138.715C8.24486 138.611 8.68886 138.559 9.19286 138.559C10.0729 138.559 10.8049 138.811 11.3889 139.315C11.9729 139.803 12.2649 140.443 12.2649 141.235C12.2649 142.067 11.9489 142.739 11.3169 143.251C10.6769 143.771 9.88486 144.031 8.94086 144.031ZM13.7647 145.711H13.0687L14.0287 142.651H15.0367L13.7647 145.711ZM16.5286 139.687C16.5286 138.455 16.8446 137.427 17.4766 136.603C18.1166 135.763 18.9486 135.343 19.9726 135.343C20.9886 135.343 21.8166 135.759 22.4566 136.591C23.0886 137.415 23.4046 138.447 23.4046 139.687C23.4046 140.927 23.0886 141.959 22.4566 142.783C21.8166 143.615 20.9886 144.031 19.9726 144.031C18.9486 144.031 18.1166 143.615 17.4766 142.783C16.8446 141.959 16.5286 140.927 16.5286 139.687ZM22.5286 139.687C22.5286 138.687 22.2886 137.851 21.8086 137.179C21.3286 136.507 20.7166 136.171 19.9726 136.171C19.2286 136.171 18.6166 136.507 18.1366 137.179C17.6566 137.851 17.4166 138.687 17.4166 139.687C17.4166 140.687 17.6526 141.527 18.1246 142.207C18.6046 142.871 19.2206 143.203 19.9726 143.203C20.7246 143.203 21.3366 142.871 21.8086 142.207C22.2886 141.535 22.5286 140.695 22.5286 139.687ZM29.2448 143.887H28.4048V138.091H29.2448L31.5608 140.779L33.8888 138.091H34.7288V143.887H33.8888V139.279L31.7288 141.787H31.3928L29.2448 139.279V143.887ZM36.004 143.887V143.095C36.044 143.103 36.12 143.107 36.232 143.107C36.736 143.107 37.08 142.787 37.264 142.147C37.416 141.635 37.512 140.899 37.552 139.939L37.6 138.091H41.932V143.887H41.068V138.847H38.428L38.392 139.963C38.376 140.395 38.36 140.707 38.344 140.899C38.272 141.683 38.156 142.259 37.996 142.627C37.852 143.011 37.632 143.327 37.336 143.575C37.04 143.815 36.68 143.923 36.256 143.899C36.128 143.899 36.044 143.895 36.004 143.887ZM44.8313 143.887H43.9673V138.091H44.8313V140.527H48.3953V138.091H49.2593V143.887H48.3953V141.307H44.8313V143.887ZM51.6992 143.959C51.5232 143.959 51.3752 143.899 51.2552 143.779C51.1352 143.659 51.0752 143.511 51.0752 143.335C51.0752 143.159 51.1352 143.011 51.2552 142.891C51.3752 142.771 51.5232 142.711 51.6992 142.711C51.8752 142.711 52.0232 142.771 52.1432 142.891C52.2632 143.011 52.3232 143.159 52.3232 143.335C52.3232 143.511 52.2632 143.659 52.1432 143.779C52.0232 143.899 51.8752 143.959 51.6992 143.959Z" fill="white"/>
<path d="M12.1856 404.887H6.46159V404.227L9.29359 401.527C9.91759 400.935 10.3536 400.459 10.6016 400.099C10.8576 399.723 10.9856 399.303 10.9856 398.839C10.9856 398.343 10.8096 397.943 10.4576 397.639C10.1056 397.327 9.64559 397.171 9.07759 397.171C8.18959 397.171 7.38159 397.547 6.65359 398.299V397.303C7.36559 396.663 8.20159 396.343 9.16159 396.343C9.93759 396.343 10.5816 396.563 11.0936 397.003C11.6136 397.451 11.8736 398.027 11.8736 398.731C11.8736 399.291 11.7336 399.803 11.4536 400.267C11.1736 400.723 10.6936 401.271 10.0136 401.911L7.75759 404.083H12.1856V404.887ZM13.7119 406.711H13.0159L13.9759 403.651H14.9839L13.7119 406.711ZM16.4759 400.687C16.4759 399.455 16.7919 398.427 17.4239 397.603C18.0639 396.763 18.8959 396.343 19.9199 396.343C20.9359 396.343 21.7639 396.759 22.4039 397.591C23.0359 398.415 23.3519 399.447 23.3519 400.687C23.3519 401.927 23.0359 402.959 22.4039 403.783C21.7639 404.615 20.9359 405.031 19.9199 405.031C18.8959 405.031 18.0639 404.615 17.4239 403.783C16.7919 402.959 16.4759 401.927 16.4759 400.687ZM22.4759 400.687C22.4759 399.687 22.2359 398.851 21.7559 398.179C21.2759 397.507 20.6639 397.171 19.9199 397.171C19.1759 397.171 18.5639 397.507 18.0839 398.179C17.6039 398.851 17.3639 399.687 17.3639 400.687C17.3639 401.687 17.5999 402.527 18.0719 403.207C18.5519 403.871 19.1679 404.203 19.9199 404.203C20.6719 404.203 21.2839 403.871 21.7559 403.207C22.2359 402.535 22.4759 401.695 22.4759 400.687ZM29.192 404.887H28.352V399.091H29.192L31.508 401.779L33.836 399.091H34.676V404.887H33.836V400.279L31.676 402.787H31.34L29.192 400.279V404.887ZM35.9512 404.887V404.095C35.9912 404.103 36.0672 404.107 36.1792 404.107C36.6832 404.107 37.0272 403.787 37.2112 403.147C37.3632 402.635 37.4592 401.899 37.4992 400.939L37.5472 399.091H41.8792V404.887H41.0152V399.847H38.3752L38.3392 400.963C38.3232 401.395 38.3072 401.707 38.2912 401.899C38.2192 402.683 38.1032 403.259 37.9432 403.627C37.7992 404.011 37.5792 404.327 37.2832 404.575C36.9872 404.815 36.6272 404.923 36.2032 404.899C36.0752 404.899 35.9912 404.895 35.9512 404.887ZM44.7785 404.887H43.9145V399.091H44.7785V401.527H48.3425V399.091H49.2065V404.887H48.3425V402.307H44.7785V404.887ZM51.6465 404.959C51.4705 404.959 51.3225 404.899 51.2025 404.779C51.0825 404.659 51.0225 404.511 51.0225 404.335C51.0225 404.159 51.0825 404.011 51.2025 403.891C51.3225 403.771 51.4705 403.711 51.6465 403.711C51.8225 403.711 51.9705 403.771 52.0905 403.891C52.2105 404.011 52.2705 404.159 52.2705 404.335C52.2705 404.511 52.2105 404.659 52.0905 404.779C51.9705 404.899 51.8225 404.959 51.6465 404.959Z" fill="white"/>
<path d="M11.4721 228.887H10.6081V226.571H6.09606V225.863L10.6201 220.487H11.4721V225.767H12.8641V226.571H11.4721V228.887ZM10.6081 221.663L7.12806 225.767H10.6081V221.663ZM13.9815 230.711H13.2855L14.2455 227.651H15.2535L13.9815 230.711ZM16.7454 224.687C16.7454 223.455 17.0614 222.427 17.6934 221.603C18.3334 220.763 19.1654 220.343 20.1894 220.343C21.2054 220.343 22.0334 220.759 22.6734 221.591C23.3054 222.415 23.6214 223.447 23.6214 224.687C23.6214 225.927 23.3054 226.959 22.6734 227.783C22.0334 228.615 21.2054 229.031 20.1894 229.031C19.1654 229.031 18.3334 228.615 17.6934 227.783C17.0614 226.959 16.7454 225.927 16.7454 224.687ZM22.7454 224.687C22.7454 223.687 22.5054 222.851 22.0254 222.179C21.5454 221.507 20.9334 221.171 20.1894 221.171C19.4454 221.171 18.8334 221.507 18.3534 222.179C17.8734 222.851 17.6334 223.687 17.6334 224.687C17.6334 225.687 17.8694 226.527 18.3414 227.207C18.8214 227.871 19.4374 228.203 20.1894 228.203C20.9414 228.203 21.5534 227.871 22.0254 227.207C22.5054 226.535 22.7454 225.695 22.7454 224.687ZM29.4616 228.887H28.6216V223.091H29.4616L31.7776 225.779L34.1056 223.091H34.9456V228.887H34.1056V224.279L31.9456 226.787H31.6096L29.4616 224.279V228.887ZM36.2208 228.887V228.095C36.2608 228.103 36.3368 228.107 36.4488 228.107C36.9528 228.107 37.2968 227.787 37.4808 227.147C37.6328 226.635 37.7288 225.899 37.7688 224.939L37.8168 223.091H42.1488V228.887H41.2848V223.847H38.6448L38.6088 224.963C38.5928 225.395 38.5768 225.707 38.5608 225.899C38.4888 226.683 38.3728 227.259 38.2128 227.627C38.0688 228.011 37.8488 228.327 37.5527 228.575C37.2568 228.815 36.8968 228.923 36.4728 228.899C36.3448 228.899 36.2608 228.895 36.2208 228.887ZM45.0481 228.887H44.1841V223.091H45.0481V225.527H48.6121V223.091H49.4761V228.887H48.6121V226.307H45.0481V228.887ZM51.916 228.959C51.74 228.959 51.592 228.899 51.472 228.779C51.352 228.659 51.292 228.511 51.292 228.335C51.292 228.159 51.352 228.011 51.472 227.891C51.592 227.771 51.74 227.711 51.916 227.711C52.092 227.711 52.24 227.771 52.36 227.891C52.48 228.011 52.54 228.159 52.54 228.335C52.54 228.511 52.48 228.659 52.36 228.779C52.24 228.899 52.092 228.959 51.916 228.959Z" fill="white"/>
<path d="M9.71364 55.0307C8.72964 55.0307 7.95364 54.6867 7.38564 53.9987C6.81764 53.2947 6.53364 52.3267 6.53364 51.0947C6.50964 49.7507 6.83364 48.6227 7.50564 47.7107C8.17764 46.7907 9.06964 46.3347 10.1816 46.3427C10.8776 46.3427 11.4696 46.5147 11.9576 46.8587V47.7107C11.4296 47.3507 10.8616 47.1707 10.2536 47.1707C9.62164 47.1707 9.08564 47.3507 8.64564 47.7107C8.20564 48.0707 7.88964 48.5107 7.69764 49.0307C7.51364 49.5507 7.41364 50.1267 7.39764 50.7587C7.62164 50.3747 7.94564 50.0707 8.36964 49.8467C8.80164 49.6227 9.29764 49.5107 9.85764 49.5107C10.6256 49.5107 11.2656 49.7627 11.7776 50.2667C12.3056 50.7547 12.5696 51.3947 12.5696 52.1867C12.5696 53.0107 12.2936 53.6907 11.7416 54.2267C11.2056 54.7627 10.5296 55.0307 9.71364 55.0307ZM9.66564 54.2027C10.2336 54.2027 10.7136 54.0147 11.1056 53.6387C11.4976 53.2547 11.6936 52.7707 11.6936 52.1867C11.6936 51.6107 11.4976 51.1507 11.1056 50.8067C10.7136 50.4627 10.2256 50.2907 9.64164 50.2907C9.14564 50.2907 8.68964 50.4467 8.27364 50.7587C7.86564 51.0627 7.58164 51.4507 7.42164 51.9227C7.49364 52.6507 7.72164 53.2147 8.10564 53.6147C8.49764 54.0067 9.01764 54.2027 9.66564 54.2027ZM13.9639 56.7107H13.2679L14.2279 53.6507H15.2359L13.9639 56.7107ZM16.7278 50.6867C16.7278 49.4547 17.0438 48.4267 17.6758 47.6027C18.3158 46.7627 19.1478 46.3427 20.1718 46.3427C21.1878 46.3427 22.0158 46.7587 22.6558 47.5907C23.2878 48.4147 23.6038 49.4467 23.6038 50.6867C23.6038 51.9267 23.2878 52.9587 22.6558 53.7827C22.0158 54.6147 21.1878 55.0307 20.1718 55.0307C19.1478 55.0307 18.3158 54.6147 17.6758 53.7827C17.0438 52.9587 16.7278 51.9267 16.7278 50.6867ZM22.7278 50.6867C22.7278 49.6867 22.4878 48.8507 22.0078 48.1787C21.5278 47.5067 20.9158 47.1707 20.1718 47.1707C19.4278 47.1707 18.8158 47.5067 18.3358 48.1787C17.8558 48.8507 17.6158 49.6867 17.6158 50.6867C17.6158 51.6867 17.8518 52.5267 18.3238 53.2067C18.8038 53.8707 19.4198 54.2027 20.1718 54.2027C20.9238 54.2027 21.5358 53.8707 22.0078 53.2067C22.4878 52.5347 22.7278 51.6947 22.7278 50.6867ZM29.444 54.8867H28.604V49.0907H29.444L31.76 51.7787L34.088 49.0907H34.928V54.8867H34.088V50.2787L31.928 52.7867H31.592L29.444 50.2787V54.8867ZM36.2032 54.8867V54.0947C36.2432 54.1027 36.3192 54.1067 36.4312 54.1067C36.9352 54.1067 37.2792 53.7867 37.4632 53.1467C37.6152 52.6347 37.7112 51.8987 37.7512 50.9387L37.7992 49.0907H42.1312V54.8867H41.2672V49.8467H38.6272L38.5912 50.9627C38.5752 51.3947 38.5592 51.7067 38.5432 51.8987C38.4712 52.6827 38.3552 53.2587 38.1952 53.6267C38.0512 54.0107 37.8312 54.3267 37.5352 54.5747C37.2392 54.8147 36.8792 54.9227 36.4552 54.8987C36.3272 54.8987 36.2432 54.8947 36.2032 54.8867ZM45.0305 54.8867H44.1665V49.0907H45.0305V51.5267H48.5945V49.0907H49.4585V54.8867H48.5945V52.3067H45.0305V54.8867ZM51.8984 54.9587C51.7224 54.9587 51.5744 54.8987 51.4544 54.7787C51.3344 54.6587 51.2744 54.5107 51.2744 54.3347C51.2744 54.1587 51.3344 54.0107 51.4544 53.8907C51.5744 53.7707 51.7224 53.7107 51.8984 53.7107C52.0744 53.7107 52.2224 53.7707 52.3424 53.8907C52.4624 54.0107 52.5224 54.1587 52.5224 54.3347C52.5224 54.5107 52.4624 54.6587 52.3424 54.7787C52.2224 54.8987 52.0744 54.9587 51.8984 54.9587Z" fill="white"/>
<path d="M11.4825 447.887H10.6065V440.447L8.72245 441.527V440.675L10.7025 439.487H11.4825V447.887ZM13.667 449.711H12.971L13.931 446.651H14.939L13.667 449.711ZM18.687 448.031C17.775 448.031 17.003 447.847 16.371 447.479V446.591C17.027 446.999 17.791 447.203 18.663 447.203C19.375 447.203 19.963 447.019 20.427 446.651C20.891 446.283 21.123 445.811 21.123 445.235C21.123 444.667 20.903 444.207 20.463 443.855C20.031 443.495 19.455 443.315 18.735 443.315C18.047 443.315 17.375 443.431 16.719 443.663L17.271 439.487H21.423V440.291H17.943L17.607 442.715C17.991 442.611 18.435 442.559 18.939 442.559C19.819 442.559 20.551 442.811 21.135 443.315C21.719 443.803 22.011 444.443 22.011 445.235C22.011 446.067 21.695 446.739 21.063 447.251C20.423 447.771 19.631 448.031 18.687 448.031ZM27.8112 447.887H26.9712V442.091H27.8112L30.1272 444.779L32.4552 442.091H33.2952V447.887H32.4552V443.279L30.2952 445.787H29.9592L27.8112 443.279V447.887ZM34.5704 447.887V447.095C34.6104 447.103 34.6864 447.107 34.7984 447.107C35.3024 447.107 35.6464 446.787 35.8304 446.147C35.9824 445.635 36.0784 444.899 36.1184 443.939L36.1664 442.091H40.4984V447.887H39.6344V442.847H36.9944L36.9584 443.963C36.9424 444.395 36.9264 444.707 36.9104 444.899C36.8384 445.683 36.7224 446.259 36.5624 446.627C36.4184 447.011 36.1984 447.327 35.9024 447.575C35.6064 447.815 35.2464 447.923 34.8224 447.899C34.6944 447.899 34.6104 447.895 34.5704 447.887ZM43.3977 447.887H42.5337V442.091H43.3977V444.527H46.9617V442.091H47.8257V447.887H46.9617V445.307H43.3977V447.887ZM50.2656 447.959C50.0896 447.959 49.9416 447.899 49.8216 447.779C49.7016 447.659 49.6416 447.511 49.6416 447.335C49.6416 447.159 49.7016 447.011 49.8216 446.891C49.9416 446.771 50.0896 446.711 50.2656 446.711C50.4416 446.711 50.5896 446.771 50.7096 446.891C50.8296 447.011 50.8896 447.159 50.8896 447.335C50.8896 447.511 50.8296 447.659 50.7096 447.779C50.5896 447.899 50.4416 447.959 50.2656 447.959Z" fill="white"/>
<path d="M9.64117 275.031C8.65717 275.031 7.84117 274.827 7.19317 274.419V273.495C7.87317 273.967 8.67317 274.203 9.59317 274.203C10.2252 274.203 10.7772 274.027 11.2492 273.675C11.7212 273.315 11.9572 272.831 11.9572 272.223C11.9572 271.647 11.7492 271.187 11.3332 270.843C10.9252 270.491 10.3732 270.315 9.67717 270.315C9.34117 270.315 9.02917 270.355 8.74117 270.435V269.823L11.3332 267.291H7.54117V266.487H12.5332V267.147L10.0252 269.607C10.7612 269.623 11.4132 269.871 11.9812 270.351C12.5572 270.831 12.8452 271.455 12.8452 272.223C12.8452 273.055 12.5372 273.731 11.9212 274.251C11.3052 274.771 10.5452 275.031 9.64117 275.031ZM14.2803 276.711H13.5843L14.5443 273.651H15.5523L14.2803 276.711ZM19.3002 275.031C18.3882 275.031 17.6162 274.847 16.9842 274.479V273.591C17.6402 273.999 18.4042 274.203 19.2762 274.203C19.9882 274.203 20.5762 274.019 21.0402 273.651C21.5042 273.283 21.7362 272.811 21.7362 272.235C21.7362 271.667 21.5162 271.207 21.0762 270.855C20.6442 270.495 20.0682 270.315 19.3482 270.315C18.6602 270.315 17.9882 270.431 17.3322 270.663L17.8842 266.487H22.0362V267.291H18.5562L18.2202 269.715C18.6042 269.611 19.0482 269.559 19.5522 269.559C20.4322 269.559 21.1642 269.811 21.7482 270.315C22.3322 270.803 22.6242 271.443 22.6242 272.235C22.6242 273.067 22.3082 273.739 21.6762 274.251C21.0362 274.771 20.2442 275.031 19.3002 275.031ZM28.4245 274.887H27.5845V269.091H28.4245L30.7405 271.779L33.0685 269.091H33.9085V274.887H33.0685V270.279L30.9085 272.787H30.5725L28.4245 270.279V274.887ZM35.1836 274.887V274.095C35.2236 274.103 35.2996 274.107 35.4116 274.107C35.9156 274.107 36.2596 273.787 36.4436 273.147C36.5956 272.635 36.6916 271.899 36.7316 270.939L36.7796 269.091H41.1116V274.887H40.2476V269.847H37.6076L37.5716 270.963C37.5556 271.395 37.5396 271.707 37.5236 271.899C37.4516 272.683 37.3356 273.259 37.1756 273.627C37.0316 274.011 36.8116 274.327 36.5156 274.575C36.2196 274.815 35.8596 274.923 35.4356 274.899C35.3076 274.899 35.2236 274.895 35.1836 274.887ZM44.011 274.887H43.147V269.091H44.011V271.527H47.575V269.091H48.439V274.887H47.575V272.307H44.011V274.887ZM50.8789 274.959C50.7029 274.959 50.5549 274.899 50.4349 274.779C50.3149 274.659 50.2549 274.511 50.2549 274.335C50.2549 274.159 50.3149 274.011 50.4349 273.891C50.5549 273.771 50.7029 273.711 50.8789 273.711C51.0549 273.711 51.2029 273.771 51.3229 273.891C51.4429 274.011 51.5029 274.159 51.5029 274.335C51.5029 274.511 51.4429 274.659 51.3229 274.779C51.2029 274.899 51.0549 274.959 50.8789 274.959Z" fill="white"/>
<path d="M9.60883 99.0307C8.69683 99.0307 7.92483 98.8467 7.29283 98.4787V97.5907C7.94883 97.9987 8.71283 98.2027 9.58483 98.2027C10.2968 98.2027 10.8848 98.0187 11.3488 97.6507C11.8128 97.2827 12.0448 96.8107 12.0448 96.2347C12.0448 95.6667 11.8248 95.2067 11.3848 94.8547C10.9528 94.4947 10.3768 94.3147 9.65683 94.3147C8.96883 94.3147 8.29683 94.4307 7.64083 94.6627L8.19283 90.4867H12.3448V91.2907H8.86483L8.52883 93.7147C8.91283 93.6107 9.35683 93.5587 9.86083 93.5587C10.7408 93.5587 11.4728 93.8107 12.0568 94.3147C12.6408 94.8027 12.9328 95.4427 12.9328 96.2347C12.9328 97.0667 12.6168 97.7387 11.9848 98.2507C11.3448 98.7707 10.5528 99.0307 9.60883 99.0307ZM14.4326 100.711H13.7366L14.6966 97.6507H15.7046L14.4326 100.711ZM19.4526 99.0307C18.5406 99.0307 17.7686 98.8467 17.1366 98.4787V97.5907C17.7926 97.9987 18.5566 98.2027 19.4286 98.2027C20.1406 98.2027 20.7286 98.0187 21.1926 97.6507C21.6566 97.2827 21.8886 96.8107 21.8886 96.2347C21.8886 95.6667 21.6686 95.2067 21.2286 94.8547C20.7966 94.4947 20.2206 94.3147 19.5006 94.3147C18.8126 94.3147 18.1406 94.4307 17.4846 94.6627L18.0366 90.4867H22.1886V91.2907H18.7086L18.3726 93.7147C18.7566 93.6107 19.2006 93.5587 19.7046 93.5587C20.5846 93.5587 21.3166 93.8107 21.9006 94.3147C22.4846 94.8027 22.7766 95.4427 22.7766 96.2347C22.7766 97.0667 22.4606 97.7387 21.8286 98.2507C21.1886 98.7707 20.3966 99.0307 19.4526 99.0307ZM28.5768 98.8867H27.7368V93.0907H28.5768L30.8928 95.7787L33.2208 93.0907H34.0608V98.8867H33.2208V94.2787L31.0608 96.7867H30.7248L28.5768 94.2787V98.8867ZM35.336 98.8867V98.0947C35.376 98.1027 35.452 98.1067 35.564 98.1067C36.068 98.1067 36.412 97.7867 36.596 97.1467C36.748 96.6347 36.844 95.8987 36.884 94.9387L36.932 93.0907H41.264V98.8867H40.4V93.8467H37.76L37.724 94.9627C37.708 95.3947 37.692 95.7067 37.676 95.8987C37.604 96.6827 37.488 97.2587 37.328 97.6267C37.184 98.0107 36.964 98.3267 36.668 98.5747C36.372 98.8147 36.012 98.9227 35.588 98.8987C35.46 98.8987 35.376 98.8947 35.336 98.8867ZM44.1633 98.8867H43.2993V93.0907H44.1633V95.5267H47.7273V93.0907H48.5913V98.8867H47.7273V96.3067H44.1633V98.8867ZM51.0312 98.9587C50.8552 98.9587 50.7072 98.8987 50.5872 98.7787C50.4672 98.6587 50.4072 98.5107 50.4072 98.3347C50.4072 98.1587 50.4672 98.0107 50.5872 97.8907C50.7072 97.7707 50.8552 97.7107 51.0312 97.7107C51.2072 97.7107 51.3552 97.7707 51.4752 97.8907C51.5952 98.0107 51.6552 98.1587 51.6552 98.3347C51.6552 98.5107 51.5952 98.6587 51.4752 98.7787C51.3552 98.8987 51.2072 98.9587 51.0312 98.9587Z" fill="white"/>
<path d="M12.8536 360.887H7.12956V360.227L9.96156 357.527C10.5856 356.935 11.0216 356.459 11.2696 356.099C11.5256 355.723 11.6536 355.303 11.6536 354.839C11.6536 354.343 11.4776 353.943 11.1256 353.639C10.7736 353.327 10.3136 353.171 9.74556 353.171C8.85756 353.171 8.04956 353.547 7.32156 354.299V353.303C8.03356 352.663 8.86956 352.343 9.82956 352.343C10.6056 352.343 11.2496 352.563 11.7616 353.003C12.2816 353.451 12.5416 354.027 12.5416 354.731C12.5416 355.291 12.4016 355.803 12.1216 356.267C11.8416 356.723 11.3616 357.271 10.6816 357.911L8.42556 360.083H12.8536V360.887ZM14.3799 362.711H13.6839L14.6439 359.651H15.6519L14.3799 362.711ZM19.3998 361.031C18.4878 361.031 17.7158 360.847 17.0838 360.479V359.591C17.7398 359.999 18.5038 360.203 19.3758 360.203C20.0878 360.203 20.6758 360.019 21.1398 359.651C21.6038 359.283 21.8358 358.811 21.8358 358.235C21.8358 357.667 21.6158 357.207 21.1758 356.855C20.7438 356.495 20.1678 356.315 19.4478 356.315C18.7598 356.315 18.0878 356.431 17.4318 356.663L17.9838 352.487H22.1358V353.291H18.6558L18.3198 355.715C18.7038 355.611 19.1478 355.559 19.6518 355.559C20.5318 355.559 21.2638 355.811 21.8478 356.315C22.4318 356.803 22.7238 357.443 22.7238 358.235C22.7238 359.067 22.4078 359.739 21.7758 360.251C21.1358 360.771 20.3438 361.031 19.3998 361.031ZM28.5241 360.887H27.6841V355.091H28.5241L30.8401 357.779L33.1681 355.091H34.0081V360.887H33.1681V356.279L31.0081 358.787H30.6721L28.5241 356.279V360.887ZM35.2833 360.887V360.095C35.3233 360.103 35.3993 360.107 35.5113 360.107C36.0153 360.107 36.3593 359.787 36.5433 359.147C36.6953 358.635 36.7913 357.899 36.8313 356.939L36.8793 355.091H41.2113V360.887H40.3473V355.847H37.7073L37.6713 356.963C37.6553 357.395 37.6393 357.707 37.6233 357.899C37.5513 358.683 37.4353 359.259 37.2753 359.627C37.1313 360.011 36.9113 360.327 36.6152 360.575C36.3193 360.815 35.9593 360.923 35.5353 360.899C35.4073 360.899 35.3233 360.895 35.2833 360.887ZM44.1106 360.887H43.2466V355.091H44.1106V357.527H47.6746V355.091H48.5386V360.887H47.6746V358.307H44.1106V360.887ZM50.9785 360.959C50.8025 360.959 50.6545 360.899 50.5345 360.779C50.4145 360.659 50.3545 360.511 50.3545 360.335C50.3545 360.159 50.4145 360.011 50.5345 359.891C50.6545 359.771 50.8025 359.711 50.9785 359.711C51.1545 359.711 51.3025 359.771 51.4225 359.891C51.5425 360.011 51.6025 360.159 51.6025 360.335C51.6025 360.511 51.5425 360.659 51.4225 360.779C51.3025 360.899 51.1545 360.959 50.9785 360.959Z" fill="white"/>
<path d="M12.14 186.887H11.276V184.571H6.76403V183.863L11.288 178.487H12.14V183.767H13.532V184.571H12.14V186.887ZM11.276 179.663L7.79603 183.767H11.276V179.663ZM14.6494 188.711H13.9534L14.9134 185.651H15.9214L14.6494 188.711ZM19.6694 187.031C18.7574 187.031 17.9854 186.847 17.3534 186.479V185.591C18.0094 185.999 18.7734 186.203 19.6454 186.203C20.3574 186.203 20.9454 186.019 21.4094 185.651C21.8734 185.283 22.1054 184.811 22.1054 184.235C22.1054 183.667 21.8854 183.207 21.4454 182.855C21.0134 182.495 20.4374 182.315 19.7174 182.315C19.0294 182.315 18.3574 182.431 17.7014 182.663L18.2534 178.487H22.4054V179.291H18.9254L18.5894 181.715C18.9734 181.611 19.4174 181.559 19.9214 181.559C20.8014 181.559 21.5334 181.811 22.1174 182.315C22.7014 182.803 22.9934 183.443 22.9934 184.235C22.9934 185.067 22.6774 185.739 22.0454 186.251C21.4054 186.771 20.6134 187.031 19.6694 187.031ZM28.7936 186.887H27.9536V181.091H28.7936L31.1096 183.779L33.4376 181.091H34.2776V186.887H33.4376V182.279L31.2776 184.787H30.9416L28.7936 182.279V186.887ZM35.5528 186.887V186.095C35.5928 186.103 35.6688 186.107 35.7808 186.107C36.2848 186.107 36.6288 185.787 36.8128 185.147C36.9648 184.635 37.0608 183.899 37.1008 182.939L37.1488 181.091H41.4808V186.887H40.6168V181.847H37.9768L37.9408 182.963C37.9248 183.395 37.9088 183.707 37.8928 183.899C37.8208 184.683 37.7048 185.259 37.5448 185.627C37.4008 186.011 37.1808 186.327 36.8848 186.575C36.5888 186.815 36.2288 186.923 35.8048 186.899C35.6768 186.899 35.5928 186.895 35.5528 186.887ZM44.3801 186.887H43.5161V181.091H44.3801V183.527H47.9441V181.091H48.8081V186.887H47.9441V184.307H44.3801V186.887ZM51.248 186.959C51.072 186.959 50.924 186.899 50.804 186.779C50.684 186.659 50.624 186.511 50.624 186.335C50.624 186.159 50.684 186.011 50.804 185.891C50.924 185.771 51.072 185.711 51.248 185.711C51.424 185.711 51.572 185.771 51.692 185.891C51.812 186.011 51.872 186.159 51.872 186.335C51.872 186.511 51.812 186.659 51.692 186.779C51.572 186.899 51.424 186.959 51.248 186.959Z" fill="white"/>
<path d="M10.3816 12.0307C9.39761 12.0307 8.62161 11.6867 8.05361 10.9987C7.48561 10.2947 7.20161 9.32672 7.20161 8.09472C7.17761 6.75072 7.50161 5.62272 8.17361 4.71072C8.84561 3.79072 9.73761 3.33472 10.8496 3.34272C11.5456 3.34272 12.1376 3.51472 12.6256 3.85872V4.71072C12.0976 4.35072 11.5296 4.17072 10.9216 4.17072C10.2896 4.17072 9.75361 4.35072 9.31361 4.71072C8.87361 5.07072 8.55761 5.51072 8.36561 6.03072C8.18161 6.55072 8.08161 7.12672 8.06561 7.75872C8.28961 7.37472 8.61361 7.07072 9.03761 6.84672C9.46961 6.62272 9.96561 6.51072 10.5256 6.51072C11.2936 6.51072 11.9336 6.76272 12.4456 7.26672C12.9736 7.75472 13.2376 8.39472 13.2376 9.18672C13.2376 10.0107 12.9616 10.6907 12.4096 11.2267C11.8736 11.7627 11.1976 12.0307 10.3816 12.0307ZM10.3336 11.2027C10.9016 11.2027 11.3816 11.0147 11.7736 10.6387C12.1656 10.2547 12.3616 9.77072 12.3616 9.18672C12.3616 8.61072 12.1656 8.15072 11.7736 7.80672C11.3816 7.46272 10.8936 7.29072 10.3096 7.29072C9.81361 7.29072 9.35761 7.44672 8.94161 7.75872C8.53361 8.06272 8.24961 8.45072 8.08961 8.92272C8.16161 9.65072 8.38961 10.2147 8.77361 10.6147C9.16561 11.0067 9.68561 11.2027 10.3336 11.2027ZM14.6319 13.7107H13.9359L14.8959 10.6507H15.9039L14.6319 13.7107ZM19.6518 12.0307C18.7398 12.0307 17.9678 11.8467 17.3358 11.4787V10.5907C17.9918 10.9987 18.7558 11.2027 19.6278 11.2027C20.3398 11.2027 20.9278 11.0187 21.3918 10.6507C21.8558 10.2827 22.0878 9.81072 22.0878 9.23472C22.0878 8.66672 21.8678 8.20672 21.4278 7.85472C20.9958 7.49472 20.4198 7.31472 19.6998 7.31472C19.0118 7.31472 18.3398 7.43072 17.6838 7.66272L18.2358 3.48672H22.3878V4.29072H18.9078L18.5718 6.71472C18.9558 6.61072 19.3998 6.55872 19.9038 6.55872C20.7838 6.55872 21.5158 6.81072 22.0998 7.31472C22.6838 7.80272 22.9758 8.44272 22.9758 9.23472C22.9758 10.0667 22.6598 10.7387 22.0278 11.2507C21.3878 11.7707 20.5958 12.0307 19.6518 12.0307ZM28.776 11.8867H27.936V6.09072H28.776L31.092 8.77872L33.42 6.09072H34.26V11.8867H33.42V7.27872L31.26 9.78672H30.924L28.776 7.27872V11.8867ZM35.5352 11.8867V11.0947C35.5752 11.1027 35.6512 11.1067 35.7632 11.1067C36.2672 11.1067 36.6112 10.7867 36.7952 10.1467C36.9472 9.63472 37.0432 8.89872 37.0832 7.93872L37.1312 6.09072H41.4632V11.8867H40.5992V6.84672H37.9592L37.9232 7.96272C37.9072 8.39472 37.8912 8.70672 37.8752 8.89872C37.8032 9.68272 37.6872 10.2587 37.5272 10.6267C37.3832 11.0107 37.1632 11.3267 36.8672 11.5747C36.5712 11.8147 36.2112 11.9227 35.7872 11.8987C35.6592 11.8987 35.5752 11.8947 35.5352 11.8867ZM44.3625 11.8867H43.4985V6.09072H44.3625V8.52672H47.9265V6.09072H48.7905V11.8867H47.9265V9.30672H44.3625V11.8867ZM51.2305 11.9587C51.0545 11.9587 50.9065 11.8987 50.7865 11.7787C50.6665 11.6587 50.6065 11.5107 50.6065 11.3347C50.6065 11.1587 50.6665 11.0107 50.7865 10.8907C50.9065 10.7707 51.0545 10.7107 51.2305 10.7107C51.4065 10.7107 51.5545 10.7707 51.6745 10.8907C51.7945 11.0107 51.8545 11.1587 51.8545 11.3347C51.8545 11.5107 51.7945 11.6587 51.6745 11.7787C51.5545 11.8987 51.4065 11.9587 51.2305 11.9587Z" fill="white"/>
<path d="M216.087 544.887H215.211V536.487H216.087L219.123 540.555L222.159 536.487H223.023V544.887H222.147V537.831L219.399 541.503H218.859L216.087 537.831V544.887ZM227.987 545.031C227.083 545.031 226.323 544.747 225.707 544.179C225.099 543.619 224.795 542.891 224.795 541.995C224.795 541.131 225.067 540.407 225.611 539.823C226.163 539.239 226.871 538.947 227.735 538.947C228.199 538.947 228.611 539.043 228.971 539.235C229.331 539.419 229.615 539.663 229.823 539.967C230.031 540.271 230.187 540.595 230.291 540.939C230.395 541.275 230.447 541.615 230.447 541.959V542.199H225.683C225.731 542.823 225.979 543.323 226.427 543.699C226.883 544.067 227.459 544.251 228.155 544.251C228.827 544.251 229.447 544.071 230.015 543.711V544.479C229.543 544.847 228.867 545.031 227.987 545.031ZM225.695 541.491H229.571C229.547 541.043 229.379 540.639 229.067 540.279C228.771 539.911 228.315 539.727 227.699 539.727C227.123 539.727 226.651 539.903 226.283 540.255C225.923 540.615 225.727 541.027 225.695 541.491ZM234.735 545.031C233.847 545.031 233.111 544.743 232.527 544.167C231.943 543.583 231.651 542.855 231.651 541.983C231.651 541.119 231.947 540.399 232.539 539.823C233.123 539.239 233.859 538.947 234.747 538.947C235.419 538.947 236.003 539.087 236.499 539.367V540.171C235.979 539.875 235.435 539.727 234.867 539.727C234.195 539.727 233.639 539.943 233.199 540.375C232.759 540.791 232.539 541.331 232.539 541.995C232.539 542.643 232.759 543.183 233.199 543.615C233.647 544.039 234.203 544.251 234.867 544.251C235.507 544.251 236.087 544.083 236.607 543.747V544.539C236.063 544.867 235.439 545.031 234.735 545.031ZM238.892 544.887H237.908L239.636 542.571C239.164 542.491 238.8 542.303 238.544 542.007C238.296 541.703 238.172 541.319 238.172 540.855C238.172 540.319 238.352 539.891 238.712 539.571C239.08 539.251 239.592 539.091 240.248 539.091H243.236V544.887H242.372V542.727H240.512L238.892 544.887ZM240.38 541.971H242.372V539.847H240.38C239.956 539.847 239.628 539.939 239.396 540.123C239.172 540.307 239.06 540.571 239.06 540.915C239.06 541.259 239.172 541.523 239.396 541.707C239.628 541.883 239.956 541.971 240.38 541.971ZM251.518 546.603H250.69V544.887H245.278V539.091H246.142V544.131H249.586V539.091H250.45V544.131H251.518V546.603ZM261.326 544.887H255.602V544.227L258.434 541.527C259.058 540.935 259.494 540.459 259.742 540.099C259.998 539.723 260.126 539.303 260.126 538.839C260.126 538.343 259.95 537.943 259.598 537.639C259.246 537.327 258.786 537.171 258.218 537.171C257.33 537.171 256.522 537.547 255.794 538.299V537.303C256.506 536.663 257.342 536.343 258.302 536.343C259.078 536.343 259.722 536.563 260.234 537.003C260.754 537.451 261.014 538.027 261.014 538.731C261.014 539.291 260.874 539.803 260.594 540.267C260.314 540.723 259.834 541.271 259.154 541.911L256.898 544.083H261.326V544.887Z" fill="white"/>
<path d="M323.857 544.887H322.969V536.487H323.857V539.979H328.849V536.487H329.737V544.887H328.849V540.783H323.857V544.887ZM333.886 544.251C334.286 544.251 334.666 544.159 335.026 543.975C335.386 543.791 335.678 543.559 335.902 543.279V542.475C335.31 542.091 334.682 541.899 334.018 541.899C333.49 541.899 333.07 542.003 332.758 542.211C332.454 542.419 332.302 542.703 332.302 543.063C332.302 543.439 332.45 543.731 332.746 543.939C333.042 544.147 333.422 544.251 333.886 544.251ZM333.646 545.031C333.03 545.031 332.506 544.863 332.074 544.527C331.65 544.175 331.438 543.703 331.438 543.111C331.438 542.527 331.662 542.059 332.11 541.707C332.558 541.363 333.126 541.191 333.814 541.191C334.566 541.191 335.262 541.379 335.902 541.755V541.179C335.902 540.211 335.266 539.727 333.994 539.727C333.314 539.727 332.682 539.923 332.098 540.315V539.475C332.666 539.123 333.358 538.947 334.174 538.947C334.966 538.947 335.594 539.135 336.058 539.511C336.53 539.879 336.766 540.407 336.766 541.095V543.483C336.766 543.707 336.814 543.883 336.91 544.011C337.014 544.139 337.15 544.203 337.318 544.203C337.446 544.203 337.558 544.179 337.654 544.131V544.803C337.526 544.891 337.334 544.935 337.078 544.935C336.79 544.935 336.546 544.859 336.346 544.707C336.154 544.547 336.034 544.315 335.986 544.011C335.402 544.691 334.622 545.031 333.646 545.031ZM343.677 544.887H342.813V542.571C342.253 542.811 341.657 542.931 341.025 542.931C340.217 542.931 339.621 542.747 339.237 542.379C338.861 542.003 338.673 541.391 338.673 540.543V539.091H339.537V540.471C339.537 541.095 339.661 541.531 339.909 541.779C340.165 542.027 340.593 542.151 341.193 542.151C341.777 542.151 342.317 542.023 342.813 541.767V539.091H343.677V544.887ZM347.679 544.251C348.079 544.251 348.459 544.159 348.819 543.975C349.179 543.791 349.471 543.559 349.695 543.279V542.475C349.103 542.091 348.475 541.899 347.811 541.899C347.283 541.899 346.863 542.003 346.551 542.211C346.247 542.419 346.095 542.703 346.095 543.063C346.095 543.439 346.243 543.731 346.539 543.939C346.835 544.147 347.215 544.251 347.679 544.251ZM347.439 545.031C346.823 545.031 346.299 544.863 345.867 544.527C345.443 544.175 345.231 543.703 345.231 543.111C345.231 542.527 345.455 542.059 345.903 541.707C346.351 541.363 346.919 541.191 347.607 541.191C348.359 541.191 349.055 541.379 349.695 541.755V541.179C349.695 540.211 349.059 539.727 347.787 539.727C347.107 539.727 346.475 539.923 345.891 540.315V539.475C346.459 539.123 347.151 538.947 347.967 538.947C348.759 538.947 349.387 539.135 349.851 539.511C350.323 539.879 350.559 540.407 350.559 541.095V543.483C350.559 543.707 350.607 543.883 350.703 544.011C350.807 544.139 350.943 544.203 351.111 544.203C351.239 544.203 351.351 544.179 351.447 544.131V544.803C351.319 544.891 351.127 544.935 350.871 544.935C350.583 544.935 350.339 544.859 350.139 544.707C349.947 544.547 349.827 544.315 349.779 544.011C349.195 544.691 348.415 545.031 347.439 545.031ZM352.08 544.887V544.095C352.12 544.103 352.196 544.107 352.308 544.107C352.812 544.107 353.156 543.787 353.34 543.147C353.492 542.635 353.588 541.899 353.628 540.939L353.676 539.091H358.008V544.887H357.144V539.847H354.504L354.468 540.963C354.452 541.395 354.436 541.707 354.42 541.899C354.348 542.683 354.232 543.259 354.072 543.627C353.928 544.011 353.708 544.327 353.412 544.575C353.116 544.815 352.756 544.923 352.332 544.899C352.204 544.899 352.12 544.895 352.08 544.887ZM360.499 539.847C361.083 539.247 361.835 538.947 362.755 538.947C363.675 538.947 364.427 539.247 365.011 539.847C365.595 540.431 365.887 541.147 365.887 541.995C365.887 542.843 365.595 543.559 365.011 544.143C364.419 544.735 363.667 545.031 362.755 545.031C361.843 545.031 361.091 544.735 360.499 544.143C359.915 543.559 359.623 542.843 359.623 541.995C359.623 541.147 359.915 540.431 360.499 539.847ZM364.999 541.995C364.999 541.355 364.787 540.815 364.363 540.375C363.939 539.943 363.403 539.727 362.755 539.727C362.107 539.727 361.571 539.943 361.147 540.375C360.723 540.815 360.511 541.355 360.511 541.995C360.511 542.627 360.723 543.163 361.147 543.603C361.571 544.035 362.107 544.251 362.755 544.251C363.403 544.251 363.939 544.035 364.363 543.603C364.787 543.163 364.999 542.627 364.999 541.995ZM371.525 543.963V547.287H370.661V539.091H371.525V540.015C372.069 539.303 372.817 538.947 373.769 538.947C374.625 538.947 375.325 539.243 375.869 539.835C376.413 540.427 376.685 541.143 376.685 541.983C376.685 542.831 376.413 543.551 375.869 544.143C375.325 544.735 374.625 545.031 373.769 545.031C372.817 545.031 372.069 544.675 371.525 543.963ZM371.525 541.035V542.943C371.693 543.327 371.965 543.643 372.341 543.891C372.717 544.131 373.125 544.251 373.565 544.251C374.213 544.251 374.745 544.035 375.161 543.603C375.585 543.155 375.797 542.615 375.797 541.983C375.797 541.351 375.585 540.815 375.161 540.375C374.745 539.943 374.213 539.727 373.565 539.727C373.133 539.727 372.729 539.851 372.353 540.099C371.977 540.339 371.701 540.651 371.525 541.035ZM380.246 544.251C380.646 544.251 381.026 544.159 381.386 543.975C381.746 543.791 382.038 543.559 382.262 543.279V542.475C381.67 542.091 381.042 541.899 380.378 541.899C379.85 541.899 379.43 542.003 379.118 542.211C378.814 542.419 378.662 542.703 378.662 543.063C378.662 543.439 378.81 543.731 379.106 543.939C379.402 544.147 379.782 544.251 380.246 544.251ZM380.006 545.031C379.39 545.031 378.866 544.863 378.434 544.527C378.01 544.175 377.798 543.703 377.798 543.111C377.798 542.527 378.022 542.059 378.47 541.707C378.918 541.363 379.486 541.191 380.174 541.191C380.926 541.191 381.622 541.379 382.262 541.755V541.179C382.262 540.211 381.626 539.727 380.354 539.727C379.674 539.727 379.042 539.923 378.458 540.315V539.475C379.026 539.123 379.718 538.947 380.534 538.947C381.326 538.947 381.954 539.135 382.418 539.511C382.89 539.879 383.126 540.407 383.126 541.095V543.483C383.126 543.707 383.174 543.883 383.27 544.011C383.374 544.139 383.51 544.203 383.678 544.203C383.806 544.203 383.918 544.179 384.014 544.131V544.803C383.886 544.891 383.694 544.935 383.438 544.935C383.15 544.935 382.906 544.859 382.706 544.707C382.514 544.547 382.394 544.315 382.346 544.011C381.762 544.691 380.982 545.031 380.006 545.031ZM388.247 545.031C387.255 545.031 386.483 544.687 385.931 543.999C385.379 543.311 385.103 542.375 385.103 541.191C385.103 539.671 385.491 538.555 386.267 537.843C386.531 537.579 386.991 537.315 387.647 537.051C387.935 536.947 388.223 536.859 388.511 536.787C388.807 536.707 389.123 536.631 389.459 536.559C389.563 536.535 389.739 536.499 389.987 536.451C390.243 536.403 390.423 536.371 390.527 536.355V537.159C389.703 537.319 389.067 537.451 388.619 537.555C387.731 537.763 387.071 538.095 386.639 538.551C386.191 539.023 385.951 539.739 385.919 540.699C386.159 540.283 386.503 539.955 386.951 539.715C387.407 539.475 387.919 539.355 388.487 539.355C389.247 539.355 389.883 539.611 390.395 540.123C390.907 540.627 391.163 541.275 391.163 542.067C391.163 542.939 390.883 543.651 390.323 544.203C389.763 544.755 389.071 545.031 388.247 545.031ZM388.247 544.251C388.815 544.251 389.295 544.055 389.687 543.663C390.087 543.263 390.287 542.751 390.287 542.127C390.287 541.527 390.095 541.047 389.711 540.687C389.335 540.319 388.863 540.135 388.295 540.135C387.775 540.135 387.307 540.291 386.891 540.603C386.475 540.899 386.175 541.259 385.991 541.683C386.031 542.499 386.243 543.131 386.627 543.579C387.019 544.027 387.559 544.251 388.247 544.251ZM393.23 539.847C393.814 539.247 394.566 538.947 395.486 538.947C396.406 538.947 397.158 539.247 397.742 539.847C398.326 540.431 398.618 541.147 398.618 541.995C398.618 542.843 398.326 543.559 397.742 544.143C397.15 544.735 396.398 545.031 395.486 545.031C394.574 545.031 393.822 544.735 393.23 544.143C392.646 543.559 392.354 542.843 392.354 541.995C392.354 541.147 392.646 540.431 393.23 539.847ZM397.73 541.995C397.73 541.355 397.518 540.815 397.094 540.375C396.67 539.943 396.134 539.727 395.486 539.727C394.838 539.727 394.302 539.943 393.878 540.375C393.454 540.815 393.242 541.355 393.242 541.995C393.242 542.627 393.454 543.163 393.878 543.603C394.302 544.035 394.838 544.251 395.486 544.251C396.134 544.251 396.67 544.035 397.094 543.603C397.518 543.163 397.73 542.627 397.73 541.995ZM402.284 544.887H401.42V539.847H399.32V539.091H404.384V539.847H402.284V544.887ZM412.335 544.887H411.471V539.091H412.335V544.887ZM408.339 544.887H405.711V539.091H406.575V541.035H408.303C408.975 541.035 409.511 541.211 409.911 541.563C410.311 541.907 410.511 542.371 410.511 542.955C410.511 543.539 410.319 544.007 409.935 544.359C409.551 544.711 409.019 544.887 408.339 544.887ZM406.575 541.791V544.131H408.183C408.639 544.131 408.995 544.031 409.251 543.831C409.507 543.623 409.635 543.335 409.635 542.967C409.635 542.591 409.507 542.303 409.251 542.103C408.995 541.895 408.639 541.791 408.183 541.791H406.575ZM420.2 545.031C419.312 545.031 418.576 544.743 417.992 544.167C417.408 543.583 417.116 542.855 417.116 541.983C417.116 541.119 417.412 540.399 418.004 539.823C418.588 539.239 419.324 538.947 420.212 538.947C420.884 538.947 421.468 539.087 421.964 539.367V540.171C421.444 539.875 420.9 539.727 420.332 539.727C419.66 539.727 419.104 539.943 418.664 540.375C418.224 540.791 418.004 541.331 418.004 541.995C418.004 542.643 418.224 543.183 418.664 543.615C419.112 544.039 419.668 544.251 420.332 544.251C420.972 544.251 421.552 544.083 422.072 543.747V544.539C421.528 544.867 420.904 545.031 420.2 545.031ZM427.857 544.887H426.993V539.091H427.857V541.527H431.421V539.091H432.285V544.887H431.421V542.307H427.857V544.887ZM436.285 544.251C436.685 544.251 437.065 544.159 437.425 543.975C437.785 543.791 438.077 543.559 438.301 543.279V542.475C437.709 542.091 437.081 541.899 436.417 541.899C435.889 541.899 435.469 542.003 435.157 542.211C434.853 542.419 434.701 542.703 434.701 543.063C434.701 543.439 434.849 543.731 435.145 543.939C435.441 544.147 435.821 544.251 436.285 544.251ZM436.045 545.031C435.429 545.031 434.905 544.863 434.473 544.527C434.049 544.175 433.837 543.703 433.837 543.111C433.837 542.527 434.061 542.059 434.509 541.707C434.957 541.363 435.525 541.191 436.213 541.191C436.965 541.191 437.661 541.379 438.301 541.755V541.179C438.301 540.211 437.665 539.727 436.393 539.727C435.713 539.727 435.081 539.923 434.497 540.315V539.475C435.065 539.123 435.757 538.947 436.573 538.947C437.365 538.947 437.993 539.135 438.457 539.511C438.929 539.879 439.165 540.407 439.165 541.095V543.483C439.165 543.707 439.213 543.883 439.309 544.011C439.413 544.139 439.549 544.203 439.717 544.203C439.845 544.203 439.957 544.179 440.053 544.131V544.803C439.925 544.891 439.733 544.935 439.477 544.935C439.189 544.935 438.945 544.859 438.745 544.707C438.553 544.547 438.433 544.315 438.385 544.011C437.801 544.691 437.021 545.031 436.045 545.031ZM442.294 544.887H441.454V539.091H442.294L444.61 541.779L446.938 539.091H447.778V544.887H446.938V540.279L444.778 542.787H444.442L442.294 540.279V544.887ZM450.625 544.887H449.821V539.091H450.685V543.615L454.393 539.091H455.197V544.887H454.333V540.375L450.625 544.887Z" fill="#FF2323"/>
<path d="M515.349 544.887H514.473V536.487H515.349L518.385 540.555L521.421 536.487H522.285V544.887H521.409V537.831L518.661 541.503H518.121L515.349 537.831V544.887ZM527.249 545.031C526.345 545.031 525.585 544.747 524.969 544.179C524.361 543.619 524.057 542.891 524.057 541.995C524.057 541.131 524.329 540.407 524.873 539.823C525.425 539.239 526.133 538.947 526.997 538.947C527.461 538.947 527.873 539.043 528.233 539.235C528.593 539.419 528.877 539.663 529.085 539.967C529.293 540.271 529.449 540.595 529.553 540.939C529.657 541.275 529.709 541.615 529.709 541.959V542.199H524.945C524.993 542.823 525.241 543.323 525.689 543.699C526.145 544.067 526.721 544.251 527.417 544.251C528.089 544.251 528.709 544.071 529.277 543.711V544.479C528.805 544.847 528.129 545.031 527.249 545.031ZM524.957 541.491H528.833C528.809 541.043 528.641 540.639 528.329 540.279C528.033 539.911 527.577 539.727 526.961 539.727C526.385 539.727 525.913 539.903 525.545 540.255C525.185 540.615 524.989 541.027 524.957 541.491ZM533.997 545.031C533.109 545.031 532.373 544.743 531.789 544.167C531.205 543.583 530.913 542.855 530.913 541.983C530.913 541.119 531.209 540.399 531.801 539.823C532.385 539.239 533.121 538.947 534.009 538.947C534.681 538.947 535.265 539.087 535.761 539.367V540.171C535.241 539.875 534.697 539.727 534.129 539.727C533.457 539.727 532.901 539.943 532.461 540.375C532.021 540.791 531.801 541.331 531.801 541.995C531.801 542.643 532.021 543.183 532.461 543.615C532.909 544.039 533.465 544.251 534.129 544.251C534.769 544.251 535.349 544.083 535.869 543.747V544.539C535.325 544.867 534.701 545.031 533.997 545.031ZM538.153 544.887H537.169L538.897 542.571C538.425 542.491 538.061 542.303 537.805 542.007C537.557 541.703 537.433 541.319 537.433 540.855C537.433 540.319 537.613 539.891 537.973 539.571C538.341 539.251 538.853 539.091 539.509 539.091H542.497V544.887H541.633V542.727H539.773L538.153 544.887ZM539.641 541.971H541.633V539.847H539.641C539.217 539.847 538.889 539.939 538.657 540.123C538.433 540.307 538.321 540.571 538.321 540.915C538.321 541.259 538.433 541.523 538.657 541.707C538.889 541.883 539.217 541.971 539.641 541.971ZM550.78 546.603H549.952V544.887H544.54V539.091H545.404V544.131H548.848V539.091H549.712V544.131H550.78V546.603ZM557.504 544.887H556.628V537.447L554.744 538.527V537.675L556.724 536.487H557.504V544.887ZM565.065 544.887H559.341V544.227L562.173 541.527C562.797 540.935 563.233 540.459 563.481 540.099C563.737 539.723 563.865 539.303 563.865 538.839C563.865 538.343 563.689 537.943 563.337 537.639C562.985 537.327 562.525 537.171 561.957 537.171C561.069 537.171 560.261 537.547 559.533 538.299V537.303C560.245 536.663 561.081 536.343 562.041 536.343C562.817 536.343 563.461 536.563 563.973 537.003C564.493 537.451 564.753 538.027 564.753 538.731C564.753 539.291 564.613 539.803 564.333 540.267C564.053 540.723 563.573 541.271 562.893 541.911L560.637 544.083H565.065V544.887Z" fill="#FF2323"/>
<path fill-rule="evenodd" clip-rule="evenodd" d="M85 494L85 8L86 8L86 494L85 494Z" fill="#5E5E5E"/>
<path fill-rule="evenodd" clip-rule="evenodd" d="M186 498L186 8L187 8L187 498L186 498Z" fill="#5E5E5E"/>
<path fill-rule="evenodd" clip-rule="evenodd" d="M287 498L287 8L288 8L288 498L287 498Z" fill="#5E5E5E"/>
<path fill-rule="evenodd" clip-rule="evenodd" d="M388 498L388 8L389 8L389 498L388 498Z" fill="#5E5E5E"/>
<path fill-rule="evenodd" clip-rule="evenodd" d="M489 498L489 8L490 8L490 498L489 498Z" fill="#5E5E5E"/>
<path fill-rule="evenodd" clip-rule="evenodd" d="M590 498L590 11L591 11L591 498L590 498Z" fill="#5E5E5E"/>
<path fill-rule="evenodd" clip-rule="evenodd" d="M81 12L595 12.0001L595 13L81 12.9999L81 12Z" fill="#5E5E5E"/>
<path fill-rule="evenodd" clip-rule="evenodd" d="M81 274L595 274L595 276L81 276L81 274Z" fill="#5E5E5E"/>
<path fill-rule="evenodd" clip-rule="evenodd" d="M81 56L595 56L595 57L81 57L81 56Z" fill="#5E5E5E"/>
<path fill-rule="evenodd" clip-rule="evenodd" d="M81 318L595 318L595 319L81 319L81 318Z" fill="#5E5E5E"/>
<path fill-rule="evenodd" clip-rule="evenodd" d="M81 99L595 99L595 101L81 101L81 99Z" fill="#5E5E5E"/>
<path fill-rule="evenodd" clip-rule="evenodd" d="M81 362L595 362L595 363L81 363L81 362Z" fill="#5E5E5E"/>
<path fill-rule="evenodd" clip-rule="evenodd" d="M81 143L595 143L595 145L81 145L81 143Z" fill="#5E5E5E"/>
<path fill-rule="evenodd" clip-rule="evenodd" d="M81 405L595 405L595 407L81 407L81 405Z" fill="#5E5E5E"/>
<path fill-rule="evenodd" clip-rule="evenodd" d="M81 187L595 187L595 188L81 188L81 187Z" fill="#5E5E5E"/>
<path fill-rule="evenodd" clip-rule="evenodd" d="M81 449L595 449L595 451L81 451L81 449Z" fill="#5E5E5E"/>
<path fill-rule="evenodd" clip-rule="evenodd" d="M81 230L595 230L595 232L81 232L81 230Z" fill="#5E5E5E"/>
<path fill-rule="evenodd" clip-rule="evenodd" d="M81 493L595 493L595 494L81 494L81 493Z" fill="#5E5E5E"/>
<path d="M82 494C140.898 494 123.517 403.793 193.939 403.793C250.773 403.793 245.751 450.255 288.607 450.255C352.627 450.255 310.995 144.044 384.174 144.044C437.951 144.044 421.306 99.4891 480.204 99.4891C526.938 99.4891 515.415 12 576.874 12C600.433 12 596.08 12 590.958 12" stroke="url(#paint1_linear)" stroke-width="10"/>
<defs>
<linearGradient id="paint0_linear" x1="338.5" y1="246.505" x2="338.5" y2="517" gradientUnits="userSpaceOnUse">
<stop stop-color="#D701B6" stop-opacity="0.34"/>
<stop offset="1" stop-color="#DB01B3" stop-opacity="0"/>
</linearGradient>
<linearGradient id="paint1_linear" x1="587.117" y1="8.75934" x2="17.2273" y2="361.741" gradientUnits="userSpaceOnUse">
<stop stop-color="#FF0000"/>
<stop offset="0.515625" stop-color="#FF0099"/>
<stop offset="1" stop-color="#7000FF"/>
</linearGradient>
</defs>
</svg>
