<svg width="280" height="259" viewBox="0 0 280 259" fill="none" xmlns="http://www.w3.org/2000/svg">
<path d="M57.6824 219.909C53.7288 229.827 44.3008 231.746 36.0894 233.346V244.223H280V3.64062H271.18C268.139 3.64062 254.453 12.2786 250.804 17.7173C247.154 23.156 238.639 39.1521 233.773 44.2709C228.907 49.3897 221.303 46.1905 211.875 48.4299C202.447 50.6694 198.798 60.9069 194.236 64.1062C189.674 67.3054 179.03 67.3054 171.122 71.1445C163.215 74.9836 158.957 106.336 157.132 118.493C155.308 130.65 150.746 175.759 148.313 193.995C145.88 212.231 138.276 211.911 130.673 212.551C123.07 213.191 112.121 199.754 105.126 193.995C98.1315 188.236 85.9664 191.436 77.7549 193.035C69.5434 194.635 61.6361 209.991 57.6824 219.909Z" fill="url(#paint0_linear)"/>
<path d="M54.2994 257.482H53.8829V253.488H54.2994L55.7429 255.422L57.1864 253.488H57.5972V257.482H57.1807V254.127L55.8742 255.873H55.6174L54.2994 254.127V257.482Z" fill="white"/>
<path d="M59.9573 257.551C59.5275 257.551 59.1662 257.416 58.8733 257.146C58.5842 256.879 58.4397 256.533 58.4397 256.107C58.4397 255.696 58.569 255.352 58.8277 255.074C59.0901 254.797 59.4267 254.658 59.8375 254.658C60.0581 254.658 60.254 254.704 60.4252 254.795C60.5964 254.882 60.7314 254.998 60.8303 255.143C60.9292 255.287 61.0034 255.441 61.0528 255.605C61.1023 255.765 61.127 255.926 61.127 256.09V256.204H58.8619C58.8847 256.501 59.0026 256.739 59.2156 256.917C59.4324 257.092 59.7063 257.18 60.0372 257.18C60.3567 257.18 60.6515 257.094 60.9216 256.923V257.288C60.6972 257.463 60.3757 257.551 59.9573 257.551ZM58.8676 255.867H60.7105C60.6991 255.654 60.6192 255.462 60.4708 255.291C60.3301 255.116 60.1133 255.029 59.8204 255.029C59.5465 255.029 59.3221 255.112 59.1472 255.28C58.976 255.451 58.8828 255.647 58.8676 255.867Z" fill="white"/>
<path d="M63.1655 257.551C62.7433 257.551 62.3933 257.414 62.1157 257.14C61.838 256.862 61.6992 256.516 61.6992 256.101C61.6992 255.691 61.8399 255.348 62.1214 255.074C62.3991 254.797 62.749 254.658 63.1712 254.658C63.4907 254.658 63.7684 254.724 64.0042 254.858V255.24C63.757 255.099 63.4983 255.029 63.2283 255.029C62.9087 255.029 62.6444 255.131 62.4352 255.337C62.226 255.535 62.1214 255.791 62.1214 256.107C62.1214 256.415 62.226 256.672 62.4352 256.877C62.6482 257.079 62.9125 257.18 63.2283 257.18C63.5325 257.18 63.8083 257.1 64.0556 256.94V257.317C63.7969 257.473 63.5002 257.551 63.1655 257.551Z" fill="white"/>
<path d="M65.142 257.482H64.6741L65.4957 256.381C65.2713 256.343 65.0982 256.254 64.9765 256.113C64.8586 255.968 64.7996 255.786 64.7996 255.565C64.7996 255.31 64.8852 255.107 65.0564 254.955C65.2313 254.802 65.4748 254.726 65.7867 254.726H67.2074V257.482H66.7966V256.455H65.9122L65.142 257.482ZM65.8494 256.096H66.7966V255.086H65.8494C65.6479 255.086 65.4919 255.13 65.3816 255.217C65.2751 255.305 65.2218 255.43 65.2218 255.594C65.2218 255.757 65.2751 255.883 65.3816 255.97C65.4919 256.054 65.6479 256.096 65.8494 256.096Z" fill="white"/>
<path d="M71.1451 258.298H70.7515V257.482H68.1783V254.726H68.5891V257.123H70.2266V254.726H70.6374V257.123H71.1451V258.298Z" fill="white"/>
<path d="M74.3423 257.482H73.9258V253.945L73.0301 254.458V254.053L73.9715 253.488H74.3423V257.482Z" fill="white"/>
<path d="M2.24342 231.807H1.82692V228.27L0.931152 228.784V228.378L1.87256 227.814H2.24342V231.807Z" fill="white"/>
<path d="M3.28209 232.675H2.95117L3.40761 231.22H3.88688L3.28209 232.675Z" fill="white"/>
<path d="M4.59623 229.811C4.59623 229.225 4.74648 228.736 5.04697 228.344C5.35126 227.945 5.74684 227.745 6.23371 227.745C6.71678 227.745 7.11046 227.943 7.41476 228.338C7.71525 228.73 7.86549 229.221 7.86549 229.811C7.86549 230.4 7.71525 230.891 7.41476 231.283C7.11046 231.678 6.71678 231.876 6.23371 231.876C5.74684 231.876 5.35126 231.678 5.04697 231.283C4.74648 230.891 4.59623 230.4 4.59623 229.811ZM7.44899 229.811C7.44899 229.335 7.33488 228.938 7.10666 228.618C6.87844 228.299 6.58746 228.139 6.23371 228.139C5.87997 228.139 5.58899 228.299 5.36077 228.618C5.13255 228.938 5.01844 229.335 5.01844 229.811C5.01844 230.286 5.13065 230.685 5.35506 231.009C5.58329 231.324 5.87617 231.482 6.23371 231.482C6.59126 231.482 6.88224 231.324 7.10666 231.009C7.33488 230.689 7.44899 230.29 7.44899 229.811Z" fill="white"/>
<path d="M10.6422 231.807H10.2429V229.052H10.6422L11.7434 230.33L12.8503 229.052H13.2497V231.807H12.8503V229.617L11.8233 230.809H11.6635L10.6422 229.617V231.807Z" fill="white"/>
<path d="M13.856 231.807V231.431C13.875 231.435 13.9111 231.437 13.9644 231.437C14.204 231.437 14.3676 231.284 14.455 230.98C14.5273 230.737 14.573 230.387 14.592 229.93L14.6148 229.052H16.6745V231.807H16.2637V229.411H15.0085L14.9914 229.942C14.9838 230.147 14.9762 230.295 14.9685 230.387C14.9343 230.76 14.8792 231.033 14.8031 231.208C14.7346 231.391 14.63 231.541 14.4893 231.659C14.3485 231.773 14.1774 231.825 13.9758 231.813C13.9149 231.813 13.875 231.811 13.856 231.807Z" fill="white"/>
<path d="M18.053 231.807H17.6422V229.052H18.053V230.21H19.7475V229.052H20.1583V231.807H19.7475V230.581H18.053V231.807Z" fill="white"/>
<path d="M21.3184 231.842C21.2347 231.842 21.1644 231.813 21.1073 231.756C21.0503 231.699 21.0217 231.629 21.0217 231.545C21.0217 231.461 21.0503 231.391 21.1073 231.334C21.1644 231.277 21.2347 231.248 21.3184 231.248C21.4021 231.248 21.4725 231.277 21.5295 231.334C21.5866 231.391 21.6151 231.461 21.6151 231.545C21.6151 231.629 21.5866 231.699 21.5295 231.756C21.4725 231.813 21.4021 231.842 21.3184 231.842Z" fill="white"/>
<path d="M1.36803 149.146C0.900174 149.146 0.512199 149.049 0.204102 148.855V148.416C0.527414 148.641 0.907782 148.753 1.3452 148.753C1.64569 148.753 1.90815 148.669 2.13257 148.502C2.35698 148.331 2.46919 148.1 2.46919 147.811C2.46919 147.537 2.37029 147.319 2.1725 147.155C1.97852 146.988 1.71606 146.904 1.38514 146.904C1.22539 146.904 1.07705 146.923 0.940113 146.961V146.67L2.1725 145.466H0.369561V145.084H2.74306V145.398L1.5506 146.568C1.90054 146.575 2.21054 146.693 2.4806 146.921C2.75447 147.149 2.8914 147.446 2.8914 147.811C2.8914 148.207 2.74496 148.528 2.45207 148.776C2.15919 149.023 1.79784 149.146 1.36803 149.146Z" fill="white"/>
<path d="M3.57374 149.945H3.24282L3.69926 148.49H4.17853L3.57374 149.945Z" fill="white"/>
<path d="M4.88788 147.081C4.88788 146.495 5.03813 146.006 5.33862 145.615C5.64291 145.215 6.03849 145.016 6.52536 145.016C7.00843 145.016 7.40211 145.213 7.70641 145.609C8.0069 146.001 8.15714 146.491 8.15714 147.081C8.15714 147.671 8.0069 148.161 7.70641 148.553C7.40211 148.949 7.00843 149.146 6.52536 149.146C6.03849 149.146 5.64291 148.949 5.33862 148.553C5.03813 148.161 4.88788 147.671 4.88788 147.081ZM7.74064 147.081C7.74064 146.606 7.62653 146.208 7.39831 145.889C7.17009 145.569 6.87911 145.409 6.52536 145.409C6.17162 145.409 5.88064 145.569 5.65242 145.889C5.4242 146.208 5.31009 146.606 5.31009 147.081C5.31009 147.556 5.4223 147.956 5.64672 148.279C5.87494 148.595 6.16782 148.753 6.52536 148.753C6.88291 148.753 7.17389 148.595 7.39831 148.279C7.62653 147.96 7.74064 147.56 7.74064 147.081Z" fill="white"/>
<path d="M10.9339 149.078H10.5345V146.322H10.9339L12.0351 147.6L13.1419 146.322H13.5413V149.078H13.1419V146.887L12.1149 148.079H11.9552L10.9339 146.887V149.078Z" fill="white"/>
<path d="M14.1476 149.078V148.701C14.1666 148.705 14.2028 148.707 14.256 148.707C14.4957 148.707 14.6592 148.555 14.7467 148.251C14.819 148.007 14.8646 147.657 14.8836 147.201L14.9065 146.322H16.9661V149.078H16.5553V146.682H15.3001L15.283 147.212C15.2754 147.418 15.2678 147.566 15.2602 147.657C15.226 148.03 15.1708 148.304 15.0947 148.479C15.0263 148.661 14.9217 148.812 14.7809 148.93C14.6402 149.044 14.469 149.095 14.2674 149.084C14.2066 149.084 14.1666 149.082 14.1476 149.078Z" fill="white"/>
<path d="M18.3446 149.078H17.9339V146.322H18.3446V147.48H20.0392V146.322H20.45V149.078H20.0392V147.851H18.3446V149.078Z" fill="white"/>
<path d="M21.6101 149.112C21.5264 149.112 21.456 149.084 21.399 149.027C21.3419 148.97 21.3134 148.899 21.3134 148.815C21.3134 148.732 21.3419 148.661 21.399 148.604C21.456 148.547 21.5264 148.519 21.6101 148.519C21.6938 148.519 21.7641 148.547 21.8212 148.604C21.8782 148.661 21.9068 148.732 21.9068 148.815C21.9068 148.899 21.8782 148.97 21.8212 149.027C21.7641 149.084 21.6938 149.112 21.6101 149.112Z" fill="white"/>
<path d="M1.35263 66.8915C0.91901 66.8915 0.551955 66.804 0.251465 66.6291V66.2069C0.563366 66.4009 0.926617 66.4979 1.34122 66.4979C1.67975 66.4979 1.95932 66.4104 2.17993 66.2354C2.40054 66.0604 2.51085 65.836 2.51085 65.5621C2.51085 65.2921 2.40625 65.0734 2.19705 64.906C1.99165 64.7348 1.71778 64.6493 1.37545 64.6493C1.04833 64.6493 0.728826 64.7044 0.416925 64.8147L0.679378 62.8292H2.65349V63.2115H0.998887L0.839133 64.364C1.02171 64.3145 1.23281 64.2898 1.47244 64.2898C1.89085 64.2898 2.23889 64.4096 2.51655 64.6493C2.79422 64.8813 2.93306 65.1856 2.93306 65.5621C2.93306 65.9577 2.78281 66.2772 2.48232 66.5207C2.17803 66.7679 1.80146 66.8915 1.35263 66.8915Z" fill="white"/>
<path d="M3.64616 67.6903H3.31524L3.77168 66.2354H4.25094L3.64616 67.6903Z" fill="white"/>
<path d="M4.9603 64.8261C4.9603 64.2404 5.11054 63.7516 5.41103 63.3598C5.71533 62.9604 6.11091 62.7607 6.59778 62.7607C7.08085 62.7607 7.47453 62.9585 7.77882 63.3541C8.07931 63.7459 8.22956 64.2366 8.22956 64.8261C8.22956 65.4157 8.07931 65.9064 7.77882 66.2982C7.47453 66.6937 7.08085 66.8915 6.59778 66.8915C6.11091 66.8915 5.71533 66.6937 5.41103 66.2982C5.11054 65.9064 4.9603 65.4157 4.9603 64.8261ZM7.81305 64.8261C7.81305 64.3507 7.69894 63.9532 7.47072 63.6337C7.2425 63.3142 6.95152 63.1544 6.59778 63.1544C6.24404 63.1544 5.95306 63.3142 5.72484 63.6337C5.49662 63.9532 5.3825 64.3507 5.3825 64.8261C5.3825 65.3016 5.49471 65.701 5.71913 66.0243C5.94735 66.34 6.24023 66.4979 6.59778 66.4979C6.95532 66.4979 7.24631 66.34 7.47072 66.0243C7.69894 65.7048 7.81305 65.3054 7.81305 64.8261Z" fill="white"/>
<path d="M11.0063 66.8231H10.6069V64.0673H11.0063L12.1075 65.3453L13.2143 64.0673H13.6137V66.8231H13.2143V64.6322L12.1874 65.8246H12.0276L11.0063 64.6322V66.8231Z" fill="white"/>
<path d="M14.22 66.8231V66.4465C14.2391 66.4503 14.2752 66.4522 14.3284 66.4522C14.5681 66.4522 14.7316 66.3001 14.8191 65.9958C14.8914 65.7523 14.937 65.4024 14.956 64.946L14.9789 64.0673H17.0386V66.8231H16.6278V64.4268H15.3725L15.3554 64.9574C15.3478 65.1628 15.3402 65.3111 15.3326 65.4024C15.2984 65.7752 15.2432 66.049 15.1671 66.224C15.0987 66.4066 14.9941 66.5568 14.8533 66.6747C14.7126 66.7888 14.5414 66.8402 14.3398 66.8288C14.279 66.8288 14.2391 66.8269 14.22 66.8231Z" fill="white"/>
<path d="M18.4171 66.8231H18.0063V64.0673H18.4171V65.2255H20.1116V64.0673H20.5224V66.8231H20.1116V65.5964H18.4171V66.8231Z" fill="white"/>
<path d="M21.6825 66.8573C21.5988 66.8573 21.5284 66.8288 21.4714 66.7717C21.4143 66.7147 21.3858 66.6443 21.3858 66.5606C21.3858 66.4769 21.4143 66.4066 21.4714 66.3495C21.5284 66.2925 21.5988 66.2639 21.6825 66.2639C21.7662 66.2639 21.8365 66.2925 21.8936 66.3495C21.9506 66.4066 21.9792 66.4769 21.9792 66.5606C21.9792 66.6443 21.9506 66.7147 21.8936 66.7717C21.8365 66.8288 21.7662 66.8573 21.6825 66.8573Z" fill="white"/>
<path d="M2.89536 190.918H0.173828V190.604L1.52033 189.32C1.81702 189.039 2.02432 188.812 2.14223 188.641C2.26395 188.463 2.32481 188.263 2.32481 188.042C2.32481 187.806 2.24113 187.616 2.07376 187.472C1.9064 187.323 1.68769 187.249 1.41763 187.249C0.995422 187.249 0.611251 187.428 0.265117 187.785V187.312C0.603644 187.008 1.00113 186.855 1.45757 186.855C1.82653 186.855 2.13272 186.96 2.37616 187.169C2.6234 187.382 2.74701 187.656 2.74701 187.991C2.74701 188.257 2.68045 188.501 2.54732 188.721C2.41419 188.938 2.18597 189.199 1.86266 189.503L0.790024 190.536H2.89536V190.918Z" fill="white"/>
<path d="M3.62107 191.785H3.29015L3.74659 190.33H4.22586L3.62107 191.785Z" fill="white"/>
<path d="M4.93521 188.921C4.93521 188.335 5.08546 187.846 5.38595 187.455C5.69024 187.055 6.08582 186.855 6.57269 186.855C7.05576 186.855 7.44944 187.053 7.75374 187.449C8.05423 187.841 8.20447 188.331 8.20447 188.921C8.20447 189.51 8.05423 190.001 7.75374 190.393C7.44944 190.788 7.05576 190.986 6.57269 190.986C6.08582 190.986 5.69024 190.788 5.38595 190.393C5.08546 190.001 4.93521 189.51 4.93521 188.921ZM7.78797 188.921C7.78797 188.445 7.67386 188.048 7.44564 187.728C7.21742 187.409 6.92644 187.249 6.57269 187.249C6.21895 187.249 5.92797 187.409 5.69975 187.728C5.47153 188.048 5.35742 188.445 5.35742 188.921C5.35742 189.396 5.46963 189.796 5.69405 190.119C5.92227 190.435 6.21515 190.593 6.57269 190.593C6.93024 190.593 7.22122 190.435 7.44564 190.119C7.67386 189.8 7.78797 189.4 7.78797 188.921Z" fill="white"/>
<path d="M10.9812 190.918H10.5818V188.162H10.9812L12.0824 189.44L13.1893 188.162H13.5886V190.918H13.1893V188.727L12.1623 189.919H12.0025L10.9812 188.727V190.918Z" fill="white"/>
<path d="M14.1949 190.918V190.541C14.214 190.545 14.2501 190.547 14.3034 190.547C14.543 190.547 14.7065 190.395 14.794 190.09C14.8663 189.847 14.9119 189.497 14.931 189.041L14.9538 188.162H17.0135V190.918H16.6027V188.521H15.3475L15.3303 189.052C15.3227 189.257 15.3151 189.406 15.3075 189.497C15.2733 189.87 15.2181 190.144 15.1421 190.319C15.0736 190.501 14.969 190.652 14.8283 190.769C14.6875 190.884 14.5164 190.935 14.3148 190.923C14.2539 190.923 14.214 190.922 14.1949 190.918Z" fill="white"/>
<path d="M18.392 190.918H17.9812V188.162H18.392V189.32H20.0865V188.162H20.4973V190.918H20.0865V189.691H18.392V190.918Z" fill="white"/>
<path d="M21.6574 190.952C21.5737 190.952 21.5034 190.924 21.4463 190.866C21.3892 190.809 21.3607 190.739 21.3607 190.655C21.3607 190.572 21.3892 190.501 21.4463 190.444C21.5034 190.387 21.5737 190.359 21.6574 190.359C21.7411 190.359 21.8115 190.387 21.8685 190.444C21.9256 190.501 21.9541 190.572 21.9541 190.655C21.9541 190.739 21.9256 190.809 21.8685 190.866C21.8115 190.924 21.7411 190.952 21.6574 190.952Z" fill="white"/>
<path d="M2.55607 107.237H2.14527V106.136H0V105.799L2.15098 103.243H2.55607V105.754H3.21791V106.136H2.55607V107.237ZM2.14527 103.802L0.490674 105.754H2.14527V103.802Z" fill="white"/>
<path d="M3.74919 108.104H3.41827L3.87471 106.649H4.35398L3.74919 108.104Z" fill="white"/>
<path d="M5.06333 105.24C5.06333 104.654 5.21358 104.166 5.51407 103.774C5.81836 103.374 6.21394 103.175 6.70081 103.175C7.18388 103.175 7.57756 103.373 7.88185 103.768C8.18234 104.16 8.33259 104.651 8.33259 105.24C8.33259 105.83 8.18234 106.32 7.88185 106.712C7.57756 107.108 7.18388 107.306 6.70081 107.306C6.21394 107.306 5.81836 107.108 5.51407 106.712C5.21358 106.32 5.06333 105.83 5.06333 105.24ZM7.91609 105.24C7.91609 104.765 7.80198 104.367 7.57376 104.048C7.34554 103.728 7.05455 103.568 6.70081 103.568C6.34707 103.568 6.05609 103.728 5.82787 104.048C5.59965 104.367 5.48554 104.765 5.48554 105.24C5.48554 105.716 5.59775 106.115 5.82216 106.438C6.05038 106.754 6.34327 106.912 6.70081 106.912C7.05836 106.912 7.34934 106.754 7.57376 106.438C7.80198 106.119 7.91609 105.719 7.91609 105.24Z" fill="white"/>
<path d="M11.1093 107.237H10.71V104.481H11.1093L12.2105 105.759L13.3174 104.481H13.7168V107.237H13.3174V105.046L12.2904 106.239H12.1306L11.1093 105.046V107.237Z" fill="white"/>
<path d="M14.3231 107.237V106.861C14.3421 106.864 14.3782 106.866 14.4315 106.866C14.6711 106.866 14.8347 106.714 14.9221 106.41C14.9944 106.166 15.0401 105.816 15.0591 105.36L15.0819 104.481H17.1416V107.237H16.7308V104.841H15.4756L15.4585 105.371C15.4509 105.577 15.4432 105.725 15.4356 105.816C15.4014 106.189 15.3463 106.463 15.2702 106.638C15.2017 106.821 15.0971 106.971 14.9564 107.089C14.8156 107.203 14.6445 107.254 14.4429 107.243C14.382 107.243 14.3421 107.241 14.3231 107.237Z" fill="white"/>
<path d="M18.5201 107.237H18.1093V104.481H18.5201V105.64H20.2146V104.481H20.6254V107.237H20.2146V106.01H18.5201V107.237Z" fill="white"/>
<path d="M21.7855 107.271C21.7018 107.271 21.6315 107.243 21.5744 107.186C21.5174 107.129 21.4888 107.058 21.4888 106.975C21.4888 106.891 21.5174 106.821 21.5744 106.764C21.6315 106.707 21.7018 106.678 21.7855 106.678C21.8692 106.678 21.9396 106.707 21.9966 106.764C22.0537 106.821 22.0822 106.891 22.0822 106.975C22.0822 107.058 22.0537 107.129 21.9966 107.186C21.9396 107.243 21.8692 107.271 21.7855 107.271Z" fill="white"/>
<path d="M1.72007 24.5752C1.25222 24.5752 0.883262 24.4116 0.613201 24.0845C0.34314 23.7498 0.20811 23.2895 0.20811 22.7038C0.196699 22.0648 0.350748 21.5284 0.670256 21.0948C0.989765 20.6574 1.41387 20.4406 1.94259 20.4444C2.27351 20.4444 2.55498 20.5262 2.787 20.6897V21.0948C2.53596 20.9236 2.2659 20.8381 1.97682 20.8381C1.67633 20.8381 1.42148 20.9236 1.21228 21.0948C1.00308 21.266 0.852833 21.4752 0.761545 21.7224C0.67406 21.9697 0.626514 22.2435 0.618907 22.544C0.72541 22.3614 0.879458 22.2169 1.08105 22.1104C1.28645 22.0039 1.52228 21.9506 1.78854 21.9506C2.15369 21.9506 2.45798 22.0705 2.70142 22.3101C2.95246 22.5421 3.07798 22.8464 3.07798 23.223C3.07798 23.6147 2.94676 23.9381 2.6843 24.1929C2.42946 24.4478 2.10805 24.5752 1.72007 24.5752ZM1.69725 24.1815C1.96731 24.1815 2.19553 24.0921 2.38191 23.9133C2.56829 23.7308 2.66148 23.5006 2.66148 23.223C2.66148 22.9491 2.56829 22.7304 2.38191 22.5668C2.19553 22.4033 1.96351 22.3215 1.68584 22.3215C1.45001 22.3215 1.2332 22.3957 1.03541 22.544C0.841422 22.6886 0.706391 22.873 0.630318 23.0974C0.664551 23.4436 0.772955 23.7117 0.955532 23.9019C1.14191 24.0883 1.38915 24.1815 1.69725 24.1815Z" fill="white"/>
<path d="M3.74089 25.3739H3.40997L3.86641 23.919H4.34568L3.74089 25.3739Z" fill="white"/>
<path d="M5.05503 22.5098C5.05503 21.924 5.20528 21.4352 5.50577 21.0435C5.81006 20.6441 6.20564 20.4444 6.69251 20.4444C7.17558 20.4444 7.56926 20.6422 7.87356 21.0378C8.17405 21.4295 8.32429 21.9202 8.32429 22.5098C8.32429 23.0994 8.17405 23.59 7.87356 23.9818C7.56926 24.3774 7.17558 24.5752 6.69251 24.5752C6.20564 24.5752 5.81006 24.3774 5.50577 23.9818C5.20528 23.59 5.05503 23.0994 5.05503 22.5098ZM7.90779 22.5098C7.90779 22.0343 7.79368 21.6368 7.56546 21.3173C7.33724 20.9978 7.04626 20.8381 6.69251 20.8381C6.33877 20.8381 6.04779 20.9978 5.81957 21.3173C5.59135 21.6368 5.47724 22.0343 5.47724 22.5098C5.47724 22.9852 5.58945 23.3846 5.81387 23.7079C6.04209 24.0236 6.33497 24.1815 6.69251 24.1815C7.05006 24.1815 7.34104 24.0236 7.56546 23.7079C7.79368 23.3884 7.90779 22.989 7.90779 22.5098Z" fill="white"/>
<path d="M11.101 24.5067H10.7017V21.7509H11.101L12.2022 23.029L13.3091 21.7509H13.7085V24.5067H13.3091V22.3158L12.2821 23.5082H12.1223L11.101 22.3158V24.5067Z" fill="white"/>
<path d="M14.3148 24.5067V24.1301C14.3338 24.134 14.3699 24.1359 14.4232 24.1359C14.6628 24.1359 14.8264 23.9837 14.9138 23.6794C14.9861 23.436 15.0318 23.086 15.0508 22.6296L15.0736 21.7509H17.1333V24.5067H16.7225V22.1104H15.4673L15.4502 22.641C15.4426 22.8464 15.435 22.9947 15.4273 23.086C15.3931 23.4588 15.338 23.7327 15.2619 23.9076C15.1934 24.0902 15.0888 24.2405 14.9481 24.3584C14.8073 24.4725 14.6362 24.5238 14.4346 24.5124C14.3737 24.5124 14.3338 24.5105 14.3148 24.5067Z" fill="white"/>
<path d="M18.5118 24.5067H18.101V21.7509H18.5118V22.9092H20.2063V21.7509H20.6171V24.5067H20.2063V23.28H18.5118V24.5067Z" fill="white"/>
<path d="M21.7772 24.5409C21.6935 24.5409 21.6232 24.5124 21.5661 24.4554C21.5091 24.3983 21.4805 24.3279 21.4805 24.2443C21.4805 24.1606 21.5091 24.0902 21.5661 24.0332C21.6232 23.9761 21.6935 23.9476 21.7772 23.9476C21.8609 23.9476 21.9313 23.9761 21.9883 24.0332C22.0454 24.0902 22.0739 24.1606 22.0739 24.2443C22.0739 24.3279 22.0454 24.3983 21.9883 24.4554C21.9313 24.5124 21.8609 24.5409 21.7772 24.5409Z" fill="white"/>
<path d="M2.56105 211.363H2.14454V207.826L1.24878 208.339V207.934L2.19019 207.369H2.56105V211.363Z" fill="white"/>
<path d="M3.59972 212.23H3.2688L3.72524 210.775H4.2045L3.59972 212.23Z" fill="white"/>
<path d="M5.9865 211.431C5.55288 211.431 5.18582 211.344 4.88533 211.169V210.747C5.19723 210.941 5.56048 211.038 5.97508 211.038C6.31361 211.038 6.59318 210.95 6.81379 210.775C7.03441 210.6 7.14471 210.376 7.14471 210.102C7.14471 209.832 7.04011 209.613 6.83091 209.446C6.62551 209.275 6.35165 209.189 6.00932 209.189C5.6822 209.189 5.36269 209.244 5.05079 209.355L5.31324 207.369H7.28735V207.751H5.63275L5.473 208.904C5.65558 208.854 5.86668 208.83 6.10631 208.83C6.52472 208.83 6.87275 208.95 7.15042 209.189C7.42809 209.421 7.56692 209.726 7.56692 210.102C7.56692 210.498 7.41668 210.817 7.11619 211.061C6.81189 211.308 6.43533 211.431 5.9865 211.431Z" fill="white"/>
<path d="M10.3247 211.363H9.92531V208.607H10.3247L11.4259 209.885L12.5327 208.607H12.9321V211.363H12.5327V209.172L11.5057 210.365H11.346L10.3247 209.172V211.363Z" fill="white"/>
<path d="M13.5384 211.363V210.986C13.5574 210.99 13.5936 210.992 13.6468 210.992C13.8864 210.992 14.05 210.84 14.1375 210.536C14.2098 210.292 14.2554 209.942 14.2744 209.486L14.2972 208.607H16.3569V211.363H15.9461V208.967H14.6909L14.6738 209.497C14.6662 209.703 14.6586 209.851 14.651 209.942C14.6168 210.315 14.5616 210.589 14.4855 210.764C14.4171 210.946 14.3125 211.097 14.1717 211.215C14.031 211.329 13.8598 211.38 13.6582 211.369C13.5974 211.369 13.5574 211.367 13.5384 211.363Z" fill="white"/>
<path d="M17.7354 211.363H17.3246V208.607H17.7354V209.765H19.43V208.607H19.8408V211.363H19.43V210.136H17.7354V211.363Z" fill="white"/>
<path d="M21.0009 211.397C20.9172 211.397 20.8468 211.369 20.7898 211.312C20.7327 211.255 20.7042 211.184 20.7042 211.101C20.7042 211.017 20.7327 210.946 20.7898 210.889C20.8468 210.832 20.9172 210.804 21.0009 210.804C21.0845 210.804 21.1549 210.832 21.212 210.889C21.269 210.946 21.2976 211.017 21.2976 211.101C21.2976 211.184 21.269 211.255 21.212 211.312C21.1549 211.369 21.0845 211.397 21.0009 211.397Z" fill="white"/>
<path d="M1.68553 129.177C1.21768 129.177 0.829704 129.08 0.521606 128.886V128.446C0.844919 128.671 1.22529 128.783 1.66271 128.783C1.9632 128.783 2.22565 128.699 2.45007 128.532C2.67449 128.361 2.7867 128.131 2.7867 127.841C2.7867 127.568 2.6878 127.349 2.49001 127.185C2.29602 127.018 2.03357 126.934 1.70265 126.934C1.54289 126.934 1.39455 126.953 1.25762 126.991V126.7L2.49001 125.497H0.687066V125.114H3.06056V125.428L1.86811 126.598C2.21805 126.605 2.52805 126.723 2.79811 126.951C3.07197 127.18 3.2089 127.476 3.2089 127.841C3.2089 128.237 3.06246 128.558 2.76958 128.806C2.4767 129.053 2.11535 129.177 1.68553 129.177Z" fill="white"/>
<path d="M3.89125 129.975H3.56033L4.01677 128.52H4.49603L3.89125 129.975Z" fill="white"/>
<path d="M6.27802 129.177C5.8444 129.177 5.47735 129.089 5.17686 128.914V128.492C5.48876 128.686 5.85201 128.783 6.26661 128.783C6.60514 128.783 6.88471 128.695 7.10532 128.52C7.32594 128.345 7.43624 128.121 7.43624 127.847C7.43624 127.577 7.33164 127.358 7.12244 127.191C6.91704 127.02 6.64318 126.934 6.30085 126.934C5.97373 126.934 5.65422 126.989 5.34232 127.1L5.60477 125.114H7.57888V125.497H5.92428L5.76453 126.649C5.9471 126.6 6.15821 126.575 6.39784 126.575C6.81624 126.575 7.16428 126.695 7.44195 126.934C7.71962 127.166 7.85845 127.471 7.85845 127.847C7.85845 128.243 7.70821 128.562 7.40772 128.806C7.10342 129.053 6.72686 129.177 6.27802 129.177Z" fill="white"/>
<path d="M10.6162 129.108H10.2168V126.352H10.6162L11.7174 127.63L12.8243 126.352H13.2236V129.108H12.8243V126.917L11.7973 128.11H11.6375L10.6162 126.917V129.108Z" fill="white"/>
<path d="M13.8299 129.108V128.732C13.849 128.735 13.8851 128.737 13.9383 128.737C14.178 128.737 14.3415 128.585 14.429 128.281C14.5013 128.037 14.5469 127.687 14.566 127.231L14.5888 126.352H16.6485V129.108H16.2377V126.712H14.9825L14.9653 127.242C14.9577 127.448 14.9501 127.596 14.9425 127.687C14.9083 128.06 14.8531 128.334 14.7771 128.509C14.7086 128.692 14.604 128.842 14.4633 128.96C14.3225 129.074 14.1514 129.125 13.9498 129.114C13.8889 129.114 13.849 129.112 13.8299 129.108Z" fill="white"/>
<path d="M18.027 129.108H17.6162V126.352H18.027V127.511H19.7215V126.352H20.1323V129.108H19.7215V127.881H18.027V129.108Z" fill="white"/>
<path d="M21.2924 129.142C21.2087 129.142 21.1383 129.114 21.0813 129.057C21.0242 129 20.9957 128.929 20.9957 128.846C20.9957 128.762 21.0242 128.692 21.0813 128.635C21.1383 128.578 21.2087 128.549 21.2924 128.549C21.3761 128.549 21.4464 128.578 21.5035 128.635C21.5606 128.692 21.5891 128.762 21.5891 128.846C21.5891 128.929 21.5606 129 21.5035 129.057C21.4464 129.114 21.3761 129.142 21.2924 129.142Z" fill="white"/>
<path d="M1.67013 45.4959C1.23651 45.4959 0.86946 45.4084 0.56897 45.2335V44.8113C0.880871 45.0052 1.24412 45.1022 1.65872 45.1022C1.99725 45.1022 2.27682 45.0148 2.49743 44.8398C2.71805 44.6648 2.82835 44.4404 2.82835 44.1665C2.82835 43.8965 2.72375 43.6778 2.51455 43.5104C2.30915 43.3392 2.03529 43.2537 1.69296 43.2537C1.36584 43.2537 1.04633 43.3088 0.73443 43.4191L0.996883 41.4336H2.97099V41.8159H1.31639L1.15664 42.9684C1.33921 42.9189 1.55032 42.8942 1.78995 42.8942C2.20835 42.8942 2.55639 43.014 2.83406 43.2537C3.11173 43.4857 3.25056 43.79 3.25056 44.1665C3.25056 44.5621 3.10032 44.8816 2.79983 45.1251C2.49553 45.3723 2.11897 45.4959 1.67013 45.4959Z" fill="white"/>
<path d="M3.96366 46.2947H3.63274L4.08918 44.8398H4.56844L3.96366 46.2947Z" fill="white"/>
<path d="M6.35044 45.4959C5.91682 45.4959 5.54976 45.4084 5.24927 45.2335V44.8113C5.56117 45.0052 5.92443 45.1022 6.33903 45.1022C6.67755 45.1022 6.95712 45.0148 7.17774 44.8398C7.39835 44.6648 7.50866 44.4404 7.50866 44.1665C7.50866 43.8965 7.40406 43.6778 7.19485 43.5104C6.98946 43.3392 6.71559 43.2537 6.37326 43.2537C6.04614 43.2537 5.72664 43.3088 5.41473 43.4191L5.67719 41.4336H7.65129V41.8159H5.9967L5.83694 42.9684C6.01952 42.9189 6.23062 42.8942 6.47025 42.8942C6.88866 42.8942 7.23669 43.014 7.51436 43.2537C7.79203 43.4857 7.93087 43.79 7.93087 44.1665C7.93087 44.5621 7.78062 44.8816 7.48013 45.1251C7.17584 45.3723 6.79927 45.4959 6.35044 45.4959Z" fill="white"/>
<path d="M10.6886 45.4275H10.2892V42.6717H10.6886L11.7898 43.9497L12.8967 42.6717H13.2961V45.4275H12.8967V43.2365L11.8697 44.429H11.7099L10.6886 43.2365V45.4275Z" fill="white"/>
<path d="M13.9024 45.4275V45.0509C13.9214 45.0547 13.9575 45.0566 14.0108 45.0566C14.2504 45.0566 14.4139 44.9044 14.5014 44.6002C14.5737 44.3567 14.6193 44.0068 14.6384 43.5503L14.6612 42.6717H16.7209V45.4275H16.3101V43.0311H15.0549L15.0378 43.5618C15.0301 43.7671 15.0225 43.9155 15.0149 44.0068C14.9807 44.3795 14.9255 44.6534 14.8495 44.8284C14.781 45.011 14.6764 45.1612 14.5357 45.2791C14.3949 45.3932 14.2238 45.4446 14.0222 45.4332C13.9613 45.4332 13.9214 45.4313 13.9024 45.4275Z" fill="white"/>
<path d="M18.0994 45.4275H17.6886V42.6717H18.0994V43.8299H19.7939V42.6717H20.2047V45.4275H19.7939V44.2008H18.0994V45.4275Z" fill="white"/>
<path d="M21.3648 45.4617C21.2811 45.4617 21.2108 45.4332 21.1537 45.3761C21.0966 45.319 21.0681 45.2487 21.0681 45.165C21.0681 45.0813 21.0966 45.011 21.1537 44.9539C21.2108 44.8968 21.2811 44.8683 21.3648 44.8683C21.4485 44.8683 21.5189 44.8968 21.5759 44.9539C21.633 45.011 21.6615 45.0813 21.6615 45.165C21.6615 45.2487 21.633 45.319 21.5759 45.3761C21.5189 45.4332 21.4485 45.4617 21.3648 45.4617Z" fill="white"/>
<path d="M3.21299 169.998H0.491455V169.684L1.83796 168.4C2.13464 168.119 2.34194 167.893 2.45986 167.721C2.58157 167.543 2.64243 167.343 2.64243 167.122C2.64243 166.886 2.55875 166.696 2.39139 166.552C2.22403 166.403 2.00532 166.329 1.73526 166.329C1.31305 166.329 0.928878 166.508 0.582743 166.866V166.392C0.921271 166.088 1.31875 165.936 1.7752 165.936C2.14415 165.936 2.45035 166.04 2.69378 166.249C2.94102 166.462 3.06464 166.736 3.06464 167.071C3.06464 167.337 2.99808 167.581 2.86495 167.801C2.73182 168.018 2.5036 168.279 2.18029 168.583L1.10765 169.616H3.21299V169.998Z" fill="white"/>
<path d="M3.9387 170.865H3.60778L4.06422 169.41H4.54348L3.9387 170.865Z" fill="white"/>
<path d="M6.32548 170.066C5.89186 170.066 5.5248 169.979 5.22431 169.804V169.382C5.53621 169.576 5.89946 169.673 6.31406 169.673C6.65259 169.673 6.93216 169.585 7.15278 169.41C7.37339 169.235 7.4837 169.011 7.4837 168.737C7.4837 168.467 7.37909 168.248 7.16989 168.081C6.96449 167.91 6.69063 167.824 6.3483 167.824C6.02118 167.824 5.70167 167.879 5.38977 167.99L5.65223 166.004H7.62633V166.386H5.97173L5.81198 167.539C5.99456 167.489 6.20566 167.465 6.44529 167.465C6.8637 167.465 7.21173 167.584 7.4894 167.824C7.76707 168.056 7.9059 168.36 7.9059 168.737C7.9059 169.133 7.75566 169.452 7.45517 169.695C7.15087 169.943 6.77431 170.066 6.32548 170.066Z" fill="white"/>
<path d="M10.6637 169.998H10.2643V167.242H10.6637L11.7648 168.52L12.8717 167.242H13.2711V169.998H12.8717V167.807L11.8447 168.999H11.685L10.6637 167.807V169.998Z" fill="white"/>
<path d="M13.8774 169.998V169.621C13.8964 169.625 13.9325 169.627 13.9858 169.627C14.2254 169.627 14.389 169.475 14.4765 169.171C14.5487 168.927 14.5944 168.577 14.6134 168.121L14.6362 167.242H16.6959V169.998H16.2851V167.602H15.0299L15.0128 168.132C15.0052 168.338 14.9976 168.486 14.99 168.577C14.9557 168.95 14.9006 169.224 14.8245 169.399C14.756 169.581 14.6514 169.732 14.5107 169.85C14.37 169.964 14.1988 170.015 13.9972 170.004C13.9363 170.004 13.8964 170.002 13.8774 169.998Z" fill="white"/>
<path d="M18.0744 169.998H17.6636V167.242H18.0744V168.4H19.769V167.242H20.1798V169.998H19.769V168.771H18.0744V169.998Z" fill="white"/>
<path d="M21.3398 170.032C21.2562 170.032 21.1858 170.004 21.1287 169.947C21.0717 169.889 21.0432 169.819 21.0432 169.735C21.0432 169.652 21.0717 169.581 21.1287 169.524C21.1858 169.467 21.2562 169.439 21.3398 169.439C21.4235 169.439 21.4939 169.467 21.551 169.524C21.608 169.581 21.6365 169.652 21.6365 169.735C21.6365 169.819 21.608 169.889 21.551 169.947C21.4939 170.004 21.4235 170.032 21.3398 170.032Z" fill="white"/>
<path d="M2.8737 87.2673H2.4629V86.1661H0.317627V85.8295L2.46861 83.2734H2.8737V85.7839H3.53554V86.1661H2.8737V87.2673ZM2.4629 83.8326L0.808301 85.7839H2.4629V83.8326Z" fill="white"/>
<path d="M4.06682 88.1345H3.7359L4.19234 86.6796H4.6716L4.06682 88.1345Z" fill="white"/>
<path d="M6.45359 87.3358C6.01997 87.3358 5.65292 87.2483 5.35243 87.0733V86.6511C5.66433 86.8451 6.02758 86.9421 6.44218 86.9421C6.78071 86.9421 7.06028 86.8546 7.28089 86.6796C7.50151 86.5047 7.61181 86.2802 7.61181 86.0064C7.61181 85.7363 7.50721 85.5176 7.29801 85.3502C7.09261 85.1791 6.81875 85.0935 6.47642 85.0935C6.1493 85.0935 5.82979 85.1486 5.51789 85.259L5.78034 83.2734H7.75445V83.6557H6.09985L5.9401 84.8082C6.12267 84.7588 6.33378 84.734 6.57341 84.734C6.99181 84.734 7.33985 84.8539 7.61752 85.0935C7.89519 85.3255 8.03402 85.6298 8.03402 86.0064C8.03402 86.402 7.88378 86.7215 7.58329 86.9649C7.27899 87.2121 6.90243 87.3358 6.45359 87.3358Z" fill="white"/>
<path d="M10.7918 87.2673H10.3924V84.5115H10.7918L11.893 85.7896L12.9998 84.5115H13.3992V87.2673H12.9998V85.0764L11.9728 86.2688H11.8131L10.7918 85.0764V87.2673Z" fill="white"/>
<path d="M14.0055 87.2673V86.8907C14.0245 86.8945 14.0607 86.8964 14.1139 86.8964C14.3535 86.8964 14.5171 86.7443 14.6046 86.44C14.6769 86.1966 14.7225 85.8466 14.7415 85.3902L14.7643 84.5115H16.824V87.2673H16.4132V84.871H15.158L15.1409 85.4016C15.1333 85.607 15.1257 85.7553 15.1181 85.8466C15.0839 86.2194 15.0287 86.4932 14.9526 86.6682C14.8842 86.8508 14.7796 87.001 14.6388 87.119C14.4981 87.2331 14.3269 87.2844 14.1253 87.273C14.0645 87.273 14.0245 87.2711 14.0055 87.2673Z" fill="white"/>
<path d="M18.2025 87.2673H17.7917V84.5115H18.2025V85.6698H19.8971V84.5115H20.3079V87.2673H19.8971V86.0406H18.2025V87.2673Z" fill="white"/>
<path d="M21.468 87.3015C21.3843 87.3015 21.3139 87.273 21.2569 87.2159C21.1998 87.1589 21.1713 87.0885 21.1713 87.0048C21.1713 86.9212 21.1998 86.8508 21.2569 86.7937C21.3139 86.7367 21.3843 86.7082 21.468 86.7082C21.5516 86.7082 21.622 86.7367 21.6791 86.7937C21.7361 86.8508 21.7647 86.9212 21.7647 87.0048C21.7647 87.0885 21.7361 87.1589 21.6791 87.2159C21.622 87.273 21.5516 87.3015 21.468 87.3015Z" fill="white"/>
<path d="M2.0377 4.13084C1.56985 4.13084 1.20089 3.96728 0.930828 3.64017C0.660767 3.30544 0.525737 2.8452 0.525737 2.25943C0.514326 1.62041 0.668375 1.0841 0.987883 0.650478C1.30739 0.213055 1.7315 -0.00375466 2.26021 4.919e-05C2.59113 4.919e-05 2.8726 0.0818282 3.10463 0.245386V0.650478C2.85359 0.479312 2.58353 0.39373 2.29445 0.39373C1.99396 0.39373 1.73911 0.479312 1.52991 0.650478C1.3207 0.821643 1.17046 1.03085 1.07917 1.27808C0.991687 1.52532 0.944141 1.79919 0.936533 2.09968C1.04304 1.9171 1.19709 1.77256 1.39868 1.66606C1.60408 1.55956 1.83991 1.5063 2.10616 1.5063C2.47132 1.5063 2.77561 1.62612 3.01905 1.86575C3.27009 2.09778 3.39561 2.40207 3.39561 2.77863C3.39561 3.17041 3.26438 3.49373 3.00193 3.74857C2.74708 4.00342 2.42567 4.13084 2.0377 4.13084ZM2.01488 3.73716C2.28494 3.73716 2.51316 3.64777 2.69954 3.469C2.88592 3.28642 2.97911 3.0563 2.97911 2.77863C2.97911 2.50477 2.88592 2.28606 2.69954 2.1225C2.51316 1.95894 2.28113 1.87716 2.00346 1.87716C1.76764 1.87716 1.55083 1.95133 1.35304 2.09968C1.15905 2.24422 1.02402 2.4287 0.947945 2.65311C0.982178 2.99925 1.09058 3.26741 1.27316 3.45759C1.45954 3.64397 1.70678 3.73716 2.01488 3.73716Z" fill="white"/>
<path d="M4.05852 4.92961H3.7276L4.18404 3.47471H4.6633L4.05852 4.92961Z" fill="white"/>
<path d="M6.4453 4.13084C6.01168 4.13084 5.64462 4.04336 5.34413 3.86839V3.44618C5.65603 3.64017 6.01928 3.73716 6.43389 3.73716C6.77241 3.73716 7.05198 3.64968 7.2726 3.47471C7.49321 3.29974 7.60352 3.07532 7.60352 2.80146C7.60352 2.5314 7.49891 2.31268 7.28971 2.14532C7.08431 1.97416 6.81045 1.88857 6.46812 1.88857C6.141 1.88857 5.82149 1.94373 5.50959 2.05403L5.77205 0.0685152H7.74615V0.450785H6.09155L5.9318 1.6033C6.11438 1.55385 6.32548 1.52913 6.56511 1.52913C6.98352 1.52913 7.33155 1.64894 7.60922 1.88857C7.88689 2.1206 8.02572 2.42489 8.02572 2.80146C8.02572 3.19704 7.87548 3.51655 7.57499 3.75998C7.27069 4.00722 6.89413 4.13084 6.4453 4.13084Z" fill="white"/>
<path d="M10.7835 4.06238H10.3841V1.30661H10.7835L11.8847 2.58465L12.9915 1.30661H13.3909V4.06238H12.9915V1.87146L11.9645 3.06391H11.8048L10.7835 1.87146V4.06238Z" fill="white"/>
<path d="M13.9972 4.06238V3.68581C14.0162 3.68961 14.0524 3.69152 14.1056 3.69152C14.3452 3.69152 14.5088 3.53937 14.5963 3.23508C14.6686 2.99164 14.7142 2.6417 14.7332 2.18526L14.756 1.30661H16.8157V4.06238H16.4049V1.66606H15.1497L15.1326 2.19667C15.125 2.40207 15.1174 2.55041 15.1098 2.6417C15.0756 3.01446 15.0204 3.28833 14.9443 3.4633C14.8759 3.64587 14.7713 3.79612 14.6305 3.91403C14.4898 4.02814 14.3186 4.07949 14.117 4.06808C14.0562 4.06808 14.0162 4.06618 13.9972 4.06238Z" fill="white"/>
<path d="M18.1942 4.06238H17.7834V1.30661H18.1942V2.46483H19.8888V1.30661H20.2996V4.06238H19.8888V2.83569H18.1942V4.06238Z" fill="white"/>
<path d="M21.4597 4.09661C21.376 4.09661 21.3056 4.06808 21.2486 4.01103C21.1915 3.95397 21.163 3.8836 21.163 3.79992C21.163 3.71624 21.1915 3.64587 21.2486 3.58882C21.3056 3.53176 21.376 3.50323 21.4597 3.50323C21.5434 3.50323 21.6137 3.53176 21.6708 3.58882C21.7278 3.64587 21.7564 3.71624 21.7564 3.79992C21.7564 3.8836 21.7278 3.95397 21.6708 4.01103C21.6137 4.06808 21.5434 4.09661 21.4597 4.09661Z" fill="white"/>
<path d="M99.8423 257.482H99.4258V253.488H99.8423L101.286 255.423L102.729 253.488H103.14V257.482H102.724V254.127L101.417 255.873H101.16L99.8423 254.127V257.482Z" fill="white"/>
<path d="M105.5 257.551C105.07 257.551 104.709 257.416 104.416 257.146C104.127 256.879 103.983 256.533 103.983 256.107C103.983 255.696 104.112 255.352 104.371 255.075C104.633 254.797 104.97 254.658 105.38 254.658C105.601 254.658 105.797 254.704 105.968 254.795C106.139 254.882 106.274 254.998 106.373 255.143C106.472 255.288 106.546 255.442 106.596 255.605C106.645 255.765 106.67 255.927 106.67 256.09V256.204H104.405C104.428 256.501 104.545 256.739 104.758 256.917C104.975 257.092 105.249 257.18 105.58 257.18C105.9 257.18 106.194 257.094 106.464 256.923V257.288C106.24 257.463 105.919 257.551 105.5 257.551ZM104.41 255.868H106.253C106.242 255.655 106.162 255.462 106.014 255.291C105.873 255.116 105.656 255.029 105.363 255.029C105.089 255.029 104.865 255.113 104.69 255.28C104.519 255.451 104.426 255.647 104.41 255.868Z" fill="white"/>
<path d="M108.708 257.551C108.286 257.551 107.936 257.414 107.659 257.14C107.381 256.862 107.242 256.516 107.242 256.102C107.242 255.691 107.383 255.348 107.664 255.075C107.942 254.797 108.292 254.658 108.714 254.658C109.034 254.658 109.311 254.725 109.547 254.858V255.24C109.3 255.099 109.041 255.029 108.771 255.029C108.452 255.029 108.187 255.132 107.978 255.337C107.769 255.535 107.664 255.792 107.664 256.107C107.664 256.415 107.769 256.672 107.978 256.877C108.191 257.079 108.455 257.18 108.771 257.18C109.075 257.18 109.351 257.1 109.598 256.94V257.317C109.34 257.473 109.043 257.551 108.708 257.551Z" fill="white"/>
<path d="M110.685 257.482H110.217L111.039 256.381C110.814 256.343 110.641 256.254 110.519 256.113C110.401 255.968 110.342 255.786 110.342 255.565C110.342 255.31 110.428 255.107 110.599 254.955C110.774 254.803 111.018 254.726 111.33 254.726H112.75V257.482H112.339V256.455H111.455L110.685 257.482ZM111.392 256.096H112.339V255.086H111.392C111.191 255.086 111.035 255.13 110.924 255.217C110.818 255.305 110.765 255.43 110.765 255.594C110.765 255.757 110.818 255.883 110.924 255.97C111.035 256.054 111.191 256.096 111.392 256.096Z" fill="white"/>
<path d="M116.688 258.298H116.294V257.482H113.721V254.726H114.132V257.123H115.769V254.726H116.18V257.123H116.688V258.298Z" fill="white"/>
<path d="M121.351 257.482H118.63V257.168L119.976 255.885C120.273 255.603 120.48 255.377 120.598 255.206C120.72 255.027 120.781 254.827 120.781 254.607C120.781 254.371 120.697 254.181 120.53 254.036C120.363 253.888 120.144 253.814 119.874 253.814C119.452 253.814 119.067 253.992 118.721 254.35V253.876C119.06 253.572 119.457 253.42 119.914 253.42C120.283 253.42 120.589 253.525 120.832 253.734C121.08 253.947 121.203 254.221 121.203 254.555C121.203 254.822 121.137 255.065 121.003 255.286C120.87 255.502 120.642 255.763 120.319 256.067L119.246 257.1H121.351V257.482Z" fill="white"/>
<path d="M151.082 257.482H150.66V253.489H151.082V255.149H153.456V253.489H153.878V257.482H153.456V255.531H151.082V257.482Z" fill="#FF2323"/>
<path d="M155.851 257.18C156.041 257.18 156.222 257.136 156.393 257.049C156.564 256.961 156.703 256.851 156.809 256.718V256.336C156.528 256.153 156.229 256.062 155.914 256.062C155.663 256.062 155.463 256.111 155.315 256.21C155.17 256.309 155.098 256.444 155.098 256.615C155.098 256.794 155.168 256.933 155.309 257.032C155.45 257.131 155.63 257.18 155.851 257.18ZM155.737 257.551C155.444 257.551 155.195 257.471 154.989 257.311C154.788 257.144 154.687 256.919 154.687 256.638C154.687 256.36 154.793 256.138 155.006 255.97C155.219 255.807 155.489 255.725 155.817 255.725C156.174 255.725 156.505 255.814 156.809 255.993V255.719C156.809 255.259 156.507 255.029 155.902 255.029C155.579 255.029 155.278 255.122 155.001 255.309V254.909C155.271 254.742 155.6 254.658 155.988 254.658C156.364 254.658 156.663 254.748 156.884 254.926C157.108 255.101 157.22 255.352 157.22 255.679V256.815C157.22 256.921 157.243 257.005 157.289 257.066C157.338 257.127 157.403 257.157 157.483 257.157C157.543 257.157 157.597 257.146 157.642 257.123V257.442C157.581 257.484 157.49 257.505 157.368 257.505C157.232 257.505 157.116 257.469 157.02 257.397C156.929 257.321 156.872 257.21 156.849 257.066C156.572 257.389 156.201 257.551 155.737 257.551Z" fill="#FF2323"/>
<path d="M160.506 257.482H160.095V256.381C159.829 256.495 159.546 256.552 159.245 256.552C158.861 256.552 158.578 256.465 158.395 256.29C158.216 256.111 158.127 255.82 158.127 255.417V254.727H158.538V255.383C158.538 255.679 158.597 255.887 158.715 256.005C158.836 256.123 159.04 256.182 159.325 256.182C159.603 256.182 159.86 256.121 160.095 255.999V254.727H160.506V257.482Z" fill="#FF2323"/>
<path d="M162.409 257.18C162.599 257.18 162.78 257.136 162.951 257.049C163.122 256.961 163.261 256.851 163.367 256.718V256.336C163.086 256.153 162.787 256.062 162.472 256.062C162.221 256.062 162.021 256.111 161.873 256.21C161.728 256.309 161.656 256.444 161.656 256.615C161.656 256.794 161.726 256.933 161.867 257.032C162.008 257.131 162.188 257.18 162.409 257.18ZM162.295 257.551C162.002 257.551 161.753 257.471 161.547 257.311C161.346 257.144 161.245 256.919 161.245 256.638C161.245 256.36 161.351 256.138 161.564 255.97C161.777 255.807 162.047 255.725 162.375 255.725C162.732 255.725 163.063 255.814 163.367 255.993V255.719C163.367 255.259 163.065 255.029 162.46 255.029C162.137 255.029 161.836 255.122 161.559 255.309V254.909C161.829 254.742 162.158 254.658 162.546 254.658C162.922 254.658 163.221 254.748 163.442 254.926C163.666 255.101 163.778 255.352 163.778 255.679V256.815C163.778 256.921 163.801 257.005 163.847 257.066C163.896 257.127 163.961 257.157 164.041 257.157C164.101 257.157 164.155 257.146 164.2 257.123V257.442C164.139 257.484 164.048 257.505 163.926 257.505C163.79 257.505 163.674 257.469 163.578 257.397C163.487 257.321 163.43 257.21 163.407 257.066C163.13 257.389 162.759 257.551 162.295 257.551Z" fill="#FF2323"/>
<path d="M164.501 257.482V257.106C164.52 257.11 164.556 257.112 164.61 257.112C164.849 257.112 165.013 256.959 165.1 256.655C165.173 256.412 165.218 256.062 165.237 255.605L165.26 254.727H167.32V257.482H166.909V255.086H165.654L165.637 255.617C165.629 255.822 165.622 255.97 165.614 256.062C165.58 256.434 165.525 256.708 165.448 256.883C165.38 257.066 165.275 257.216 165.135 257.334C164.994 257.448 164.823 257.5 164.621 257.488C164.56 257.488 164.52 257.486 164.501 257.482Z" fill="#FF2323"/>
<path d="M168.504 255.086C168.782 254.801 169.14 254.658 169.577 254.658C170.014 254.658 170.372 254.801 170.65 255.086C170.927 255.364 171.066 255.704 171.066 256.107C171.066 256.511 170.927 256.851 170.65 257.129C170.368 257.41 170.011 257.551 169.577 257.551C169.143 257.551 168.786 257.41 168.504 257.129C168.227 256.851 168.088 256.511 168.088 256.107C168.088 255.704 168.227 255.364 168.504 255.086ZM170.644 256.107C170.644 255.803 170.543 255.546 170.342 255.337C170.14 255.132 169.885 255.029 169.577 255.029C169.269 255.029 169.014 255.132 168.812 255.337C168.611 255.546 168.51 255.803 168.51 256.107C168.51 256.408 168.611 256.663 168.812 256.872C169.014 257.077 169.269 257.18 169.577 257.18C169.885 257.18 170.14 257.077 170.342 256.872C170.543 256.663 170.644 256.408 170.644 256.107Z" fill="#FF2323"/>
<path d="M173.746 257.043V258.624H173.336V254.727H173.746V255.166C174.005 254.827 174.361 254.658 174.813 254.658C175.22 254.658 175.553 254.799 175.812 255.08C176.07 255.362 176.2 255.702 176.2 256.102C176.2 256.505 176.07 256.847 175.812 257.129C175.553 257.41 175.22 257.551 174.813 257.551C174.361 257.551 174.005 257.382 173.746 257.043ZM173.746 255.651V256.558C173.826 256.741 173.956 256.891 174.134 257.009C174.313 257.123 174.507 257.18 174.716 257.18C175.024 257.18 175.277 257.077 175.475 256.872C175.677 256.659 175.778 256.402 175.778 256.102C175.778 255.801 175.677 255.546 175.475 255.337C175.277 255.132 175.024 255.029 174.716 255.029C174.511 255.029 174.319 255.088 174.14 255.206C173.961 255.32 173.83 255.468 173.746 255.651Z" fill="#FF2323"/>
<path d="M177.893 257.18C178.083 257.18 178.264 257.136 178.435 257.049C178.606 256.961 178.745 256.851 178.851 256.718V256.336C178.57 256.153 178.271 256.062 177.956 256.062C177.705 256.062 177.505 256.111 177.357 256.21C177.212 256.309 177.14 256.444 177.14 256.615C177.14 256.794 177.21 256.933 177.351 257.032C177.492 257.131 177.672 257.18 177.893 257.18ZM177.779 257.551C177.486 257.551 177.237 257.471 177.031 257.311C176.83 257.144 176.729 256.919 176.729 256.638C176.729 256.36 176.835 256.138 177.048 255.97C177.261 255.807 177.531 255.725 177.859 255.725C178.216 255.725 178.547 255.814 178.851 255.993V255.719C178.851 255.259 178.549 255.029 177.944 255.029C177.621 255.029 177.32 255.122 177.043 255.309V254.909C177.313 254.742 177.642 254.658 178.03 254.658C178.406 254.658 178.705 254.748 178.926 254.926C179.15 255.101 179.262 255.352 179.262 255.679V256.815C179.262 256.921 179.285 257.005 179.331 257.066C179.38 257.127 179.445 257.157 179.525 257.157C179.585 257.157 179.639 257.146 179.684 257.123V257.442C179.624 257.484 179.532 257.505 179.41 257.505C179.274 257.505 179.158 257.469 179.062 257.397C178.971 257.321 178.914 257.21 178.891 257.066C178.614 257.389 178.243 257.551 177.779 257.551Z" fill="#FF2323"/>
<path d="M181.697 257.551C181.225 257.551 180.858 257.387 180.596 257.06C180.333 256.733 180.202 256.288 180.202 255.725C180.202 255.002 180.387 254.472 180.756 254.133C180.881 254.008 181.1 253.882 181.412 253.757C181.549 253.707 181.686 253.665 181.822 253.631C181.963 253.593 182.113 253.557 182.273 253.523C182.323 253.511 182.406 253.494 182.524 253.471C182.646 253.449 182.732 253.433 182.781 253.426V253.808C182.389 253.884 182.087 253.947 181.874 253.996C181.452 254.095 181.138 254.253 180.932 254.47C180.719 254.694 180.605 255.035 180.59 255.491C180.704 255.293 180.868 255.137 181.081 255.023C181.298 254.909 181.541 254.852 181.811 254.852C182.172 254.852 182.475 254.974 182.718 255.217C182.962 255.457 183.083 255.765 183.083 256.142C183.083 256.556 182.95 256.895 182.684 257.157C182.418 257.42 182.089 257.551 181.697 257.551ZM181.697 257.18C181.967 257.18 182.195 257.087 182.382 256.9C182.572 256.71 182.667 256.467 182.667 256.17C182.667 255.885 182.576 255.657 182.393 255.485C182.214 255.311 181.99 255.223 181.72 255.223C181.473 255.223 181.25 255.297 181.052 255.446C180.854 255.586 180.712 255.757 180.624 255.959C180.643 256.347 180.744 256.647 180.927 256.861C181.113 257.074 181.37 257.18 181.697 257.18Z" fill="#FF2323"/>
<path d="M184.066 255.086C184.344 254.801 184.702 254.658 185.139 254.658C185.576 254.658 185.934 254.801 186.212 255.086C186.489 255.364 186.628 255.704 186.628 256.107C186.628 256.511 186.489 256.851 186.212 257.129C185.93 257.41 185.573 257.551 185.139 257.551C184.705 257.551 184.348 257.41 184.066 257.129C183.789 256.851 183.65 256.511 183.65 256.107C183.65 255.704 183.789 255.364 184.066 255.086ZM186.206 256.107C186.206 255.803 186.105 255.546 185.904 255.337C185.702 255.132 185.447 255.029 185.139 255.029C184.831 255.029 184.576 255.132 184.374 255.337C184.173 255.546 184.072 255.803 184.072 256.107C184.072 256.408 184.173 256.663 184.374 256.872C184.576 257.077 184.831 257.18 185.139 257.18C185.447 257.18 185.702 257.077 185.904 256.872C186.105 256.663 186.206 256.408 186.206 256.107Z" fill="#FF2323"/>
<path d="M188.371 257.482H187.96V255.086H186.962V254.727H189.37V255.086H188.371V257.482Z" fill="#FF2323"/>
<path d="M193.15 257.482H192.739V254.727H193.15V257.482ZM191.25 257.482H190.001V254.727H190.412V255.651H191.233C191.553 255.651 191.808 255.735 191.998 255.902C192.188 256.066 192.283 256.286 192.283 256.564C192.283 256.841 192.192 257.064 192.009 257.231C191.827 257.399 191.574 257.482 191.25 257.482ZM190.412 256.01V257.123H191.176C191.393 257.123 191.562 257.075 191.684 256.98C191.806 256.881 191.867 256.744 191.867 256.57C191.867 256.391 191.806 256.254 191.684 256.159C191.562 256.06 191.393 256.01 191.176 256.01H190.412Z" fill="#FF2323"/>
<path d="M196.889 257.551C196.467 257.551 196.117 257.414 195.84 257.14C195.562 256.862 195.423 256.516 195.423 256.102C195.423 255.691 195.564 255.349 195.845 255.075C196.123 254.797 196.473 254.658 196.895 254.658C197.215 254.658 197.492 254.725 197.728 254.858V255.24C197.481 255.099 197.222 255.029 196.952 255.029C196.633 255.029 196.368 255.132 196.159 255.337C195.95 255.535 195.845 255.792 195.845 256.107C195.845 256.415 195.95 256.672 196.159 256.878C196.372 257.079 196.636 257.18 196.952 257.18C197.256 257.18 197.532 257.1 197.779 256.94V257.317C197.521 257.473 197.224 257.551 196.889 257.551Z" fill="#FF2323"/>
<path d="M200.53 257.482H200.119V254.727H200.53V255.885H202.225V254.727H202.635V257.482H202.225V256.256H200.53V257.482Z" fill="#FF2323"/>
<path d="M204.537 257.18C204.727 257.18 204.908 257.136 205.079 257.049C205.25 256.961 205.389 256.851 205.496 256.718V256.336C205.214 256.153 204.916 256.062 204.6 256.062C204.349 256.062 204.149 256.111 204.001 256.21C203.856 256.309 203.784 256.444 203.784 256.615C203.784 256.794 203.854 256.933 203.995 257.032C204.136 257.131 204.317 257.18 204.537 257.18ZM204.423 257.551C204.13 257.551 203.881 257.471 203.676 257.311C203.474 257.144 203.373 256.919 203.373 256.638C203.373 256.36 203.48 256.138 203.693 255.97C203.906 255.807 204.176 255.725 204.503 255.725C204.86 255.725 205.191 255.814 205.496 255.993V255.719C205.496 255.259 205.193 255.029 204.588 255.029C204.265 255.029 203.965 255.122 203.687 255.309V254.909C203.957 254.742 204.286 254.658 204.674 254.658C205.051 254.658 205.349 254.748 205.57 254.926C205.794 255.101 205.906 255.352 205.906 255.679V256.815C205.906 256.921 205.929 257.005 205.975 257.066C206.024 257.127 206.089 257.157 206.169 257.157C206.23 257.157 206.283 257.146 206.329 257.123V257.442C206.268 257.484 206.177 257.505 206.055 257.505C205.918 257.505 205.802 257.469 205.707 257.397C205.615 257.321 205.558 257.21 205.536 257.066C205.258 257.389 204.887 257.551 204.423 257.551Z" fill="#FF2323"/>
<path d="M207.394 257.482H206.995V254.727H207.394L208.495 256.005L209.602 254.727H210.002V257.482H209.602V255.291L208.575 256.484H208.415L207.394 255.291V257.482Z" fill="#FF2323"/>
<path d="M211.355 257.482H210.973V254.727H211.384V256.878L213.147 254.727H213.529V257.482H213.118V255.337L211.355 257.482Z" fill="#FF2323"/>
<path d="M242.129 257.482H241.713V253.488H242.129L243.573 255.423L245.016 253.488H245.427V257.482H245.011V254.127L243.704 255.873H243.447L242.129 254.127V257.482Z" fill="#FF2323"/>
<path d="M247.787 257.551C247.357 257.551 246.996 257.416 246.703 257.146C246.414 256.879 246.27 256.533 246.27 256.107C246.27 255.696 246.399 255.352 246.657 255.075C246.92 254.797 247.257 254.658 247.667 254.658C247.888 254.658 248.084 254.704 248.255 254.795C248.426 254.882 248.561 254.998 248.66 255.143C248.759 255.288 248.833 255.442 248.883 255.605C248.932 255.765 248.957 255.927 248.957 256.09V256.204H246.692C246.715 256.501 246.832 256.739 247.045 256.917C247.262 257.092 247.536 257.18 247.867 257.18C248.187 257.18 248.481 257.094 248.751 256.923V257.288C248.527 257.463 248.206 257.551 247.787 257.551ZM246.697 255.868H248.54C248.529 255.655 248.449 255.462 248.301 255.291C248.16 255.116 247.943 255.029 247.65 255.029C247.376 255.029 247.152 255.113 246.977 255.28C246.806 255.451 246.713 255.647 246.697 255.868Z" fill="#FF2323"/>
<path d="M250.995 257.551C250.573 257.551 250.223 257.414 249.946 257.14C249.668 256.862 249.529 256.516 249.529 256.102C249.529 255.691 249.67 255.348 249.951 255.075C250.229 254.797 250.579 254.658 251.001 254.658C251.321 254.658 251.598 254.725 251.834 254.858V255.24C251.587 255.099 251.328 255.029 251.058 255.029C250.739 255.029 250.474 255.132 250.265 255.337C250.056 255.535 249.951 255.792 249.951 256.107C249.951 256.415 250.056 256.672 250.265 256.877C250.478 257.079 250.742 257.18 251.058 257.18C251.362 257.18 251.638 257.1 251.885 256.94V257.317C251.627 257.473 251.33 257.551 250.995 257.551Z" fill="#FF2323"/>
<path d="M252.972 257.482H252.504L253.326 256.381C253.101 256.343 252.928 256.254 252.806 256.113C252.688 255.968 252.629 255.786 252.629 255.565C252.629 255.31 252.715 255.107 252.886 254.955C253.061 254.803 253.305 254.726 253.617 254.726H255.037V257.482H254.626V256.455H253.742L252.972 257.482ZM253.679 256.096H254.626V255.086H253.679C253.478 255.086 253.322 255.13 253.211 255.217C253.105 255.305 253.052 255.43 253.052 255.594C253.052 255.757 253.105 255.883 253.211 255.97C253.322 256.054 253.478 256.096 253.679 256.096Z" fill="#FF2323"/>
<path d="M258.975 258.298H258.581V257.482H256.008V254.726H256.419V257.123H258.056V254.726H258.467V257.123H258.975V258.298Z" fill="#FF2323"/>
<path d="M262.172 257.482H261.756V253.945L260.86 254.458V254.053L261.801 253.488H262.172V257.482Z" fill="#FF2323"/>
<path d="M265.767 257.482H263.045V257.168L264.392 255.885C264.689 255.603 264.896 255.377 265.014 255.206C265.135 255.027 265.196 254.827 265.196 254.607C265.196 254.371 265.113 254.181 264.945 254.036C264.778 253.888 264.559 253.814 264.289 253.814C263.867 253.814 263.483 253.992 263.137 254.35V253.876C263.475 253.572 263.873 253.42 264.329 253.42C264.698 253.42 265.004 253.525 265.248 253.734C265.495 253.947 265.619 254.221 265.619 254.555C265.619 254.822 265.552 255.065 265.419 255.286C265.286 255.502 265.058 255.763 264.734 256.067L263.662 257.1H265.767V257.482Z" fill="#FF2323"/>
<path fill-rule="evenodd" clip-rule="evenodd" d="M37.5159 233.287L37.5159 2.21387L37.9913 2.21387L37.9913 233.287L37.5159 233.287Z" fill="#5E5E5E"/>
<path fill-rule="evenodd" clip-rule="evenodd" d="M85.5372 235.189L85.5372 2.21387L86.0127 2.21387L86.0127 235.189L85.5372 235.189Z" fill="#5E5E5E"/>
<path fill-rule="evenodd" clip-rule="evenodd" d="M133.559 235.189L133.559 2.21387L134.034 2.21387L134.034 235.189L133.559 235.189Z" fill="#5E5E5E"/>
<path fill-rule="evenodd" clip-rule="evenodd" d="M181.58 235.189L181.58 2.21387L182.056 2.21387L182.056 235.189L181.58 235.189Z" fill="#5E5E5E"/>
<path fill-rule="evenodd" clip-rule="evenodd" d="M229.601 235.189L229.601 2.21387L230.077 2.21387L230.077 235.189L229.601 235.189Z" fill="#5E5E5E"/>
<path fill-rule="evenodd" clip-rule="evenodd" d="M277.623 235.189L277.623 3.64062L278.098 3.64062L278.098 235.189L277.623 235.189Z" fill="#5E5E5E"/>
<path fill-rule="evenodd" clip-rule="evenodd" d="M35.614 4.11536L280 4.11539L280 4.59082L35.614 4.59079L35.614 4.11536Z" fill="#5E5E5E"/>
<path fill-rule="evenodd" clip-rule="evenodd" d="M35.614 128.686L280 128.686L280 129.637L35.614 129.637L35.614 128.686Z" fill="#5E5E5E"/>
<path fill-rule="evenodd" clip-rule="evenodd" d="M35.614 25.0363L280 25.0363L280 25.5117L35.614 25.5117L35.614 25.0363Z" fill="#5E5E5E"/>
<path fill-rule="evenodd" clip-rule="evenodd" d="M35.614 149.607L280 149.607L280 150.082L35.614 150.082L35.614 149.607Z" fill="#5E5E5E"/>
<path fill-rule="evenodd" clip-rule="evenodd" d="M35.614 45.4807L280 45.4807L280 46.4316L35.614 46.4316L35.614 45.4807Z" fill="#5E5E5E"/>
<path fill-rule="evenodd" clip-rule="evenodd" d="M35.614 170.526L280 170.527L280 171.002L35.614 171.002L35.614 170.526Z" fill="#5E5E5E"/>
<path fill-rule="evenodd" clip-rule="evenodd" d="M35.614 66.4006L280 66.4007L280 67.3516L35.614 67.3516L35.614 66.4006Z" fill="#5E5E5E"/>
<path fill-rule="evenodd" clip-rule="evenodd" d="M35.614 190.971L280 190.971L280 191.922L35.614 191.922L35.614 190.971Z" fill="#5E5E5E"/>
<path fill-rule="evenodd" clip-rule="evenodd" d="M35.614 87.3214L280 87.3214L280 87.7969L35.614 87.7969L35.614 87.3214Z" fill="#5E5E5E"/>
<path fill-rule="evenodd" clip-rule="evenodd" d="M35.614 211.892L280 211.892L280 212.843L35.614 212.843L35.614 211.892Z" fill="#5E5E5E"/>
<path fill-rule="evenodd" clip-rule="evenodd" d="M35.614 107.766L280 107.766L280 108.717L35.614 108.717L35.614 107.766Z" fill="#5E5E5E"/>
<path fill-rule="evenodd" clip-rule="evenodd" d="M35.614 232.812L280 232.812L280 233.287L35.614 233.287L35.614 232.812Z" fill="#5E5E5E"/>
<path fill-rule="evenodd" clip-rule="evenodd" d="M239.734 40.6843C236.349 44.9875 231.895 48.0914 225.419 48.0914C218.731 48.0914 214.389 49.3522 211.216 51.105C208.01 52.876 205.808 55.2429 203.452 57.8874C203.329 58.0256 203.205 58.1648 203.081 58.3049C200.872 60.7896 198.431 63.5361 194.972 65.6234C191.247 67.8709 186.506 69.2753 179.761 69.2753C176.4 69.2753 173.549 70.9752 171.001 74.5371C168.406 78.1645 166.295 83.5184 164.565 90.2391C161.111 103.662 159.384 121.653 157.777 139.902C157.668 141.135 157.56 142.369 157.452 143.603C155.973 160.507 154.498 177.353 151.694 190.246C150.192 197.15 148.265 203.15 145.614 207.476C142.941 211.838 139.274 214.867 134.323 214.867C123.807 214.867 118.599 209.394 113.742 204.29C113.359 203.888 112.979 203.489 112.598 203.094C109.968 200.368 107.311 197.836 103.763 195.949C100.248 194.08 95.7207 192.776 89.3118 192.776C81.5274 192.776 76.343 195.239 72.4177 198.85C68.3881 202.556 65.5725 207.565 62.7516 212.947C62.4976 213.431 62.2432 213.92 61.9875 214.411C59.4799 219.226 56.8452 224.286 53.2632 228.193C49.1775 232.649 43.8285 235.665 36.0894 235.665V230.911C42.3521 230.911 46.4715 228.565 49.7586 224.98C52.8923 221.562 55.235 217.072 57.8129 212.132C58.0531 211.671 58.2952 211.207 58.5403 210.74C61.3392 205.399 64.4858 199.685 69.1988 195.35C74.0161 190.919 80.3547 188.021 89.3118 188.021C96.414 188.021 101.722 189.478 105.995 191.751C110.237 194.007 113.323 196.997 116.02 199.793C116.384 200.17 116.741 200.543 117.092 200.911C121.997 206.039 125.893 210.112 134.323 210.112C136.981 210.112 139.354 208.591 141.56 204.991C143.789 201.355 145.581 195.98 147.048 189.235C149.784 176.654 151.234 160.102 152.725 143.076C152.83 141.881 152.935 140.684 153.041 139.485C154.639 121.336 156.39 102.929 159.961 89.0541C161.744 82.1256 164.033 76.1053 167.134 71.7706C170.282 67.3705 174.423 64.5207 179.761 64.5207C185.8 64.5207 189.658 63.2771 192.515 61.5526C195.342 59.8473 197.347 57.5939 199.651 55.0067C199.734 54.9131 199.818 54.8191 199.902 54.7247C202.264 52.0732 204.932 49.1441 208.917 46.9431C212.935 44.7239 218.105 43.3368 225.419 43.3368C230.054 43.3368 233.247 41.2409 235.997 37.7447C238.471 34.6002 240.428 30.5345 242.59 26.0425C242.933 25.3301 243.281 24.607 243.638 23.8751C246.164 18.6829 249.063 13.1419 253.325 8.92597C257.688 4.61054 263.417 1.73926 271.382 1.73926H280L280 6.49385H271.382C264.737 6.49385 260.191 8.82226 256.669 12.3064C253.046 15.8899 250.447 20.7483 247.913 25.9555C247.578 26.6444 247.242 27.3421 246.905 28.0437C244.771 32.4881 242.558 37.0946 239.734 40.6843Z" fill="url(#paint1_linear)"/>
<defs>
<linearGradient id="paint0_linear" x1="158.045" y1="115.614" x2="158.045" y2="244.223" gradientUnits="userSpaceOnUse">
<stop stop-color="#D701B6" stop-opacity="0.34"/>
<stop offset="1" stop-color="#DB01B3" stop-opacity="0"/>
</linearGradient>
<linearGradient id="paint1_linear" x1="276.252" y1="2.57575" x2="5.29257" y2="170.404" gradientUnits="userSpaceOnUse">
<stop stop-color="#FF0000"/>
<stop offset="0.515625" stop-color="#FF0099"/>
<stop offset="1" stop-color="#7000FF"/>
</linearGradient>
</defs>
</svg>
