<svg width="186" height="60" viewBox="0 0 186 60" fill="none" xmlns="http://www.w3.org/2000/svg">
<path d="M12.4596 27.6346C9.80474 27.6346 7.5047 26.9514 5.55952 25.5848C1.85317 22.9023 0 18.9798 0 13.8173C0 11.3879 0.446865 9.18624 1.34059 7.21234C2.26061 5.13721 3.66692 3.42902 5.55952 2.08778C7.47841 0.695927 9.77845 0 12.4596 0C14.4311 0 16.2317 0.39225 17.8614 1.17675C19.5175 1.96125 20.8581 3.02412 21.8832 4.36536C23.9335 7.04784 24.9587 10.1985 24.9587 13.8173C24.9587 17.4361 23.9335 20.5868 21.8832 23.2693C20.8581 24.6105 19.5175 25.6734 17.8614 26.4579C16.2317 27.2424 14.4311 27.6346 12.4596 27.6346ZM12.4596 20.2705C13.4848 20.3211 14.3522 19.9035 15.062 19.0178C15.7717 18.1321 16.2054 17.0439 16.3631 15.7533C16.5471 14.4626 16.5471 13.172 16.3631 11.8814C16.2054 10.5907 15.7717 9.50257 15.062 8.61685C14.3522 7.73112 13.4848 7.31356 12.4596 7.36418C11.0928 7.36418 10.0807 8.02214 9.42359 9.33808C8.74015 10.654 8.39843 12.1471 8.39843 13.8173C8.39843 15.4622 8.74015 16.968 9.42359 18.3345C10.107 19.6251 11.119 20.2705 12.4596 20.2705Z" fill="#F07281"/>
<path d="M36.0488 26.7236V19.5113C36.8111 19.8403 37.4551 20.0047 37.9808 20.0047C38.9534 20.0047 39.6763 19.8149 40.1494 19.4354C41.2797 18.499 41.858 15.1586 41.8843 9.414L42.0026 0.531435H63.7675V27.1032H55.3297V7.55397H49.6913L49.6519 10.7426C49.6256 17.1451 48.6924 21.5991 46.8524 24.1044C45.2752 26.3314 42.962 27.4448 39.9129 27.4448C38.0991 27.4448 36.8111 27.2044 36.0488 26.7236Z" fill="#F07281"/>
<path d="M75.157 27.1032H67.9415V0.531435H76.1428V13.7414L86.7887 0.531435H93.7676V27.1032H85.6452V14.0071L75.157 27.1032Z" fill="#F07281"/>
<path d="M103.694 32H95.7684V20.0807H98.5678C100.355 16.9933 101.249 12.1977 101.249 5.69395V0.531435H122.738V20.0807H126.208V32H118.243V27.1032H103.694V32ZM107.085 20.0807H114.3V7.55397H109.214C109.214 9.52788 109.03 11.7928 108.662 14.3488C108.294 16.8035 107.768 18.7141 107.085 20.0807Z" fill="#F07281"/>
<path d="M138.708 18.4104C139.865 19.5998 141.324 20.1945 143.085 20.1945C144.846 20.1945 146.305 19.5998 147.462 18.4104C148.618 17.1704 149.197 15.6394 149.197 13.8173C149.197 11.9699 148.618 10.4516 147.462 9.26216C146.331 8.04745 144.872 7.4401 143.085 7.4401C141.298 7.4401 139.839 8.04745 138.708 9.26216C137.552 10.4516 136.973 11.9699 136.973 13.8173C136.973 15.6394 137.552 17.1704 138.708 18.4104ZM132.479 23.573C129.692 20.8905 128.299 17.6386 128.299 13.8173C128.299 9.99605 129.692 6.74417 132.479 4.06168C135.291 1.3539 138.827 0 143.085 0C147.317 0 150.839 1.3539 153.652 4.06168C156.438 6.74417 157.832 9.99605 157.832 13.8173C157.832 17.6639 156.438 20.9284 153.652 23.6109C150.866 26.2934 147.343 27.6346 143.085 27.6346C138.827 27.6346 135.291 26.2807 132.479 23.573Z" fill="#F07281"/>
<path d="M175.867 27.1032H161.278V0.531435H175.275C177.851 0.531435 179.954 1.11348 181.584 2.27758C183.24 3.41637 184.068 5.09925 184.068 7.32622C184.068 8.61685 183.7 9.69237 182.964 10.5528C182.202 11.4385 181.466 12.0459 180.756 12.3749C181.965 12.6026 183.135 13.3618 184.265 14.6524C185.422 15.9178 186 17.4994 186 19.3974C186 21.7003 185.067 23.5603 183.201 24.9775C181.334 26.3946 178.89 27.1032 175.867 27.1032ZM169.755 16.1329V20.5362H174.211C174.973 20.5362 175.578 20.3464 176.024 19.9668C176.498 19.5619 176.734 19.0304 176.734 18.3725C176.734 17.7145 176.498 17.1831 176.024 16.7782C175.551 16.348 174.947 16.1329 174.211 16.1329H169.755ZM169.755 6.8707V10.4389H174.053C174.631 10.4389 175.104 10.2744 175.472 9.94543C175.867 9.61645 176.064 9.21155 176.064 8.73072C176.064 8.17398 175.867 7.73112 175.472 7.40214C175.104 7.04784 174.631 6.8707 174.053 6.8707H169.755Z" fill="#F07281"/>
<path d="M45.7856 58.4994C44.2433 58.4994 42.9815 58.2123 42 57.6382V55.0154C42.43 55.3286 42.9487 55.5722 43.5563 55.7461C44.1732 55.9201 44.7808 56.0071 45.379 56.0071C46.5007 56.0071 47.0615 55.7505 47.0615 55.2372C47.0615 54.8545 46.6502 54.6631 45.8277 54.6631H44.3695V52.5362H45.9819C46.6175 52.5362 46.9353 52.3665 46.9353 52.0273C46.9353 51.6358 46.4633 51.4401 45.5192 51.4401C44.3508 51.4401 43.2852 51.6663 42.3225 52.1186V49.7307C43.3507 49.2436 44.5191 49 45.8277 49C47.0895 49 48.0897 49.2566 48.8281 49.7699C49.5665 50.2744 49.9357 50.9095 49.9357 51.675C49.9357 52.5536 49.5432 53.1625 48.758 53.5018C49.1786 53.6845 49.5198 53.9541 49.7815 54.3108C50.0432 54.6675 50.1741 55.0807 50.1741 55.5504C50.1741 56.3942 49.7768 57.0945 48.9823 57.6512C48.1878 58.2167 47.1222 58.4994 45.7856 58.4994Z" fill="#F07281"/>
<path d="M53.2933 58.3167H50.1807L54.2186 49.1305H57.0929L61.1449 58.3167H57.9061L57.2051 56.6074H54.0083L53.2933 58.3167ZM55.6067 52.3405L54.8776 54.5065H56.3218L55.6067 52.3405Z" fill="#F07281"/>
<path d="M81.4589 58.4994C79.8512 58.4994 78.5099 58.0601 77.4349 57.1815C76.3694 56.2942 75.8366 55.1503 75.8366 53.7497C75.8366 52.3492 76.3647 51.2096 77.4209 50.331C78.4678 49.4437 79.8044 49 81.4309 49C82.403 49 83.2302 49.1609 83.9125 49.4828V52.1317C83.118 51.7315 82.3188 51.5314 81.515 51.5314C80.7672 51.5314 80.1503 51.7446 79.6642 52.1708C79.1782 52.5884 78.9352 53.1147 78.9352 53.7497C78.9352 54.4021 79.1875 54.9371 79.6923 55.3547C80.2064 55.7635 80.8513 55.968 81.6271 55.968C82.5806 55.968 83.3891 55.7505 84.0527 55.3155V58.0036C83.3704 58.3341 82.5058 58.4994 81.4589 58.4994Z" fill="#F07281"/>
<path d="M93.1407 58.3167H85.3592V49.1827H93.0566V51.5967H88.3736V52.4057H92.0471V54.624H88.3736V55.9027H93.1407V58.3167Z" fill="#F07281"/>
<path d="M97.2872 58.3167H94.2728V49.1827H101.83V51.5967H97.2872V58.3167Z" fill="#F07281"/>
<path d="M105.95 55.3286C106.361 55.7374 106.88 55.9419 107.507 55.9419C108.133 55.9419 108.652 55.7374 109.063 55.3286C109.474 54.9023 109.68 54.376 109.68 53.7497C109.68 53.1147 109.474 52.5927 109.063 52.1839C108.661 51.7663 108.142 51.5575 107.507 51.5575C106.871 51.5575 106.352 51.7663 105.95 52.1839C105.539 52.5927 105.333 53.1147 105.333 53.7497C105.333 54.376 105.539 54.9023 105.95 55.3286ZM103.735 57.1032C102.744 56.1811 102.249 55.0633 102.249 53.7497C102.249 52.4361 102.744 51.3183 103.735 50.3962C104.735 49.4654 105.992 49 107.507 49C109.011 49 110.264 49.4654 111.264 50.3962C112.255 51.3183 112.75 52.4361 112.75 53.7497C112.75 55.072 112.255 56.1941 111.264 57.1163C110.273 58.0384 109.021 58.4994 107.507 58.4994C105.992 58.4994 104.735 58.034 103.735 57.1032Z" fill="#F07281"/>
<path d="M115.804 60H112.986V55.9027H113.981C114.617 54.8414 114.934 53.193 114.934 50.9573V49.1827H122.576V55.9027H123.81V60H120.977V58.3167H115.804V60ZM117.01 55.9027H119.575V51.5967H117.767C117.767 52.2752 117.701 53.0538 117.57 53.9324C117.439 54.7762 117.253 55.433 117.01 55.9027Z" fill="#F07281"/>
<path d="M127.848 58.3167H124.834V49.1827H127.848V52.2752H130.849V49.1827H133.863V58.3167H130.849V54.7153H127.848V58.3167Z" fill="#F07281"/>
<path d="M137.957 58.3167H134.466L137.396 54.7414C136.835 54.4804 136.396 54.1238 136.078 53.6714C135.76 53.2104 135.602 52.6928 135.602 52.1186C135.602 51.2661 135.938 50.5658 136.611 50.0178C137.275 49.4611 138.167 49.1827 139.289 49.1827H144V58.3167H140.986V55.0546H140.593L137.957 58.3167ZM139.64 53.0059H140.986V51.5314H139.64C139.359 51.5314 139.13 51.5967 138.953 51.7272C138.784 51.8577 138.7 52.036 138.7 52.2622C138.7 52.4883 138.784 52.671 138.953 52.8102C139.13 52.9407 139.359 53.0059 139.64 53.0059Z" fill="#F07281"/>
</svg>
