<svg width="190" height="237" viewBox="0 0 190 237" fill="none" xmlns="http://www.w3.org/2000/svg">
<path d="M163.336 47.6165C166.324 47.6165 168.747 50.039 168.747 53.0274V143.39C168.747 146.379 166.324 148.801 163.336 148.801H90.7821C89.5059 149.12 87.9705 149.766 86.7706 150.966C84.3356 153.401 84.3356 155.024 84.3356 156.647V174.233C84.3356 175.045 81.6301 178.562 78.6541 176.127C75.6781 173.692 53.4932 152.048 52.411 150.966C51.6249 150.18 50.4105 149.251 47.1087 148.801H22.1096C19.1212 148.801 16.6986 146.379 16.6986 143.39V53.0274C16.6986 50.039 19.1212 47.6165 22.1096 47.6165H163.336Z" fill="white"/>
<path fill-rule="evenodd" clip-rule="evenodd" d="M169.288 43.0171C171.828 43.0171 173.887 45.0763 173.887 47.6164V137.979C173.887 140.52 171.828 142.579 169.288 142.579H96.6343L96.5374 142.603C95.1729 142.944 93.4863 143.643 92.1487 144.981C90.8661 146.263 90.1757 147.382 89.822 148.443C89.4759 149.482 89.4759 150.405 89.476 151.203V168.781C89.4711 168.796 89.459 168.832 89.4316 168.89C89.3785 169.002 89.2906 169.151 89.1658 169.32C88.9153 169.659 88.5534 170.026 88.1229 170.304C87.6939 170.581 87.2275 170.75 86.7494 170.75C86.2844 170.75 85.7352 170.591 85.1201 170.088C83.6659 168.898 77.4111 162.913 71.3384 157.044C65.2837 151.193 59.4722 145.516 58.9369 144.981C58.498 144.542 57.9237 144.05 57.0033 143.613C56.0943 143.182 54.88 142.819 53.1702 142.586L53.1157 142.579H28.0616C25.5215 142.579 23.4623 140.52 23.4623 137.979V47.6164C23.4623 45.0763 25.5215 43.0171 28.0616 43.0171H169.288ZM175.51 47.6164C175.51 44.1798 172.724 41.3938 169.288 41.3938H28.0616C24.625 41.3938 21.839 44.1798 21.839 47.6164V137.979C21.839 141.416 24.625 144.202 28.0616 144.202H53.0052C54.5669 144.419 55.5952 144.742 56.3072 145.08C57.016 145.416 57.4419 145.782 57.7891 146.129C58.336 146.676 64.1581 152.362 70.2103 158.212C76.2447 164.044 82.5703 170.099 84.0922 171.344C84.9651 172.058 85.8701 172.373 86.7494 172.373C87.6155 172.373 88.3836 172.068 89.0029 171.668C89.6208 171.27 90.1212 170.758 90.471 170.285C90.6464 170.048 90.7931 169.808 90.8996 169.583C90.9947 169.381 91.0993 169.105 91.0993 168.822V151.236C91.0993 150.418 91.1043 149.73 91.362 148.957C91.617 148.191 92.1441 147.281 93.2965 146.129C94.3307 145.095 95.6698 144.506 96.8361 144.202H169.288C172.724 144.202 175.51 141.416 175.51 137.979V47.6164Z" fill="#F07281"/>
<path fill-rule="evenodd" clip-rule="evenodd" d="M71.6198 20.8322C68.3326 20.8322 65.6678 23.497 65.6678 26.7842C65.6678 30.0715 68.3326 32.7363 71.6198 32.7363C74.907 32.7363 77.5719 30.0715 77.5719 26.7842C77.5719 23.497 74.907 20.8322 71.6198 20.8322ZM62.9623 26.7842C62.9623 22.0028 66.8384 18.1267 71.6198 18.1267C76.4012 18.1267 80.2773 22.0028 80.2773 26.7842C80.2773 31.5657 76.4012 35.4418 71.6198 35.4418C66.8384 35.4418 62.9623 31.5657 62.9623 26.7842Z" fill="#F07281"/>
<path fill-rule="evenodd" clip-rule="evenodd" d="M111.661 11.6335C108.374 11.6335 105.709 14.2983 105.709 17.5855C105.709 20.8727 108.374 23.5376 111.661 23.5376C114.948 23.5376 117.613 20.8727 117.613 17.5855C117.613 14.2983 114.948 11.6335 111.661 11.6335ZM103.003 17.5855C103.003 12.8041 106.88 8.92798 111.661 8.92798C116.442 8.92798 120.318 12.8041 120.318 17.5855C120.318 22.3669 116.442 26.243 111.661 26.243C106.88 26.243 103.003 22.3669 103.003 17.5855Z" fill="#F07281"/>
<path fill-rule="evenodd" clip-rule="evenodd" d="M79.1952 196.029C77.0379 196.029 75.2891 197.778 75.2891 199.935C75.2891 202.092 77.0379 203.841 79.1952 203.841C81.3524 203.841 83.1012 202.092 83.1012 199.935C83.1012 197.778 81.3524 196.029 79.1952 196.029ZM73.5137 199.935C73.5137 196.797 76.0574 194.253 79.1952 194.253C82.333 194.253 84.8767 196.797 84.8767 199.935C84.8767 203.073 82.333 205.616 79.1952 205.616C76.0574 205.616 73.5137 203.073 73.5137 199.935Z" fill="#F07281"/>
<path fill-rule="evenodd" clip-rule="evenodd" d="M3.71231 155.497C0.83598 155.497 -1.49574 157.829 -1.49574 160.705C-1.49574 163.582 0.83598 165.914 3.71231 165.914C6.58863 165.914 8.92035 163.582 8.92035 160.705C8.92035 157.829 6.58863 155.497 3.71231 155.497ZM-3.86304 160.705C-3.86304 156.522 -0.47144 153.13 3.71231 153.13C7.89605 153.13 11.2876 156.522 11.2876 160.705C11.2876 164.889 7.89605 168.281 3.71231 168.281C-0.47144 168.281 -3.86304 164.889 -3.86304 160.705Z" fill="#F5F5F5"/>
<path fill-rule="evenodd" clip-rule="evenodd" d="M19.9452 196.283C17.4798 196.283 15.4811 198.281 15.4811 200.747C15.4811 203.212 17.4798 205.211 19.9452 205.211C22.4106 205.211 24.4092 203.212 24.4092 200.747C24.4092 198.281 22.4106 196.283 19.9452 196.283ZM13.452 200.747C13.452 197.161 16.3591 194.253 19.9452 194.253C23.5312 194.253 26.4383 197.161 26.4383 200.747C26.4383 204.333 23.5312 207.24 19.9452 207.24C16.3591 207.24 13.452 204.333 13.452 200.747Z" fill="#F5F5F5"/>
<path fill-rule="evenodd" clip-rule="evenodd" d="M114.096 229.695C112.452 229.695 111.12 231.028 111.12 232.671C111.12 234.315 112.452 235.647 114.096 235.647C115.739 235.647 117.072 234.315 117.072 232.671C117.072 231.028 115.739 229.695 114.096 229.695ZM109.767 232.671C109.767 230.281 111.705 228.343 114.096 228.343C116.487 228.343 118.425 230.281 118.425 232.671C118.425 235.062 116.487 237 114.096 237C111.705 237 109.767 235.062 109.767 232.671Z" fill="#F5F5F5"/>
<path fill-rule="evenodd" clip-rule="evenodd" d="M184.168 6.10433C182.011 6.10433 180.262 7.85312 180.262 10.0104C180.262 12.1676 182.011 13.9164 184.168 13.9164C186.325 13.9164 188.074 12.1676 188.074 10.0104C188.074 7.85312 186.325 6.10433 184.168 6.10433ZM178.486 10.0104C178.486 6.87255 181.03 4.32886 184.168 4.32886C187.306 4.32886 189.849 6.87255 189.849 10.0104C189.849 13.1482 187.306 15.6919 184.168 15.6919C181.03 15.6919 178.486 13.1482 178.486 10.0104Z" fill="#F5F5F5"/>
<path fill-rule="evenodd" clip-rule="evenodd" d="M8.70537 11.3874C9.15062 11.3357 9.55355 11.6546 9.60533 12.0999L10.1053 16.3997L13.8677 15.9622C14.3129 15.9104 14.7158 16.2294 14.7676 16.6746C14.8194 17.1199 14.5004 17.5228 14.0552 17.5746L10.2928 18.0121L10.7929 22.3119C10.8446 22.7572 10.5257 23.1601 10.0804 23.2119C9.63515 23.2636 9.23222 22.9447 9.18044 22.4994L8.68043 18.1996L4.64937 18.6684C4.20411 18.7202 3.80119 18.4012 3.74941 17.9559C3.69763 17.5107 4.01661 17.1077 4.46187 17.056L8.49292 16.5872L7.99291 12.2874C7.94113 11.8421 8.26011 11.4392 8.70537 11.3874Z" fill="white"/>
<path fill-rule="evenodd" clip-rule="evenodd" d="M137.377 11.3765C137.617 11.1364 138.006 11.1364 138.246 11.3765L140.637 13.7673L143.028 11.3765C143.268 11.1364 143.657 11.1364 143.897 11.3765C144.137 11.6166 144.137 12.0058 143.897 12.2459L141.506 14.6367L143.897 17.0275C144.137 17.2676 144.137 17.6568 143.897 17.8969C143.657 18.137 143.268 18.137 143.028 17.8969L140.637 15.5061L138.246 17.8969C138.006 18.137 137.617 18.137 137.377 17.8969C137.137 17.6568 137.137 17.2676 137.377 17.0275L139.767 14.6367L137.377 12.2459C137.137 12.0058 137.137 11.6166 137.377 11.3765Z" fill="black"/>
<path fill-rule="evenodd" clip-rule="evenodd" d="M52.4911 0.342624C52.8848 0.367854 53.1835 0.707486 53.1583 1.10121L52.907 5.0222L56.828 5.27346C57.2218 5.29869 57.5205 5.63832 57.4953 6.03205C57.47 6.42577 57.1304 6.7245 56.7367 6.69927L52.8157 6.44801L52.5644 10.369C52.5392 10.7627 52.1996 11.0614 51.8058 11.0362C51.4121 11.011 51.1134 10.6714 51.1386 10.2776L51.3899 6.35664L47.4689 6.10539C47.0752 6.08016 46.7764 5.74053 46.8017 5.3468C46.8269 4.95307 47.1665 4.65434 47.5603 4.67957L51.4812 4.93083L51.7325 1.00985C51.7577 0.61612 52.0974 0.317394 52.4911 0.342624Z" fill="black"/>
<path fill-rule="evenodd" clip-rule="evenodd" d="M-8.2476 72.1532C-7.89311 71.98 -7.46534 72.127 -7.29217 72.4815L-5.56757 76.0118L-2.03727 74.2872C-1.68277 74.114 -1.25501 74.261 -1.08183 74.6155C-0.908655 74.97 -1.05564 75.3977 -1.41014 75.5709L-4.94044 77.2955L-3.21584 80.8258C-3.04266 81.1803 -3.18965 81.6081 -3.54415 81.7812C-3.89864 81.9544 -4.32641 81.8074 -4.49958 81.4529L-6.22418 77.9226L-9.75448 79.6472C-10.109 79.8204 -10.5367 79.6734 -10.7099 79.3189C-10.8831 78.9644 -10.7361 78.5367 -10.3816 78.3635L-6.85131 76.6389L-8.57591 73.1086C-8.74909 72.7541 -8.6021 72.3263 -8.2476 72.1532Z" fill="black"/>
<path fill-rule="evenodd" clip-rule="evenodd" d="M24.9749 172.7C25.5046 172.494 26.101 172.757 26.307 173.287L28.3577 178.562L33.6334 176.512C34.1631 176.306 34.7595 176.568 34.9655 177.098C35.1714 177.628 34.9089 178.224 34.3791 178.43L29.1034 180.481L31.1541 185.757C31.3601 186.286 31.0975 186.883 30.5678 187.089C30.038 187.295 29.4416 187.032 29.2357 186.502L27.185 181.227L21.9093 183.277C21.3795 183.483 20.7831 183.221 20.5772 182.691C20.3713 182.161 20.6338 181.565 21.1636 181.359L26.4393 179.308L24.3885 174.032C24.1826 173.503 24.4451 172.906 24.9749 172.7Z" fill="black"/>
<path fill-rule="evenodd" clip-rule="evenodd" d="M103.962 203.104C104.243 202.809 104.709 202.797 105.004 203.078L107.94 205.872L110.734 202.936C111.015 202.641 111.481 202.63 111.776 202.91C112.071 203.191 112.082 203.657 111.802 203.952L109.008 206.888L111.944 209.682C112.238 209.963 112.25 210.429 111.969 210.724C111.689 211.019 111.222 211.03 110.928 210.75L107.992 207.956L105.198 210.892C104.917 211.187 104.45 211.198 104.156 210.918C103.861 210.637 103.849 210.171 104.13 209.876L106.924 206.94L103.988 204.146C103.693 203.865 103.682 203.399 103.962 203.104Z" fill="black"/>
<path fill-rule="evenodd" clip-rule="evenodd" d="M131.746 201.17C131.89 200.98 132.162 200.942 132.352 201.086L134.25 202.522L135.687 200.625C135.831 200.434 136.102 200.397 136.293 200.541C136.483 200.685 136.521 200.956 136.377 201.147L134.94 203.045L136.838 204.481C137.029 204.625 137.066 204.897 136.922 205.087C136.778 205.278 136.507 205.315 136.316 205.171L134.418 203.735L132.982 205.633C132.838 205.823 132.566 205.861 132.376 205.717C132.185 205.572 132.147 205.301 132.292 205.11L133.728 203.213L131.83 201.776C131.64 201.632 131.602 201.361 131.746 201.17Z" fill="black"/>
<path d="M60.8517 88.3178C61.1331 88.4043 61.4001 88.5991 61.6526 88.9021C61.9051 89.1979 62.0313 89.5803 62.0313 90.0493C62.0313 90.7996 61.7464 91.402 61.1764 91.8565C60.6064 92.3038 59.8958 92.5275 59.0445 92.5275H54.8131L56.0035 84.9521H59.5856C60.271 84.9521 60.8193 85.1 61.2305 85.3958C61.6417 85.6844 61.8474 86.1029 61.8474 86.6512C61.8474 86.9975 61.7608 87.3185 61.5876 87.6143C61.4145 87.9101 61.1692 88.1446 60.8517 88.3178ZM57.4212 90.6553H58.6441C58.8822 90.6553 59.0769 90.594 59.2285 90.4713C59.38 90.3487 59.4557 90.1827 59.4557 89.9735C59.4557 89.8004 59.3908 89.6633 59.2609 89.5623C59.1311 89.4541 58.9579 89.4 58.7415 89.4H57.6268L57.4212 90.6553ZM59.1419 86.7594H58.038L57.8865 87.7767H59.0661C59.2681 87.7767 59.4232 87.7262 59.5315 87.6252C59.6469 87.5242 59.7046 87.3835 59.7046 87.2031C59.7046 87.066 59.6505 86.9578 59.5423 86.8785C59.4413 86.7991 59.3078 86.7594 59.1419 86.7594Z" fill="black"/>
<path d="M68.3587 90.8609C68.4453 90.8609 68.5427 90.8429 68.6509 90.8068L68.3912 92.3543C68.0954 92.5636 67.7094 92.6682 67.2332 92.6682C66.5334 92.6682 66.0825 92.4481 65.8805 92.008C65.7362 92.1956 65.5233 92.3543 65.242 92.4842C64.9606 92.6069 64.654 92.6682 64.3221 92.6682C63.7305 92.6682 63.2652 92.5095 62.9261 92.192C62.587 91.8746 62.4175 91.4633 62.4175 90.9583C62.4175 90.3523 62.6267 89.8869 63.0451 89.5623C63.4636 89.2304 64.0011 89.0645 64.6576 89.0645C65.1843 89.0645 65.646 89.1655 66.0428 89.3675C66.0572 89.2665 66.0644 89.1979 66.0644 89.1619C66.0644 88.729 65.6712 88.5126 64.8848 88.5126C64.3293 88.5126 63.8351 88.61 63.4022 88.8048L63.6836 87.1057C64.268 86.9037 64.8993 86.8027 65.5775 86.8027C66.3566 86.8027 67.0096 86.9722 67.5362 87.3113C68.0629 87.6432 68.3262 88.1807 68.3262 88.9238C68.3262 89.1042 68.2938 89.3603 68.2288 89.6921L68.1314 90.2332C68.1026 90.3992 68.0881 90.5327 68.0881 90.6337C68.0881 90.7852 68.1783 90.8609 68.3587 90.8609ZM65.9021 90.9475L65.9779 90.3956C65.8336 90.2513 65.6135 90.1791 65.3177 90.1791C65.1013 90.1791 64.9245 90.2296 64.7875 90.3306C64.6576 90.4316 64.5927 90.5759 64.5927 90.7635C64.5927 90.9078 64.6468 91.0305 64.755 91.1315C64.8632 91.2253 65.0075 91.2721 65.1879 91.2721C65.4909 91.2721 65.729 91.1639 65.9021 90.9475Z" fill="black"/>
<path d="M77.5609 92.5275H69.1847L70.0613 86.9434H72.2473L71.6521 90.7419H72.5395L73.1347 86.9434H75.3207L74.7255 90.7419H75.6562L76.2514 86.9434H78.4374L77.5609 92.5275Z" fill="black"/>
<path d="M83.341 92.5275H81.3065L82.1831 86.9434H84.3258L85.2241 88.6857L86.6634 86.9434H88.8169L87.9404 92.5275H85.895L86.3062 89.8761L85.2998 91.099H84.4016L83.7631 89.8653L83.341 92.5275Z" fill="black"/>
<path d="M94.79 90.8609C94.8765 90.8609 94.9739 90.8429 95.0821 90.8068L94.8224 92.3543C94.5266 92.5636 94.1406 92.6682 93.6645 92.6682C92.9647 92.6682 92.5137 92.4481 92.3117 92.008C92.1674 92.1956 91.9546 92.3543 91.6732 92.4842C91.3919 92.6069 91.0853 92.6682 90.7534 92.6682C90.1618 92.6682 89.6964 92.5095 89.3573 92.192C89.0183 91.8746 88.8487 91.4633 88.8487 90.9583C88.8487 90.3523 89.0579 89.8869 89.4764 89.5623C89.8948 89.2304 90.4323 89.0645 91.0889 89.0645C91.6155 89.0645 92.0773 89.1655 92.4741 89.3675C92.4885 89.2665 92.4957 89.1979 92.4957 89.1619C92.4957 88.729 92.1025 88.5126 91.3161 88.5126C90.7606 88.5126 90.2664 88.61 89.8335 88.8048L90.1149 87.1057C90.6993 86.9037 91.3305 86.8027 92.0087 86.8027C92.7879 86.8027 93.4408 86.9722 93.9675 87.3113C94.4942 87.6432 94.7575 88.1807 94.7575 88.9238C94.7575 89.1042 94.725 89.3603 94.6601 89.6921L94.5627 90.2332C94.5338 90.3992 94.5194 90.5327 94.5194 90.6337C94.5194 90.7852 94.6096 90.8609 94.79 90.8609ZM92.3334 90.9475L92.4091 90.3956C92.2648 90.2513 92.0448 90.1791 91.749 90.1791C91.5326 90.1791 91.3558 90.2296 91.2187 90.3306C91.0889 90.4316 91.0239 90.5759 91.0239 90.7635C91.0239 90.9078 91.078 91.0305 91.1863 91.1315C91.2945 91.2253 91.4388 91.2721 91.6191 91.2721C91.9221 91.2721 92.1602 91.1639 92.3334 90.9475Z" fill="black"/>
<path d="M98.0184 91.9106L97.5747 94.6919H95.2913L96.4925 86.9434H98.7868L98.6894 87.5711C98.7832 87.3835 98.978 87.2103 99.2738 87.0516C99.5696 86.8857 99.8978 86.8027 100.259 86.8027C100.886 86.8027 101.402 87.048 101.806 87.5386C102.21 88.0292 102.412 88.6388 102.412 89.3675C102.412 89.9014 102.308 90.4172 102.098 90.915C101.889 91.4128 101.564 91.8277 101.124 92.1595C100.677 92.4986 100.158 92.6682 99.566 92.6682C99.2052 92.6682 98.877 92.5888 98.5812 92.4301C98.2926 92.2714 98.105 92.0982 98.0184 91.9106ZM98.3756 89.1511L98.2024 90.309C98.39 90.6192 98.6858 90.7743 99.0898 90.7743C99.3784 90.7743 99.6165 90.6625 99.8041 90.4389C99.9916 90.208 100.085 89.923 100.085 89.5839C100.085 89.3026 100.01 89.0861 99.8582 88.9346C99.7139 88.7759 99.5227 88.6965 99.2846 88.6965C98.9383 88.6965 98.6353 88.848 98.3756 89.1511Z" fill="black"/>
<path d="M105.033 92.5275H102.76L103.626 86.9434H105.909L105.617 88.8697L107.197 86.9434H109.989L107.554 89.6272L109.481 92.5275H106.818L105.379 90.2657L105.033 92.5275Z" fill="black"/>
<path d="M115.242 89.1727C115.242 89.4324 115.195 89.7823 115.102 90.2224H111.617C111.653 90.4316 111.794 90.594 112.039 90.7094C112.292 90.8248 112.595 90.8826 112.948 90.8826C113.583 90.8826 114.193 90.7383 114.777 90.4497L114.517 92.1271C114.027 92.4878 113.298 92.6682 112.331 92.6682C111.516 92.6682 110.831 92.4229 110.275 91.9323C109.727 91.4489 109.453 90.7996 109.453 89.9843C109.453 89.0537 109.756 88.2925 110.362 87.7009C110.982 87.1021 111.74 86.8027 112.634 86.8027C113.392 86.8027 114.016 87.0155 114.506 87.4412C114.997 87.8669 115.242 88.444 115.242 89.1727ZM111.671 89.1402H113.186V89.0753C113.186 88.8444 113.128 88.6641 113.013 88.5342C112.905 88.3971 112.753 88.3286 112.559 88.3286C112.349 88.3286 112.165 88.4007 112.007 88.545C111.848 88.6821 111.736 88.8805 111.671 89.1402Z" fill="black"/>
<path d="M118.936 92.5275H116.653L117.248 88.729H115.755L116.036 86.9434H121.328L121.047 88.729H119.531L118.936 92.5275Z" fill="black"/>
<path d="M123.355 92.5275H121.212L122.089 86.9434H124.221L123.853 89.3134L125.866 86.9434H128.009L127.132 92.5275H125L125.368 90.1683L123.355 92.5275Z" fill="black"/>
<path d="M130.46 92.5275H128.187L129.064 86.9434H131.337L131.044 88.7831H132.278L132.57 86.9434H134.854L133.977 92.5275H131.694L131.997 90.5579H130.763L130.46 92.5275Z" fill="black"/>
<path d="M137.308 92.5275H135.036L135.912 86.9434H140.587L140.306 88.729H137.903L137.308 92.5275Z" fill="black"/>
<path d="M61.7161 103.728C62.2717 103.937 62.5494 104.32 62.5494 104.875C62.5494 105.438 62.3294 105.867 61.8893 106.163C61.4564 106.452 60.854 106.596 60.082 106.596H56.619L57.4956 101.012H60.9045C61.4312 101.012 61.8388 101.142 62.1274 101.401C62.4232 101.661 62.5711 101.986 62.5711 102.375C62.5711 102.693 62.4845 102.974 62.3113 103.22C62.1454 103.465 61.947 103.634 61.7161 103.728ZM59.9846 102.386H59.4652L59.3353 103.23H59.8548C60.0279 103.23 60.1686 103.183 60.2768 103.09C60.385 102.996 60.4392 102.873 60.4392 102.722C60.4392 102.498 60.2876 102.386 59.9846 102.386ZM59.173 104.258L59.0215 105.178H59.6924C60.1181 105.178 60.3309 104.991 60.3309 104.616C60.3309 104.377 60.165 104.258 59.8331 104.258H59.173Z" fill="black"/>
<path d="M68.1072 106.596H65.8346L66.7111 101.012H68.9837L68.6915 102.852H69.9252L70.2174 101.012H72.5009L71.6243 106.596H69.3409L69.6439 104.626H68.4102L68.1072 106.596Z" fill="black"/>
<path d="M78.4725 104.929C78.5591 104.929 78.6565 104.911 78.7647 104.875L78.505 106.423C78.2092 106.632 77.8232 106.737 77.347 106.737C76.6472 106.737 76.1963 106.517 75.9943 106.077C75.85 106.264 75.6372 106.423 75.3558 106.553C75.0744 106.675 74.7678 106.737 74.436 106.737C73.8444 106.737 73.379 106.578 73.0399 106.261C72.7008 105.943 72.5313 105.532 72.5313 105.027C72.5313 104.421 72.7405 103.955 73.159 103.631C73.5774 103.299 74.1149 103.133 74.7714 103.133C75.2981 103.133 75.7598 103.234 76.1566 103.436C76.1711 103.335 76.1783 103.266 76.1783 103.23C76.1783 102.797 75.7851 102.581 74.9987 102.581C74.4432 102.581 73.949 102.678 73.5161 102.873L73.7975 101.174C74.3818 100.972 75.0131 100.871 75.6913 100.871C76.4705 100.871 77.1234 101.041 77.6501 101.38C78.1767 101.712 78.4401 102.249 78.4401 102.992C78.4401 103.173 78.4076 103.429 78.3427 103.761L78.2453 104.302C78.2164 104.468 78.202 104.601 78.202 104.702C78.202 104.854 78.2922 104.929 78.4725 104.929ZM76.016 105.016L76.0917 104.464C75.9474 104.32 75.7274 104.248 75.4316 104.248C75.2151 104.248 75.0384 104.298 74.9013 104.399C74.7714 104.5 74.7065 104.644 74.7065 104.832C74.7065 104.976 74.7606 105.099 74.8688 105.2C74.977 105.294 75.1213 105.341 75.3017 105.341C75.6047 105.341 75.8428 105.232 76.016 105.016Z" fill="black"/>
<path d="M87.6747 106.596H79.2985L80.1751 101.012H82.3611L81.7659 104.81H82.6533L83.2485 101.012H85.4346L84.8394 104.81H85.7701L86.3653 101.012H88.5513L87.6747 106.596Z" fill="black"/>
<path d="M90.8788 106.596H88.736L89.6126 101.012H91.7445L91.3766 103.382L93.3894 101.012H95.5322L94.6556 106.596H92.5237L92.8916 104.237L90.8788 106.596Z" fill="black"/>
<path d="M96.1656 101.012H98.5248L99.0442 102.321L99.9641 101.012H102.496L100.235 103.728L101.706 106.596H99.3148L98.7412 105.2L97.7131 106.596H95.1808L97.5725 103.739L96.1656 101.012Z" fill="black"/>
<path d="M107.371 105.979L106.928 108.76H104.644L105.845 101.012H108.14L108.042 101.64C108.136 101.452 108.331 101.279 108.627 101.12C108.923 100.954 109.251 100.871 109.611 100.871C110.239 100.871 110.755 101.116 111.159 101.607C111.563 102.098 111.765 102.707 111.765 103.436C111.765 103.97 111.66 104.486 111.451 104.984C111.242 105.481 110.917 105.896 110.477 106.228C110.03 106.567 109.51 106.737 108.919 106.737C108.558 106.737 108.23 106.657 107.934 106.499C107.646 106.34 107.458 106.167 107.371 105.979ZM107.728 103.22L107.555 104.377C107.743 104.688 108.039 104.843 108.443 104.843C108.731 104.843 108.969 104.731 109.157 104.507C109.345 104.276 109.438 103.992 109.438 103.652C109.438 103.371 109.363 103.155 109.211 103.003C109.067 102.844 108.876 102.765 108.638 102.765C108.291 102.765 107.988 102.917 107.728 103.22Z" fill="black"/>
<path d="M112.641 108.825C112.056 108.825 111.624 108.739 111.342 108.566L111.656 106.607C111.894 106.802 112.194 106.899 112.554 106.899C112.792 106.899 112.98 106.863 113.117 106.791C113.254 106.726 113.373 106.6 113.474 106.412L112.046 101.012H114.416L114.892 104.172L116.288 101.012H118.658L115.325 107.137C114.719 108.263 113.824 108.825 112.641 108.825Z" fill="black"/>
<path d="M120.6 106.596H118.327L119.193 101.012H121.476L121.184 102.938L122.764 101.012H125.556L123.121 103.696L125.048 106.596H122.385L120.946 104.334L120.6 106.596Z" fill="black"/>
<path d="M131.145 104.929C131.231 104.929 131.329 104.911 131.437 104.875L131.177 106.423C130.882 106.632 130.496 106.737 130.019 106.737C129.32 106.737 128.869 106.517 128.667 106.077C128.522 106.264 128.309 106.423 128.028 106.553C127.747 106.675 127.44 106.737 127.108 106.737C126.517 106.737 126.051 106.578 125.712 106.261C125.373 105.943 125.204 105.532 125.204 105.027C125.204 104.421 125.413 103.955 125.831 103.631C126.25 103.299 126.787 103.133 127.444 103.133C127.97 103.133 128.432 103.234 128.829 103.436C128.843 103.335 128.851 103.266 128.851 103.23C128.851 102.797 128.457 102.581 127.671 102.581C127.115 102.581 126.621 102.678 126.188 102.873L126.47 101.174C127.054 100.972 127.685 100.871 128.364 100.871C129.143 100.871 129.796 101.041 130.322 101.38C130.849 101.712 131.112 102.249 131.112 102.992C131.112 103.173 131.08 103.429 131.015 103.761L130.918 104.302C130.889 104.468 130.874 104.601 130.874 104.702C130.874 104.854 130.964 104.929 131.145 104.929ZM128.688 105.016L128.764 104.464C128.62 104.32 128.4 104.248 128.104 104.248C127.887 104.248 127.711 104.298 127.574 104.399C127.444 104.5 127.379 104.644 127.379 104.832C127.379 104.976 127.433 105.099 127.541 105.2C127.649 105.294 127.794 105.341 127.974 105.341C128.277 105.341 128.515 105.232 128.688 105.016Z" fill="black"/>
<path d="M132.425 101.012H134.785L135.304 102.321L136.224 101.012H138.756L136.494 103.728L137.966 106.596H135.575L135.001 105.2L133.973 106.596H131.441L133.832 103.739L132.425 101.012Z" fill="black"/>
</svg>
