<svg width="145" height="62" viewBox="0 0 145 62" fill="none" xmlns="http://www.w3.org/2000/svg">
<path fill-rule="evenodd" clip-rule="evenodd" d="M26.6456 17.3231C24.78 18.0845 23.8474 19.2635 23.8478 20.8602V39.3909C23.8606 39.7757 23.9421 40.1552 24.0884 40.5111C24.9324 42.1223 26.018 42.9279 27.3452 42.9277L27.8004 30.4565C27.9842 30.4524 28.5864 42.9017 28.766 42.8624C30.7331 42.1011 30.0027 35.1791 30.0029 33.4653L31.717 34.3673H47.6728V42.4809C47.6672 43.0482 47.7557 43.6125 47.935 44.1505C48.7508 45.8499 49.851 46.6994 51.2357 46.699H52.1096C52.5209 46.6873 52.9248 46.5822 53.2903 46.3916C54.7913 45.5432 55.5414 44.5107 55.5414 43.294V3.46993C55.5173 3.08651 55.4363 2.70881 55.3015 2.34941C54.427 0.783158 53.3193 0 51.9785 0H51.4324C51.198 0.00521402 50.9642 0.0270631 50.7329 0.0652993C48.692 0.724376 47.6722 2.10845 47.6728 4.21746V26.5471H31.717V21.1696C31.7332 20.5694 31.6057 19.9742 31.3453 19.434C30.4708 17.9401 29.3851 17.1932 28.0882 17.1932H27.5201C27.2242 17.1976 26.9301 17.2415 26.6456 17.3237V17.3231Z" fill="url(#paint0_linear)"/>
<path fill-rule="evenodd" clip-rule="evenodd" d="M2.75387 15.3281C0.917977 16.1482 0 17.3052 0 18.7987V58.2205C0.00872025 58.74 0.135877 59.2508 0.371633 59.7138C1.23117 61.1638 2.27302 61.8888 3.49719 61.8888H4.37132C4.52025 61.9043 4.67072 61.8819 4.80857 61.8236C6.84855 61.1793 7.86864 59.8976 7.86888 57.979V28.7049C7.91218 28.7049 9.11427 29.9058 11.4752 32.3074C13.0053 34.1674 14.4625 35.0973 15.8469 35.0971C16.6927 35.1061 17.5194 34.8446 18.2076 34.3503C18.2654 34.3503 20.1378 32.4907 23.8248 28.7715V42.3023C23.8248 43.4155 24.0142 44.2356 24.3931 44.7625C25.2531 46.0512 26.2514 46.6956 27.3879 46.6956H28.262C28.6735 46.6839 29.077 46.5787 29.4423 46.388C30.9432 45.5397 31.6937 44.5073 31.6937 43.2908V18.6669C31.675 18.2828 31.5938 17.9043 31.4531 17.5466C30.5791 15.9806 29.4717 15.1976 28.1309 15.1976H27.5846C26.9503 15.2304 26.3311 15.4028 25.7704 15.7026C25.668 15.7176 22.382 19.0198 15.9124 25.6091C10.8416 20.4829 8.28412 17.9198 8.24021 17.9198C6.76871 16.1043 5.43538 15.1965 4.24021 15.1963H3.67376C3.36392 15.2062 3.05599 15.2499 2.75548 15.3268L2.75387 15.3281Z" fill="url(#paint1_linear)"/>
<path fill-rule="evenodd" clip-rule="evenodd" d="M71.1089 21.0178C70.621 21.236 70.3773 21.5426 70.3773 21.9379V28.3602C70.3792 28.498 70.4132 28.6334 70.475 28.7562C70.548 28.9189 70.6643 29.0585 70.8109 29.1601C70.9568 29.2616 71.1281 29.3213 71.3062 29.3326H71.5382C71.5777 29.3368 71.6179 29.3307 71.6544 29.315C71.8882 29.2688 72.0985 29.1412 72.2469 28.9546C72.396 28.7681 72.4739 28.5348 72.4677 28.296V24.5646C72.4795 24.5646 72.7986 24.8829 73.4257 25.5194C73.8326 26.0123 74.2198 26.2588 74.5878 26.2588C74.8123 26.2618 75.0318 26.193 75.2149 26.0624C75.2304 26.0624 75.7276 25.5695 76.7078 24.5836V28.1704C76.6912 28.398 76.7437 28.6254 76.8588 28.8224C76.9367 28.9689 77.0505 29.093 77.1896 29.1828C77.3294 29.2726 77.4896 29.3249 77.6547 29.3349H77.8866C77.9961 29.3318 78.1031 29.304 78.2002 29.2534C78.3665 29.1857 78.51 29.073 78.6158 28.9279C78.7215 28.7829 78.7846 28.6112 78.7989 28.4322V21.9029C78.7933 21.801 78.771 21.7007 78.7333 21.606C78.6591 21.4299 78.5372 21.2782 78.3814 21.1682C78.2255 21.0583 78.0419 20.9944 77.8514 20.9841H77.706C77.5378 20.9927 77.3733 21.0384 77.2243 21.118C77.197 21.1219 76.3238 21.9972 74.6045 23.744C73.2569 22.3854 72.5772 21.706 72.5654 21.7058C72.1739 21.2247 71.8196 20.9841 71.5029 20.9841H71.3545C71.2722 20.9867 71.1906 20.9983 71.1108 21.0188L71.1089 21.0178ZM82.7724 21.3779L79.9727 26.921C79.7111 27.338 79.5113 27.791 79.3802 28.2659V28.3942C79.3852 28.4951 79.4025 28.5949 79.4328 28.6911C79.5014 28.8701 79.6202 29.0258 79.7742 29.1394C79.9288 29.2531 80.1125 29.3202 80.3036 29.3326H80.4489C80.5837 29.3261 80.7161 29.2922 80.8379 29.2332C80.9597 29.1741 81.068 29.0911 81.157 28.989C81.2424 28.865 82.0495 27.2619 83.5795 24.1796C83.5987 24.1949 84.292 25.5573 85.6588 28.2669C85.926 28.9776 86.2766 29.3328 86.7102 29.3326H86.8611C86.9433 29.3298 87.025 29.3181 87.1047 29.2976C87.5698 29.0842 87.8024 28.8005 87.8024 28.4466V28.1321C87.7442 27.9769 86.7219 25.9366 84.7354 22.0112C84.472 21.324 84.1256 20.9806 83.6958 20.9808H83.5152C83.3699 20.9858 83.227 21.0241 83.0984 21.0927C82.9691 21.1612 82.8578 21.2583 82.7718 21.3765L82.7724 21.3779ZM89.1271 21.0178C88.6317 21.2198 88.3837 21.5323 88.3837 21.9552V28.3952C88.3874 28.4973 88.4097 28.5978 88.4493 28.6921C88.5167 28.871 88.6342 29.0266 88.7876 29.1403C88.9409 29.2539 89.124 29.3207 89.3145 29.3326H89.5458C89.5946 29.3315 89.6435 29.3256 89.6911 29.315C90.2137 29.1133 90.4753 28.7854 90.4753 28.3311V26.1943H91.7994C93.4031 27.6781 94.2819 28.4836 94.4366 28.6106C94.8818 29.0922 95.2399 29.3328 95.5114 29.3326H95.7434C95.8163 29.3285 95.8881 29.3168 95.9586 29.2976C96.1676 29.231 96.3513 29.1002 96.4824 28.9237C96.6135 28.7472 96.6865 28.5338 96.6902 28.3137C96.6834 28.1088 96.6216 27.9095 96.5102 27.7373C96.2394 27.4385 95.6741 26.9066 94.8138 26.1416V26.1301C95.167 26.0386 95.4997 25.8828 95.7959 25.6703C96.4694 25.0761 96.8071 24.4395 96.8083 23.7603V23.4167C96.7817 22.8963 96.5974 22.3964 96.2796 21.9844C96.0458 21.6848 95.7489 21.44 95.4112 21.2671C95.0729 21.0941 94.7013 20.9972 94.3221 20.9831H89.3596C89.2811 20.9843 89.2032 20.996 89.1271 21.0178ZM94.7149 23.0556V24.1387H90.4747V23.0556H94.7149ZM97.95 21.0993C97.7898 21.1735 97.6525 21.2903 97.553 21.4371C97.454 21.5838 97.3965 21.7549 97.3872 21.932V28.3834C97.3872 28.4268 97.3928 28.4699 97.4045 28.5117C97.4509 28.7484 97.5802 28.9608 97.7682 29.1112C97.9568 29.2615 98.1918 29.34 98.4324 29.3326H98.467C98.5462 29.3313 98.6241 29.3195 98.6996 29.2976C98.9253 29.2433 99.1257 29.1132 99.2673 28.9289C99.4089 28.7445 99.4832 28.5171 99.4782 28.2846V26.7239L103.306 28.7094C104.054 29.124 104.512 29.3313 104.683 29.3313H104.863C104.967 29.328 105.07 29.3058 105.166 29.2659C105.345 29.2023 105.501 29.0872 105.616 28.9351C105.731 28.7829 105.798 28.6003 105.81 28.41V28.1828C105.784 27.9124 105.652 27.6634 105.444 27.4899C105.297 27.393 103.806 26.6166 100.972 25.1609V25.1492C100.991 25.1492 102.356 24.4427 105.067 23.0298C105.562 22.7933 105.81 22.4925 105.81 22.1274V21.9002C105.809 21.8494 105.803 21.7988 105.793 21.749C105.741 21.5326 105.618 21.3397 105.444 21.2006C105.271 21.0615 105.057 20.9841 104.834 20.9805H104.718C104.639 20.9812 104.561 20.9928 104.486 21.0152C104.207 21.1356 102.538 21.9935 99.4788 23.5888V22.0285C99.4776 21.912 99.4603 21.7963 99.4263 21.6849C99.3589 21.4828 99.2302 21.3067 99.0583 21.1806C98.887 21.0545 98.6804 20.9846 98.4677 20.9805H98.3965C98.2407 20.9827 98.0873 21.0226 97.9494 21.0967L97.95 21.0993ZM107.134 21.0178C106.638 21.2198 106.39 21.5323 106.39 21.9552V28.3952C106.394 28.4973 106.416 28.5978 106.456 28.6921C106.523 28.871 106.641 29.0266 106.794 29.1402C106.947 29.2539 107.13 29.3207 107.321 29.3326H113.902C114.011 29.3295 114.119 29.3016 114.215 29.2511C114.382 29.1834 114.525 29.0707 114.631 28.9256C114.737 28.7806 114.801 28.609 114.814 28.4299V28.1507C114.775 27.8864 114.636 27.6471 114.427 27.4816C114.217 27.3161 113.953 27.2367 113.687 27.2598H108.481V26.1943H112.757C112.835 26.1935 112.914 26.1817 112.988 26.1593C113.484 25.9574 113.732 25.645 113.732 25.2218V25.0762C113.729 24.9611 113.702 24.8479 113.651 24.7443C113.563 24.5421 113.413 24.373 113.223 24.2613C113.034 24.1496 112.813 24.1009 112.594 24.1223H108.481V23.0566H113.802C113.934 23.0544 114.064 23.0267 114.185 22.9751C114.358 22.9095 114.509 22.7958 114.621 22.6473C114.732 22.4989 114.798 22.3218 114.813 22.1369V21.9038C114.799 21.6593 114.694 21.429 114.518 21.2585C114.343 21.0882 114.11 20.9902 113.865 20.9841H107.367C107.287 20.9853 107.21 20.997 107.134 21.0188V21.0178ZM116.137 21.0178C115.642 21.2198 115.394 21.5323 115.394 21.9552V22.1009C115.398 22.1736 115.41 22.2458 115.428 22.3162C115.494 22.5359 115.631 22.7275 115.817 22.8612C116.003 22.9949 116.228 23.0633 116.457 23.0556H118.559V28.3311C118.562 28.4612 118.59 28.5896 118.641 28.7094C118.709 28.8825 118.825 29.0327 118.976 29.1426C119.126 29.2526 119.304 29.318 119.49 29.3313H119.722L119.89 29.3136C120.398 29.1081 120.651 28.7898 120.651 28.3589V23.0556H122.807C122.939 23.0534 123.069 23.0257 123.191 22.9741C123.364 22.9085 123.515 22.7948 123.625 22.6463C123.737 22.4979 123.803 22.3208 123.818 22.1359V21.9029C123.804 21.6584 123.699 21.428 123.523 21.2576C123.348 21.0872 123.115 20.9892 122.871 20.9831H116.371C116.293 20.9843 116.214 20.996 116.139 21.0178H116.137ZM125.163 21.0178C124.653 21.2198 124.397 21.5323 124.397 21.9552V28.3952C124.401 28.4977 124.424 28.5985 124.466 28.6921C124.538 28.8729 124.659 29.0295 124.817 29.1431C124.975 29.2567 125.162 29.3225 125.355 29.3326H125.593C125.644 29.3313 125.695 29.3254 125.745 29.315C126.279 29.1133 126.546 28.7854 126.546 28.3311V22.0367C126.55 21.8783 126.517 21.7212 126.448 21.5785C126.368 21.4076 126.243 21.262 126.086 21.1573C125.93 21.0527 125.747 20.9929 125.559 20.9847H125.402C125.322 20.9857 125.242 20.9974 125.164 21.0194L125.163 21.0178ZM127.87 21.0178C127.374 21.2198 127.127 21.5323 127.127 21.9552V28.3952C127.131 28.4972 127.152 28.5977 127.191 28.6921C127.258 28.871 127.376 29.0266 127.529 29.1402C127.683 29.2539 127.865 29.3207 128.056 29.3326H128.288C128.337 29.3315 128.386 29.3255 128.434 29.315C128.956 29.1133 129.217 28.7854 129.217 28.3311V24.5639L133.295 28.5572C133.737 29.0733 134.107 29.3315 134.406 29.3317H134.638C134.748 29.3285 134.855 29.3006 134.952 29.2502C135.117 29.1824 135.262 29.0697 135.367 28.9246C135.473 28.7796 135.536 28.608 135.55 28.4289V21.9029C135.536 21.6582 135.432 21.4277 135.256 21.2572C135.08 21.0868 134.847 20.9889 134.603 20.9831H134.458C134.361 20.9848 134.265 21.0005 134.173 21.0296C133.954 21.1055 133.765 21.2513 133.636 21.4448C133.507 21.6382 133.445 21.8687 133.459 22.1009V25.7167C132.548 24.8356 131.117 23.4324 129.166 21.5071C129.06 21.36 128.924 21.2371 128.767 21.1469C128.609 21.0566 128.434 21.0008 128.254 20.9834H128.103C128.024 20.9846 127.946 20.9963 127.871 21.0181L127.87 21.0178ZM137.374 22.2001C136.608 22.9375 136.161 23.9475 136.131 25.012V25.3207C136.144 25.9186 136.297 26.5051 136.578 27.0326C136.805 27.4859 137.114 27.8928 137.49 28.2322C138.225 28.9081 139.177 29.2984 140.174 29.3326H143.642C143.751 29.3295 143.858 29.3016 143.955 29.2511C144.121 29.1834 144.265 29.0707 144.371 28.9256C144.477 28.7806 144.54 28.609 144.553 28.4299V25.9423C144.553 25.8933 144.546 25.8445 144.536 25.7966C144.482 25.5777 144.357 25.383 144.18 25.2429C144.003 25.1028 143.786 25.0252 143.56 25.0222H143.473C143.348 25.0217 143.225 25.0517 143.114 25.1096C142.902 25.1987 142.724 25.3539 142.607 25.552C142.49 25.7502 142.439 25.9809 142.463 26.21V27.2575H140.61C140.287 27.2513 139.966 27.1902 139.663 27.0768C138.703 26.6307 138.223 25.9962 138.223 25.1731C138.224 24.8766 138.291 24.584 138.42 24.3171C138.653 23.9116 138.993 23.5787 139.403 23.3556C139.813 23.1325 140.277 23.0278 140.744 23.0533H143.543C143.675 23.0511 143.806 23.0234 143.927 22.9719C144.1 22.9062 144.251 22.7925 144.362 22.644C144.473 22.4956 144.54 22.3185 144.554 22.1336V21.9006C144.544 21.7937 144.522 21.6882 144.488 21.5863C144.409 21.4157 144.285 21.2696 144.13 21.1631C143.975 21.0567 143.794 20.9937 143.606 20.9808H140.277C139.189 20.9978 138.15 21.4336 137.374 22.1978L137.374 22.2001ZM71.1213 32.9688C70.6259 33.1704 70.3779 33.4829 70.3779 33.9063V40.3459C70.3816 40.448 70.4039 40.5486 70.4435 40.6428C70.5109 40.8217 70.6284 40.9774 70.7818 41.091C70.9352 41.2047 71.1182 41.2715 71.3087 41.2834H71.5413C71.5901 41.2822 71.639 41.2762 71.6866 41.2657C72.2092 41.0641 72.4702 40.7361 72.4702 40.2818V38.145H76.7103V40.1652C76.7091 40.3156 76.7326 40.4651 76.7802 40.6078C76.842 40.7954 76.9589 40.9601 77.1154 41.0805C77.2713 41.201 77.4605 41.2716 77.6572 41.2834H77.8866C77.9961 41.2802 78.1031 41.2524 78.2002 41.2019C78.3665 41.1341 78.51 41.0215 78.6158 40.8765C78.7215 40.7315 78.7846 40.5599 78.7989 40.381V33.8552C78.792 33.7535 78.7698 33.6535 78.7333 33.5583C78.6591 33.3823 78.5372 33.2306 78.3814 33.1206C78.2255 33.0106 78.0419 32.9468 77.8514 32.9364H77.706C77.6442 32.9379 77.5817 32.9437 77.5205 32.9538C77.2774 33.012 77.0628 33.1542 76.9138 33.3555C76.7654 33.5568 76.6918 33.8042 76.7072 34.0542V36.0747H72.4683V33.9904C72.4733 33.8314 72.4393 33.6735 72.3706 33.5302C72.2945 33.3611 72.1733 33.2163 72.0206 33.1116C71.8678 33.0069 71.6897 32.9463 71.5048 32.9364H71.3545C71.2759 32.9376 71.198 32.9494 71.1219 32.9714L71.1213 32.9688ZM80.7872 33.2598C79.8508 33.7451 79.3827 34.3312 79.3827 35.0182V39.1987C79.3963 39.4313 79.4563 39.6589 79.5589 39.8679C79.6616 40.077 79.8051 40.2632 79.9807 40.4157C80.6493 40.9949 81.5083 41.3042 82.3915 41.2834H84.8257C85.5994 41.2847 86.3552 41.049 86.9922 40.6078C87.5339 40.1495 87.8055 39.707 87.8055 39.2802V34.9383C87.769 34.5645 87.6119 34.2128 87.3577 33.9367C87.0318 33.6122 86.644 33.3565 86.2179 33.1845C85.7918 33.0126 85.3353 32.9279 84.8758 32.9354H82.2795C81.7656 32.9494 81.2591 33.0605 80.7866 33.2628L80.7872 33.2598ZM85.7837 35.0008V39.2163H81.4044V35.0025H85.7837V35.0008ZM89.1302 32.9688C88.6342 33.1704 88.3862 33.4829 88.3862 33.9063V37.2249C88.3961 37.8023 88.5377 38.3698 88.7987 38.8844C88.8915 39.2104 89.2403 39.6762 89.8439 40.2818C90.5483 40.8897 91.4364 41.2425 92.3647 41.2834H92.8125C93.0926 41.2783 93.3716 41.2392 93.6431 41.1669C94.4922 40.9418 95.2548 40.4672 95.8324 39.8042C96.4218 39.1011 96.765 38.2236 96.8083 37.3064V33.8552C96.8015 33.7535 96.7793 33.6535 96.7434 33.5583C96.6692 33.3822 96.5473 33.2305 96.3915 33.1205C96.2356 33.0105 96.052 32.9468 95.8615 32.9364H95.7161C95.603 32.9394 95.491 32.961 95.3846 33.0002C95.1713 33.0889 94.9913 33.2433 94.8713 33.4413C94.7514 33.6392 94.6975 33.8702 94.7167 34.101V36.8315C94.7167 37.3061 94.5862 37.7716 94.3395 38.1768C93.8787 38.8677 93.319 39.2131 92.661 39.2131H92.5156C92.2379 39.2055 91.9652 39.1338 91.7197 39.0036C91.3201 38.7723 90.9917 38.4342 90.7722 38.027C90.5533 37.6199 90.4506 37.1596 90.4766 36.6976V33.9904C90.4815 33.8314 90.4475 33.6736 90.3789 33.5302C90.3028 33.3612 90.1816 33.2163 90.0294 33.1116C89.8767 33.0069 89.6979 32.9463 89.5136 32.9364H89.3621C89.2836 32.9376 89.2056 32.9494 89.1302 32.9714V32.9688ZM98.7954 33.2598C97.8591 33.7488 97.3909 34.3349 97.3909 35.0182V36.0721C97.4045 36.3048 97.4639 36.5323 97.5672 36.7413C97.6698 36.9504 97.8133 37.1367 97.989 37.2891C98.6526 37.869 99.5079 38.1804 100.388 38.1624H103.728V39.2098H98.514C98.3842 39.2078 98.2549 39.2255 98.1306 39.2622C97.6346 39.464 97.3872 39.7765 97.3872 40.1996V40.4268C97.3909 40.5362 97.4188 40.6434 97.4682 40.741C97.548 40.8957 97.6668 41.027 97.8121 41.122C97.958 41.2169 98.1257 41.2723 98.2988 41.2827H102.998C103.65 41.2677 104.284 41.0744 104.833 40.7237C105.484 40.2538 105.809 39.7764 105.809 39.2913V38.0452C105.784 37.7646 105.681 37.4965 105.513 37.2707C104.886 36.4597 103.931 36.0541 102.65 36.0541H99.49V35.0067H104.798C104.933 35 105.067 34.9725 105.193 34.9252C105.363 34.8559 105.511 34.7409 105.619 34.5929C105.728 34.4449 105.793 34.2697 105.809 34.0866V33.7721C105.808 33.7232 105.802 33.6745 105.791 33.6267C105.728 33.4265 105.602 33.2515 105.433 33.1271C105.264 33.0026 105.06 32.935 104.85 32.9338H100.278C99.7664 32.9483 99.2618 33.0594 98.7911 33.2611L98.7954 33.2598ZM107.137 32.9688C106.641 33.1704 106.393 33.4829 106.393 33.9063V40.3459C106.397 40.448 106.419 40.5486 106.458 40.6428C106.526 40.8217 106.643 40.9774 106.796 41.0909C106.95 41.2046 107.133 41.2714 107.323 41.2834H113.905C114.014 41.2802 114.121 41.2523 114.219 41.2019C114.384 41.1341 114.528 41.0215 114.634 40.8765C114.739 40.7315 114.803 40.5599 114.817 40.381V40.1014C114.777 39.8371 114.638 39.5978 114.429 39.4323C114.22 39.2668 113.956 39.1875 113.69 39.2104H108.481V38.145H112.757C112.835 38.1442 112.914 38.1324 112.988 38.11C113.484 37.908 113.732 37.5954 113.732 37.1725V37.0269C113.729 36.9118 113.702 36.7986 113.651 36.695C113.563 36.4928 113.413 36.3237 113.223 36.212C113.034 36.1003 112.813 36.0517 112.594 36.0731H108.481V35.0077H113.802C113.934 35.0052 114.064 34.9776 114.185 34.9262C114.358 34.8604 114.509 34.7467 114.621 34.5982C114.732 34.4497 114.798 34.2726 114.813 34.0876V33.8546C114.799 33.6101 114.694 33.3797 114.518 33.2093C114.343 33.0389 114.11 32.9409 113.865 32.9348H107.367C107.287 32.936 107.21 32.9478 107.134 32.9698L107.137 32.9688Z" fill="white"/>
<defs>
<linearGradient id="paint0_linear" x1="27.7708" y1="0" x2="27.7708" y2="61.8957" gradientUnits="userSpaceOnUse">
<stop stop-color="#398200"/>
<stop offset="1" stop-color="#005703"/>
</linearGradient>
<linearGradient id="paint1_linear" x1="27.7707" y1="0.000242517" x2="27.7707" y2="61.8937" gradientUnits="userSpaceOnUse">
<stop stop-color="#398200"/>
<stop offset="1" stop-color="#005703"/>
</linearGradient>
</defs>
</svg>
