<svg width="145" height="63" viewBox="0 0 145 63" fill="none" xmlns="http://www.w3.org/2000/svg">
<path fill-rule="evenodd" clip-rule="evenodd" d="M26.6454 17.8758C24.7798 18.6372 23.8472 19.8162 23.8477 21.413V39.9436C23.8604 40.3285 23.9419 40.7079 24.0882 41.0638C24.9322 42.6751 26.0178 43.4806 27.345 43.4804L27.8002 31.0093C27.984 31.0052 28.5862 43.4544 28.7658 43.4152C30.7329 42.6538 30.0025 35.7319 30.0027 34.0181L31.7169 34.92H47.6726V43.0336C47.6671 43.6009 47.7555 44.1652 47.9348 44.7033C48.7506 46.4027 49.8508 47.2522 51.2356 47.2517H52.1094C52.5207 47.24 52.9246 47.1349 53.2901 46.9444C54.7911 46.096 55.5413 45.0634 55.5413 43.8467V4.02267C55.5171 3.63925 55.4361 3.26154 55.3013 2.90215C54.4268 1.33589 53.3191 0.552734 51.9783 0.552734H51.4322C51.1978 0.557948 50.9641 0.579798 50.7327 0.618034C48.6918 1.27711 47.672 2.66119 47.6726 4.7702V27.0999H31.7169V21.7223C31.733 21.1222 31.6055 20.527 31.3452 19.9867C30.4707 18.4929 29.385 17.746 28.0881 17.746H27.5199C27.224 17.7504 26.9299 17.7943 26.6454 17.8764V17.8758Z" fill="url(#paint0_linear)"/>
<path fill-rule="evenodd" clip-rule="evenodd" d="M2.75387 15.8808C0.917977 16.701 0 17.858 0 19.3516V58.7747C0.00872025 59.2942 0.135877 59.8051 0.371633 60.2681C1.23117 61.7181 2.27302 62.4431 3.49719 62.4431H4.37132C4.52024 62.4586 4.67072 62.4363 4.80857 62.3779C6.84855 61.7336 7.86864 60.4519 7.86888 58.5332V29.2581C7.91218 29.2581 9.11427 30.459 11.4752 32.8607C13.0053 34.7208 14.4625 35.6508 15.8469 35.6506C16.6927 35.6596 17.5194 35.398 18.2076 34.9037C18.2654 34.9037 20.1378 33.0441 23.8248 29.3247V42.856C23.8248 43.9692 24.0142 44.7893 24.3931 45.3163C25.2531 46.605 26.2514 47.2494 27.3879 47.2494H28.262C28.6735 47.2377 29.077 47.1325 29.4423 46.9418C30.9432 46.0934 31.6937 45.0611 31.6937 43.8445V19.2198C31.675 18.8356 31.5938 18.4571 31.4531 18.0994C30.5791 16.5334 29.4717 15.7503 28.1309 15.7503H27.5846C26.9503 15.7832 26.3311 15.9555 25.7704 16.2553C25.668 16.2704 22.382 19.5726 15.9124 26.1622C10.8416 21.0359 8.28412 18.4726 8.24021 18.4726C6.76871 16.6571 5.43538 15.7492 4.24021 15.749H3.67376C3.36391 15.7589 3.05599 15.8027 2.75548 15.8795L2.75387 15.8808Z" fill="url(#paint1_linear)"/>
<path fill-rule="evenodd" clip-rule="evenodd" d="M71.109 21.5705C70.621 21.7887 70.3773 22.0954 70.3773 22.4906V28.9129C70.3792 29.0507 70.4132 29.1861 70.475 29.309C70.548 29.4716 70.6643 29.6113 70.8109 29.7128C70.9568 29.8144 71.1281 29.874 71.3062 29.8854H71.5382C71.5777 29.8895 71.6179 29.8835 71.6544 29.8677C71.8882 29.8215 72.0985 29.6939 72.2469 29.5074C72.396 29.3208 72.4739 29.0875 72.4677 28.8488V25.1173C72.4795 25.1173 72.7986 25.4356 73.4257 26.0721C73.8326 26.565 74.2198 26.8115 74.5878 26.8115C74.8123 26.8145 75.0318 26.7457 75.2149 26.6151C75.2304 26.6151 75.7276 26.1222 76.7079 25.1363V28.7231C76.6912 28.9507 76.7437 29.1781 76.8588 29.3751C76.9367 29.5216 77.0505 29.6458 77.1896 29.7355C77.3294 29.8253 77.4896 29.8777 77.6547 29.8877H77.8866C77.9961 29.8845 78.1031 29.8567 78.2002 29.8062C78.3666 29.7384 78.51 29.6257 78.6158 29.4807C78.7215 29.3356 78.7846 29.164 78.7989 28.9849V22.4556C78.7933 22.3537 78.771 22.2534 78.7333 22.1587C78.6591 21.9826 78.5372 21.831 78.3814 21.721C78.2255 21.611 78.0419 21.5472 77.8514 21.5368H77.706C77.5378 21.5454 77.3733 21.5912 77.2243 21.6707C77.1971 21.6746 76.3238 22.5499 74.6045 24.2968C73.2569 22.9381 72.5772 22.2588 72.5654 22.2585C72.1739 21.7774 71.8196 21.5368 71.5029 21.5368H71.3545C71.2722 21.5395 71.1906 21.5511 71.1108 21.5715L71.109 21.5705ZM82.7725 21.9306L79.9727 27.4737C79.7111 27.8907 79.5113 28.3438 79.3802 28.8186V28.947C79.3852 29.0478 79.4025 29.1476 79.4328 29.2438C79.5014 29.4229 79.6202 29.5785 79.7742 29.6922C79.9288 29.8059 80.1125 29.8729 80.3036 29.8854H80.4489C80.5837 29.8788 80.7161 29.845 80.8379 29.7859C80.9597 29.7269 81.068 29.6438 81.157 29.5417C81.2424 29.4177 82.0495 27.8147 83.5795 24.7324C83.5987 24.7476 84.292 26.1101 85.6588 28.8196C85.926 29.5303 86.2766 29.8856 86.7102 29.8854H86.8611C86.9433 29.8825 87.025 29.8708 87.1047 29.8504C87.5698 29.6369 87.8024 29.3532 87.8024 28.9993V28.6848C87.7442 28.5296 86.7219 26.4893 84.7354 22.5639C84.472 21.8768 84.1256 21.5333 83.6958 21.5335H83.5152C83.3699 21.5385 83.227 21.5768 83.0984 21.6454C82.9691 21.714 82.8578 21.811 82.7718 21.9292L82.7725 21.9306ZM89.1271 21.5705C88.6317 21.7725 88.3837 22.085 88.3837 22.5079V28.9479C88.3874 29.05 88.4097 29.1506 88.4493 29.2448C88.5167 29.4238 88.6342 29.5794 88.7876 29.693C88.9409 29.8067 89.124 29.8735 89.3145 29.8854H89.5458C89.5947 29.8842 89.6435 29.8783 89.6911 29.8677C90.2137 29.6661 90.4753 29.3381 90.4753 28.8838V26.747H91.7995C93.4031 28.2309 94.2819 29.0363 94.4366 29.1633C94.8819 29.6449 95.2399 29.8856 95.5114 29.8854H95.7434C95.8163 29.8813 95.8881 29.8696 95.9586 29.8504C96.1676 29.7837 96.3513 29.653 96.4824 29.4765C96.6135 29.2999 96.6865 29.0866 96.6902 28.8664C96.6834 28.6615 96.6216 28.4623 96.5102 28.29C96.2394 27.9913 95.6741 27.4594 94.8138 26.6943V26.6829C95.167 26.5914 95.4997 26.4355 95.7959 26.223C96.4694 25.6288 96.8071 24.9922 96.8083 24.3131V23.9695C96.7817 23.449 96.5975 22.9492 96.2796 22.5371C96.0458 22.2375 95.7489 21.9927 95.4112 21.8198C95.0729 21.6469 94.7013 21.55 94.3221 21.5358H89.3596C89.2811 21.5371 89.2032 21.5487 89.1271 21.5705ZM94.7149 23.6084V24.6915H90.4747V23.6084H94.7149ZM97.95 21.652C97.7898 21.7262 97.6525 21.8431 97.553 21.9898C97.454 22.1365 97.3965 22.3077 97.3872 22.4847V28.9361C97.3872 28.9795 97.3928 29.0226 97.4045 29.0645C97.4509 29.3012 97.5802 29.5136 97.7682 29.6639C97.9568 29.8142 98.1918 29.8927 98.4324 29.8854H98.4671C98.5462 29.884 98.6241 29.8722 98.6996 29.8504C98.9253 29.7961 99.1257 29.666 99.2673 29.4816C99.409 29.2973 99.4832 29.0699 99.4782 28.8373V27.2766L103.306 29.2622C104.054 29.6768 104.512 29.8841 104.683 29.8841H104.863C104.967 29.8807 105.07 29.8585 105.166 29.8186C105.345 29.755 105.501 29.6399 105.616 29.4878C105.731 29.3356 105.798 29.153 105.81 28.9627V28.7355C105.784 28.4652 105.652 28.2161 105.444 28.0426C105.297 27.9457 103.806 27.1694 100.972 25.7137V25.7019C100.991 25.7019 102.356 24.9954 105.067 23.5826C105.562 23.346 105.81 23.0452 105.81 22.6801V22.4529C105.809 22.4021 105.803 22.3516 105.793 22.3017C105.741 22.0853 105.618 21.8924 105.444 21.7533C105.271 21.6142 105.057 21.5368 104.834 21.5332H104.718C104.639 21.5339 104.561 21.5456 104.486 21.5679C104.207 21.6883 102.538 22.5462 99.4788 24.1416V22.5813C99.4776 22.4648 99.4603 22.3491 99.4263 22.2376C99.3589 22.0355 99.2302 21.8594 99.0583 21.7333C98.887 21.6073 98.6804 21.5374 98.4677 21.5332H98.3965C98.2407 21.5354 98.0873 21.5753 97.9494 21.6494L97.95 21.652ZM107.134 21.5705C106.638 21.7725 106.39 22.085 106.39 22.5079V28.9479C106.394 29.05 106.416 29.1506 106.456 29.2448C106.523 29.4238 106.641 29.5794 106.794 29.693C106.947 29.8066 107.13 29.8734 107.321 29.8854H113.902C114.011 29.8822 114.119 29.8543 114.215 29.8039C114.382 29.7361 114.525 29.6234 114.631 29.4784C114.737 29.3333 114.801 29.1617 114.814 28.9826V28.7034C114.775 28.4391 114.636 28.1998 114.427 28.0343C114.217 27.8688 113.953 27.7895 113.687 27.8125H108.481V26.747H112.757C112.835 26.7462 112.914 26.7344 112.988 26.712C113.484 26.5102 113.732 26.1977 113.732 25.7746V25.6289C113.729 25.5138 113.702 25.4006 113.651 25.297C113.563 25.0948 113.413 24.9257 113.223 24.814C113.034 24.7023 112.813 24.6537 112.594 24.6751H108.481V23.6094H113.802C113.934 23.6071 114.064 23.5795 114.185 23.5279C114.358 23.4622 114.509 23.3485 114.621 23.2001C114.732 23.0517 114.798 22.8746 114.813 22.6896V22.4566C114.799 22.2121 114.694 21.9817 114.518 21.8113C114.343 21.6409 114.11 21.5429 113.865 21.5368H107.367C107.287 21.538 107.21 21.5497 107.134 21.5715V21.5705ZM116.137 21.5705C115.642 21.7725 115.394 22.085 115.394 22.5079V22.6536C115.398 22.7263 115.41 22.7985 115.428 22.869C115.494 23.0886 115.631 23.2802 115.817 23.414C116.003 23.5477 116.228 23.616 116.457 23.6084H118.559V28.8838C118.562 29.014 118.59 29.1424 118.641 29.2622C118.709 29.4352 118.825 29.5854 118.976 29.6954C119.126 29.8054 119.304 29.8707 119.49 29.8841H119.722L119.89 29.8664C120.398 29.6608 120.651 29.3426 120.651 28.9116V23.6084H122.807C122.939 23.6061 123.069 23.5785 123.191 23.5269C123.364 23.4612 123.515 23.3476 123.625 23.1991C123.737 23.0507 123.803 22.8736 123.818 22.6886V22.4556C123.804 22.2111 123.699 21.9807 123.523 21.8103C123.348 21.6399 123.115 21.5419 122.871 21.5358H116.371C116.293 21.5371 116.214 21.5487 116.139 21.5705H116.137ZM125.163 21.5705C124.653 21.7725 124.397 22.085 124.397 22.5079V28.9479C124.401 29.0505 124.424 29.1513 124.466 29.2448C124.538 29.4257 124.659 29.5823 124.817 29.6958C124.975 29.8094 125.162 29.8752 125.355 29.8854H125.593C125.644 29.884 125.695 29.8781 125.745 29.8677C126.279 29.6661 126.546 29.3381 126.546 28.8838V22.5895C126.55 22.4311 126.517 22.274 126.448 22.1312C126.368 21.9604 126.243 21.8147 126.086 21.71C125.93 21.6054 125.747 21.5457 125.559 21.5374H125.402C125.322 21.5384 125.242 21.5501 125.164 21.5721L125.163 21.5705ZM127.87 21.5705C127.374 21.7725 127.127 22.085 127.127 22.5079V28.9479C127.131 29.0499 127.152 29.1505 127.191 29.2448C127.258 29.4238 127.376 29.5794 127.529 29.693C127.683 29.8066 127.865 29.8734 128.056 29.8854H128.288C128.337 29.8842 128.386 29.8782 128.434 29.8677C128.956 29.6661 129.217 29.3381 129.217 28.8838V25.1167L133.295 29.11C133.737 29.626 134.107 29.8842 134.406 29.8844H134.638C134.748 29.8812 134.855 29.8534 134.952 29.8029C135.117 29.7352 135.262 29.6224 135.367 29.4774C135.473 29.3323 135.536 29.1607 135.55 28.9816V22.4556C135.536 22.211 135.432 21.9804 135.256 21.81C135.08 21.6395 134.847 21.5416 134.603 21.5358H134.458C134.361 21.5375 134.265 21.5532 134.173 21.5823C133.954 21.6583 133.765 21.8041 133.636 21.9975C133.507 22.191 133.445 22.4214 133.459 22.6536V26.2695C132.548 25.3883 131.117 23.9852 129.166 22.0598C129.06 21.9127 128.924 21.7899 128.767 21.6996C128.609 21.6093 128.434 21.5536 128.254 21.5361H128.103C128.024 21.5374 127.946 21.549 127.871 21.5708L127.87 21.5705ZM137.374 22.7528C136.608 23.4902 136.161 24.5002 136.131 25.5648V25.8734C136.144 26.4713 136.297 27.0578 136.578 27.5853C136.805 28.0386 137.114 28.4455 137.49 28.7849C138.225 29.4608 139.177 29.8511 140.174 29.8854H143.642C143.751 29.8822 143.858 29.8543 143.955 29.8039C144.121 29.7362 144.265 29.6234 144.371 29.4784C144.477 29.3334 144.54 29.1617 144.553 28.9826V26.495C144.553 26.446 144.546 26.3972 144.536 26.3493C144.482 26.1304 144.357 25.9358 144.18 25.7957C144.003 25.6556 143.786 25.578 143.56 25.5749H143.473C143.348 25.5744 143.225 25.6044 143.114 25.6623C142.902 25.7515 142.724 25.9066 142.607 26.1048C142.49 26.303 142.439 26.5336 142.464 26.7627V27.8102H140.61C140.287 27.8041 139.966 27.743 139.663 27.6295C138.703 27.1835 138.223 26.5489 138.223 25.7258C138.224 25.4293 138.291 25.1368 138.42 24.8699C138.653 24.4644 138.993 24.1315 139.403 23.9083C139.813 23.6852 140.277 23.5806 140.744 23.6061H143.543C143.675 23.6038 143.806 23.5761 143.927 23.5246C144.1 23.4589 144.251 23.3452 144.362 23.1967C144.473 23.0483 144.54 22.8713 144.554 22.6863V22.4533C144.544 22.3464 144.522 22.2409 144.488 22.1391C144.409 21.9684 144.285 21.8223 144.13 21.7159C143.975 21.6094 143.794 21.5464 143.606 21.5335H140.277C139.189 21.5506 138.15 21.9863 137.374 22.7505L137.374 22.7528ZM71.1213 33.5215C70.6259 33.7231 70.3779 34.0357 70.3779 34.459V40.8986C70.3817 41.0007 70.4039 41.1013 70.4435 41.1955C70.5109 41.3745 70.6284 41.5301 70.7818 41.6437C70.9352 41.7574 71.1182 41.8242 71.3087 41.8361H71.5413C71.5901 41.8349 71.639 41.829 71.6866 41.8184C72.2092 41.6168 72.4702 41.2888 72.4702 40.8345V38.6978H76.7103V40.7179C76.7091 40.8683 76.7326 41.0179 76.7802 41.1605C76.8421 41.3482 76.9589 41.5128 77.1154 41.6332C77.2713 41.7537 77.4605 41.8244 77.6572 41.8361H77.8866C77.9961 41.8329 78.1031 41.8051 78.2002 41.7546C78.3666 41.6869 78.51 41.5742 78.6158 41.4292C78.7215 41.2843 78.7846 41.1127 78.7989 40.9337V34.4079C78.7921 34.3062 78.7698 34.2063 78.7333 34.111C78.6591 33.935 78.5372 33.7833 78.3814 33.6734C78.2255 33.5634 78.0419 33.4996 77.8514 33.4891H77.706C77.6442 33.4906 77.5817 33.4964 77.5205 33.5065C77.2775 33.5647 77.0628 33.7069 76.9138 33.9082C76.7654 34.1095 76.6918 34.357 76.7072 34.6069V36.6275H72.4683V34.5431C72.4733 34.3841 72.4393 34.2262 72.3706 34.0829C72.2945 33.9138 72.1733 33.769 72.0206 33.6643C71.8678 33.5596 71.6897 33.499 71.5048 33.4891H71.3545C71.2759 33.4903 71.198 33.5021 71.1219 33.5241L71.1213 33.5215ZM80.7872 33.8125C79.8509 34.2979 79.3827 34.8839 79.3827 35.5709V39.7514C79.3963 39.9841 79.4563 40.2116 79.5589 40.4207C79.6616 40.6297 79.8051 40.816 79.9807 40.9684C80.6493 41.5477 81.5083 41.857 82.3915 41.8361H84.8257C85.5994 41.8374 86.3552 41.6017 86.9922 41.1605C87.534 40.7022 87.8055 40.2597 87.8055 39.8329V35.491C87.769 35.1172 87.6119 34.7655 87.3577 34.4894C87.0318 34.165 86.644 33.9092 86.2179 33.7372C85.7918 33.5653 85.3353 33.4806 84.8758 33.4881H82.2795C81.7656 33.5022 81.2591 33.6132 80.7866 33.8155L80.7872 33.8125ZM85.7837 35.5535V39.7691H81.4044V35.5552H85.7837V35.5535ZM89.1302 33.5215C88.6342 33.7231 88.3862 34.0357 88.3862 34.459V37.7777C88.3961 38.3551 88.5377 38.9225 88.7987 39.4372C88.8915 39.7632 89.2403 40.2289 89.8439 40.8345C90.5483 41.4424 91.4364 41.7952 92.3647 41.8361H92.8125C93.0926 41.8311 93.3716 41.7919 93.6431 41.7196C94.4922 41.4945 95.2548 41.02 95.8324 40.3569C96.4218 39.6538 96.7651 38.7763 96.8083 37.8592V34.4079C96.8015 34.3062 96.7793 34.2063 96.7434 34.111C96.6692 33.9349 96.5474 33.7832 96.3915 33.6732C96.2357 33.5632 96.052 33.4995 95.8615 33.4891H95.7162C95.603 33.4922 95.491 33.5138 95.3847 33.5529C95.1713 33.6416 94.9913 33.7961 94.8713 33.994C94.7514 34.1919 94.6976 34.4229 94.7167 34.6537V37.3843C94.7167 37.8589 94.5862 38.3243 94.3395 38.7295C93.8787 39.4204 93.319 39.7658 92.661 39.7658H92.5156C92.2379 39.7582 91.9652 39.6866 91.7197 39.5563C91.3202 39.325 90.9918 38.9869 90.7722 38.5798C90.5533 38.1726 90.4506 37.7124 90.4766 37.2504V34.5431C90.4815 34.3841 90.4475 34.2263 90.3789 34.0829C90.3028 33.9139 90.1816 33.7691 90.0294 33.6644C89.8767 33.5597 89.6979 33.499 89.5136 33.4891H89.3621C89.2836 33.4903 89.2056 33.5021 89.1302 33.5241V33.5215ZM98.7954 33.8125C97.8591 34.3015 97.3909 34.8877 97.3909 35.5709V36.6249C97.4045 36.8575 97.4639 37.0851 97.5672 37.2941C97.6699 37.5031 97.8133 37.6894 97.989 37.8418C98.6526 38.4218 99.5079 38.7331 100.388 38.7151H103.728V39.7625H98.5141C98.3842 39.7605 98.2549 39.7782 98.1306 39.8149C97.6346 40.0167 97.3872 40.3292 97.3872 40.7523V40.9795C97.3909 41.0889 97.4188 41.1961 97.4682 41.2937C97.548 41.4485 97.6668 41.5797 97.8121 41.6747C97.9581 41.7697 98.1257 41.825 98.2988 41.8354H102.998C103.65 41.8204 104.284 41.6271 104.833 41.2764C105.484 40.8066 105.809 40.3291 105.809 39.844V38.5979C105.784 38.3173 105.681 38.0492 105.513 37.8235C104.886 37.0124 103.931 36.6069 102.65 36.6069H99.49V35.5594H104.798C104.933 35.5527 105.067 35.5252 105.193 35.4779C105.363 35.4086 105.511 35.2937 105.619 35.1456C105.728 34.9977 105.793 34.8224 105.809 34.6393V34.3248C105.808 34.2759 105.802 34.2272 105.791 34.1794C105.728 33.9792 105.602 33.8043 105.433 33.6798C105.264 33.5553 105.06 33.4877 104.85 33.4865H100.278C99.7664 33.5011 99.2618 33.6121 98.7911 33.8138L98.7954 33.8125ZM107.137 33.5215C106.641 33.7231 106.393 34.0357 106.393 34.459V40.8986C106.397 41.0007 106.419 41.1013 106.458 41.1955C106.526 41.3745 106.643 41.5301 106.796 41.6437C106.95 41.7573 107.133 41.8241 107.323 41.8361H113.905C114.014 41.8329 114.121 41.8051 114.219 41.7546C114.384 41.6869 114.528 41.5742 114.634 41.4292C114.739 41.2843 114.803 41.1127 114.817 40.9337V40.6541C114.777 40.3898 114.638 40.1505 114.429 39.9851C114.22 39.8195 113.956 39.7402 113.69 39.7632H108.481V38.6978H112.757C112.835 38.697 112.914 38.6852 112.988 38.6627C113.484 38.4607 113.732 38.1482 113.732 37.7253V37.5797C113.729 37.4645 113.702 37.3514 113.651 37.2478C113.563 37.0455 113.413 36.8764 113.223 36.7647C113.034 36.6531 112.813 36.6044 112.594 36.6259H108.481V35.5604H113.802C113.934 35.558 114.064 35.5304 114.185 35.4789C114.358 35.4132 114.509 35.2994 114.621 35.1509C114.732 35.0024 114.798 34.8254 114.813 34.6403V34.4073C114.799 34.1628 114.694 33.9325 114.518 33.762C114.343 33.5916 114.11 33.4936 113.865 33.4875H107.367C107.287 33.4887 107.21 33.5005 107.134 33.5225L107.137 33.5215Z" fill="white"/>
<defs>
<linearGradient id="paint0_linear" x1="27.7706" y1="0.552734" x2="27.7706" y2="62.4484" gradientUnits="userSpaceOnUse">
<stop stop-color="#398200"/>
<stop offset="1" stop-color="#005703"/>
</linearGradient>
<linearGradient id="paint1_linear" x1="27.7707" y1="0.552451" x2="27.7707" y2="62.4481" gradientUnits="userSpaceOnUse">
<stop stop-color="#398200"/>
<stop offset="1" stop-color="#005703"/>
</linearGradient>
</defs>
</svg>
