<svg width="36" height="66" viewBox="0 0 36 66" fill="none" xmlns="http://www.w3.org/2000/svg">
<path d="M10.9993 44.4374C11.5336 44.9717 11.8654 45.7119 11.8654 46.5288C11.8654 48.1626 10.5402 49.4863 8.90786 49.4863H3.84054H3.17105C2.35416 49.4863 1.6156 49.1546 1.07963 48.6202C0.54365 48.0859 0.213543 47.3457 0.213543 46.5288C0.213543 44.895 1.53726 43.5713 3.17105 43.5713H8.90786C9.72326 43.5714 10.4633 43.903 10.9993 44.4374Z" fill="#FFDFCF"/>
<path d="M9.23285 47.5526H4.16553H3.49604C2.67915 47.5526 1.94059 47.2209 1.40462 46.6865C0.981068 46.2642 0.688786 45.7109 0.583684 45.0952C0.348213 45.5197 0.213808 46.009 0.213808 46.5288C0.213808 47.3457 0.543915 48.0859 1.07989 48.6202C1.61587 49.1546 2.35442 49.4863 3.17132 49.4863H3.8408H8.90813C10.5404 49.4863 11.8656 48.1626 11.8656 46.5288C11.8656 46.3575 11.8478 46.1905 11.8199 46.0269C11.315 46.9365 10.3458 47.5526 9.23285 47.5526Z" fill="#FFCEBF"/>
<path d="M10.8412 38.4873C11.3784 39.0244 11.7118 39.7684 11.7118 40.5895C11.7118 42.2316 10.3798 43.5622 8.73902 43.5622H3.64568H2.97276C2.15168 43.5622 1.40924 43.2288 0.870568 42.6917C0.331901 42.1545 0 41.4105 0 40.5895C0 38.9473 1.33045 37.6167 2.97276 37.6167H8.73917C9.55861 37.6167 10.3025 37.9501 10.8412 38.4873Z" fill="#FFDFCF"/>
<path d="M9.07421 41.8582H3.98087H3.30795C2.48687 41.8582 1.74443 41.5248 1.20576 40.9877C0.73437 40.5176 0.421455 39.887 0.35059 39.187C0.127379 39.6043 0 40.0827 0 40.5891C0 41.4102 0.331901 42.1541 0.870568 42.6913C1.40924 43.2284 2.15168 43.5618 2.97276 43.5618H3.64568H8.73902C10.3797 43.5618 11.7118 42.2314 11.7118 40.5891C11.7118 40.4864 11.7065 40.385 11.6964 40.285C11.1955 41.2212 10.2091 41.8582 9.07421 41.8582Z" fill="#FFCEBF"/>
<path d="M22.9441 59.9738C24.0444 59.9738 25.1269 59.6972 26.0912 59.168L31.4689 56.2197H34.0117C34.8087 56.2197 35.4547 55.5737 35.4547 54.7767V40.0211C35.4547 39.2241 34.8087 38.5781 34.0117 38.5781H9.27364V59.9738H22.9441Z" fill="#FFDFCF"/>
<path d="M34.0117 53.4723H31.4689L26.0912 56.4206C25.1269 56.9498 24.0444 57.2264 22.9441 57.2264H9.27364V59.9738H22.9441C24.0444 59.9738 25.1269 59.6973 26.0912 59.168L31.4689 56.2198H34.0117C34.8087 56.2198 35.4547 55.5738 35.4547 54.7768V52.0293C35.4547 52.8263 34.8087 53.4723 34.0117 53.4723Z" fill="#FFCEBF"/>
<path d="M27.5433 38.5781H9.27364V52.3662C9.35423 52.3706 9.43511 52.3745 9.51659 52.3755L9.59194 52.3759C11.1879 52.3759 12.6879 51.7548 13.8155 50.6272C14.4102 50.0326 14.8639 49.3346 15.1601 48.5734C16.6087 49.2595 18.2123 49.6355 19.8673 49.6355C20.3059 49.6355 20.752 49.6088 21.1979 49.5555L23.1658 49.3177L23.36 49.2671C23.3756 49.2631 23.3911 49.2591 23.4067 49.2549C25.8581 48.6065 27.5433 46.3551 27.5433 43.8192V38.5781Z" fill="#FFCEBF"/>
<path d="M15.7556 65.3472H12.9467C12.1632 65.3472 11.5281 64.7121 11.5281 63.9285V26.8752V18.5303H17.1741V63.9285C17.1741 64.7121 16.539 65.3472 15.7556 65.3472Z" fill="#BAAFB9"/>
<path d="M13.5914 48.6638C13.0031 48.0772 12.2974 47.6518 11.5284 47.4072V62.9265C13.5938 62.2661 15.0938 60.3287 15.0938 58.0469C15.0938 57.0038 14.7834 56.009 14.2067 55.1652C14.766 54.3446 15.0938 53.3538 15.0938 52.288C15.0938 50.9197 14.5611 49.6335 13.5914 48.6638Z" fill="#9B8E99"/>
<path d="M17.1741 38.5781H11.5281V52.0553C12.3798 51.7645 13.1607 51.2819 13.8154 50.6272C14.134 50.3086 14.412 49.9604 14.6472 49.5887C14.9912 49.0448 15.66 48.8155 16.268 49.0266C16.5654 49.1297 16.8677 49.2205 17.1741 49.2982V38.5781Z" fill="#9B8E99"/>
<path d="M12.0077 50.2514C12.528 50.7717 12.851 51.4923 12.851 52.2877C12.851 53.8784 11.5607 55.1671 9.97149 55.1671H5.03782H4.38598C3.59061 55.1671 2.87149 54.8442 2.34971 54.3239C1.82794 53.8036 1.50651 53.083 1.50651 52.2877C1.50651 50.6969 2.79524 49.4082 4.38598 49.4082H9.97149C10.7654 49.4082 11.486 49.7311 12.0077 50.2514Z" fill="#FFDFCF"/>
<path d="M12.0079 56.0102C12.5282 56.5305 12.8512 57.2511 12.8512 58.0465C12.8512 59.6372 11.5609 60.9259 9.97168 60.9259H5.03801C4.24265 60.9259 3.52203 60.603 3.00026 60.0827C2.47998 59.5624 2.15705 58.8418 2.15705 58.0465C2.15705 56.4557 3.44728 55.167 5.03801 55.167H9.97168C10.7656 55.167 11.4862 55.4899 12.0079 56.0102Z" fill="#FFDFCF"/>
<path d="M10.2967 53.3122H5.36299H4.71115C3.91578 53.3122 3.19666 52.9892 2.67489 52.469C2.25493 52.0502 1.96773 51.4981 1.87055 50.8853C1.63912 51.3 1.50651 51.7793 1.50651 52.2881C1.50651 53.0834 1.82794 53.804 2.34971 54.3243C2.87149 54.8446 3.59061 55.1675 4.38598 55.1675H5.03782H9.97149C11.5607 55.1675 12.851 53.8788 12.851 52.2881C12.851 52.1329 12.838 51.9765 12.8143 51.8279C12.322 52.71 11.3777 53.3122 10.2967 53.3122Z" fill="#FFCEBF"/>
<path d="M10.2969 59.0711H5.36318C4.56782 59.0711 3.84721 58.7482 3.32543 58.2279C2.90667 57.8091 2.61827 57.2583 2.52064 56.6455C2.28921 57.0601 2.15705 57.5384 2.15705 58.047C2.15705 58.8423 2.47998 59.563 3.00026 60.0832C3.52203 60.6035 4.24265 60.9264 5.03801 60.9264H9.97168C11.5609 60.9264 12.8512 59.6377 12.8512 58.047C12.8512 57.8918 12.8381 57.7353 12.8145 57.5868C12.3222 58.4687 11.3779 59.0711 10.2969 59.0711Z" fill="#FFCEBF"/>
<path d="M8.90772 43.5713H3.61883V46.3273C3.61883 47.4819 3.94475 48.5645 4.50674 49.4862H8.90772C10.54 49.4862 11.8652 48.1624 11.8652 46.5286C11.8652 45.7118 11.5335 44.9716 10.9991 44.4372C10.4632 43.9029 9.72312 43.5713 8.90772 43.5713Z" fill="#FFCEBF"/>
<path d="M8.73878 37.6162H3.61883V43.5616H3.64544H8.73878C10.3794 43.5616 11.7115 42.2311 11.7115 40.5888C11.7115 39.7677 11.3781 39.0238 10.841 38.4866C10.3023 37.9496 9.55837 37.6162 8.73878 37.6162Z" fill="#FFCEBF"/>
<path d="M28.9106 38.5779L28.495 40.3458C27.8025 43.2915 25.5361 45.6119 22.6075 46.3731L20.8388 46.5869C20.5129 46.6258 20.19 46.6452 19.8671 46.6452C16.7708 46.6452 13.9093 44.8572 12.5742 41.9986V46.403C12.5742 47.2268 12.2408 47.9728 11.7011 48.5126C11.1532 49.0605 10.3923 49.3958 9.5536 49.3854C7.90859 49.3649 6.60895 47.9719 6.60895 46.3268V35.9317C6.60895 33.5677 8.52531 31.6514 10.8893 31.6514H16.1997C17.3853 31.6514 18.5454 31.9907 19.5441 32.6306L28.8105 38.5779H28.9106Z" fill="#FFDFCF"/>
<path d="M14.281 27.1546C21.7796 27.1546 27.8583 21.0758 27.8583 13.5773C27.8583 6.07877 21.7796 0 14.281 0C6.7825 0 0.703732 6.07877 0.703732 13.5773C0.703732 21.0758 6.7825 27.1546 14.281 27.1546Z" fill="#F58A97"/>
<path d="M6.23584 13.5775C6.23584 7.02674 10.8774 1.55919 17.0495 0.281667C16.1564 0.0968792 15.2292 0 14.2813 0C6.78273 0 0.703997 6.07873 0.703997 13.5773C0.703997 21.0759 6.78273 27.1546 14.2813 27.1546C15.2292 27.1546 16.1574 27.0577 17.0504 26.8729C10.8783 25.5957 6.23584 20.1282 6.23584 13.5775Z" fill="#F07281"/>
<path d="M17.9979 13.5774L21.6751 9.90012C22.0058 9.56942 22.0058 9.03329 21.6751 8.70259L19.1561 6.18358C18.8254 5.85287 18.2893 5.85287 17.9585 6.18358L14.2813 9.8608L10.6041 6.18358C10.2734 5.85287 9.73726 5.85287 9.40655 6.18358L6.88754 8.70259C6.55684 9.03329 6.55684 9.56942 6.88754 9.90012L10.5648 13.5774L6.88754 17.2546C6.55684 17.5853 6.55684 18.1214 6.88754 18.4523L9.40655 20.9713C9.73726 21.302 10.2734 21.302 10.6041 20.9713L14.2813 17.294L17.9585 20.9713C18.2893 21.302 18.8254 21.302 19.1561 20.9713L21.6751 18.4523C22.0058 18.1216 22.0058 17.5853 21.6751 17.2546L17.9979 13.5774Z" fill="#F9F7F8"/>
</svg>
